<svg
  xmlns="http://www.w3.org/2000/svg"
  xmlns:xlink="http://www.w3.org/1999/xlink"
  width="100"
  zoomAndPan="magnify"
  viewBox="0 0 75 37.5"
  height="50"
  preserveAspectRatio="xMidYMid meet"
  version="1.0"
><defs><filter x="0%" y="0%" width="100%" height="100%" id="2a96740471"><feColorMatrix
        values="0 0 0 0 1 0 0 0 0 1 0 0 0 0 1 0 0 0 1 0"
        color-interpolation-filters="sRGB"
      /></filter><clipPath id="1d7bce9eef"><path
        d="M 1.226562 1 L 74.5 1 L 74.5 36.476562 L 1.226562 36.476562 Z M 1.226562 1 "
        clip-rule="nonzero"
      /></clipPath><mask id="60b47cecb4"><g filter="url(#2a96740471)"><rect
          x="-7.5"
          width="90"
          fill="#000000"
          y="-3.75"
          height="45"
          fill-opacity="0.8"
        /></g></mask><clipPath id="b6c0fcc974"><path
        d="M 1.046875 0.699219 L 12.355469 0.699219 L 12.355469 30.304688 L 1.046875 30.304688 Z M 1.046875 0.699219 "
        clip-rule="nonzero"
      /></clipPath><clipPath id="e2c61a6567"><rect x="0" width="13" y="0" height="31" /></clipPath><mask
      id="bcc3b41711"
    ><g filter="url(#2a96740471)"><rect
          x="-7.5"
          width="90"
          fill="#000000"
          y="-3.75"
          height="45"
          fill-opacity="0.6"
        /></g></mask><clipPath id="d78a5feb2c"><path
        d="M 0.363281 0.699219 L 11.671875 0.699219 L 11.671875 30.304688 L 0.363281 30.304688 Z M 0.363281 0.699219 "
        clip-rule="nonzero"
      /></clipPath><clipPath id="4bd4425fb3"><rect x="0" width="12" y="0" height="31" /></clipPath><mask
      id="93971b3aef"
    ><g filter="url(#2a96740471)"><rect
          x="-7.5"
          width="90"
          fill="#000000"
          y="-3.75"
          height="45"
          fill-opacity="0.4"
        /></g></mask><clipPath id="160ac30eca"><path
        d="M 0.683594 0.699219 L 11.992188 0.699219 L 11.992188 30.304688 L 0.683594 30.304688 Z M 0.683594 0.699219 "
        clip-rule="nonzero"
      /></clipPath><clipPath id="ba214e9a03"><rect x="0" width="13" y="0" height="31" /></clipPath><mask
      id="147a4ea703"
    ><g filter="url(#2a96740471)"><rect
          x="-7.5"
          width="90"
          fill="#000000"
          y="-3.75"
          height="45"
          fill-opacity="0.2"
        /></g></mask><clipPath id="a7fa7c5cad"><path
        d="M 1 0.699219 L 12.308594 0.699219 L 12.308594 30.304688 L 1 30.304688 Z M 1 0.699219 "
        clip-rule="nonzero"
      /></clipPath><clipPath id="2b3390c047"><rect x="0" width="13" y="0" height="31" /></clipPath><clipPath
      id="96362c361a"
    ><path
        d="M 4.195312 3.699219 L 8.714844 3.699219 L 8.714844 33.304688 L 4.195312 33.304688 Z M 4.195312 3.699219 "
        clip-rule="nonzero"
      /></clipPath><clipPath id="9a7ca6873e"><path
        d="M 19.023438 6 L 33 6 L 33 30 L 19.023438 30 Z M 19.023438 6 "
        clip-rule="nonzero"
      /></clipPath><clipPath id="09d734f567"><path
        d="M 30 7 L 44.1875 7 L 44.1875 32 L 30 32 Z M 30 7 "
        clip-rule="nonzero"
      /></clipPath><clipPath id="03159d348b"><path
        d="M 23 3.960938 L 40 3.960938 L 40 33.566406 L 23 33.566406 Z M 23 3.960938 "
        clip-rule="nonzero"
      /></clipPath></defs><g clip-path="url(#1d7bce9eef)"><path
      fill="#545454"
      d="M 72.625 27.023438 L 67.003906 27.023438 C 66.738281 27.027344 66.484375 26.972656 66.242188 26.867188 C 65.996094 26.757812 65.785156 26.609375 65.609375 26.410156 C 65.429688 26.214844 65.296875 25.988281 65.214844 25.738281 C 65.132812 25.484375 65.105469 25.226562 65.128906 24.964844 L 65.128906 12.558594 C 65.105469 12.292969 65.132812 12.035156 65.214844 11.785156 C 65.296875 11.53125 65.429688 11.308594 65.609375 11.109375 C 65.785156 10.914062 65.996094 10.761719 66.242188 10.65625 C 66.484375 10.550781 66.738281 10.496094 67.003906 10.496094 L 72.625 10.496094 C 72.890625 10.496094 73.144531 10.550781 73.386719 10.65625 C 73.632812 10.761719 73.84375 10.914062 74.019531 11.109375 C 74.199219 11.308594 74.332031 11.53125 74.414062 11.785156 C 74.496094 12.035156 74.527344 12.292969 74.5 12.558594 L 74.5 24.964844 C 74.527344 25.226562 74.496094 25.484375 74.414062 25.738281 C 74.332031 25.988281 74.199219 26.214844 74.019531 26.410156 C 73.84375 26.609375 73.632812 26.757812 73.386719 26.867188 C 73.144531 26.972656 72.890625 27.027344 72.625 27.023438 Z M 4.550781 36.394531 L 58.308594 36.394531 C 58.722656 36.390625 59.121094 36.308594 59.5 36.148438 C 59.878906 35.984375 60.214844 35.757812 60.503906 35.460938 C 60.792969 35.164062 61.011719 34.824219 61.164062 34.441406 C 61.316406 34.058594 61.390625 33.660156 61.382812 33.246094 L 61.382812 4.277344 C 61.382812 3.867188 61.304688 3.46875 61.144531 3.089844 C 60.988281 2.710938 60.761719 2.375 60.46875 2.085938 C 60.179688 1.792969 59.84375 1.570312 59.460938 1.414062 C 59.082031 1.257812 58.683594 1.183594 58.273438 1.183594 L 4.496094 1.183594 C 4.085938 1.1875 3.695312 1.269531 3.316406 1.425781 C 2.941406 1.585938 2.609375 1.808594 2.320312 2.097656 C 2.035156 2.386719 1.8125 2.71875 1.65625 3.097656 C 1.5 3.476562 1.421875 3.867188 1.421875 4.277344 L 1.421875 33.246094 C 1.421875 33.65625 1.5 34.050781 1.660156 34.433594 C 1.816406 34.8125 2.042969 35.148438 2.335938 35.4375 C 2.625 35.726562 2.964844 35.953125 3.34375 36.105469 C 3.726562 36.261719 4.121094 36.339844 4.53125 36.335938 Z M 59.339844 4.277344 L 59.339844 33.246094 C 59.339844 33.382812 59.3125 33.511719 59.261719 33.640625 C 59.210938 33.765625 59.136719 33.878906 59.039062 33.972656 C 58.941406 34.070312 58.832031 34.144531 58.703125 34.199219 C 58.578125 34.25 58.445312 34.277344 58.308594 34.277344 L 4.53125 34.277344 C 4.394531 34.277344 4.265625 34.25 4.140625 34.199219 C 4.011719 34.144531 3.902344 34.070312 3.804688 33.972656 C 3.707031 33.878906 3.632812 33.765625 3.582031 33.640625 C 3.527344 33.511719 3.503906 33.382812 3.503906 33.246094 L 3.503906 4.277344 C 3.503906 4.140625 3.527344 4.007812 3.582031 3.882812 C 3.632812 3.757812 3.707031 3.644531 3.804688 3.546875 C 3.902344 3.453125 4.011719 3.378906 4.140625 3.324219 C 4.265625 3.273438 4.394531 3.246094 4.53125 3.246094 L 58.308594 3.246094 C 58.445312 3.246094 58.578125 3.273438 58.703125 3.324219 C 58.832031 3.378906 58.941406 3.453125 59.039062 3.546875 C 59.136719 3.644531 59.210938 3.757812 59.261719 3.882812 C 59.3125 4.007812 59.339844 4.140625 59.339844 4.277344 Z M 59.339844 4.277344 "
      fill-opacity="1"
      fill-rule="nonzero"
    /></g><g mask="url(#60b47cecb4)"><g transform="matrix(1, 0, 0, 1, 9, 3)"><g clip-path="url(#e2c61a6567)"><g
          clip-path="url(#b6c0fcc974)"
        ><path
            fill="#74ef06"
            d="M 1.046875 0.699219 L 12.355469 0.699219 L 12.355469 30.296875 L 1.046875 30.296875 Z M 1.046875 0.699219 "
            fill-opacity="1"
            fill-rule="nonzero"
          /></g></g></g></g><g mask="url(#bcc3b41711)"><g transform="matrix(1, 0, 0, 1, 22, 3)"><g
        clip-path="url(#4bd4425fb3)"
      ><g clip-path="url(#d78a5feb2c)"><path
            fill="#74ef06"
            d="M 0.363281 0.699219 L 11.671875 0.699219 L 11.671875 30.296875 L 0.363281 30.296875 Z M 0.363281 0.699219 "
            fill-opacity="1"
            fill-rule="nonzero"
          /></g></g></g></g><g mask="url(#93971b3aef)"><g transform="matrix(1, 0, 0, 1, 34, 3)"><g
        clip-path="url(#ba214e9a03)"
      ><g clip-path="url(#160ac30eca)"><path
            fill="#74ef06"
            d="M 0.683594 0.699219 L 11.992188 0.699219 L 11.992188 30.296875 L 0.683594 30.296875 Z M 0.683594 0.699219 "
            fill-opacity="1"
            fill-rule="nonzero"
          /></g></g></g></g><g mask="url(#147a4ea703)"><g transform="matrix(1, 0, 0, 1, 46, 3)"><g
        clip-path="url(#2b3390c047)"
      ><g clip-path="url(#a7fa7c5cad)"><path
            fill="#74ef06"
            d="M 1 0.699219 L 12.308594 0.699219 L 12.308594 30.296875 L 1 30.296875 Z M 1 0.699219 "
            fill-opacity="1"
            fill-rule="nonzero"
          /></g></g></g></g><g clip-path="url(#96362c361a)"><path
      fill="#74ef06"
      d="M 4.195312 3.699219 L 8.714844 3.699219 L 8.714844 33.3125 L 4.195312 33.3125 Z M 4.195312 3.699219 "
      fill-opacity="1"
      fill-rule="nonzero"
    /></g><g clip-path="url(#9a7ca6873e)"><path
      fill="#ef8406"
      d="M 21.121094 18.632812 C 21.121094 13.066406 25.488281 8.511719 30.96875 8.183594 L 32.558594 6.105469 C 32.242188 6.082031 31.925781 6.058594 31.597656 6.058594 C 24.65625 6.058594 19.027344 11.6875 19.027344 18.632812 C 19.027344 23.230469 21.503906 27.242188 25.191406 29.433594 L 25.738281 27.308594 C 22.953125 25.425781 21.121094 22.238281 21.121094 18.632812 Z M 21.121094 18.632812 "
      fill-opacity="1"
      fill-rule="nonzero"
    /></g><g clip-path="url(#09d734f567)"><path
      fill="#ef8406"
      d="M 37.964844 7.800781 L 37.386719 9.90625 C 40.210938 11.785156 42.078125 14.992188 42.078125 18.632812 C 42.078125 24.195312 37.710938 28.75 32.226562 29.078125 L 30.636719 31.15625 C 30.957031 31.179688 31.273438 31.207031 31.597656 31.207031 C 38.542969 31.207031 44.171875 25.574219 44.171875 18.632812 C 44.171875 14.011719 41.675781 9.988281 37.964844 7.800781 Z M 37.964844 7.800781 "
      fill-opacity="1"
      fill-rule="nonzero"
    /></g><g clip-path="url(#03159d348b)"><path
      fill="#ef8406"
      d="M 39.980469 15.488281 L 33.695312 15.488281 L 34.3125 13.226562 L 35.488281 8.910156 L 36.042969 6.878906 L 36.839844 3.960938 L 34.890625 6.507812 L 33.496094 8.332031 L 30.007812 12.890625 L 23.214844 21.773438 L 29.503906 21.773438 L 28.890625 24.023438 L 27.710938 28.351562 L 27.15625 30.382812 L 26.359375 33.300781 L 28.308594 30.753906 L 29.703125 28.929688 L 33.234375 24.308594 Z M 39.980469 15.488281 "
      fill-opacity="1"
      fill-rule="nonzero"
    /></g></svg>
