<?xml version="1.0" encoding="UTF-8" ?>
<svg
  xmlns="http://www.w3.org/2000/svg"
  xmlns:xlink="http://www.w3.org/1999/xlink"
  contentScriptType="text/ecmascript"
  width="75"
  zoomAndPan="magnify"
  contentStyleType="text/css"
  viewBox="0 0 75 37.5"
  height="37.5"
  preserveAspectRatio="xMidYMid meet"
  version="1.0"
><defs><clipPath id="clip-0"><path
        d="M 1.226562 1 L 74.5 1 L 74.5 36.476562 L 1.226562 36.476562 Z M 1.226562 1 "
        clip-rule="nonzero"
      /></clipPath></defs><g clip-path="url(#clip-0)"><path
      fill="rgb(32.939148%, 32.939148%, 32.939148%)"
      d="M 72.621094 26.957031 L 66.984375 26.957031 C 66.71875 26.957031 66.460938 26.90625 66.21875 26.796875 C 65.976562 26.691406 65.761719 26.539062 65.585938 26.34375 C 65.40625 26.148438 65.273438 25.925781 65.191406 25.671875 C 65.105469 25.421875 65.078125 25.164062 65.105469 24.902344 L 65.105469 12.527344 C 65.078125 12.265625 65.105469 12.007812 65.191406 11.757812 C 65.273438 11.503906 65.40625 11.28125 65.585938 11.085938 C 65.761719 10.890625 65.976562 10.738281 66.21875 10.632812 C 66.460938 10.523438 66.71875 10.472656 66.984375 10.472656 L 72.621094 10.472656 C 72.886719 10.472656 73.140625 10.523438 73.386719 10.632812 C 73.628906 10.738281 73.839844 10.890625 74.019531 11.085938 C 74.199219 11.28125 74.332031 11.503906 74.414062 11.757812 C 74.496094 12.007812 74.527344 12.265625 74.5 12.527344 L 74.5 24.902344 C 74.527344 25.164062 74.496094 25.421875 74.414062 25.671875 C 74.332031 25.925781 74.199219 26.148438 74.019531 26.34375 C 73.839844 26.539062 73.628906 26.691406 73.386719 26.796875 C 73.140625 26.90625 72.886719 26.957031 72.621094 26.957031 Z M 4.363281 36.300781 L 58.265625 36.300781 C 58.679688 36.296875 59.078125 36.21875 59.460938 36.054688 C 59.839844 35.894531 60.175781 35.667969 60.464844 35.371094 C 60.753906 35.078125 60.976562 34.738281 61.128906 34.355469 C 61.28125 33.972656 61.355469 33.574219 61.347656 33.160156 L 61.347656 4.269531 C 61.347656 3.859375 61.269531 3.464844 61.109375 3.082031 C 60.953125 2.703125 60.726562 2.371094 60.433594 2.082031 C 60.140625 1.792969 59.804688 1.570312 59.421875 1.414062 C 59.039062 1.257812 58.640625 1.183594 58.230469 1.183594 L 4.308594 1.183594 C 3.898438 1.1875 3.503906 1.265625 3.125 1.425781 C 2.75 1.582031 2.414062 1.804688 2.128906 2.09375 C 1.839844 2.382812 1.617188 2.714844 1.460938 3.09375 C 1.304688 3.46875 1.226562 3.859375 1.226562 4.269531 L 1.226562 33.160156 C 1.226562 33.570312 1.304688 33.964844 1.464844 34.347656 C 1.621094 34.726562 1.847656 35.058594 2.140625 35.347656 C 2.433594 35.636719 2.769531 35.859375 3.152344 36.015625 C 3.535156 36.171875 3.933594 36.246094 4.34375 36.246094 Z M 59.300781 4.269531 L 59.300781 33.160156 C 59.300781 33.296875 59.273438 33.429688 59.222656 33.554688 C 59.167969 33.679688 59.09375 33.792969 58.996094 33.886719 C 58.898438 33.984375 58.789062 34.058594 58.660156 34.109375 C 58.535156 34.164062 58.402344 34.1875 58.265625 34.1875 L 4.34375 34.1875 C 4.207031 34.1875 4.074219 34.164062 3.949219 34.109375 C 3.824219 34.058594 3.710938 33.984375 3.613281 33.886719 C 3.515625 33.792969 3.441406 33.679688 3.390625 33.554688 C 3.335938 33.429688 3.3125 33.296875 3.3125 33.160156 L 3.3125 4.269531 C 3.3125 4.132812 3.335938 4 3.390625 3.875 C 3.441406 3.75 3.515625 3.636719 3.613281 3.542969 C 3.710938 3.445312 3.824219 3.371094 3.949219 3.320312 C 4.074219 3.265625 4.207031 3.242188 4.34375 3.242188 L 58.265625 3.242188 C 58.402344 3.242188 58.535156 3.265625 58.660156 3.320312 C 58.789062 3.371094 58.898438 3.445312 58.996094 3.542969 C 59.09375 3.636719 59.167969 3.75 59.222656 3.875 C 59.273438 4 59.300781 4.132812 59.300781 4.269531 Z M 59.300781 4.269531 "
      fill-opacity="1"
      fill-rule="nonzero"
    /></g><path
    fill="rgb(45.489502%, 93.728638%, 2.349854%)"
    d="M 10.046875 3.714844 L 21.148438 3.714844 L 21.148438 33.292969 L 10.046875 33.292969 Z M 10.046875 3.714844 "
    fill-opacity="1"
    fill-rule="nonzero"
  /><path
    fill="rgb(45.489502%, 93.728638%, 2.349854%)"
    d="M 4.195312 3.734375 L 8.636719 3.734375 L 8.636719 33.273438 L 4.195312 33.273438 Z M 4.195312 3.734375 "
    fill-opacity="1"
    fill-rule="nonzero"
  /></svg>
