<svg
  xmlns="http://www.w3.org/2000/svg"
  xmlns:xlink="http://www.w3.org/1999/xlink"
  width="100"
  zoomAndPan="magnify"
  viewBox="0 0 75 74.999997"
  height="100"
  preserveAspectRatio="xMidYMid meet"
  version="1.0"
><defs><clipPath id="fc08dfa71e"><path
        d="M 1.40625 1.40625 L 73.40625 1.40625 L 73.40625 73.40625 L 1.40625 73.40625 Z M 1.40625 1.40625 "
        clip-rule="nonzero"
      /></clipPath><clipPath id="656e880526"><path
        d="M 14.878906 24.769531 L 61.378906 24.769531 L 61.378906 56.269531 L 14.878906 56.269531 Z M 14.878906 24.769531 "
        clip-rule="nonzero"
      /></clipPath><clipPath id="b5ab720d12"><path
        d="M 14.128906 24.019531 L 60.628906 24.019531 L 60.628906 55.519531 L 14.128906 55.519531 Z M 14.128906 24.019531 "
        clip-rule="nonzero"
      /></clipPath></defs><g clip-path="url(#fc08dfa71e)"><path
      fill="#fa9a36"
      d="M 73.699219 37.550781 C 73.699219 38.738281 73.640625 39.917969 73.523438 41.097656 C 73.410156 42.273438 73.234375 43.445312 73.003906 44.605469 C 72.773438 45.765625 72.488281 46.914062 72.144531 48.046875 C 71.800781 49.179688 71.402344 50.292969 70.949219 51.386719 C 70.496094 52.480469 69.988281 53.546875 69.429688 54.59375 C 68.871094 55.636719 68.265625 56.648438 67.609375 57.632812 C 66.949219 58.617188 66.246094 59.570312 65.496094 60.484375 C 64.742188 61.398438 63.949219 62.273438 63.113281 63.113281 C 62.273438 63.949219 61.398438 64.742188 60.484375 65.496094 C 59.570312 66.246094 58.617188 66.949219 57.632812 67.609375 C 56.648438 68.265625 55.636719 68.871094 54.59375 69.429688 C 53.546875 69.988281 52.480469 70.496094 51.386719 70.949219 C 50.292969 71.402344 49.179688 71.800781 48.046875 72.144531 C 46.914062 72.488281 45.765625 72.773438 44.605469 73.003906 C 43.445312 73.234375 42.273438 73.410156 41.097656 73.523438 C 39.917969 73.640625 38.738281 73.699219 37.550781 73.699219 C 36.367188 73.699219 35.1875 73.640625 34.007812 73.523438 C 32.832031 73.410156 31.660156 73.234375 30.5 73.003906 C 29.339844 72.773438 28.191406 72.488281 27.058594 72.144531 C 25.925781 71.800781 24.8125 71.402344 23.71875 70.949219 C 22.625 70.496094 21.558594 69.988281 20.511719 69.429688 C 19.46875 68.871094 18.457031 68.265625 17.472656 67.609375 C 16.488281 66.949219 15.535156 66.246094 14.621094 65.496094 C 13.707031 64.742188 12.832031 63.949219 11.992188 63.113281 C 11.15625 62.273438 10.363281 61.398438 9.609375 60.484375 C 8.859375 59.570312 8.15625 58.617188 7.496094 57.632812 C 6.839844 56.648438 6.234375 55.636719 5.675781 54.59375 C 5.117188 53.546875 4.609375 52.480469 4.15625 51.386719 C 3.703125 50.292969 3.304688 49.179688 2.960938 48.046875 C 2.617188 46.914062 2.332031 45.765625 2.101562 44.605469 C 1.871094 43.445312 1.695312 42.273438 1.582031 41.097656 C 1.464844 39.917969 1.40625 38.738281 1.40625 37.550781 C 1.40625 36.367188 1.464844 35.1875 1.582031 34.007812 C 1.695312 32.832031 1.871094 31.660156 2.101562 30.5 C 2.332031 29.339844 2.617188 28.191406 2.960938 27.058594 C 3.304688 25.925781 3.703125 24.8125 4.15625 23.71875 C 4.609375 22.625 5.117188 21.558594 5.675781 20.511719 C 6.234375 19.46875 6.839844 18.457031 7.496094 17.472656 C 8.15625 16.488281 8.859375 15.535156 9.609375 14.621094 C 10.363281 13.707031 11.15625 12.832031 11.992188 11.992188 C 12.832031 11.15625 13.707031 10.363281 14.621094 9.609375 C 15.535156 8.859375 16.488281 8.15625 17.472656 7.496094 C 18.457031 6.839844 19.46875 6.234375 20.511719 5.675781 C 21.558594 5.117188 22.625 4.609375 23.71875 4.15625 C 24.8125 3.703125 25.925781 3.304688 27.058594 2.960938 C 28.191406 2.617188 29.339844 2.332031 30.5 2.101562 C 31.660156 1.871094 32.832031 1.695312 34.007812 1.582031 C 35.1875 1.464844 36.367188 1.40625 37.550781 1.40625 C 38.738281 1.40625 39.917969 1.464844 41.097656 1.582031 C 42.273438 1.695312 43.445312 1.871094 44.605469 2.101562 C 45.765625 2.332031 46.914062 2.617188 48.046875 2.960938 C 49.179688 3.304688 50.292969 3.703125 51.386719 4.15625 C 52.480469 4.609375 53.546875 5.117188 54.59375 5.675781 C 55.636719 6.234375 56.648438 6.839844 57.632812 7.496094 C 58.617188 8.15625 59.570312 8.859375 60.484375 9.609375 C 61.398438 10.363281 62.273438 11.15625 63.113281 11.992188 C 63.949219 12.832031 64.742188 13.707031 65.496094 14.621094 C 66.246094 15.535156 66.949219 16.488281 67.609375 17.472656 C 68.265625 18.457031 68.871094 19.46875 69.429688 20.511719 C 69.988281 21.558594 70.496094 22.625 70.949219 23.71875 C 71.402344 24.8125 71.800781 25.925781 72.144531 27.058594 C 72.488281 28.191406 72.773438 29.339844 73.003906 30.5 C 73.234375 31.660156 73.410156 32.832031 73.523438 34.007812 C 73.640625 35.1875 73.699219 36.367188 73.699219 37.550781 Z M 73.699219 37.550781 "
      fill-opacity="1"
      fill-rule="nonzero"
    /></g><path
    fill="#ffffff"
    d="M 40.046875 34.722656 C 41.632812 35.5625 42.238281 37.527344 41.398438 39.109375 C 40.558594 40.695312 38.59375 41.300781 37.011719 40.460938 C 35.425781 39.621094 34.820312 37.65625 35.660156 36.074219 C 36.5 34.488281 38.464844 33.882812 40.046875 34.722656 Z M 40.046875 34.722656 "
    fill-opacity="1"
    fill-rule="nonzero"
  /><g clip-path="url(#656e880526)"><path
      fill="#ffffff"
      d="M 58.550781 24.777344 L 18.054688 24.777344 C 16.3125 24.777344 14.898438 26.1875 14.898438 27.933594 L 14.898438 46.867188 C 14.898438 48.613281 16.3125 50.023438 18.054688 50.023438 L 22.523438 50.023438 L 28.835938 56.335938 L 35.148438 50.023438 L 58.550781 50.023438 C 60.292969 50.023438 61.707031 48.613281 61.707031 46.867188 L 61.707031 27.933594 C 61.707031 26.1875 60.292969 24.777344 58.550781 24.777344 Z M 30.140625 40.449219 C 29.816406 42.269531 28.085938 43.589844 26.03125 43.589844 C 24.382812 43.589844 22.835938 42.925781 21.785156 41.765625 L 23.820312 39.921875 C 24.34375 40.5 25.167969 40.847656 26.03125 40.847656 C 26.804688 40.847656 27.363281 40.390625 27.441406 39.96875 C 27.539062 39.421875 26.640625 39.046875 26.359375 38.945312 C 24.671875 38.304688 23.746094 37.90625 23.390625 37.714844 C 22.335938 37.027344 21.796875 35.820312 21.984375 34.5625 C 22.179688 33.253906 23.128906 32.199219 24.464844 31.792969 C 25.417969 31.464844 27.464844 31.328125 29.363281 32.828125 L 27.664062 34.980469 C 26.535156 34.089844 25.488281 34.351562 25.351562 34.390625 C 24.746094 34.566406 24.507812 34.953125 24.828125 35.371094 C 25.183594 35.523438 26.210938 35.964844 27.3125 36.371094 C 29.769531 37.277344 30.386719 39.074219 30.140625 40.449219 Z M 38.519531 43.574219 C 35.214844 43.574219 32.53125 40.886719 32.53125 37.585938 C 32.53125 34.285156 35.214844 31.597656 38.519531 31.597656 C 41.820312 31.597656 44.507812 34.285156 44.507812 37.585938 C 44.507812 40.886719 41.820312 43.574219 38.519531 43.574219 Z M 55.441406 40.449219 C 55.117188 42.269531 53.390625 43.589844 51.332031 43.589844 C 49.6875 43.589844 48.140625 42.925781 47.089844 41.765625 L 49.121094 39.921875 C 49.644531 40.5 50.472656 40.847656 51.332031 40.847656 C 52.105469 40.847656 52.667969 40.390625 52.742188 39.96875 C 52.839844 39.421875 51.941406 39.046875 51.664062 38.945312 C 49.972656 38.304688 49.050781 37.90625 48.695312 37.714844 C 47.636719 37.027344 47.097656 35.820312 47.285156 34.5625 C 47.480469 33.253906 48.429688 32.199219 49.769531 31.792969 C 50.71875 31.464844 52.769531 31.328125 54.664062 32.828125 L 52.964844 34.980469 C 51.835938 34.089844 50.789062 34.351562 50.652344 34.390625 C 50.050781 34.566406 49.808594 34.953125 50.128906 35.371094 C 50.484375 35.523438 51.511719 35.964844 52.613281 36.371094 C 55.074219 37.277344 55.6875 39.074219 55.441406 40.449219 Z M 55.441406 40.449219 "
      fill-opacity="1"
      fill-rule="nonzero"
    /></g><path
    fill="#343437"
    d="M 39.296875 33.972656 C 40.882812 34.8125 41.488281 36.777344 40.648438 38.359375 C 39.808594 39.945312 37.84375 40.550781 36.261719 39.710938 C 34.675781 38.871094 34.070312 36.90625 34.910156 35.324219 C 35.75 33.738281 37.714844 33.132812 39.296875 33.972656 Z M 39.296875 33.972656 "
    fill-opacity="1"
    fill-rule="nonzero"
  /><g clip-path="url(#b5ab720d12)"><path
      fill="#343437"
      d="M 57.800781 24.027344 L 17.304688 24.027344 C 15.5625 24.027344 14.148438 25.4375 14.148438 27.183594 L 14.148438 46.117188 C 14.148438 47.863281 15.5625 49.273438 17.304688 49.273438 L 21.773438 49.273438 L 28.085938 55.585938 L 34.398438 49.273438 L 57.800781 49.273438 C 59.542969 49.273438 60.957031 47.863281 60.957031 46.117188 L 60.957031 27.183594 C 60.957031 25.4375 59.542969 24.027344 57.800781 24.027344 Z M 29.390625 39.699219 C 29.066406 41.519531 27.335938 42.839844 25.28125 42.839844 C 23.632812 42.839844 22.085938 42.175781 21.035156 41.015625 L 23.070312 39.171875 C 23.59375 39.75 24.417969 40.097656 25.28125 40.097656 C 26.054688 40.097656 26.613281 39.640625 26.691406 39.21875 C 26.789062 38.671875 25.890625 38.296875 25.609375 38.195312 C 23.921875 37.554688 22.996094 37.15625 22.640625 36.964844 C 21.585938 36.277344 21.046875 35.070312 21.234375 33.8125 C 21.429688 32.503906 22.378906 31.449219 23.714844 31.042969 C 24.667969 30.714844 26.714844 30.578125 28.613281 32.078125 L 26.914062 34.230469 C 25.785156 33.339844 24.738281 33.601562 24.601562 33.640625 C 23.996094 33.816406 23.757812 34.203125 24.078125 34.621094 C 24.433594 34.773438 25.460938 35.214844 26.5625 35.621094 C 29.019531 36.527344 29.636719 38.324219 29.390625 39.699219 Z M 37.769531 42.824219 C 34.464844 42.824219 31.78125 40.136719 31.78125 36.835938 C 31.78125 33.535156 34.464844 30.847656 37.769531 30.847656 C 41.070312 30.847656 43.757812 33.535156 43.757812 36.835938 C 43.757812 40.136719 41.070312 42.824219 37.769531 42.824219 Z M 54.691406 39.699219 C 54.367188 41.519531 52.640625 42.839844 50.582031 42.839844 C 48.9375 42.839844 47.390625 42.175781 46.339844 41.015625 L 48.371094 39.171875 C 48.894531 39.75 49.722656 40.097656 50.582031 40.097656 C 51.355469 40.097656 51.917969 39.640625 51.992188 39.21875 C 52.089844 38.671875 51.191406 38.296875 50.914062 38.195312 C 49.222656 37.554688 48.300781 37.15625 47.945312 36.964844 C 46.886719 36.277344 46.347656 35.070312 46.535156 33.8125 C 46.730469 32.503906 47.679688 31.449219 49.019531 31.042969 C 49.96875 30.714844 52.019531 30.578125 53.914062 32.078125 L 52.214844 34.230469 C 51.085938 33.339844 50.039062 33.601562 49.902344 33.640625 C 49.300781 33.816406 49.058594 34.203125 49.378906 34.621094 C 49.734375 34.773438 50.761719 35.214844 51.863281 35.621094 C 54.324219 36.527344 54.9375 38.324219 54.691406 39.699219 Z M 54.691406 39.699219 "
      fill-opacity="1"
      fill-rule="nonzero"
    /></g></svg>
