<svg
  xmlns="http://www.w3.org/2000/svg"
  xmlns:xlink="http://www.w3.org/1999/xlink"
  width="100"
  zoomAndPan="magnify"
  viewBox="0 0 75 74.999997"
  height="100"
  preserveAspectRatio="xMidYMid meet"
  version="1.0"
><defs><clipPath id="e47fe95fc3"><path
        d="M 1 1 L 74 1 L 74 74 L 1 74 Z M 1 1 "
        clip-rule="nonzero"
      /></clipPath><clipPath id="643c6bdec5"><path
        d="M 18.453125 -9.863281 L 84.699219 18.339844 L 56.496094 84.585938 L -9.75 56.382812 Z M 18.453125 -9.863281 "
        clip-rule="nonzero"
      /></clipPath><clipPath id="ee2a46562a"><path
        d="M 18.453125 -9.863281 L 84.699219 18.339844 L 56.496094 84.585938 L -9.75 56.382812 Z M 18.453125 -9.863281 "
        clip-rule="nonzero"
      /></clipPath><clipPath id="5e9a070351"><path
        d="M 10.414062 28.160156 L 40.414062 28.160156 L 40.414062 46.910156 L 10.414062 46.910156 Z M 10.414062 28.160156 "
        clip-rule="nonzero"
      /></clipPath><clipPath id="1c76aed1c6"><path
        d="M 18 28.160156 L 47.902344 28.160156 L 47.902344 46.910156 L 18 46.910156 Z M 18 28.160156 "
        clip-rule="nonzero"
      /></clipPath></defs><g clip-path="url(#e47fe95fc3)"><g clip-path="url(#643c6bdec5)"><g
        clip-path="url(#ee2a46562a)"
      ><path
          fill="#fa9a36"
          d="M 70.8125 51.710938 C 70.347656 52.800781 69.832031 53.863281 69.261719 54.902344 C 68.695312 55.941406 68.078125 56.949219 67.410156 57.929688 C 66.742188 58.90625 66.027344 59.847656 65.269531 60.757812 C 64.507812 61.664062 63.707031 62.53125 62.859375 63.359375 C 62.015625 64.191406 61.132812 64.976562 60.210938 65.71875 C 59.285156 66.460938 58.332031 67.15625 57.339844 67.800781 C 56.347656 68.449219 55.328125 69.046875 54.277344 69.597656 C 53.230469 70.144531 52.15625 70.640625 51.058594 71.082031 C 49.960938 71.523438 48.84375 71.910156 47.707031 72.242188 C 46.570312 72.578125 45.421875 72.851562 44.257812 73.070312 C 43.09375 73.292969 41.921875 73.453125 40.742188 73.558594 C 39.5625 73.664062 38.382812 73.710938 37.199219 73.699219 C 36.015625 73.6875 34.835938 73.617188 33.65625 73.488281 C 32.480469 73.359375 31.3125 73.175781 30.152344 72.933594 C 28.996094 72.691406 27.851562 72.394531 26.722656 72.039062 C 25.59375 71.683594 24.484375 71.273438 23.394531 70.8125 C 22.304688 70.347656 21.242188 69.832031 20.203125 69.261719 C 19.164062 68.695312 18.15625 68.078125 17.175781 67.410156 C 16.199219 66.742188 15.257812 66.027344 14.347656 65.269531 C 13.441406 64.507812 12.574219 63.707031 11.746094 62.859375 C 10.914062 62.015625 10.128906 61.132812 9.386719 60.210938 C 8.644531 59.285156 7.949219 58.332031 7.304688 57.339844 C 6.65625 56.347656 6.058594 55.328125 5.507812 54.277344 C 4.960938 53.230469 4.464844 52.15625 4.023438 51.058594 C 3.582031 49.960938 3.195312 48.84375 2.863281 47.707031 C 2.527344 46.570312 2.253906 45.421875 2.035156 44.257812 C 1.8125 43.09375 1.652344 41.921875 1.546875 40.742188 C 1.441406 39.5625 1.394531 38.382812 1.40625 37.199219 C 1.417969 36.015625 1.488281 34.835938 1.617188 33.65625 C 1.746094 32.480469 1.929688 31.3125 2.171875 30.152344 C 2.414062 28.996094 2.710938 27.851562 3.066406 26.722656 C 3.421875 25.59375 3.832031 24.484375 4.292969 23.394531 C 4.757812 22.304688 5.273438 21.242188 5.84375 20.203125 C 6.410156 19.164062 7.027344 18.15625 7.695312 17.175781 C 8.363281 16.199219 9.078125 15.257812 9.835938 14.347656 C 10.597656 13.441406 11.398438 12.574219 12.246094 11.746094 C 13.089844 10.914062 13.972656 10.128906 14.894531 9.386719 C 15.820312 8.644531 16.773438 7.949219 17.765625 7.304688 C 18.757812 6.65625 19.777344 6.058594 20.828125 5.507812 C 21.875 4.960938 22.949219 4.464844 24.046875 4.023438 C 25.144531 3.582031 26.261719 3.195312 27.398438 2.863281 C 28.535156 2.527344 29.683594 2.253906 30.847656 2.035156 C 32.011719 1.8125 33.183594 1.652344 34.363281 1.546875 C 35.542969 1.441406 36.722656 1.394531 37.90625 1.40625 C 39.089844 1.417969 40.269531 1.488281 41.449219 1.617188 C 42.625 1.746094 43.792969 1.929688 44.953125 2.171875 C 46.109375 2.414062 47.253906 2.710938 48.382812 3.066406 C 49.511719 3.421875 50.621094 3.832031 51.710938 4.292969 C 52.800781 4.757812 53.863281 5.273438 54.902344 5.84375 C 55.941406 6.410156 56.949219 7.027344 57.929688 7.695312 C 58.90625 8.363281 59.847656 9.078125 60.757812 9.835938 C 61.664062 10.597656 62.53125 11.398438 63.359375 12.246094 C 64.191406 13.089844 64.976562 13.972656 65.71875 14.894531 C 66.460938 15.820312 67.15625 16.773438 67.800781 17.765625 C 68.449219 18.757812 69.046875 19.777344 69.597656 20.828125 C 70.144531 21.875 70.640625 22.949219 71.082031 24.046875 C 71.523438 25.144531 71.910156 26.261719 72.242188 27.398438 C 72.578125 28.535156 72.851562 29.683594 73.070312 30.847656 C 73.292969 32.011719 73.453125 33.183594 73.558594 34.363281 C 73.664062 35.542969 73.710938 36.722656 73.699219 37.90625 C 73.6875 39.089844 73.617188 40.269531 73.488281 41.449219 C 73.359375 42.625 73.175781 43.792969 72.933594 44.953125 C 72.691406 46.109375 72.394531 47.253906 72.039062 48.382812 C 71.683594 49.511719 71.273438 50.621094 70.8125 51.710938 Z M 70.8125 51.710938 "
          fill-opacity="1"
          fill-rule="nonzero"
        /></g></g></g><path
    stroke-linecap="round"
    transform="matrix(-0.686931, 0.30104, -0.30104, -0.686931, 66.052071, 48.670308)"
    fill="none"
    stroke-linejoin="miter"
    d="M 12.003088 1.499153 L 28.321845 1.502715 "
    stroke="#343437"
    stroke-width="3"
    stroke-opacity="1"
    stroke-miterlimit="4"
  /><path
    stroke-linecap="round"
    transform="matrix(-0.686931, 0.30104, -0.30104, -0.686931, 66.052071, 48.670308)"
    fill="none"
    stroke-linejoin="round"
    d="M 1.498886 1.501881 C 1.501322 -0.982061 3.516808 -2.998923 6.002841 -3.001257 C 8.486784 -2.998822 10.498874 -0.985427 10.501209 1.500607 C 10.498773 3.984549 8.483288 6.00141 5.999345 5.998975 C 3.513312 6.00131 1.501221 3.987914 1.498886 1.501881 "
    stroke="#343437"
    stroke-width="3"
    stroke-opacity="1"
    stroke-miterlimit="4"
  /><path
    stroke-linecap="round"
    transform="matrix(-0.686931, 0.30104, -0.30104, -0.686931, 66.052071, 48.670308)"
    fill="none"
    stroke-linejoin="round"
    d="M 38.821276 1.497896 C 38.823611 3.983929 36.808125 6.00079 34.317321 6.001034 C 31.833379 5.998599 29.821288 3.985203 29.818953 1.49917 C 29.821389 -0.984772 31.836875 -3.001634 34.320817 -2.999198 C 36.80685 -3.001533 38.818941 -0.988138 38.821276 1.497896 "
    stroke="#343437"
    stroke-width="3"
    stroke-opacity="1"
    stroke-miterlimit="4"
  /><path
    stroke-linecap="round"
    transform="matrix(-0.690911, -0.291791, 0.291791, -0.690911, 62.858756, 26.265275)"
    fill="none"
    stroke-linejoin="miter"
    d="M 12.002416 1.50021 L 24.774199 1.500016 "
    stroke="#343437"
    stroke-width="3"
    stroke-opacity="1"
    stroke-miterlimit="4"
  /><path
    stroke-linecap="round"
    transform="matrix(-0.690911, -0.291791, 0.291791, -0.690911, 62.858756, 26.265275)"
    fill="none"
    stroke-linejoin="round"
    d="M 1.497078 1.498706 C 1.499946 -0.98451 3.515104 -3.000245 5.99832 -2.997377 C 8.484307 -3.001334 10.500043 -0.986176 10.499201 1.501838 C 10.501131 3.983028 8.485973 5.998763 5.999985 6.00272 C 3.51677 5.999852 1.501034 3.984694 1.497078 1.498706 "
    stroke="#343437"
    stroke-width="3"
    stroke-opacity="1"
    stroke-miterlimit="4"
  /><path
    stroke-linecap="round"
    transform="matrix(-0.690911, -0.291791, 0.291791, -0.690911, 62.858756, 26.265275)"
    fill="none"
    stroke-linejoin="round"
    d="M 35.272713 1.498749 C 35.276669 3.984736 33.261511 6.000472 30.773497 5.99963 C 28.292307 6.00156 26.276572 3.986402 26.277414 1.498388 C 26.275484 -0.982802 28.290642 -2.998537 30.776629 -3.002493 C 33.259845 -2.999626 35.275581 -0.984467 35.272713 1.498749 "
    stroke="#343437"
    stroke-width="3"
    stroke-opacity="1"
    stroke-miterlimit="4"
  /><path
    stroke-linecap="round"
    transform="matrix(-0.0760694, 0.746132, -0.746132, -0.0760694, 26.114022, 20.023694)"
    fill="none"
    stroke-linejoin="miter"
    d="M 12.000133 1.499931 L 33.2976 1.501282 "
    stroke="#343437"
    stroke-width="3"
    stroke-opacity="1"
    stroke-miterlimit="4"
  /><path
    stroke-linecap="round"
    transform="matrix(-0.0760694, 0.746132, -0.746132, -0.0760694, 26.114022, 20.023694)"
    fill="none"
    stroke-linejoin="round"
    d="M 1.498329 1.5026 C 1.501298 -0.984485 3.515466 -3.001258 6.002551 -2.998289 C 8.483926 -2.999973 10.500699 -0.985806 10.49773 1.501279 C 10.499943 3.987836 8.485247 5.999427 5.99869 6.00164 C 3.516786 5.998143 1.500014 3.983975 1.498329 1.5026 "
    stroke="#343437"
    stroke-width="3"
    stroke-opacity="1"
    stroke-miterlimit="4"
  /><path
    stroke-linecap="round"
    transform="matrix(-0.0760694, 0.746132, -0.746132, -0.0760694, 26.114022, 20.023694)"
    fill="none"
    stroke-linejoin="round"
    d="M 43.799403 1.498613 C 43.796434 3.985699 41.782267 6.002471 39.300363 5.998974 C 36.813806 6.001187 34.797033 3.987019 34.800002 1.499934 C 34.79779 -0.986623 36.812485 -2.998214 39.299042 -3.000426 C 41.785599 -3.002639 43.797718 -0.982762 43.799403 1.498613 "
    stroke="#343437"
    stroke-width="3"
    stroke-opacity="1"
    stroke-miterlimit="4"
  /><path
    stroke-linecap="butt"
    transform="matrix(0.683681, -0.30835, 0.30835, 0.683681, 27.725203, 21.678154)"
    fill="none"
    stroke-linejoin="miter"
    d="M 0.0000248707 1.499205 L 15.436676 1.502244 "
    stroke="#343437"
    stroke-width="3"
    stroke-opacity="1"
    stroke-miterlimit="4"
  /><path
    stroke-linecap="butt"
    transform="matrix(-0.112034, -0.741585, 0.741585, -0.112034, 60.930479, 46.607748)"
    fill="none"
    stroke-linejoin="miter"
    d="M -0.00227603 1.499808 L 26.845817 1.499929 "
    stroke="#343437"
    stroke-width="3"
    stroke-opacity="1"
    stroke-miterlimit="4"
  /><path
    stroke-linecap="butt"
    transform="matrix(0.690642, 0.292427, -0.292427, 0.690642, 25.520727, 49.883637)"
    fill="none"
    stroke-linejoin="miter"
    d="M -0.000916446 1.498025 L 20.474188 1.4992 "
    stroke="#343437"
    stroke-width="3"
    stroke-opacity="1"
    stroke-miterlimit="4"
  /><g clip-path="url(#5e9a070351)"><path
      fill="#ffffff"
      d="M 28.890625 28.199219 C 28.683594 28.175781 28.46875 28.210938 28.273438 28.308594 C 27.882812 28.496094 27.632812 28.894531 27.632812 29.332031 L 27.632812 33.964844 L 12.832031 33.964844 C 11.574219 33.964844 10.554688 34.980469 10.554688 36.238281 L 10.554688 38.515625 C 10.554688 39.777344 11.574219 40.792969 12.832031 40.792969 L 27.632812 40.792969 L 27.632812 45.429688 C 27.632812 45.867188 27.882812 46.265625 28.273438 46.453125 C 28.429688 46.53125 28.601562 46.570312 28.773438 46.570312 C 29.023438 46.570312 29.269531 46.488281 29.472656 46.332031 L 39.800781 38.28125 C 40.078125 38.0625 40.238281 37.734375 40.238281 37.382812 C 40.238281 37.03125 40.078125 36.699219 39.800781 36.484375 L 29.472656 28.433594 C 29.300781 28.296875 29.097656 28.21875 28.890625 28.199219 Z M 28.890625 28.199219 "
      fill-opacity="1"
      fill-rule="nonzero"
    /></g><g clip-path="url(#1c76aed1c6)"><path
      fill="#ffffff"
      d="M 36.378906 28.199219 C 36.171875 28.175781 35.957031 28.210938 35.761719 28.308594 C 35.371094 28.496094 35.125 28.894531 35.125 29.332031 L 35.125 33.964844 L 20.320312 33.964844 C 19.0625 33.964844 18.042969 34.980469 18.042969 36.238281 L 18.042969 38.515625 C 18.042969 39.777344 19.0625 40.792969 20.320312 40.792969 L 35.125 40.792969 L 35.125 45.429688 C 35.125 45.867188 35.371094 46.265625 35.761719 46.453125 C 35.921875 46.53125 36.09375 46.570312 36.261719 46.570312 C 36.511719 46.570312 36.757812 46.488281 36.960938 46.332031 L 47.289062 38.28125 C 47.566406 38.0625 47.726562 37.734375 47.726562 37.382812 C 47.726562 37.03125 47.566406 36.699219 47.289062 36.484375 L 36.960938 28.433594 C 36.789062 28.296875 36.589844 28.21875 36.378906 28.199219 Z M 36.378906 28.199219 "
      fill-opacity="1"
      fill-rule="nonzero"
    /></g></svg>
