<svg
  xmlns="http://www.w3.org/2000/svg"
  xmlns:xlink="http://www.w3.org/1999/xlink"
  width="100"
  zoomAndPan="magnify"
  viewBox="0 0 75 74.999997"
  height="100"
  preserveAspectRatio="xMidYMid meet"
  version="1.0"
><defs><clipPath id="60ff105b1c"><path
        d="M 1 1 L 74 1 L 74 74 L 1 74 Z M 1 1 "
        clip-rule="nonzero"
      /></clipPath><clipPath id="c49d34bf06"><path
        d="M 18.398438 -9.863281 L 84.644531 18.339844 L 56.441406 84.585938 L -9.804688 56.382812 Z M 18.398438 -9.863281 "
        clip-rule="nonzero"
      /></clipPath><clipPath id="520016891e"><path
        d="M 18.398438 -9.863281 L 84.644531 18.339844 L 56.441406 84.585938 L -9.804688 56.382812 Z M 18.398438 -9.863281 "
        clip-rule="nonzero"
      /></clipPath><clipPath id="03a14ac05e"><path
        d="M 36 26.746094 L 66 26.746094 L 66 45.496094 L 36 45.496094 Z M 36 26.746094 "
        clip-rule="nonzero"
      /></clipPath><clipPath id="d3f0ba3675"><path
        d="M 59.019531 26.917969 L 71.480469 26.917969 L 71.480469 45.667969 L 59.019531 45.667969 Z M 59.019531 26.917969 "
        clip-rule="nonzero"
      /></clipPath></defs><g clip-path="url(#60ff105b1c)"><g clip-path="url(#c49d34bf06)"><g
        clip-path="url(#520016891e)"
      ><path
          fill="#fa9a36"
          d="M 70.753906 51.710938 C 70.292969 52.800781 69.773438 53.863281 69.207031 54.902344 C 68.640625 55.941406 68.019531 56.949219 67.355469 57.929688 C 66.6875 58.90625 65.972656 59.847656 65.210938 60.757812 C 64.453125 61.664062 63.648438 62.53125 62.804688 63.359375 C 61.960938 64.191406 61.074219 64.976562 60.152344 65.71875 C 59.230469 66.460938 58.273438 67.15625 57.285156 67.800781 C 56.292969 68.449219 55.273438 69.046875 54.222656 69.597656 C 53.175781 70.144531 52.101562 70.640625 51.003906 71.082031 C 49.902344 71.523438 48.785156 71.910156 47.652344 72.242188 C 46.515625 72.578125 45.363281 72.851562 44.203125 73.070312 C 43.039062 73.292969 41.867188 73.453125 40.6875 73.558594 C 39.507812 73.664062 38.328125 73.710938 37.144531 73.699219 C 35.960938 73.6875 34.777344 73.617188 33.601562 73.488281 C 32.425781 73.359375 31.257812 73.175781 30.097656 72.933594 C 28.941406 72.691406 27.796875 72.394531 26.667969 72.039062 C 25.535156 71.683594 24.425781 71.273438 23.339844 70.8125 C 22.25 70.347656 21.183594 69.832031 20.144531 69.261719 C 19.109375 68.695312 18.101562 68.078125 17.121094 67.410156 C 16.144531 66.742188 15.203125 66.027344 14.292969 65.269531 C 13.386719 64.507812 12.515625 63.707031 11.6875 62.859375 C 10.859375 62.015625 10.074219 61.132812 9.332031 60.210938 C 8.589844 59.285156 7.894531 58.332031 7.246094 57.339844 C 6.597656 56.347656 6 55.328125 5.453125 54.277344 C 4.90625 53.230469 4.410156 52.15625 3.96875 51.058594 C 3.527344 49.960938 3.136719 48.84375 2.804688 47.707031 C 2.472656 46.570312 2.195312 45.421875 1.976562 44.257812 C 1.757812 43.09375 1.597656 41.921875 1.492188 40.742188 C 1.386719 39.5625 1.339844 38.382812 1.351562 37.199219 C 1.363281 36.015625 1.433594 34.835938 1.5625 33.65625 C 1.6875 32.480469 1.875 31.3125 2.117188 30.152344 C 2.359375 28.996094 2.65625 27.851562 3.011719 26.722656 C 3.367188 25.59375 3.773438 24.484375 4.238281 23.394531 C 4.703125 22.304688 5.21875 21.242188 5.785156 20.203125 C 6.355469 19.164062 6.972656 18.15625 7.640625 17.175781 C 8.308594 16.199219 9.019531 15.257812 9.78125 14.347656 C 10.542969 13.441406 11.34375 12.574219 12.1875 11.746094 C 13.035156 10.914062 13.917969 10.128906 14.839844 9.386719 C 15.761719 8.644531 16.71875 7.949219 17.710938 7.304688 C 18.699219 6.65625 19.722656 6.058594 20.769531 5.507812 C 21.820312 4.960938 22.894531 4.464844 23.992188 4.023438 C 25.089844 3.582031 26.207031 3.195312 27.34375 2.863281 C 28.480469 2.527344 29.628906 2.253906 30.792969 2.035156 C 31.957031 1.8125 33.128906 1.652344 34.304688 1.546875 C 35.484375 1.441406 36.667969 1.394531 37.851562 1.40625 C 39.035156 1.417969 40.214844 1.488281 41.390625 1.617188 C 42.570312 1.746094 43.738281 1.929688 44.894531 2.171875 C 46.054688 2.414062 47.199219 2.710938 48.328125 3.066406 C 49.457031 3.421875 50.566406 3.832031 51.65625 4.292969 C 52.746094 4.757812 53.808594 5.273438 54.847656 5.84375 C 55.886719 6.410156 56.894531 7.027344 57.871094 7.695312 C 58.851562 8.363281 59.792969 9.078125 60.699219 9.835938 C 61.609375 10.597656 62.476562 11.398438 63.304688 12.246094 C 64.132812 13.089844 64.917969 13.972656 65.660156 14.894531 C 66.402344 15.820312 67.097656 16.773438 67.746094 17.765625 C 68.394531 18.757812 68.992188 19.777344 69.539062 20.828125 C 70.089844 21.875 70.582031 22.949219 71.027344 24.046875 C 71.46875 25.144531 71.855469 26.261719 72.1875 27.398438 C 72.519531 28.535156 72.796875 29.683594 73.015625 30.847656 C 73.234375 32.011719 73.398438 33.183594 73.503906 34.363281 C 73.605469 35.542969 73.652344 36.722656 73.640625 37.90625 C 73.628906 39.089844 73.558594 40.269531 73.433594 41.449219 C 73.304688 42.625 73.121094 43.792969 72.878906 44.949219 C 72.636719 46.109375 72.335938 47.253906 71.984375 48.382812 C 71.628906 49.511719 71.21875 50.621094 70.753906 51.710938 Z M 70.753906 51.710938 "
          fill-opacity="1"
          fill-rule="nonzero"
        /></g></g></g><path
    stroke-linecap="round"
    transform="matrix(-0.686931, 0.30104, -0.30104, -0.686931, 55.496265, 48.670308)"
    fill="none"
    stroke-linejoin="miter"
    d="M 12.001722 1.498554 L 28.320478 1.502116 "
    stroke="#343437"
    stroke-width="3"
    stroke-opacity="1"
    stroke-miterlimit="4"
  /><path
    stroke-linecap="round"
    transform="matrix(-0.686931, 0.30104, -0.30104, -0.686931, 55.496265, 48.670308)"
    fill="none"
    stroke-linejoin="round"
    d="M 1.49752 1.501282 C 1.499956 -0.98266 3.515441 -2.999521 6.001475 -3.001856 C 8.485417 -2.99942 10.497508 -0.986025 10.499843 1.500008 C 10.502177 3.986041 8.486692 6.002902 5.997979 5.998376 C 3.511946 6.000711 1.499855 3.987316 1.49752 1.501282 "
    stroke="#343437"
    stroke-width="3"
    stroke-opacity="1"
    stroke-miterlimit="4"
  /><path
    stroke-linecap="round"
    transform="matrix(-0.686931, 0.30104, -0.30104, -0.686931, 55.496265, 48.670308)"
    fill="none"
    stroke-linejoin="round"
    d="M 38.81991 1.497297 C 38.822244 3.98333 36.806759 6.000191 34.320725 6.002526 C 31.836783 6.00009 29.819922 3.984605 29.822357 1.500662 C 29.820023 -0.985371 31.835508 -3.002232 34.319451 -2.999797 C 36.805484 -3.002131 38.822345 -0.986646 38.81991 1.497297 "
    stroke="#343437"
    stroke-width="3"
    stroke-opacity="1"
    stroke-miterlimit="4"
  /><path
    stroke-linecap="round"
    transform="matrix(-0.690911, -0.291791, 0.291791, -0.690911, 52.302955, 26.265261)"
    fill="none"
    stroke-linejoin="miter"
    d="M 12.00104 1.50077 L 24.777621 1.49855 "
    stroke="#343437"
    stroke-width="3"
    stroke-opacity="1"
    stroke-miterlimit="4"
  /><path
    stroke-linecap="round"
    transform="matrix(-0.690911, -0.291791, 0.291791, -0.690911, 52.302955, 26.265261)"
    fill="none"
    stroke-linejoin="round"
    d="M 1.5005 1.49724 C 1.49857 -0.98395 3.513728 -2.999685 6.001742 -2.998844 C 8.482931 -3.000774 10.498667 -0.985616 10.502623 1.500372 C 10.499755 3.983588 8.484597 5.999323 5.998609 6.00328 C 3.515394 6.000412 1.499658 3.985253 1.5005 1.49724 "
    stroke="#343437"
    stroke-width="3"
    stroke-opacity="1"
    stroke-miterlimit="4"
  /><path
    stroke-linecap="round"
    transform="matrix(-0.690911, -0.291791, 0.291791, -0.690911, 52.302955, 26.265261)"
    fill="none"
    stroke-linejoin="round"
    d="M 35.276135 1.497282 C 35.275293 3.985296 33.260135 6.001031 30.776919 5.998164 C 28.290932 6.00212 26.275196 3.986962 26.276038 1.498948 C 26.274108 -0.982242 28.289266 -2.997977 30.775253 -3.001934 C 33.263267 -3.001092 35.274205 -0.983907 35.276135 1.497282 "
    stroke="#343437"
    stroke-width="3"
    stroke-opacity="1"
    stroke-miterlimit="4"
  /><path
    stroke-linecap="round"
    transform="matrix(-0.0760694, 0.746132, -0.746132, -0.0760694, 15.558219, 20.023679)"
    fill="none"
    stroke-linejoin="miter"
    d="M 12.000001 1.49845 L 33.297468 1.499801 "
    stroke="#343437"
    stroke-width="3"
    stroke-opacity="1"
    stroke-miterlimit="4"
  /><path
    stroke-linecap="round"
    transform="matrix(-0.0760694, 0.746132, -0.746132, -0.0760694, 15.558219, 20.023679)"
    fill="none"
    stroke-linejoin="round"
    d="M 1.498198 1.501119 C 1.501167 -0.985966 3.515862 -2.997557 6.002419 -2.99977 C 8.483795 -3.001454 10.500567 -0.987287 10.497599 1.499798 C 10.499811 3.986355 8.485116 5.997946 5.998559 6.000159 C 3.517183 6.001843 1.500411 3.987676 1.498198 1.501119 "
    stroke="#343437"
    stroke-width="3"
    stroke-opacity="1"
    stroke-miterlimit="4"
  /><path
    stroke-linecap="round"
    transform="matrix(-0.0760694, 0.746132, -0.746132, -0.0760694, 15.558219, 20.023679)"
    fill="none"
    stroke-linejoin="round"
    d="M 43.7998 1.502314 C 43.796303 3.984218 41.782135 6.00099 39.300232 5.997493 C 36.813675 5.999706 34.796902 3.985538 34.799871 1.498453 C 34.798187 -0.982922 36.812354 -2.999695 39.298911 -3.001907 C 41.785996 -2.998939 43.797587 -0.984243 43.7998 1.502314 "
    stroke="#343437"
    stroke-width="3"
    stroke-opacity="1"
    stroke-miterlimit="4"
  /><path
    stroke-linecap="butt"
    transform="matrix(0.683681, -0.30835, 0.30835, 0.683681, 17.169401, 21.678161)"
    fill="none"
    stroke-linejoin="miter"
    d="M 0.00138416 1.499807 L 15.438035 1.502846 "
    stroke="#343437"
    stroke-width="3"
    stroke-opacity="1"
    stroke-miterlimit="4"
  /><path
    stroke-linecap="butt"
    transform="matrix(-0.112034, -0.741585, 0.741585, -0.112034, 50.374682, 46.607748)"
    fill="none"
    stroke-linejoin="miter"
    d="M -0.00249696 1.50127 L 26.845596 1.501391 "
    stroke="#343437"
    stroke-width="3"
    stroke-opacity="1"
    stroke-miterlimit="4"
  /><path
    stroke-linecap="butt"
    transform="matrix(0.690642, 0.292427, -0.292427, 0.690642, 14.964927, 49.883637)"
    fill="none"
    stroke-linejoin="miter"
    d="M 0.000449022 1.497447 L 20.475554 1.498622 "
    stroke="#343437"
    stroke-width="3"
    stroke-opacity="1"
    stroke-miterlimit="4"
  /><g clip-path="url(#03a14ac05e)"><path
      fill="#ffffff"
      d="M 54.476562 26.789062 C 54.269531 26.765625 54.054688 26.800781 53.859375 26.898438 C 53.46875 27.085938 53.21875 27.484375 53.21875 27.917969 L 53.21875 32.550781 L 38.417969 32.550781 C 37.160156 32.550781 36.140625 33.570312 36.140625 34.828125 L 36.140625 37.105469 C 36.140625 38.363281 37.160156 39.382812 38.417969 39.382812 L 53.21875 39.382812 L 53.21875 44.019531 C 53.21875 44.457031 53.46875 44.851562 53.859375 45.042969 C 54.019531 45.121094 54.1875 45.160156 54.359375 45.160156 C 54.609375 45.160156 54.855469 45.078125 55.058594 44.921875 L 65.386719 36.867188 C 65.664062 36.652344 65.824219 36.324219 65.824219 35.972656 C 65.824219 35.621094 65.664062 35.289062 65.386719 35.074219 L 55.058594 27.019531 C 54.886719 26.886719 54.683594 26.808594 54.476562 26.789062 Z M 54.476562 26.789062 "
      fill-opacity="1"
      fill-rule="nonzero"
    /></g><g clip-path="url(#d3f0ba3675)"><path
      fill="#ffffff"
      d="M 59.957031 26.960938 C 59.75 26.9375 59.535156 26.972656 59.335938 27.070312 C 58.949219 27.257812 58.699219 27.65625 58.699219 28.09375 L 58.699219 32.722656 L 43.898438 32.722656 C 42.640625 32.722656 41.621094 33.742188 41.621094 35 L 41.621094 37.277344 C 41.621094 38.535156 42.640625 39.554688 43.898438 39.554688 L 58.699219 39.554688 L 58.699219 44.191406 C 58.699219 44.628906 58.949219 45.023438 59.335938 45.214844 C 59.496094 45.292969 59.667969 45.332031 59.839844 45.332031 C 60.085938 45.332031 60.335938 45.25 60.539062 45.09375 L 70.867188 37.039062 C 71.144531 36.824219 71.304688 36.496094 71.304688 36.144531 C 71.304688 35.792969 71.144531 35.460938 70.867188 35.246094 L 60.539062 27.195312 C 60.367188 27.058594 60.164062 26.980469 59.957031 26.960938 Z M 59.957031 26.960938 "
      fill-opacity="1"
      fill-rule="nonzero"
    /></g></svg>
