<svg
  xmlns="http://www.w3.org/2000/svg"
  xmlns:xlink="http://www.w3.org/1999/xlink"
  width="100"
  zoomAndPan="magnify"
  viewBox="0 0 75 74.999997"
  height="100"
  preserveAspectRatio="xMidYMid meet"
  version="1.0"
><defs><clipPath id="120668e810"><path
        d="M 1.40625 1.40625 L 73.40625 1.40625 L 73.40625 73.40625 L 1.40625 73.40625 Z M 1.40625 1.40625 "
        clip-rule="nonzero"
      /></clipPath><clipPath id="d7574854f9"><path
        d="M 6.75 17 L 24 17 L 24 42 L 6.75 42 Z M 6.75 17 "
        clip-rule="nonzero"
      /></clipPath><clipPath id="ac16d39a9e"><path
        d="M 25 9.191406 L 29 9.191406 L 29 18 L 25 18 Z M 25 9.191406 "
        clip-rule="nonzero"
      /></clipPath><clipPath id="6dd57b1f0e"><path
        d="M 6.300781 17 L 23 17 L 23 42 L 6.300781 42 Z M 6.300781 17 "
        clip-rule="nonzero"
      /></clipPath><clipPath id="0698ab32fa"><path
        d="M 25 8.941406 L 27.300781 8.941406 L 27.300781 18 L 25 18 Z M 25 8.941406 "
        clip-rule="nonzero"
      /></clipPath><clipPath id="f524d3e261"><path
        d="M 25 38 L 27.300781 38 L 27.300781 55 L 25 55 Z M 25 38 "
        clip-rule="nonzero"
      /></clipPath><clipPath id="d3225e4599"><path
        d="M 25 16 L 27.300781 16 L 27.300781 63 L 25 63 Z M 25 16 "
        clip-rule="nonzero"
      /></clipPath><clipPath id="a4b704e902"><path
        d="M 25 57 L 27.300781 57 L 27.300781 65.941406 L 25 65.941406 Z M 25 57 "
        clip-rule="nonzero"
      /></clipPath></defs><g clip-path="url(#120668e810)"><path
      fill="#fa9a36"
      d="M 73.699219 37.550781 C 73.699219 38.738281 73.640625 39.917969 73.523438 41.097656 C 73.410156 42.273438 73.234375 43.445312 73.003906 44.605469 C 72.773438 45.765625 72.488281 46.914062 72.144531 48.046875 C 71.800781 49.179688 71.402344 50.292969 70.949219 51.386719 C 70.496094 52.480469 69.988281 53.546875 69.429688 54.59375 C 68.871094 55.636719 68.265625 56.648438 67.609375 57.632812 C 66.949219 58.617188 66.246094 59.570312 65.496094 60.484375 C 64.742188 61.398438 63.949219 62.273438 63.113281 63.113281 C 62.273438 63.949219 61.398438 64.742188 60.484375 65.496094 C 59.570312 66.246094 58.617188 66.949219 57.632812 67.609375 C 56.648438 68.265625 55.636719 68.871094 54.59375 69.429688 C 53.546875 69.988281 52.480469 70.496094 51.386719 70.949219 C 50.292969 71.402344 49.179688 71.800781 48.046875 72.144531 C 46.914062 72.488281 45.765625 72.773438 44.605469 73.003906 C 43.445312 73.234375 42.273438 73.410156 41.097656 73.523438 C 39.917969 73.640625 38.738281 73.699219 37.550781 73.699219 C 36.367188 73.699219 35.1875 73.640625 34.007812 73.523438 C 32.832031 73.410156 31.660156 73.234375 30.5 73.003906 C 29.339844 72.773438 28.191406 72.488281 27.058594 72.144531 C 25.925781 71.800781 24.8125 71.402344 23.71875 70.949219 C 22.625 70.496094 21.558594 69.988281 20.511719 69.429688 C 19.46875 68.871094 18.457031 68.265625 17.472656 67.609375 C 16.488281 66.949219 15.535156 66.246094 14.621094 65.496094 C 13.707031 64.742188 12.832031 63.949219 11.992188 63.113281 C 11.15625 62.273438 10.363281 61.398438 9.609375 60.484375 C 8.859375 59.570312 8.15625 58.617188 7.496094 57.632812 C 6.839844 56.648438 6.234375 55.636719 5.675781 54.59375 C 5.117188 53.546875 4.609375 52.480469 4.15625 51.386719 C 3.703125 50.292969 3.304688 49.179688 2.960938 48.046875 C 2.617188 46.914062 2.332031 45.765625 2.101562 44.605469 C 1.871094 43.445312 1.695312 42.273438 1.582031 41.097656 C 1.464844 39.917969 1.40625 38.738281 1.40625 37.550781 C 1.40625 36.367188 1.464844 35.1875 1.582031 34.007812 C 1.695312 32.832031 1.871094 31.660156 2.101562 30.5 C 2.332031 29.339844 2.617188 28.191406 2.960938 27.058594 C 3.304688 25.925781 3.703125 24.8125 4.15625 23.71875 C 4.609375 22.625 5.117188 21.558594 5.675781 20.511719 C 6.234375 19.46875 6.839844 18.457031 7.496094 17.472656 C 8.15625 16.488281 8.859375 15.535156 9.609375 14.621094 C 10.363281 13.707031 11.15625 12.832031 11.992188 11.992188 C 12.832031 11.15625 13.707031 10.363281 14.621094 9.609375 C 15.535156 8.859375 16.488281 8.15625 17.472656 7.496094 C 18.457031 6.839844 19.46875 6.234375 20.511719 5.675781 C 21.558594 5.117188 22.625 4.609375 23.71875 4.15625 C 24.8125 3.703125 25.925781 3.304688 27.058594 2.960938 C 28.191406 2.617188 29.339844 2.332031 30.5 2.101562 C 31.660156 1.871094 32.832031 1.695312 34.007812 1.582031 C 35.1875 1.464844 36.367188 1.40625 37.550781 1.40625 C 38.738281 1.40625 39.917969 1.464844 41.097656 1.582031 C 42.273438 1.695312 43.445312 1.871094 44.605469 2.101562 C 45.765625 2.332031 46.914062 2.617188 48.046875 2.960938 C 49.179688 3.304688 50.292969 3.703125 51.386719 4.15625 C 52.480469 4.609375 53.546875 5.117188 54.59375 5.675781 C 55.636719 6.234375 56.648438 6.839844 57.632812 7.496094 C 58.617188 8.15625 59.570312 8.859375 60.484375 9.609375 C 61.398438 10.363281 62.273438 11.15625 63.113281 11.992188 C 63.949219 12.832031 64.742188 13.707031 65.496094 14.621094 C 66.246094 15.535156 66.949219 16.488281 67.609375 17.472656 C 68.265625 18.457031 68.871094 19.46875 69.429688 20.511719 C 69.988281 21.558594 70.496094 22.625 70.949219 23.71875 C 71.402344 24.8125 71.800781 25.925781 72.144531 27.058594 C 72.488281 28.191406 72.773438 29.339844 73.003906 30.5 C 73.234375 31.660156 73.410156 32.832031 73.523438 34.007812 C 73.640625 35.1875 73.699219 36.367188 73.699219 37.550781 Z M 73.699219 37.550781 "
      fill-opacity="1"
      fill-rule="nonzero"
    /></g><g clip-path="url(#d7574854f9)"><path
      fill="#ffffff"
      d="M 7.605469 29.722656 L 12.371094 32.425781 L 9.917969 36.496094 C 9.628906 36.980469 9.660156 37.589844 10.003906 38.039062 C 10.34375 38.488281 10.925781 38.679688 11.464844 38.53125 L 16.335938 37.164062 L 16.871094 40.277344 C 16.949219 40.71875 17.234375 41.097656 17.640625 41.289062 C 17.828125 41.375 18.027344 41.417969 18.226562 41.417969 C 18.460938 41.417969 18.699219 41.359375 18.910156 41.238281 L 22.574219 39.136719 C 23.230469 38.757812 23.457031 37.917969 23.082031 37.261719 C 22.703125 36.605469 21.863281 36.375 21.207031 36.753906 L 19.246094 37.878906 L 18.785156 35.195312 C 18.71875 34.8125 18.492188 34.476562 18.164062 34.269531 C 17.835938 34.058594 17.433594 34.003906 17.058594 34.105469 L 14.058594 34.949219 L 15.453125 32.632812 C 15.644531 32.316406 15.699219 31.933594 15.601562 31.574219 C 15.511719 31.21875 15.277344 30.914062 14.953125 30.730469 L 12.527344 29.355469 L 16.460938 28.839844 C 16.871094 28.785156 17.234375 28.550781 17.449219 28.199219 C 17.667969 27.84375 17.714844 27.414062 17.578125 27.023438 L 16.464844 23.835938 L 19.933594 24.714844 C 20.425781 24.839844 20.949219 24.679688 21.289062 24.300781 C 21.632812 23.921875 21.734375 23.386719 21.558594 22.90625 L 19.9375 18.53125 C 19.675781 17.816406 18.882812 17.453125 18.175781 17.71875 C 17.460938 17.980469 17.101562 18.769531 17.363281 19.480469 L 18.074219 21.410156 L 14.660156 20.546875 C 14.171875 20.421875 13.652344 20.578125 13.3125 20.953125 C 12.96875 21.324219 12.859375 21.855469 13.027344 22.332031 L 14.425781 26.335938 L 8.101562 27.167969 C 7.515625 27.246094 7.046875 27.6875 6.933594 28.265625 C 6.820312 28.847656 7.089844 29.433594 7.605469 29.722656 Z M 7.605469 29.722656 "
      fill-opacity="1"
      fill-rule="nonzero"
    /></g><g clip-path="url(#ac16d39a9e)"><path
      fill="#ffffff"
      d="M 26.832031 17.4375 C 27.589844 17.4375 28.203125 16.820312 28.203125 16.0625 L 28.203125 10.5625 C 28.203125 9.800781 27.589844 9.1875 26.832031 9.1875 C 26.070312 9.1875 25.457031 9.800781 25.457031 10.5625 L 25.457031 16.0625 C 25.457031 16.820312 26.070312 17.4375 26.832031 17.4375 Z M 26.832031 17.4375 "
      fill-opacity="1"
      fill-rule="nonzero"
    /></g><path
    fill="#ffffff"
    d="M 25.457031 52.898438 C 25.457031 53.660156 26.070312 54.273438 26.832031 54.273438 C 27.589844 54.273438 28.203125 53.660156 28.203125 52.898438 L 28.203125 40.621094 C 28.203125 39.863281 27.589844 39.246094 26.832031 39.246094 C 26.074219 39.246094 25.457031 39.863281 25.457031 40.621094 Z M 25.457031 52.898438 "
    fill-opacity="1"
    fill-rule="nonzero"
  /><path
    fill="#ffffff"
    d="M 25.457031 34.480469 C 25.457031 35.242188 26.070312 35.855469 26.832031 35.855469 C 27.589844 35.855469 28.203125 35.242188 28.203125 34.480469 L 28.203125 33.664062 C 28.644531 34.445312 29.15625 35.347656 29.6875 36.285156 L 28.96875 38.855469 C 28.765625 39.585938 29.191406 40.34375 29.921875 40.546875 C 30.042969 40.582031 30.167969 40.597656 30.292969 40.597656 C 30.875 40.597656 31.410156 40.21875 31.59375 39.640625 C 32.554688 41.328125 33.332031 42.679688 33.492188 42.925781 L 44.574219 59.859375 C 45.53125 61.324219 47.03125 62.300781 48.800781 62.605469 C 49.179688 62.671875 49.566406 62.707031 49.953125 62.707031 C 51.140625 62.707031 52.308594 62.394531 53.351562 61.796875 L 62.828125 55.617188 C 64.320312 54.640625 65.347656 53.132812 65.71875 51.367188 C 66.085938 49.609375 65.75 47.816406 64.769531 46.316406 L 53.820312 29.574219 C 53.421875 28.964844 52.539062 27.757812 51.507812 26.367188 L 51.835938 26.414062 C 51.902344 26.421875 51.96875 26.425781 52.03125 26.425781 C 52.703125 26.425781 53.292969 25.933594 53.390625 25.246094 C 53.496094 24.496094 52.976562 23.800781 52.222656 23.695312 L 49.542969 23.3125 C 49.429688 23.296875 49.320312 23.296875 49.210938 23.308594 C 47.527344 21.078125 46.011719 19.105469 45.875 18.925781 C 44.558594 17.261719 42.453125 16.269531 40.25 16.269531 C 39.007812 16.269531 37.816406 16.578125 36.773438 17.167969 L 36.671875 17.167969 L 29.289062 22.050781 C 28.894531 22.308594 28.53125 22.605469 28.203125 22.9375 L 28.203125 22.203125 C 28.203125 21.445312 27.589844 20.828125 26.832031 20.828125 C 26.070312 20.828125 25.457031 21.445312 25.457031 22.203125 Z M 55.734375 42.195312 C 56.230469 42.101562 56.742188 42.363281 56.972656 42.839844 L 58.851562 46.6875 C 59.035156 47.058594 59.011719 47.496094 58.789062 47.824219 C 58.722656 47.917969 57.152344 50.21875 54.105469 52.210938 C 54.101562 52.214844 54.078125 52.226562 54.078125 52.230469 C 51.039062 54.207031 48.320312 54.726562 48.203125 54.746094 C 47.816406 54.816406 47.40625 54.667969 47.136719 54.351562 L 44.367188 51.085938 C 44.027344 50.683594 43.988281 50.109375 44.277344 49.691406 C 44.359375 49.570312 46.378906 46.671875 49.25 44.792969 C 52.136719 42.910156 55.585938 42.222656 55.734375 42.195312 Z M 33.558594 32.351562 C 33.625 32.257812 35.199219 29.960938 38.246094 27.964844 L 38.273438 27.945312 C 41.308594 25.964844 44.027344 25.449219 44.140625 25.429688 C 44.550781 25.355469 44.972656 25.523438 45.242188 25.859375 L 49.175781 30.90625 C 49.402344 31.199219 49.480469 31.578125 49.390625 31.921875 C 49.296875 32.269531 49.046875 32.542969 48.710938 32.660156 C 48.683594 32.667969 45.699219 33.6875 43.121094 35.371094 C 40.515625 37.074219 38.371094 39.414062 38.347656 39.4375 C 38.289062 39.503906 38.222656 39.5625 38.148438 39.609375 C 37.933594 39.75 37.671875 39.804688 37.402344 39.765625 C 37.050781 39.710938 36.734375 39.480469 36.558594 39.160156 L 33.519531 33.53125 C 33.3125 33.152344 33.328125 32.695312 33.558594 32.351562 Z M 33.558594 32.351562 "
    fill-opacity="1"
    fill-rule="nonzero"
  /><path
    fill="#ffffff"
    d="M 25.457031 64.542969 C 25.457031 65.300781 26.070312 65.914062 26.832031 65.914062 C 27.589844 65.914062 28.203125 65.300781 28.203125 64.542969 L 28.203125 59.039062 C 28.203125 58.28125 27.589844 57.667969 26.832031 57.667969 C 26.074219 57.667969 25.457031 58.28125 25.457031 59.039062 Z M 25.457031 64.542969 "
    fill-opacity="1"
    fill-rule="nonzero"
  /><g clip-path="url(#6dd57b1f0e)"><path
      fill="#404040"
      d="M 7.15625 29.472656 L 11.921875 32.171875 L 9.46875 36.246094 C 9.179688 36.726562 9.210938 37.339844 9.550781 37.785156 C 9.894531 38.234375 10.476562 38.425781 11.015625 38.277344 L 15.886719 36.910156 L 16.421875 40.027344 C 16.5 40.46875 16.785156 40.847656 17.191406 41.035156 C 17.375 41.125 17.574219 41.167969 17.777344 41.167969 C 18.011719 41.167969 18.25 41.105469 18.457031 40.984375 L 22.125 38.882812 C 22.78125 38.507812 23.007812 37.667969 22.632812 37.007812 C 22.253906 36.351562 21.414062 36.121094 20.753906 36.5 L 18.792969 37.625 L 18.332031 34.945312 C 18.269531 34.558594 18.042969 34.222656 17.714844 34.015625 C 17.382812 33.808594 16.984375 33.75 16.609375 33.855469 L 13.605469 34.695312 L 15.003906 32.378906 C 15.191406 32.0625 15.25 31.683594 15.152344 31.324219 C 15.058594 30.964844 14.824219 30.660156 14.503906 30.476562 L 12.078125 29.101562 L 16.011719 28.585938 C 16.421875 28.53125 16.785156 28.296875 17 27.945312 C 17.21875 27.59375 17.265625 27.164062 17.128906 26.773438 L 16.015625 23.585938 L 19.480469 24.460938 C 19.976562 24.589844 20.5 24.429688 20.839844 24.050781 C 21.183594 23.671875 21.285156 23.132812 21.109375 22.65625 L 19.488281 18.277344 C 19.226562 17.566406 18.433594 17.203125 17.722656 17.464844 C 17.011719 17.726562 16.648438 18.519531 16.910156 19.230469 L 17.625 21.160156 L 14.210938 20.296875 C 13.722656 20.171875 13.203125 20.328125 12.859375 20.699219 C 12.519531 21.074219 12.410156 21.601562 12.578125 22.082031 L 13.976562 26.082031 L 7.648438 26.914062 C 7.066406 26.992188 6.59375 27.433594 6.480469 28.015625 C 6.367188 28.59375 6.640625 29.179688 7.15625 29.472656 Z M 7.15625 29.472656 "
      fill-opacity="1"
      fill-rule="nonzero"
    /></g><g clip-path="url(#0698ab32fa)"><path
      fill="#404040"
      d="M 26.378906 17.183594 C 27.140625 17.183594 27.753906 16.570312 27.753906 15.8125 L 27.753906 10.308594 C 27.753906 9.550781 27.140625 8.9375 26.378906 8.9375 C 25.621094 8.9375 25.007812 9.550781 25.007812 10.308594 L 25.007812 15.8125 C 25.007812 16.570312 25.621094 17.183594 26.378906 17.183594 Z M 26.378906 17.183594 "
      fill-opacity="1"
      fill-rule="nonzero"
    /></g><g clip-path="url(#f524d3e261)"><path
      fill="#404040"
      d="M 25.007812 52.648438 C 25.007812 53.40625 25.621094 54.023438 26.382812 54.023438 C 27.140625 54.023438 27.753906 53.40625 27.753906 52.648438 L 27.753906 40.367188 C 27.753906 39.609375 27.140625 38.996094 26.382812 38.996094 C 25.621094 38.996094 25.007812 39.609375 25.007812 40.367188 Z M 25.007812 52.648438 "
      fill-opacity="1"
      fill-rule="nonzero"
    /></g><g clip-path="url(#d3225e4599)"><path
      fill="#404040"
      d="M 25.007812 34.230469 C 25.007812 34.988281 25.621094 35.605469 26.382812 35.605469 C 27.140625 35.605469 27.753906 34.988281 27.753906 34.230469 L 27.753906 33.410156 C 28.195312 34.191406 28.707031 35.09375 29.238281 36.03125 L 28.519531 38.601562 C 28.3125 39.335938 28.742188 40.089844 29.46875 40.296875 C 29.59375 40.332031 29.71875 40.347656 29.84375 40.347656 C 30.425781 40.347656 30.957031 39.964844 31.144531 39.386719 C 32.105469 41.078125 32.882812 42.425781 33.042969 42.671875 L 44.125 59.609375 C 45.082031 61.070312 46.582031 62.046875 48.351562 62.355469 C 48.730469 62.421875 49.117188 62.453125 49.503906 62.453125 C 50.691406 62.453125 51.859375 62.140625 52.902344 61.546875 L 62.375 55.363281 C 63.871094 54.386719 64.898438 52.878906 65.269531 51.117188 C 65.636719 49.359375 65.300781 47.566406 64.320312 46.066406 L 53.371094 29.324219 C 52.96875 28.714844 52.089844 27.503906 51.058594 26.117188 L 51.386719 26.160156 C 51.453125 26.171875 51.515625 26.175781 51.582031 26.175781 C 52.253906 26.175781 52.84375 25.679688 52.941406 24.996094 C 53.046875 24.242188 52.527344 23.546875 51.773438 23.441406 L 49.09375 23.058594 C 48.980469 23.042969 48.871094 23.046875 48.761719 23.054688 C 47.074219 20.824219 45.5625 18.851562 45.425781 18.675781 C 44.105469 17.007812 42.003906 16.015625 39.796875 16.015625 C 38.558594 16.015625 37.367188 16.324219 36.324219 16.917969 L 36.222656 16.917969 L 28.839844 21.796875 C 28.441406 22.054688 28.082031 22.355469 27.753906 22.683594 L 27.753906 21.949219 C 27.753906 21.191406 27.140625 20.578125 26.378906 20.578125 C 25.621094 20.578125 25.007812 21.191406 25.007812 21.949219 Z M 55.28125 41.941406 C 55.78125 41.847656 56.292969 42.113281 56.523438 42.585938 L 58.402344 46.4375 C 58.585938 46.804688 58.5625 47.242188 58.339844 47.570312 C 58.273438 47.667969 56.703125 49.964844 53.652344 51.957031 C 53.652344 51.960938 53.628906 51.976562 53.625 51.976562 C 50.589844 53.953125 47.871094 54.472656 47.753906 54.496094 C 47.363281 54.566406 46.957031 54.417969 46.6875 54.097656 L 43.917969 50.835938 C 43.574219 50.429688 43.539062 49.855469 43.828125 49.441406 C 43.910156 49.320312 45.929688 46.417969 48.800781 44.539062 C 51.6875 42.65625 55.136719 41.972656 55.28125 41.941406 Z M 33.109375 32.101562 C 33.175781 32.003906 34.746094 29.707031 37.792969 27.714844 L 37.820312 27.695312 C 40.859375 25.714844 43.578125 25.195312 43.691406 25.175781 C 44.101562 25.101562 44.523438 25.269531 44.789062 25.609375 L 48.726562 30.652344 C 48.953125 30.945312 49.03125 31.324219 48.941406 31.671875 C 48.847656 32.019531 48.597656 32.292969 48.261719 32.40625 C 48.234375 32.414062 45.25 33.4375 42.671875 35.117188 C 40.0625 36.824219 37.921875 39.160156 37.898438 39.1875 C 37.839844 39.25 37.773438 39.308594 37.699219 39.355469 C 37.484375 39.496094 37.21875 39.554688 36.953125 39.511719 C 36.601562 39.460938 36.285156 39.230469 36.109375 38.90625 L 33.066406 33.28125 C 32.859375 32.902344 32.878906 32.445312 33.109375 32.101562 Z M 33.109375 32.101562 "
      fill-opacity="1"
      fill-rule="nonzero"
    /></g><g clip-path="url(#a4b704e902)"><path
      fill="#404040"
      d="M 25.007812 64.289062 C 25.007812 65.046875 25.621094 65.664062 26.382812 65.664062 C 27.140625 65.664062 27.753906 65.050781 27.753906 64.289062 L 27.753906 58.789062 C 27.753906 58.03125 27.140625 57.414062 26.382812 57.414062 C 25.621094 57.414062 25.007812 58.027344 25.007812 58.789062 Z M 25.007812 64.289062 "
      fill-opacity="1"
      fill-rule="nonzero"
    /></g></svg>
