<svg
  xmlns="http://www.w3.org/2000/svg"
  xmlns:xlink="http://www.w3.org/1999/xlink"
  width="100"
  zoomAndPan="magnify"
  viewBox="0 0 75 74.999997"
  height="100"
  preserveAspectRatio="xMidYMid meet"
  version="1.0"
><defs><clipPath id="47b6bd068a"><path
        d="M 1.40625 1.40625 L 73.40625 1.40625 L 73.40625 73.40625 L 1.40625 73.40625 Z M 1.40625 1.40625 "
        clip-rule="nonzero"
      /></clipPath><clipPath id="a5ee21dfd0"><path
        d="M 19.363281 11.925781 L 55.363281 11.925781 L 55.363281 59.175781 L 19.363281 59.175781 Z M 19.363281 11.925781 "
        clip-rule="nonzero"
      /></clipPath><clipPath id="bf2c899cb1"><path
        d="M 20.167969 12.675781 L 56.167969 12.675781 L 56.167969 28.425781 L 20.167969 28.425781 Z M 20.167969 12.675781 "
        clip-rule="nonzero"
      /></clipPath></defs><g clip-path="url(#47b6bd068a)"><path
      fill="#fa9a36"
      d="M 73.699219 37.550781 C 73.699219 38.738281 73.640625 39.917969 73.523438 41.097656 C 73.410156 42.273438 73.234375 43.445312 73.003906 44.605469 C 72.773438 45.765625 72.488281 46.914062 72.144531 48.046875 C 71.800781 49.179688 71.402344 50.292969 70.949219 51.386719 C 70.496094 52.480469 69.988281 53.546875 69.429688 54.59375 C 68.871094 55.636719 68.265625 56.648438 67.609375 57.632812 C 66.949219 58.617188 66.246094 59.570312 65.496094 60.484375 C 64.742188 61.398438 63.949219 62.273438 63.113281 63.113281 C 62.273438 63.949219 61.398438 64.742188 60.484375 65.496094 C 59.570312 66.246094 58.617188 66.949219 57.632812 67.609375 C 56.648438 68.265625 55.636719 68.871094 54.59375 69.429688 C 53.546875 69.988281 52.480469 70.496094 51.386719 70.949219 C 50.292969 71.402344 49.179688 71.800781 48.046875 72.144531 C 46.914062 72.488281 45.765625 72.773438 44.605469 73.003906 C 43.445312 73.234375 42.273438 73.410156 41.097656 73.523438 C 39.917969 73.640625 38.738281 73.699219 37.550781 73.699219 C 36.367188 73.699219 35.1875 73.640625 34.007812 73.523438 C 32.832031 73.410156 31.660156 73.234375 30.5 73.003906 C 29.339844 72.773438 28.191406 72.488281 27.058594 72.144531 C 25.925781 71.800781 24.8125 71.402344 23.71875 70.949219 C 22.625 70.496094 21.558594 69.988281 20.511719 69.429688 C 19.46875 68.871094 18.457031 68.265625 17.472656 67.609375 C 16.488281 66.949219 15.535156 66.246094 14.621094 65.496094 C 13.707031 64.742188 12.832031 63.949219 11.992188 63.113281 C 11.15625 62.273438 10.363281 61.398438 9.609375 60.484375 C 8.859375 59.570312 8.15625 58.617188 7.496094 57.632812 C 6.839844 56.648438 6.234375 55.636719 5.675781 54.59375 C 5.117188 53.546875 4.609375 52.480469 4.15625 51.386719 C 3.703125 50.292969 3.304688 49.179688 2.960938 48.046875 C 2.617188 46.914062 2.332031 45.765625 2.101562 44.605469 C 1.871094 43.445312 1.695312 42.273438 1.582031 41.097656 C 1.464844 39.917969 1.40625 38.738281 1.40625 37.550781 C 1.40625 36.367188 1.464844 35.1875 1.582031 34.007812 C 1.695312 32.832031 1.871094 31.660156 2.101562 30.5 C 2.332031 29.339844 2.617188 28.191406 2.960938 27.058594 C 3.304688 25.925781 3.703125 24.8125 4.15625 23.71875 C 4.609375 22.625 5.117188 21.558594 5.675781 20.511719 C 6.234375 19.46875 6.839844 18.457031 7.496094 17.472656 C 8.15625 16.488281 8.859375 15.535156 9.609375 14.621094 C 10.363281 13.707031 11.15625 12.832031 11.992188 11.992188 C 12.832031 11.15625 13.707031 10.363281 14.621094 9.609375 C 15.535156 8.859375 16.488281 8.15625 17.472656 7.496094 C 18.457031 6.839844 19.46875 6.234375 20.511719 5.675781 C 21.558594 5.117188 22.625 4.609375 23.71875 4.15625 C 24.8125 3.703125 25.925781 3.304688 27.058594 2.960938 C 28.191406 2.617188 29.339844 2.332031 30.5 2.101562 C 31.660156 1.871094 32.832031 1.695312 34.007812 1.582031 C 35.1875 1.464844 36.367188 1.40625 37.550781 1.40625 C 38.738281 1.40625 39.917969 1.464844 41.097656 1.582031 C 42.273438 1.695312 43.445312 1.871094 44.605469 2.101562 C 45.765625 2.332031 46.914062 2.617188 48.046875 2.960938 C 49.179688 3.304688 50.292969 3.703125 51.386719 4.15625 C 52.480469 4.609375 53.546875 5.117188 54.59375 5.675781 C 55.636719 6.234375 56.648438 6.839844 57.632812 7.496094 C 58.617188 8.15625 59.570312 8.859375 60.484375 9.609375 C 61.398438 10.363281 62.273438 11.15625 63.113281 11.992188 C 63.949219 12.832031 64.742188 13.707031 65.496094 14.621094 C 66.246094 15.535156 66.949219 16.488281 67.609375 17.472656 C 68.265625 18.457031 68.871094 19.46875 69.429688 20.511719 C 69.988281 21.558594 70.496094 22.625 70.949219 23.71875 C 71.402344 24.8125 71.800781 25.925781 72.144531 27.058594 C 72.488281 28.191406 72.773438 29.339844 73.003906 30.5 C 73.234375 31.660156 73.410156 32.832031 73.523438 34.007812 C 73.640625 35.1875 73.699219 36.367188 73.699219 37.550781 Z M 73.699219 37.550781 "
      fill-opacity="1"
      fill-rule="nonzero"
    /></g><g clip-path="url(#a5ee21dfd0)"><path
      fill="#343437"
      d="M 30.246094 11.941406 C 26.238281 11.941406 22.992188 15.1875 22.992188 19.195312 C 22.992188 23.203125 26.238281 26.449219 30.246094 26.449219 C 32.921875 26.449219 35.234375 24.980469 36.492188 22.824219 L 41.125 22.824219 L 42.9375 21.007812 L 44.753906 22.824219 L 46.566406 21.007812 L 48.378906 22.824219 L 50.191406 22.824219 L 52.007812 21.007812 L 52.007812 17.382812 L 50.191406 15.570312 L 36.492188 15.570312 C 35.234375 13.410156 32.921875 11.941406 30.246094 11.941406 Z M 28.429688 17.382812 C 29.433594 17.382812 30.246094 18.195312 30.246094 19.195312 C 30.246094 20.195312 29.433594 21.007812 28.429688 21.007812 C 27.429688 21.007812 26.617188 20.195312 26.617188 19.195312 C 26.617188 18.195312 27.429688 17.382812 28.429688 17.382812 Z M 29.894531 30.078125 C 27.570312 30.078125 25.492188 31.566406 24.742188 33.761719 L 22.445312 40.5 C 20.605469 41.386719 19.363281 43.246094 19.363281 45.382812 L 19.363281 56.371094 C 19.363281 57.875 20.582031 59.09375 22.082031 59.09375 C 23.585938 59.09375 24.804688 57.875 24.804688 56.371094 L 24.804688 55.035156 C 27.953125 55.253906 32.273438 55.464844 37.5 55.464844 C 42.722656 55.464844 47.042969 55.253906 50.191406 55.035156 L 50.191406 56.371094 C 50.191406 57.875 51.410156 59.09375 52.914062 59.09375 C 54.414062 59.09375 55.632812 57.875 55.632812 56.371094 L 55.632812 45.382812 C 55.632812 43.246094 54.390625 41.386719 52.550781 40.5 L 50.253906 33.761719 C 49.503906 31.566406 47.425781 30.078125 45.101562 30.078125 Z M 29.894531 33.703125 L 45.101562 33.703125 C 45.886719 33.703125 46.566406 34.191406 46.820312 34.933594 L 48.4375 39.679688 C 45.664062 39.378906 42.050781 39.144531 37.5 39.144531 C 32.945312 39.144531 29.332031 39.378906 26.5625 39.679688 L 28.175781 34.933594 C 28.429688 34.191406 29.109375 33.703125 29.894531 33.703125 Z M 25.710938 44.585938 C 27.210938 44.585938 28.429688 45.800781 28.429688 47.304688 C 28.429688 48.804688 27.210938 50.023438 25.710938 50.023438 C 24.210938 50.023438 22.992188 48.804688 22.992188 47.304688 C 22.992188 45.800781 24.210938 44.585938 25.710938 44.585938 Z M 49.285156 44.585938 C 50.789062 44.585938 52.007812 45.800781 52.007812 47.304688 C 52.007812 48.804688 50.789062 50.023438 49.285156 50.023438 C 47.785156 50.023438 46.566406 48.804688 46.566406 47.304688 C 46.566406 45.800781 47.785156 44.585938 49.285156 44.585938 Z M 49.285156 44.585938 "
      fill-opacity="1"
      fill-rule="nonzero"
    /></g><g clip-path="url(#bf2c899cb1)"><path
      fill="#ffffff"
      d="M 31.050781 12.691406 C 27.042969 12.691406 23.796875 15.9375 23.796875 19.945312 C 23.796875 23.953125 27.042969 27.199219 31.050781 27.199219 C 33.726562 27.199219 36.042969 25.730469 37.296875 23.574219 L 41.929688 23.574219 L 43.746094 21.757812 L 45.558594 23.574219 L 47.371094 21.757812 L 49.183594 23.574219 L 51 23.574219 L 52.8125 21.757812 L 52.8125 18.132812 L 51 16.320312 L 37.296875 16.320312 C 36.042969 14.160156 33.726562 12.691406 31.050781 12.691406 Z M 29.238281 18.132812 C 30.238281 18.132812 31.050781 18.945312 31.050781 19.945312 C 31.050781 20.945312 30.238281 21.757812 29.238281 21.757812 C 28.234375 21.757812 27.421875 20.945312 27.421875 19.945312 C 27.421875 18.945312 28.234375 18.132812 29.238281 18.132812 Z M 30.699219 30.828125 C 28.378906 30.828125 26.296875 32.316406 25.550781 34.511719 L 23.25 41.25 C 21.410156 42.136719 20.167969 43.996094 20.167969 46.132812 L 20.167969 57.121094 C 20.167969 58.625 21.386719 59.84375 22.890625 59.84375 C 24.390625 59.84375 25.609375 58.625 25.609375 57.121094 L 25.609375 55.785156 C 28.761719 56.003906 33.078125 56.214844 38.304688 56.214844 C 43.527344 56.214844 47.847656 56.003906 51 55.785156 L 51 57.121094 C 51 58.625 52.21875 59.84375 53.71875 59.84375 C 55.21875 59.84375 56.4375 58.625 56.4375 57.121094 L 56.4375 46.132812 C 56.4375 43.996094 55.195312 42.136719 53.355469 41.25 L 51.058594 34.511719 C 50.308594 32.316406 48.230469 30.828125 45.910156 30.828125 Z M 30.699219 34.453125 L 45.910156 34.453125 C 46.691406 34.453125 47.375 34.941406 47.625 35.683594 L 49.242188 40.429688 C 46.472656 40.128906 42.855469 39.894531 38.304688 39.894531 C 33.75 39.894531 30.136719 40.128906 27.367188 40.429688 L 28.980469 35.683594 C 29.234375 34.941406 29.917969 34.453125 30.699219 34.453125 Z M 26.515625 45.335938 C 28.019531 45.335938 29.238281 46.550781 29.238281 48.054688 C 29.238281 49.554688 28.019531 50.773438 26.515625 50.773438 C 25.015625 50.773438 23.796875 49.554688 23.796875 48.054688 C 23.796875 46.550781 25.015625 45.335938 26.515625 45.335938 Z M 50.089844 45.335938 C 51.59375 45.335938 52.8125 46.550781 52.8125 48.054688 C 52.8125 49.554688 51.59375 50.773438 50.089844 50.773438 C 48.589844 50.773438 47.371094 49.554688 47.371094 48.054688 C 47.371094 46.550781 48.589844 45.335938 50.089844 45.335938 Z M 50.089844 45.335938 "
      fill-opacity="1"
      fill-rule="nonzero"
    /></g></svg>
