<svg
  xmlns="http://www.w3.org/2000/svg"
  xmlns:xlink="http://www.w3.org/1999/xlink"
  width="100"
  zoomAndPan="magnify"
  viewBox="0 0 75 74.999997"
  height="100"
  preserveAspectRatio="xMidYMid meet"
  version="1.0"
><defs><clipPath id="f6106545a3"><path
        d="M 1.40625 1.40625 L 73.40625 1.40625 L 73.40625 73.40625 L 1.40625 73.40625 Z M 1.40625 1.40625 "
        clip-rule="nonzero"
      /></clipPath><clipPath id="c07d2073df"><path
        d="M 11.910156 27.582031 L 62.910156 27.582031 L 62.910156 47.082031 L 11.910156 47.082031 Z M 11.910156 27.582031 "
        clip-rule="nonzero"
      /></clipPath></defs><rect x="-7.5" width="90" fill="none" y="-7.5" height="89.999996" fill-opacity="1" /><rect
    x="-7.5"
    width="90"
    fill="none"
    y="-7.5"
    height="89.999996"
    fill-opacity="1"
  /><g clip-path="url(#f6106545a3)"><path
      fill="#fa9a36"
      d="M 73.699219 37.550781 C 73.699219 38.738281 73.640625 39.917969 73.523438 41.097656 C 73.410156 42.273438 73.234375 43.445312 73.003906 44.605469 C 72.773438 45.765625 72.488281 46.914062 72.144531 48.046875 C 71.800781 49.179688 71.402344 50.292969 70.949219 51.386719 C 70.496094 52.480469 69.988281 53.546875 69.429688 54.59375 C 68.871094 55.636719 68.265625 56.648438 67.609375 57.632812 C 66.949219 58.617188 66.246094 59.570312 65.496094 60.484375 C 64.742188 61.398438 63.949219 62.273438 63.113281 63.113281 C 62.273438 63.949219 61.398438 64.742188 60.484375 65.496094 C 59.570312 66.246094 58.617188 66.949219 57.632812 67.609375 C 56.648438 68.265625 55.636719 68.871094 54.59375 69.429688 C 53.546875 69.988281 52.480469 70.496094 51.386719 70.949219 C 50.292969 71.402344 49.179688 71.800781 48.046875 72.144531 C 46.914062 72.488281 45.765625 72.773438 44.605469 73.003906 C 43.445312 73.234375 42.273438 73.410156 41.097656 73.523438 C 39.917969 73.640625 38.738281 73.699219 37.550781 73.699219 C 36.367188 73.699219 35.1875 73.640625 34.007812 73.523438 C 32.832031 73.410156 31.660156 73.234375 30.5 73.003906 C 29.339844 72.773438 28.191406 72.488281 27.058594 72.144531 C 25.925781 71.800781 24.8125 71.402344 23.71875 70.949219 C 22.625 70.496094 21.558594 69.988281 20.511719 69.429688 C 19.46875 68.871094 18.457031 68.265625 17.472656 67.609375 C 16.488281 66.949219 15.535156 66.246094 14.621094 65.496094 C 13.707031 64.742188 12.832031 63.949219 11.992188 63.113281 C 11.15625 62.273438 10.363281 61.398438 9.609375 60.484375 C 8.859375 59.570312 8.15625 58.617188 7.496094 57.632812 C 6.839844 56.648438 6.234375 55.636719 5.675781 54.59375 C 5.117188 53.546875 4.609375 52.480469 4.15625 51.386719 C 3.703125 50.292969 3.304688 49.179688 2.960938 48.046875 C 2.617188 46.914062 2.332031 45.765625 2.101562 44.605469 C 1.871094 43.445312 1.695312 42.273438 1.582031 41.097656 C 1.464844 39.917969 1.40625 38.738281 1.40625 37.550781 C 1.40625 36.367188 1.464844 35.1875 1.582031 34.007812 C 1.695312 32.832031 1.871094 31.660156 2.101562 30.5 C 2.332031 29.339844 2.617188 28.191406 2.960938 27.058594 C 3.304688 25.925781 3.703125 24.8125 4.15625 23.71875 C 4.609375 22.625 5.117188 21.558594 5.675781 20.511719 C 6.234375 19.46875 6.839844 18.457031 7.496094 17.472656 C 8.15625 16.488281 8.859375 15.535156 9.609375 14.621094 C 10.363281 13.707031 11.15625 12.832031 11.992188 11.992188 C 12.832031 11.15625 13.707031 10.363281 14.621094 9.609375 C 15.535156 8.859375 16.488281 8.15625 17.472656 7.496094 C 18.457031 6.839844 19.46875 6.234375 20.511719 5.675781 C 21.558594 5.117188 22.625 4.609375 23.71875 4.15625 C 24.8125 3.703125 25.925781 3.304688 27.058594 2.960938 C 28.191406 2.617188 29.339844 2.332031 30.5 2.101562 C 31.660156 1.871094 32.832031 1.695312 34.007812 1.582031 C 35.1875 1.464844 36.367188 1.40625 37.550781 1.40625 C 38.738281 1.40625 39.917969 1.464844 41.097656 1.582031 C 42.273438 1.695312 43.445312 1.871094 44.605469 2.101562 C 45.765625 2.332031 46.914062 2.617188 48.046875 2.960938 C 49.179688 3.304688 50.292969 3.703125 51.386719 4.15625 C 52.480469 4.609375 53.546875 5.117188 54.59375 5.675781 C 55.636719 6.234375 56.648438 6.839844 57.632812 7.496094 C 58.617188 8.15625 59.570312 8.859375 60.484375 9.609375 C 61.398438 10.363281 62.273438 11.15625 63.113281 11.992188 C 63.949219 12.832031 64.742188 13.707031 65.496094 14.621094 C 66.246094 15.535156 66.949219 16.488281 67.609375 17.472656 C 68.265625 18.457031 68.871094 19.46875 69.429688 20.511719 C 69.988281 21.558594 70.496094 22.625 70.949219 23.71875 C 71.402344 24.8125 71.800781 25.925781 72.144531 27.058594 C 72.488281 28.191406 72.773438 29.339844 73.003906 30.5 C 73.234375 31.660156 73.410156 32.832031 73.523438 34.007812 C 73.640625 35.1875 73.699219 36.367188 73.699219 37.550781 Z M 73.699219 37.550781 "
      fill-opacity="1"
      fill-rule="nonzero"
    /></g><g clip-path="url(#c07d2073df)"><path
      fill="#1a1a1a"
      d="M 21.867188 27.585938 L 53.132812 27.585938 C 58.609375 27.585938 63.046875 32.023438 63.046875 37.496094 C 63.046875 42.972656 58.609375 47.410156 53.132812 47.410156 L 21.867188 47.410156 C 16.390625 47.410156 11.953125 42.972656 11.953125 37.496094 C 11.953125 32.023438 16.390625 27.585938 21.867188 27.585938 "
      fill-opacity="1"
      fill-rule="nonzero"
    /></g><path
    fill="#fa9a36"
    d="M 52.847656 41.71875 L 52.847656 38.132812 L 56.097656 38.132812 L 56.097656 36.703125 L 52.847656 36.703125 L 52.847656 34.707031 L 56.613281 34.707031 L 56.613281 33.277344 L 51.273438 33.277344 L 51.273438 41.71875 Z M 46.199219 41.71875 L 46.199219 38.132812 L 49.449219 38.132812 L 49.449219 36.703125 L 46.199219 36.703125 L 46.199219 34.707031 L 49.964844 34.707031 L 49.964844 33.277344 L 44.625 33.277344 L 44.625 41.71875 Z M 38.046875 35.3125 C 38.441406 34.832031 38.964844 34.589844 39.613281 34.589844 C 40.261719 34.589844 40.78125 34.828125 41.171875 35.304688 C 41.5625 35.78125 41.761719 36.503906 41.761719 37.46875 C 41.761719 38.449219 41.558594 39.183594 41.15625 39.671875 C 40.753906 40.160156 40.238281 40.40625 39.613281 40.40625 C 38.984375 40.40625 38.46875 40.160156 38.0625 39.664062 C 37.652344 39.171875 37.449219 38.449219 37.449219 37.492188 C 37.449219 36.519531 37.648438 35.792969 38.046875 35.3125 Z M 36.855469 40.710938 C 37.539062 41.480469 38.460938 41.859375 39.617188 41.859375 C 40.761719 41.859375 41.675781 41.476562 42.359375 40.707031 C 43.042969 39.9375 43.386719 38.871094 43.386719 37.507812 C 43.386719 36.136719 43.042969 35.0625 42.351562 34.292969 C 41.664062 33.519531 40.746094 33.132812 39.597656 33.132812 C 38.960938 33.132812 38.402344 33.246094 37.917969 33.46875 C 37.550781 33.632812 37.214844 33.886719 36.910156 34.226562 C 36.605469 34.570312 36.363281 34.957031 36.183594 35.386719 C 35.945312 35.96875 35.828125 36.691406 35.828125 37.550781 C 35.828125 38.894531 36.171875 39.949219 36.855469 40.710938 Z M 13.074219 37.496094 C 13.074219 32.507812 17.117188 28.464844 22.105469 28.464844 C 27.09375 28.464844 31.140625 32.507812 31.140625 37.496094 C 31.140625 42.484375 27.09375 46.53125 22.105469 46.53125 C 17.117188 46.53125 13.074219 42.484375 13.074219 37.496094 "
    fill-opacity="1"
    fill-rule="nonzero"
  /></svg>
