<svg
  xmlns="http://www.w3.org/2000/svg"
  xmlns:xlink="http://www.w3.org/1999/xlink"
  width="100"
  zoomAndPan="magnify"
  viewBox="0 0 75 74.999997"
  height="100"
  preserveAspectRatio="xMidYMid meet"
  version="1.0"
><defs><clipPath id="3529891da8"><path
        d="M 1.40625 1.40625 L 73.40625 1.40625 L 73.40625 73.40625 L 1.40625 73.40625 Z M 1.40625 1.40625 "
        clip-rule="nonzero"
      /></clipPath><clipPath id="5cd3327d3a"><path
        d="M 17 26.695312 L 59.746094 26.695312 L 59.746094 49.945312 L 17 49.945312 Z M 17 26.695312 "
        clip-rule="nonzero"
      /></clipPath><clipPath id="57df74138a"><path
        d="M 16.246094 25.945312 L 58.996094 25.945312 L 58.996094 49.195312 L 16.246094 49.195312 Z M 16.246094 25.945312 "
        clip-rule="nonzero"
      /></clipPath></defs><g clip-path="url(#3529891da8)"><path
      fill="#fa9a36"
      d="M 73.699219 37.550781 C 73.699219 38.738281 73.640625 39.917969 73.523438 41.097656 C 73.410156 42.273438 73.234375 43.445312 73.003906 44.605469 C 72.773438 45.765625 72.488281 46.914062 72.144531 48.046875 C 71.800781 49.179688 71.402344 50.292969 70.949219 51.386719 C 70.496094 52.480469 69.988281 53.546875 69.429688 54.59375 C 68.871094 55.636719 68.265625 56.648438 67.609375 57.632812 C 66.949219 58.617188 66.246094 59.570312 65.496094 60.484375 C 64.742188 61.398438 63.949219 62.273438 63.113281 63.113281 C 62.273438 63.949219 61.398438 64.742188 60.484375 65.496094 C 59.570312 66.246094 58.617188 66.949219 57.632812 67.609375 C 56.648438 68.265625 55.636719 68.871094 54.59375 69.429688 C 53.546875 69.988281 52.480469 70.496094 51.386719 70.949219 C 50.292969 71.402344 49.179688 71.800781 48.046875 72.144531 C 46.914062 72.488281 45.765625 72.773438 44.605469 73.003906 C 43.445312 73.234375 42.273438 73.410156 41.097656 73.523438 C 39.917969 73.640625 38.738281 73.699219 37.550781 73.699219 C 36.367188 73.699219 35.1875 73.640625 34.007812 73.523438 C 32.832031 73.410156 31.660156 73.234375 30.5 73.003906 C 29.339844 72.773438 28.191406 72.488281 27.058594 72.144531 C 25.925781 71.800781 24.8125 71.402344 23.71875 70.949219 C 22.625 70.496094 21.558594 69.988281 20.511719 69.429688 C 19.46875 68.871094 18.457031 68.265625 17.472656 67.609375 C 16.488281 66.949219 15.535156 66.246094 14.621094 65.496094 C 13.707031 64.742188 12.832031 63.949219 11.992188 63.113281 C 11.15625 62.273438 10.363281 61.398438 9.609375 60.484375 C 8.859375 59.570312 8.15625 58.617188 7.496094 57.632812 C 6.839844 56.648438 6.234375 55.636719 5.675781 54.59375 C 5.117188 53.546875 4.609375 52.480469 4.15625 51.386719 C 3.703125 50.292969 3.304688 49.179688 2.960938 48.046875 C 2.617188 46.914062 2.332031 45.765625 2.101562 44.605469 C 1.871094 43.445312 1.695312 42.273438 1.582031 41.097656 C 1.464844 39.917969 1.40625 38.738281 1.40625 37.550781 C 1.40625 36.367188 1.464844 35.1875 1.582031 34.007812 C 1.695312 32.832031 1.871094 31.660156 2.101562 30.5 C 2.332031 29.339844 2.617188 28.191406 2.960938 27.058594 C 3.304688 25.925781 3.703125 24.8125 4.15625 23.71875 C 4.609375 22.625 5.117188 21.558594 5.675781 20.511719 C 6.234375 19.46875 6.839844 18.457031 7.496094 17.472656 C 8.15625 16.488281 8.859375 15.535156 9.609375 14.621094 C 10.363281 13.707031 11.15625 12.832031 11.992188 11.992188 C 12.832031 11.15625 13.707031 10.363281 14.621094 9.609375 C 15.535156 8.859375 16.488281 8.15625 17.472656 7.496094 C 18.457031 6.839844 19.46875 6.234375 20.511719 5.675781 C 21.558594 5.117188 22.625 4.609375 23.71875 4.15625 C 24.8125 3.703125 25.925781 3.304688 27.058594 2.960938 C 28.191406 2.617188 29.339844 2.332031 30.5 2.101562 C 31.660156 1.871094 32.832031 1.695312 34.007812 1.582031 C 35.1875 1.464844 36.367188 1.40625 37.550781 1.40625 C 38.738281 1.40625 39.917969 1.464844 41.097656 1.582031 C 42.273438 1.695312 43.445312 1.871094 44.605469 2.101562 C 45.765625 2.332031 46.914062 2.617188 48.046875 2.960938 C 49.179688 3.304688 50.292969 3.703125 51.386719 4.15625 C 52.480469 4.609375 53.546875 5.117188 54.59375 5.675781 C 55.636719 6.234375 56.648438 6.839844 57.632812 7.496094 C 58.617188 8.15625 59.570312 8.859375 60.484375 9.609375 C 61.398438 10.363281 62.273438 11.15625 63.113281 11.992188 C 63.949219 12.832031 64.742188 13.707031 65.496094 14.621094 C 66.246094 15.535156 66.949219 16.488281 67.609375 17.472656 C 68.265625 18.457031 68.871094 19.46875 69.429688 20.511719 C 69.988281 21.558594 70.496094 22.625 70.949219 23.71875 C 71.402344 24.8125 71.800781 25.925781 72.144531 27.058594 C 72.488281 28.191406 72.773438 29.339844 73.003906 30.5 C 73.234375 31.660156 73.410156 32.832031 73.523438 34.007812 C 73.640625 35.1875 73.699219 36.367188 73.699219 37.550781 Z M 73.699219 37.550781 "
      fill-opacity="1"
      fill-rule="nonzero"
    /></g><g clip-path="url(#5cd3327d3a)"><path
      fill="#ffffff"
      d="M 57.957031 30.855469 L 56.292969 30.855469 L 56.292969 29.171875 C 56.292969 27.828125 55.203125 26.738281 53.859375 26.738281 L 19.445312 26.738281 C 18.101562 26.738281 17.011719 27.828125 17.011719 29.171875 L 17.011719 47.363281 C 17.011719 48.707031 18.101562 49.796875 19.445312 49.796875 L 53.859375 49.796875 C 55.203125 49.796875 56.292969 48.707031 56.292969 47.363281 L 56.292969 45.679688 L 57.957031 45.679688 C 58.824219 45.679688 59.523438 44.980469 59.523438 44.113281 L 59.523438 32.417969 C 59.523438 31.554688 58.824219 30.855469 57.957031 30.855469 Z M 53.5625 47.628906 L 19.300781 47.628906 L 19.300781 28.972656 L 53.5625 28.972656 Z M 53.5625 47.628906 "
      fill-opacity="1"
      fill-rule="nonzero"
    /></g><path
    fill="#ffffff"
    d="M 36.726562 45.511719 L 22.332031 31.117188 L 21.554688 31.117188 L 21.554688 45.511719 Z M 36.726562 45.511719 "
    fill-opacity="1"
    fill-rule="nonzero"
  /><g clip-path="url(#57df74138a)"><path
      fill="#343437"
      d="M 57.207031 30.105469 L 55.542969 30.105469 L 55.542969 28.421875 C 55.542969 27.078125 54.453125 25.988281 53.109375 25.988281 L 18.695312 25.988281 C 17.351562 25.988281 16.261719 27.078125 16.261719 28.421875 L 16.261719 46.613281 C 16.261719 47.957031 17.351562 49.046875 18.695312 49.046875 L 53.109375 49.046875 C 54.453125 49.046875 55.542969 47.957031 55.542969 46.613281 L 55.542969 44.929688 L 57.207031 44.929688 C 58.074219 44.929688 58.773438 44.230469 58.773438 43.363281 L 58.773438 31.667969 C 58.773438 30.804688 58.074219 30.105469 57.207031 30.105469 Z M 52.8125 46.878906 L 18.550781 46.878906 L 18.550781 28.222656 L 52.8125 28.222656 Z M 52.8125 46.878906 "
      fill-opacity="1"
      fill-rule="nonzero"
    /></g><path
    fill="#343437"
    d="M 35.976562 44.761719 L 21.582031 30.367188 L 20.804688 30.367188 L 20.804688 44.761719 Z M 35.976562 44.761719 "
    fill-opacity="1"
    fill-rule="nonzero"
  /></svg>
