<svg
  xmlns="http://www.w3.org/2000/svg"
  xmlns:xlink="http://www.w3.org/1999/xlink"
  width="100"
  zoomAndPan="magnify"
  viewBox="0 0 75 74.999997"
  height="100"
  preserveAspectRatio="xMidYMid meet"
  version="1.0"
><defs><clipPath id="18b685122d"><path
        d="M 1.40625 1.40625 L 73.40625 1.40625 L 73.40625 73.40625 L 1.40625 73.40625 Z M 1.40625 1.40625 "
        clip-rule="nonzero"
      /></clipPath><clipPath id="a0387d69fd"><path
        d="M 55 16.277344 L 58 16.277344 L 58 38 L 55 38 Z M 55 16.277344 "
        clip-rule="nonzero"
      /></clipPath><clipPath id="a69b746a79"><path
        d="M 50 16.277344 L 53 16.277344 L 53 32 L 50 32 Z M 50 16.277344 "
        clip-rule="nonzero"
      /></clipPath><clipPath id="7070eca76e"><path
        d="M 45 16.277344 L 48 16.277344 L 48 27 L 45 27 Z M 45 16.277344 "
        clip-rule="nonzero"
      /></clipPath><clipPath id="8b86f0f6f4"><path
        d="M 15.589844 30 L 59.089844 30 L 59.089844 59 L 15.589844 59 Z M 15.589844 30 "
        clip-rule="nonzero"
      /></clipPath><clipPath id="dc93433f9f"><path
        d="M 55 16.277344 L 58 16.277344 L 58 38 L 55 38 Z M 55 16.277344 "
        clip-rule="nonzero"
      /></clipPath><clipPath id="42dec07c35"><path
        d="M 50 16.277344 L 53 16.277344 L 53 32 L 50 32 Z M 50 16.277344 "
        clip-rule="nonzero"
      /></clipPath><clipPath id="98560dddc9"><path
        d="M 45 16.277344 L 48 16.277344 L 48 27 L 45 27 Z M 45 16.277344 "
        clip-rule="nonzero"
      /></clipPath><clipPath id="dee5559c52"><path
        d="M 15.648438 30 L 59.148438 30 L 59.148438 59 L 15.648438 59 Z M 15.648438 30 "
        clip-rule="nonzero"
      /></clipPath></defs><g clip-path="url(#18b685122d)"><path
      fill="#fa9a36"
      d="M 73.699219 37.550781 C 73.699219 38.738281 73.640625 39.917969 73.523438 41.097656 C 73.410156 42.273438 73.234375 43.445312 73.003906 44.605469 C 72.773438 45.765625 72.488281 46.914062 72.144531 48.046875 C 71.800781 49.179688 71.402344 50.292969 70.949219 51.386719 C 70.496094 52.480469 69.988281 53.546875 69.429688 54.59375 C 68.871094 55.636719 68.265625 56.648438 67.609375 57.632812 C 66.949219 58.617188 66.246094 59.570312 65.496094 60.484375 C 64.742188 61.398438 63.949219 62.273438 63.113281 63.113281 C 62.273438 63.949219 61.398438 64.742188 60.484375 65.496094 C 59.570312 66.246094 58.617188 66.949219 57.632812 67.609375 C 56.648438 68.265625 55.636719 68.871094 54.59375 69.429688 C 53.546875 69.988281 52.480469 70.496094 51.386719 70.949219 C 50.292969 71.402344 49.179688 71.800781 48.046875 72.144531 C 46.914062 72.488281 45.765625 72.773438 44.605469 73.003906 C 43.445312 73.234375 42.273438 73.410156 41.097656 73.523438 C 39.917969 73.640625 38.738281 73.699219 37.550781 73.699219 C 36.367188 73.699219 35.1875 73.640625 34.007812 73.523438 C 32.832031 73.410156 31.660156 73.234375 30.5 73.003906 C 29.339844 72.773438 28.191406 72.488281 27.058594 72.144531 C 25.925781 71.800781 24.8125 71.402344 23.71875 70.949219 C 22.625 70.496094 21.558594 69.988281 20.511719 69.429688 C 19.46875 68.871094 18.457031 68.265625 17.472656 67.609375 C 16.488281 66.949219 15.535156 66.246094 14.621094 65.496094 C 13.707031 64.742188 12.832031 63.949219 11.992188 63.113281 C 11.15625 62.273438 10.363281 61.398438 9.609375 60.484375 C 8.859375 59.570312 8.15625 58.617188 7.496094 57.632812 C 6.839844 56.648438 6.234375 55.636719 5.675781 54.59375 C 5.117188 53.546875 4.609375 52.480469 4.15625 51.386719 C 3.703125 50.292969 3.304688 49.179688 2.960938 48.046875 C 2.617188 46.914062 2.332031 45.765625 2.101562 44.605469 C 1.871094 43.445312 1.695312 42.273438 1.582031 41.097656 C 1.464844 39.917969 1.40625 38.738281 1.40625 37.550781 C 1.40625 36.367188 1.464844 35.1875 1.582031 34.007812 C 1.695312 32.832031 1.871094 31.660156 2.101562 30.5 C 2.332031 29.339844 2.617188 28.191406 2.960938 27.058594 C 3.304688 25.925781 3.703125 24.8125 4.15625 23.71875 C 4.609375 22.625 5.117188 21.558594 5.675781 20.511719 C 6.234375 19.46875 6.839844 18.457031 7.496094 17.472656 C 8.15625 16.488281 8.859375 15.535156 9.609375 14.621094 C 10.363281 13.707031 11.15625 12.832031 11.992188 11.992188 C 12.832031 11.15625 13.707031 10.363281 14.621094 9.609375 C 15.535156 8.859375 16.488281 8.15625 17.472656 7.496094 C 18.457031 6.839844 19.46875 6.234375 20.511719 5.675781 C 21.558594 5.117188 22.625 4.609375 23.71875 4.15625 C 24.8125 3.703125 25.925781 3.304688 27.058594 2.960938 C 28.191406 2.617188 29.339844 2.332031 30.5 2.101562 C 31.660156 1.871094 32.832031 1.695312 34.007812 1.582031 C 35.1875 1.464844 36.367188 1.40625 37.550781 1.40625 C 38.738281 1.40625 39.917969 1.464844 41.097656 1.582031 C 42.273438 1.695312 43.445312 1.871094 44.605469 2.101562 C 45.765625 2.332031 46.914062 2.617188 48.046875 2.960938 C 49.179688 3.304688 50.292969 3.703125 51.386719 4.15625 C 52.480469 4.609375 53.546875 5.117188 54.59375 5.675781 C 55.636719 6.234375 56.648438 6.839844 57.632812 7.496094 C 58.617188 8.15625 59.570312 8.859375 60.484375 9.609375 C 61.398438 10.363281 62.273438 11.15625 63.113281 11.992188 C 63.949219 12.832031 64.742188 13.707031 65.496094 14.621094 C 66.246094 15.535156 66.949219 16.488281 67.609375 17.472656 C 68.265625 18.457031 68.871094 19.46875 69.429688 20.511719 C 69.988281 21.558594 70.496094 22.625 70.949219 23.71875 C 71.402344 24.8125 71.800781 25.925781 72.144531 27.058594 C 72.488281 28.191406 72.773438 29.339844 73.003906 30.5 C 73.234375 31.660156 73.410156 32.832031 73.523438 34.007812 C 73.640625 35.1875 73.699219 36.367188 73.699219 37.550781 Z M 73.699219 37.550781 "
      fill-opacity="1"
      fill-rule="nonzero"
    /></g><path
    fill="#343437"
    d="M 27.820312 33.335938 C 29.828125 32.59375 30.855469 30.363281 30.113281 28.359375 C 29.371094 26.351562 27.140625 25.324219 25.132812 26.066406 C 23.125 26.808594 22.101562 29.039062 22.84375 31.042969 C 23.585938 33.050781 25.8125 34.078125 27.820312 33.335938 "
    fill-opacity="1"
    fill-rule="nonzero"
  /><g clip-path="url(#a0387d69fd)"><path
      fill="#343437"
      d="M 56.316406 37.117188 C 56.816406 37.117188 57.222656 36.710938 57.222656 36.210938 L 57.222656 17.183594 C 57.222656 16.683594 56.816406 16.277344 56.316406 16.277344 C 55.816406 16.277344 55.410156 16.683594 55.410156 17.183594 L 55.410156 36.210938 C 55.410156 36.710938 55.816406 37.117188 56.316406 37.117188 "
      fill-opacity="1"
      fill-rule="nonzero"
    /></g><g clip-path="url(#a69b746a79)"><path
      fill="#343437"
      d="M 51.4375 31.554688 C 51.941406 31.554688 52.34375 31.148438 52.34375 30.648438 L 52.34375 17.183594 C 52.34375 16.683594 51.941406 16.277344 51.4375 16.277344 C 50.9375 16.277344 50.53125 16.683594 50.53125 17.183594 L 50.53125 30.648438 C 50.53125 31.148438 50.9375 31.554688 51.4375 31.554688 "
      fill-opacity="1"
      fill-rule="nonzero"
    /></g><g clip-path="url(#7070eca76e)"><path
      fill="#343437"
      d="M 46.558594 26.734375 C 47.058594 26.734375 47.464844 26.328125 47.464844 25.824219 L 47.464844 17.183594 C 47.464844 16.683594 47.058594 16.277344 46.558594 16.277344 C 46.058594 16.277344 45.652344 16.683594 45.652344 17.183594 L 45.652344 25.824219 C 45.652344 26.328125 46.058594 26.734375 46.558594 26.734375 "
      fill-opacity="1"
      fill-rule="nonzero"
    /></g><g clip-path="url(#8b86f0f6f4)"><path
      fill="#343437"
      d="M 58.492188 57.011719 L 49.035156 57.011719 C 49.253906 56.621094 49.332031 56.148438 49.207031 55.679688 L 47.101562 47.695312 C 46.972656 47.199219 46.632812 46.78125 46.167969 46.550781 L 40.140625 43.5625 L 40.488281 43.214844 C 40.523438 43.175781 40.550781 43.132812 40.585938 43.09375 L 48.703125 42.164062 L 54.394531 48.179688 C 55.070312 48.894531 56.199219 48.925781 56.917969 48.246094 C 57.632812 47.570312 57.664062 46.441406 56.988281 45.722656 L 50.683594 39.0625 C 50.296875 38.65625 49.742188 38.453125 49.183594 38.515625 L 40.585938 39.5 C 40.550781 39.460938 40.523438 39.417969 40.484375 39.378906 L 36.683594 35.582031 L 38.414062 36.058594 C 38.6875 36.132812 38.972656 36.140625 39.25 36.082031 L 45.886719 34.710938 C 46.855469 34.523438 47.472656 33.566406 47.273438 32.597656 C 47.074219 31.632812 46.128906 31.015625 45.164062 31.214844 L 38.945312 32.5 L 32.449219 30.710938 C 31.851562 30.546875 31.214844 30.703125 30.761719 31.125 L 27.027344 34.578125 C 26.578125 34.996094 26.375 35.613281 26.484375 36.214844 L 28.058594 44.625 C 28.105469 44.886719 28.210938 45.132812 28.367188 45.347656 L 31.496094 49.648438 C 31.945312 50.265625 32.714844 50.511719 33.410156 50.320312 C 33.613281 50.265625 33.808594 50.171875 33.988281 50.042969 C 34.785156 49.464844 34.960938 48.347656 34.382812 47.550781 L 31.492188 43.574219 L 30.972656 40.804688 L 35.023438 44.847656 C 35.265625 45.089844 35.542969 45.269531 35.839844 45.398438 C 35.875 45.421875 35.90625 45.445312 35.941406 45.464844 L 43.859375 49.390625 L 45.757812 56.589844 C 45.796875 56.746094 45.886719 56.878906 45.964844 57.011719 L 16.515625 57.011719 C 16.015625 57.011719 15.609375 57.417969 15.609375 57.917969 C 15.609375 58.421875 16.015625 58.828125 16.515625 58.828125 L 58.492188 58.828125 C 58.996094 58.828125 59.398438 58.421875 59.398438 57.917969 C 59.398438 57.417969 58.996094 57.011719 58.492188 57.011719 "
      fill-opacity="1"
      fill-rule="nonzero"
    /></g><path
    fill="#343437"
    d="M 27.875 33.335938 C 29.882812 32.59375 30.910156 30.363281 30.167969 28.359375 C 29.425781 26.351562 27.199219 25.324219 25.191406 26.066406 C 23.183594 26.808594 22.15625 29.039062 22.898438 31.042969 C 23.640625 33.050781 25.871094 34.078125 27.875 33.335938 "
    fill-opacity="1"
    fill-rule="nonzero"
  /><g clip-path="url(#dc93433f9f)"><path
      fill="#343437"
      d="M 56.371094 37.117188 C 56.875 37.117188 57.28125 36.710938 57.28125 36.210938 L 57.28125 17.183594 C 57.28125 16.683594 56.875 16.277344 56.371094 16.277344 C 55.871094 16.277344 55.464844 16.683594 55.464844 17.183594 L 55.464844 36.210938 C 55.464844 36.710938 55.871094 37.117188 56.371094 37.117188 "
      fill-opacity="1"
      fill-rule="nonzero"
    /></g><g clip-path="url(#42dec07c35)"><path
      fill="#343437"
      d="M 51.492188 31.554688 C 51.996094 31.554688 52.402344 31.148438 52.402344 30.648438 L 52.402344 17.183594 C 52.402344 16.683594 51.996094 16.277344 51.492188 16.277344 C 50.992188 16.277344 50.585938 16.683594 50.585938 17.183594 L 50.585938 30.648438 C 50.585938 31.148438 50.992188 31.554688 51.492188 31.554688 "
      fill-opacity="1"
      fill-rule="nonzero"
    /></g><g clip-path="url(#98560dddc9)"><path
      fill="#343437"
      d="M 46.613281 26.734375 C 47.117188 26.734375 47.523438 26.328125 47.523438 25.824219 L 47.523438 17.183594 C 47.523438 16.683594 47.117188 16.277344 46.613281 16.277344 C 46.113281 16.277344 45.707031 16.683594 45.707031 17.183594 L 45.707031 25.824219 C 45.707031 26.328125 46.113281 26.734375 46.613281 26.734375 "
      fill-opacity="1"
      fill-rule="nonzero"
    /></g><g clip-path="url(#dee5559c52)"><path
      fill="#343437"
      d="M 58.546875 57.011719 L 49.089844 57.011719 C 49.3125 56.621094 49.386719 56.148438 49.265625 55.679688 L 47.160156 47.695312 C 47.027344 47.199219 46.6875 46.78125 46.226562 46.550781 L 40.195312 43.5625 L 40.542969 43.214844 C 40.582031 43.175781 40.605469 43.132812 40.640625 43.09375 L 48.757812 42.164062 L 54.449219 48.179688 C 55.128906 48.894531 56.257812 48.925781 56.972656 48.246094 C 57.691406 47.570312 57.722656 46.441406 57.042969 45.722656 L 50.738281 39.0625 C 50.351562 38.65625 49.796875 38.453125 49.238281 38.515625 L 40.640625 39.5 C 40.605469 39.460938 40.578125 39.417969 40.539062 39.378906 L 36.738281 35.582031 L 38.46875 36.058594 C 38.742188 36.132812 39.027344 36.140625 39.304688 36.082031 L 45.941406 34.710938 C 46.910156 34.523438 47.527344 33.566406 47.328125 32.597656 C 47.128906 31.632812 46.183594 31.015625 45.21875 31.214844 L 39.003906 32.5 L 32.503906 30.710938 C 31.90625 30.546875 31.269531 30.703125 30.816406 31.125 L 27.082031 34.578125 C 26.632812 34.996094 26.429688 35.613281 26.542969 36.214844 L 28.113281 44.625 C 28.160156 44.886719 28.269531 45.132812 28.421875 45.347656 L 31.550781 49.648438 C 32 50.265625 32.773438 50.511719 33.46875 50.320312 C 33.667969 50.265625 33.863281 50.171875 34.042969 50.042969 C 34.839844 49.464844 35.019531 48.347656 34.4375 47.550781 L 31.546875 43.574219 L 31.03125 40.804688 L 35.078125 44.847656 C 35.320312 45.089844 35.601562 45.269531 35.894531 45.398438 C 35.929688 45.421875 35.960938 45.445312 35.996094 45.464844 L 43.914062 49.390625 L 45.8125 56.589844 C 45.851562 56.746094 45.941406 56.878906 46.019531 57.011719 L 16.570312 57.011719 C 16.070312 57.011719 15.664062 57.417969 15.664062 57.917969 C 15.664062 58.421875 16.070312 58.828125 16.570312 58.828125 L 58.546875 58.828125 C 59.050781 58.828125 59.457031 58.421875 59.457031 57.917969 C 59.457031 57.417969 59.050781 57.011719 58.546875 57.011719 "
      fill-opacity="1"
      fill-rule="nonzero"
    /></g></svg>
