<svg
  xmlns="http://www.w3.org/2000/svg"
  xmlns:xlink="http://www.w3.org/1999/xlink"
  width="100"
  zoomAndPan="magnify"
  viewBox="0 0 75 74.999997"
  height="100"
  preserveAspectRatio="xMidYMid meet"
  version="1.0"
><defs><clipPath id="7ff9689c94"><path
        d="M 1.40625 1.40625 L 73.40625 1.40625 L 73.40625 73.40625 L 1.40625 73.40625 Z M 1.40625 1.40625 "
        clip-rule="nonzero"
      /></clipPath><clipPath id="b023da7130"><path
        d="M 15 23.332031 L 62 23.332031 L 62 53 L 15 53 Z M 15 23.332031 "
        clip-rule="nonzero"
      /></clipPath><clipPath id="7aab801543"><path
        d="M 14.015625 23 L 61 23 L 61 52 L 14.015625 52 Z M 14.015625 23 "
        clip-rule="nonzero"
      /></clipPath></defs><g clip-path="url(#7ff9689c94)"><path
      fill="#fa9a36"
      d="M 73.699219 37.550781 C 73.699219 38.738281 73.640625 39.917969 73.523438 41.097656 C 73.410156 42.273438 73.234375 43.445312 73.003906 44.605469 C 72.773438 45.765625 72.488281 46.914062 72.144531 48.046875 C 71.800781 49.179688 71.402344 50.292969 70.949219 51.386719 C 70.496094 52.480469 69.988281 53.546875 69.429688 54.59375 C 68.871094 55.636719 68.265625 56.648438 67.609375 57.632812 C 66.949219 58.617188 66.246094 59.570312 65.496094 60.484375 C 64.742188 61.398438 63.949219 62.273438 63.113281 63.113281 C 62.273438 63.949219 61.398438 64.742188 60.484375 65.496094 C 59.570312 66.246094 58.617188 66.949219 57.632812 67.609375 C 56.648438 68.265625 55.636719 68.871094 54.59375 69.429688 C 53.546875 69.988281 52.480469 70.496094 51.386719 70.949219 C 50.292969 71.402344 49.179688 71.800781 48.046875 72.144531 C 46.914062 72.488281 45.765625 72.773438 44.605469 73.003906 C 43.445312 73.234375 42.273438 73.410156 41.097656 73.523438 C 39.917969 73.640625 38.738281 73.699219 37.550781 73.699219 C 36.367188 73.699219 35.1875 73.640625 34.007812 73.523438 C 32.832031 73.410156 31.660156 73.234375 30.5 73.003906 C 29.339844 72.773438 28.191406 72.488281 27.058594 72.144531 C 25.925781 71.800781 24.8125 71.402344 23.71875 70.949219 C 22.625 70.496094 21.558594 69.988281 20.511719 69.429688 C 19.46875 68.871094 18.457031 68.265625 17.472656 67.609375 C 16.488281 66.949219 15.535156 66.246094 14.621094 65.496094 C 13.707031 64.742188 12.832031 63.949219 11.992188 63.113281 C 11.15625 62.273438 10.363281 61.398438 9.609375 60.484375 C 8.859375 59.570312 8.15625 58.617188 7.496094 57.632812 C 6.839844 56.648438 6.234375 55.636719 5.675781 54.59375 C 5.117188 53.546875 4.609375 52.480469 4.15625 51.386719 C 3.703125 50.292969 3.304688 49.179688 2.960938 48.046875 C 2.617188 46.914062 2.332031 45.765625 2.101562 44.605469 C 1.871094 43.445312 1.695312 42.273438 1.582031 41.097656 C 1.464844 39.917969 1.40625 38.738281 1.40625 37.550781 C 1.40625 36.367188 1.464844 35.1875 1.582031 34.007812 C 1.695312 32.832031 1.871094 31.660156 2.101562 30.5 C 2.332031 29.339844 2.617188 28.191406 2.960938 27.058594 C 3.304688 25.925781 3.703125 24.8125 4.15625 23.71875 C 4.609375 22.625 5.117188 21.558594 5.675781 20.511719 C 6.234375 19.46875 6.839844 18.457031 7.496094 17.472656 C 8.15625 16.488281 8.859375 15.535156 9.609375 14.621094 C 10.363281 13.707031 11.15625 12.832031 11.992188 11.992188 C 12.832031 11.15625 13.707031 10.363281 14.621094 9.609375 C 15.535156 8.859375 16.488281 8.15625 17.472656 7.496094 C 18.457031 6.839844 19.46875 6.234375 20.511719 5.675781 C 21.558594 5.117188 22.625 4.609375 23.71875 4.15625 C 24.8125 3.703125 25.925781 3.304688 27.058594 2.960938 C 28.191406 2.617188 29.339844 2.332031 30.5 2.101562 C 31.660156 1.871094 32.832031 1.695312 34.007812 1.582031 C 35.1875 1.464844 36.367188 1.40625 37.550781 1.40625 C 38.738281 1.40625 39.917969 1.464844 41.097656 1.582031 C 42.273438 1.695312 43.445312 1.871094 44.605469 2.101562 C 45.765625 2.332031 46.914062 2.617188 48.046875 2.960938 C 49.179688 3.304688 50.292969 3.703125 51.386719 4.15625 C 52.480469 4.609375 53.546875 5.117188 54.59375 5.675781 C 55.636719 6.234375 56.648438 6.839844 57.632812 7.496094 C 58.617188 8.15625 59.570312 8.859375 60.484375 9.609375 C 61.398438 10.363281 62.273438 11.15625 63.113281 11.992188 C 63.949219 12.832031 64.742188 13.707031 65.496094 14.621094 C 66.246094 15.535156 66.949219 16.488281 67.609375 17.472656 C 68.265625 18.457031 68.871094 19.46875 69.429688 20.511719 C 69.988281 21.558594 70.496094 22.625 70.949219 23.71875 C 71.402344 24.8125 71.800781 25.925781 72.144531 27.058594 C 72.488281 28.191406 72.773438 29.339844 73.003906 30.5 C 73.234375 31.660156 73.410156 32.832031 73.523438 34.007812 C 73.640625 35.1875 73.699219 36.367188 73.699219 37.550781 Z M 73.699219 37.550781 "
      fill-opacity="1"
      fill-rule="nonzero"
    /></g><g clip-path="url(#b023da7130)"><path
      fill="#ffffff"
      d="M 60.296875 38.332031 C 57.429688 38.332031 54.40625 38.332031 51.425781 38.332031 C 50.851562 38.332031 50.484375 38.664062 50.28125 39.160156 C 50.121094 39.558594 49.957031 39.953125 49.796875 40.351562 C 49.402344 38.253906 49.007812 36.148438 48.617188 34.046875 C 48.394531 32.851562 46.625 32.984375 46.328125 34.058594 C 45.296875 37.769531 44.265625 41.484375 43.234375 45.195312 C 42.722656 40.417969 42.207031 35.644531 41.691406 30.867188 C 41.480469 28.929688 41.273438 26.992188 41.066406 25.054688 C 40.929688 23.789062 39.101562 23.335938 38.734375 24.714844 C 37.691406 28.628906 36.652344 32.550781 35.609375 36.457031 C 35.359375 34.765625 35.105469 33.066406 34.851562 31.371094 C 34.664062 30.117188 32.898438 30.390625 32.5625 31.394531 C 31.472656 34.675781 30.378906 37.960938 29.285156 41.25 C 28.609375 39.171875 27.933594 37.082031 27.257812 35.011719 C 26.925781 33.988281 25.683594 33.914062 25.089844 34.753906 C 24.308594 35.867188 23.527344 37.007812 22.746094 38.113281 C 20.570312 38.113281 18.402344 38.113281 16.308594 38.113281 C 14.765625 38.113281 14.765625 40.535156 16.308594 40.535156 C 16.308594 40.535156 20.710938 40.535156 22.953125 40.535156 C 23.523438 40.535156 24 40.425781 24.375 39.894531 C 24.628906 39.535156 24.882812 39.148438 25.136719 38.789062 C 25.332031 38.511719 25.523438 38.21875 25.71875 37.941406 C 26.523438 40.410156 27.328125 42.871094 28.132812 45.339844 C 28.503906 46.472656 30.046875 46.480469 30.421875 45.355469 C 31.375 42.5 32.324219 39.652344 33.277344 36.804688 C 33.566406 38.746094 33.855469 40.699219 34.144531 42.640625 C 34.328125 43.847656 36.152344 43.691406 36.433594 42.628906 C 37.417969 38.929688 38.402344 35.226562 39.386719 31.523438 C 39.898438 36.234375 40.40625 40.949219 40.914062 45.664062 C 41.121094 47.601562 41.332031 49.539062 41.539062 51.476562 C 41.675781 52.75 43.488281 53.164062 43.871094 51.792969 C 44.996094 47.734375 46.125 43.679688 47.25 39.625 C 47.578125 41.363281 47.902344 43.113281 48.226562 44.851562 C 48.324219 45.363281 48.875 45.71875 49.371094 45.71875 C 49.945312 45.71875 50.3125 45.382812 50.515625 44.882812 C 51.082031 43.496094 51.648438 42.082031 52.214844 40.757812 C 54.929688 40.757812 57.539062 40.757812 60.296875 40.757812 C 61.839844 40.757812 61.839844 38.332031 60.296875 38.332031 "
      fill-opacity="1"
      fill-rule="nonzero"
    /></g><g clip-path="url(#7aab801543)"><path
      fill="#343437"
      d="M 59.546875 37.582031 C 56.679688 37.582031 53.65625 37.582031 50.675781 37.582031 C 50.101562 37.582031 49.734375 37.914062 49.53125 38.410156 C 49.371094 38.808594 49.207031 39.203125 49.046875 39.601562 C 48.652344 37.503906 48.257812 35.398438 47.867188 33.296875 C 47.644531 32.101562 45.875 32.234375 45.578125 33.308594 C 44.546875 37.019531 43.515625 40.734375 42.484375 44.445312 C 41.972656 39.667969 41.457031 34.894531 40.941406 30.117188 C 40.730469 28.179688 40.523438 26.242188 40.316406 24.304688 C 40.179688 23.039062 38.351562 22.585938 37.984375 23.964844 C 36.941406 27.878906 35.902344 31.800781 34.859375 35.707031 C 34.609375 34.015625 34.355469 32.316406 34.101562 30.621094 C 33.914062 29.367188 32.148438 29.640625 31.8125 30.644531 C 30.722656 33.925781 29.628906 37.210938 28.535156 40.5 C 27.859375 38.421875 27.183594 36.332031 26.507812 34.261719 C 26.175781 33.238281 24.933594 33.164062 24.339844 34.003906 C 23.558594 35.117188 22.777344 36.257812 21.996094 37.363281 C 19.820312 37.363281 17.652344 37.363281 15.558594 37.363281 C 14.015625 37.363281 14.015625 39.785156 15.558594 39.785156 C 15.558594 39.785156 19.960938 39.785156 22.203125 39.785156 C 22.773438 39.785156 23.25 39.675781 23.625 39.144531 C 23.878906 38.785156 24.132812 38.398438 24.386719 38.039062 C 24.582031 37.761719 24.773438 37.46875 24.96875 37.191406 C 25.773438 39.660156 26.578125 42.121094 27.382812 44.589844 C 27.753906 45.722656 29.296875 45.730469 29.671875 44.605469 C 30.625 41.75 31.574219 38.902344 32.527344 36.054688 C 32.816406 37.996094 33.105469 39.949219 33.394531 41.890625 C 33.578125 43.097656 35.402344 42.941406 35.683594 41.878906 C 36.667969 38.179688 37.652344 34.476562 38.636719 30.773438 C 39.148438 35.484375 39.65625 40.199219 40.164062 44.914062 C 40.371094 46.851562 40.582031 48.789062 40.789062 50.726562 C 40.925781 52 42.738281 52.414062 43.121094 51.042969 C 44.246094 46.984375 45.375 42.929688 46.5 38.875 C 46.828125 40.613281 47.152344 42.363281 47.476562 44.101562 C 47.574219 44.613281 48.125 44.96875 48.621094 44.96875 C 49.195312 44.96875 49.5625 44.632812 49.765625 44.132812 C 50.332031 42.746094 50.898438 41.332031 51.464844 40.007812 C 54.179688 40.007812 56.789062 40.007812 59.546875 40.007812 C 61.089844 40.007812 61.089844 37.582031 59.546875 37.582031 "
      fill-opacity="1"
      fill-rule="nonzero"
    /></g></svg>
