<svg
  xmlns="http://www.w3.org/2000/svg"
  xmlns:xlink="http://www.w3.org/1999/xlink"
  width="100"
  zoomAndPan="magnify"
  viewBox="0 0 75 74.999997"
  height="100"
  preserveAspectRatio="xMidYMid meet"
  version="1.0"
><defs><clipPath id="aa03d2f46e"><path
        d="M 1.40625 1.40625 L 73.40625 1.40625 L 73.40625 73.40625 L 1.40625 73.40625 Z M 1.40625 1.40625 "
        clip-rule="nonzero"
      /></clipPath><clipPath id="9ec95084f2"><path
        d="M 13.011719 18.839844 L 61.761719 18.839844 L 61.761719 56.339844 L 13.011719 56.339844 Z M 13.011719 18.839844 "
        clip-rule="nonzero"
      /></clipPath><clipPath id="a6d3ab5b62"><path
        d="M 42 37 L 61 37 L 61 56.339844 L 42 56.339844 Z M 42 37 "
        clip-rule="nonzero"
      /></clipPath></defs><g clip-path="url(#aa03d2f46e)"><path
      fill="#fa9a36"
      d="M 73.699219 37.550781 C 73.699219 38.738281 73.640625 39.917969 73.523438 41.097656 C 73.410156 42.273438 73.234375 43.445312 73.003906 44.605469 C 72.773438 45.765625 72.488281 46.914062 72.144531 48.046875 C 71.800781 49.179688 71.402344 50.292969 70.949219 51.386719 C 70.496094 52.480469 69.988281 53.546875 69.429688 54.59375 C 68.871094 55.636719 68.265625 56.648438 67.609375 57.632812 C 66.949219 58.617188 66.246094 59.570312 65.496094 60.484375 C 64.742188 61.398438 63.949219 62.273438 63.113281 63.113281 C 62.273438 63.949219 61.398438 64.742188 60.484375 65.496094 C 59.570312 66.246094 58.617188 66.949219 57.632812 67.609375 C 56.648438 68.265625 55.636719 68.871094 54.59375 69.429688 C 53.546875 69.988281 52.480469 70.496094 51.386719 70.949219 C 50.292969 71.402344 49.179688 71.800781 48.046875 72.144531 C 46.914062 72.488281 45.765625 72.773438 44.605469 73.003906 C 43.445312 73.234375 42.273438 73.410156 41.097656 73.523438 C 39.917969 73.640625 38.738281 73.699219 37.550781 73.699219 C 36.367188 73.699219 35.1875 73.640625 34.007812 73.523438 C 32.832031 73.410156 31.660156 73.234375 30.5 73.003906 C 29.339844 72.773438 28.191406 72.488281 27.058594 72.144531 C 25.925781 71.800781 24.8125 71.402344 23.71875 70.949219 C 22.625 70.496094 21.558594 69.988281 20.511719 69.429688 C 19.46875 68.871094 18.457031 68.265625 17.472656 67.609375 C 16.488281 66.949219 15.535156 66.246094 14.621094 65.496094 C 13.707031 64.742188 12.832031 63.949219 11.992188 63.113281 C 11.15625 62.273438 10.363281 61.398438 9.609375 60.484375 C 8.859375 59.570312 8.15625 58.617188 7.496094 57.632812 C 6.839844 56.648438 6.234375 55.636719 5.675781 54.59375 C 5.117188 53.546875 4.609375 52.480469 4.15625 51.386719 C 3.703125 50.292969 3.304688 49.179688 2.960938 48.046875 C 2.617188 46.914062 2.332031 45.765625 2.101562 44.605469 C 1.871094 43.445312 1.695312 42.273438 1.582031 41.097656 C 1.464844 39.917969 1.40625 38.738281 1.40625 37.550781 C 1.40625 36.367188 1.464844 35.1875 1.582031 34.007812 C 1.695312 32.832031 1.871094 31.660156 2.101562 30.5 C 2.332031 29.339844 2.617188 28.191406 2.960938 27.058594 C 3.304688 25.925781 3.703125 24.8125 4.15625 23.71875 C 4.609375 22.625 5.117188 21.558594 5.675781 20.511719 C 6.234375 19.46875 6.839844 18.457031 7.496094 17.472656 C 8.15625 16.488281 8.859375 15.535156 9.609375 14.621094 C 10.363281 13.707031 11.15625 12.832031 11.992188 11.992188 C 12.832031 11.15625 13.707031 10.363281 14.621094 9.609375 C 15.535156 8.859375 16.488281 8.15625 17.472656 7.496094 C 18.457031 6.839844 19.46875 6.234375 20.511719 5.675781 C 21.558594 5.117188 22.625 4.609375 23.71875 4.15625 C 24.8125 3.703125 25.925781 3.304688 27.058594 2.960938 C 28.191406 2.617188 29.339844 2.332031 30.5 2.101562 C 31.660156 1.871094 32.832031 1.695312 34.007812 1.582031 C 35.1875 1.464844 36.367188 1.40625 37.550781 1.40625 C 38.738281 1.40625 39.917969 1.464844 41.097656 1.582031 C 42.273438 1.695312 43.445312 1.871094 44.605469 2.101562 C 45.765625 2.332031 46.914062 2.617188 48.046875 2.960938 C 49.179688 3.304688 50.292969 3.703125 51.386719 4.15625 C 52.480469 4.609375 53.546875 5.117188 54.59375 5.675781 C 55.636719 6.234375 56.648438 6.839844 57.632812 7.496094 C 58.617188 8.15625 59.570312 8.859375 60.484375 9.609375 C 61.398438 10.363281 62.273438 11.15625 63.113281 11.992188 C 63.949219 12.832031 64.742188 13.707031 65.496094 14.621094 C 66.246094 15.535156 66.949219 16.488281 67.609375 17.472656 C 68.265625 18.457031 68.871094 19.46875 69.429688 20.511719 C 69.988281 21.558594 70.496094 22.625 70.949219 23.71875 C 71.402344 24.8125 71.800781 25.925781 72.144531 27.058594 C 72.488281 28.191406 72.773438 29.339844 73.003906 30.5 C 73.234375 31.660156 73.410156 32.832031 73.523438 34.007812 C 73.640625 35.1875 73.699219 36.367188 73.699219 37.550781 Z M 73.699219 37.550781 "
      fill-opacity="1"
      fill-rule="nonzero"
    /></g><g clip-path="url(#9ec95084f2)"><path
      fill="#ffffff"
      d="M 61.523438 28.949219 C 55.164062 22.4375 46.648438 18.855469 37.554688 18.855469 C 28.457031 18.855469 19.945312 22.4375 13.585938 28.949219 C 13.011719 29.539062 13.023438 30.488281 13.613281 31.0625 C 14.203125 31.640625 15.152344 31.628906 15.726562 31.039062 C 21.515625 25.109375 29.265625 21.84375 37.554688 21.84375 C 45.835938 21.84375 53.589844 25.109375 59.382812 31.039062 C 59.675781 31.339844 60.066406 31.488281 60.453125 31.488281 C 60.832031 31.488281 61.207031 31.347656 61.5 31.0625 C 62.089844 30.488281 62.101562 29.539062 61.523438 28.949219 Z M 56.476562 34.167969 C 51.449219 29.019531 44.726562 26.183594 37.554688 26.183594 C 30.382812 26.183594 23.664062 29.019531 18.636719 34.167969 C 18.058594 34.757812 18.070312 35.707031 18.660156 36.28125 C 18.953125 36.566406 19.328125 36.707031 19.707031 36.707031 C 20.09375 36.707031 20.484375 36.558594 20.777344 36.257812 C 25.234375 31.691406 31.195312 29.175781 37.554688 29.175781 C 43.914062 29.175781 49.875 31.691406 54.335938 36.257812 C 54.914062 36.847656 55.859375 36.859375 56.453125 36.28125 C 57.042969 35.707031 57.054688 34.757812 56.476562 34.167969 Z M 37.554688 33.515625 C 32.285156 33.515625 27.351562 35.597656 23.667969 39.378906 C 23.089844 39.96875 23.101562 40.917969 23.695312 41.492188 C 23.984375 41.777344 24.363281 41.917969 24.738281 41.917969 C 25.128906 41.917969 25.515625 41.765625 25.808594 41.464844 C 28.925781 38.269531 33.097656 36.507812 37.554688 36.507812 C 40.226562 36.507812 42.792969 37.140625 45.09375 38.335938 C 46.046875 37.636719 47.121094 37.097656 48.277344 36.746094 C 45.125 34.644531 41.433594 33.515625 37.554688 33.515625 Z M 37.554688 40.847656 C 34.195312 40.847656 31.050781 42.175781 28.703125 44.585938 C 28.125 45.179688 28.136719 46.125 28.730469 46.703125 C 29.320312 47.277344 30.265625 47.265625 30.84375 46.675781 C 32.625 44.847656 35.007812 43.839844 37.554688 43.839844 C 38.757812 43.839844 39.921875 44.0625 41.007812 44.496094 C 41.238281 43.507812 41.609375 42.570312 42.09375 41.707031 C 40.667969 41.144531 39.136719 40.847656 37.554688 40.847656 Z M 37.554688 48.46875 C 35.40625 48.46875 33.660156 50.214844 33.660156 52.363281 C 33.660156 54.511719 35.40625 56.253906 37.554688 56.253906 C 39.703125 56.253906 41.445312 54.511719 41.445312 52.363281 C 41.445312 50.214844 39.703125 48.46875 37.554688 48.46875 "
      fill-opacity="1"
      fill-rule="nonzero"
    /></g><g clip-path="url(#a6d3ab5b62)"><path
      fill="#424242"
      d="M 55.296875 49.574219 C 55.648438 49.925781 55.648438 50.503906 55.296875 50.859375 C 55.117188 51.035156 54.886719 51.125 54.652344 51.125 C 54.421875 51.125 54.1875 51.035156 54.011719 50.859375 L 51.351562 48.199219 L 48.691406 50.859375 C 48.511719 51.035156 48.28125 51.125 48.046875 51.125 C 47.816406 51.125 47.582031 51.035156 47.40625 50.859375 C 47.050781 50.503906 47.050781 49.925781 47.40625 49.574219 L 50.066406 46.914062 L 47.40625 44.253906 C 47.050781 43.898438 47.050781 43.324219 47.40625 42.96875 C 47.761719 42.613281 48.335938 42.613281 48.691406 42.96875 L 51.351562 45.628906 L 54.011719 42.96875 C 54.363281 42.613281 54.941406 42.613281 55.296875 42.96875 C 55.648438 43.324219 55.648438 43.898438 55.296875 44.253906 L 52.636719 46.914062 Z M 51.351562 37.570312 C 46.191406 37.570312 42.007812 41.753906 42.007812 46.914062 C 42.007812 52.074219 46.191406 56.253906 51.351562 56.253906 C 56.511719 56.253906 60.695312 52.074219 60.695312 46.914062 C 60.695312 41.753906 56.511719 37.570312 51.351562 37.570312 "
      fill-opacity="1"
      fill-rule="nonzero"
    /></g></svg>
