<svg
  xmlns="http://www.w3.org/2000/svg"
  xmlns:xlink="http://www.w3.org/1999/xlink"
  width="100"
  zoomAndPan="magnify"
  viewBox="0 0 75 74.999997"
  height="100"
  preserveAspectRatio="xMidYMid meet"
  version="1.0"
><defs><clipPath id="e147596412"><path
        d="M 1.40625 1.40625 L 73.40625 1.40625 L 73.40625 73.40625 L 1.40625 73.40625 Z M 1.40625 1.40625 "
        clip-rule="nonzero"
      /></clipPath><clipPath id="6af65b25e0"><path
        d="M 17 23 L 45 23 L 45 45.425781 L 17 45.425781 Z M 17 23 "
        clip-rule="nonzero"
      /></clipPath><clipPath id="9caeccc79e"><path
        d="M 7.5 30 L 22 30 L 22 45 L 7.5 45 Z M 7.5 30 "
        clip-rule="nonzero"
      /></clipPath></defs><g clip-path="url(#e147596412)"><path
      fill="#fa9a36"
      d="M 73.699219 37.550781 C 73.699219 38.738281 73.640625 39.917969 73.523438 41.097656 C 73.410156 42.273438 73.234375 43.445312 73.003906 44.605469 C 72.773438 45.765625 72.488281 46.914062 72.144531 48.046875 C 71.800781 49.179688 71.402344 50.292969 70.949219 51.386719 C 70.496094 52.480469 69.988281 53.546875 69.429688 54.59375 C 68.871094 55.636719 68.265625 56.648438 67.609375 57.632812 C 66.949219 58.617188 66.246094 59.570312 65.496094 60.484375 C 64.742188 61.398438 63.949219 62.273438 63.113281 63.113281 C 62.273438 63.949219 61.398438 64.742188 60.484375 65.496094 C 59.570312 66.246094 58.617188 66.949219 57.632812 67.609375 C 56.648438 68.265625 55.636719 68.871094 54.59375 69.429688 C 53.546875 69.988281 52.480469 70.496094 51.386719 70.949219 C 50.292969 71.402344 49.179688 71.800781 48.046875 72.144531 C 46.914062 72.488281 45.765625 72.773438 44.605469 73.003906 C 43.445312 73.234375 42.273438 73.410156 41.097656 73.523438 C 39.917969 73.640625 38.738281 73.699219 37.550781 73.699219 C 36.367188 73.699219 35.1875 73.640625 34.007812 73.523438 C 32.832031 73.410156 31.660156 73.234375 30.5 73.003906 C 29.339844 72.773438 28.191406 72.488281 27.058594 72.144531 C 25.925781 71.800781 24.8125 71.402344 23.71875 70.949219 C 22.625 70.496094 21.558594 69.988281 20.511719 69.429688 C 19.46875 68.871094 18.457031 68.265625 17.472656 67.609375 C 16.488281 66.949219 15.535156 66.246094 14.621094 65.496094 C 13.707031 64.742188 12.832031 63.949219 11.992188 63.113281 C 11.15625 62.273438 10.363281 61.398438 9.609375 60.484375 C 8.859375 59.570312 8.15625 58.617188 7.496094 57.632812 C 6.839844 56.648438 6.234375 55.636719 5.675781 54.59375 C 5.117188 53.546875 4.609375 52.480469 4.15625 51.386719 C 3.703125 50.292969 3.304688 49.179688 2.960938 48.046875 C 2.617188 46.914062 2.332031 45.765625 2.101562 44.605469 C 1.871094 43.445312 1.695312 42.273438 1.582031 41.097656 C 1.464844 39.917969 1.40625 38.738281 1.40625 37.550781 C 1.40625 36.367188 1.464844 35.1875 1.582031 34.007812 C 1.695312 32.832031 1.871094 31.660156 2.101562 30.5 C 2.332031 29.339844 2.617188 28.191406 2.960938 27.058594 C 3.304688 25.925781 3.703125 24.8125 4.15625 23.71875 C 4.609375 22.625 5.117188 21.558594 5.675781 20.511719 C 6.234375 19.46875 6.839844 18.457031 7.496094 17.472656 C 8.15625 16.488281 8.859375 15.535156 9.609375 14.621094 C 10.363281 13.707031 11.15625 12.832031 11.992188 11.992188 C 12.832031 11.15625 13.707031 10.363281 14.621094 9.609375 C 15.535156 8.859375 16.488281 8.15625 17.472656 7.496094 C 18.457031 6.839844 19.46875 6.234375 20.511719 5.675781 C 21.558594 5.117188 22.625 4.609375 23.71875 4.15625 C 24.8125 3.703125 25.925781 3.304688 27.058594 2.960938 C 28.191406 2.617188 29.339844 2.332031 30.5 2.101562 C 31.660156 1.871094 32.832031 1.695312 34.007812 1.582031 C 35.1875 1.464844 36.367188 1.40625 37.550781 1.40625 C 38.738281 1.40625 39.917969 1.464844 41.097656 1.582031 C 42.273438 1.695312 43.445312 1.871094 44.605469 2.101562 C 45.765625 2.332031 46.914062 2.617188 48.046875 2.960938 C 49.179688 3.304688 50.292969 3.703125 51.386719 4.15625 C 52.480469 4.609375 53.546875 5.117188 54.59375 5.675781 C 55.636719 6.234375 56.648438 6.839844 57.632812 7.496094 C 58.617188 8.15625 59.570312 8.859375 60.484375 9.609375 C 61.398438 10.363281 62.273438 11.15625 63.113281 11.992188 C 63.949219 12.832031 64.742188 13.707031 65.496094 14.621094 C 66.246094 15.535156 66.949219 16.488281 67.609375 17.472656 C 68.265625 18.457031 68.871094 19.46875 69.429688 20.511719 C 69.988281 21.558594 70.496094 22.625 70.949219 23.71875 C 71.402344 24.8125 71.800781 25.925781 72.144531 27.058594 C 72.488281 28.191406 72.773438 29.339844 73.003906 30.5 C 73.234375 31.660156 73.410156 32.832031 73.523438 34.007812 C 73.640625 35.1875 73.699219 36.367188 73.699219 37.550781 Z M 73.699219 37.550781 "
      fill-opacity="1"
      fill-rule="nonzero"
    /></g><path
    fill="#343437"
    d="M 36.128906 39.210938 C 36.101562 39.585938 36 39.941406 35.847656 40.265625 C 37.71875 40.234375 39.785156 40.164062 42.019531 40.054688 C 42.070312 40.054688 42.117188 40.050781 42.167969 40.050781 C 42.421875 40.050781 42.667969 40.085938 42.90625 40.148438 L 40.625 34.726562 L 41.332031 34.367188 L 44.328125 41.488281 C 44.863281 42.765625 46.113281 43.59375 47.5 43.59375 L 59.421875 43.59375 C 61.320312 43.59375 62.859375 42.054688 62.859375 40.15625 C 62.859375 38.257812 61.320312 36.714844 59.421875 36.714844 L 49.78125 36.714844 L 47.484375 31.253906 L 46.457031 28.804688 C 46.132812 28.035156 45.558594 27.445312 44.871094 27.089844 C 43.597656 26.3125 40.707031 25.761719 39.828125 25.761719 L 35.59375 25.761719 C 36.046875 27.234375 36.320312 29.429688 36.339844 32.910156 C 36.359375 36.179688 36.132812 39.179688 36.128906 39.210938 Z M 36.128906 39.210938 "
    fill-opacity="1"
    fill-rule="nonzero"
  /><g clip-path="url(#6af65b25e0)"><path
      fill="#343437"
      d="M 22.390625 37.332031 C 22.390625 39.597656 21.425781 41.640625 19.882812 43.074219 C 20.964844 43.878906 22.488281 44.476562 24.59375 44.882812 C 26.925781 45.332031 29.976562 45.546875 33.933594 45.546875 C 36.359375 45.546875 39.125 45.464844 42.277344 45.3125 C 43.488281 45.25 44.425781 44.238281 44.402344 43.035156 C 44.070312 42.675781 43.796875 42.261719 43.597656 41.792969 L 43.339844 41.175781 C 42.96875 40.945312 42.527344 40.824219 42.058594 40.84375 C 39.578125 40.96875 37.324219 41.039062 35.296875 41.0625 C 34.742188 41.644531 33.964844 42.007812 33.113281 42.007812 C 33.039062 42.007812 32.964844 42.003906 32.886719 42 C 32.089844 41.9375 31.386719 41.570312 30.886719 41.023438 C 28.472656 40.941406 26.550781 40.753906 25.121094 40.460938 L 25.214844 39.675781 C 26.335938 39.910156 27.972656 40.109375 30.347656 40.210938 C 30.152344 39.769531 30.054688 39.269531 30.09375 38.753906 C 30.386719 34.894531 30.34375 30.660156 30.019531 28.503906 C 28.605469 28.683594 26.3125 28.984375 24.550781 29.3125 L 24.480469 28.519531 C 26.335938 28.175781 28.761719 27.863281 30.660156 27.628906 C 31.113281 29.488281 31.226562 34.253906 30.882812 38.8125 C 30.789062 40.042969 31.714844 41.117188 32.945312 41.210938 C 33 41.214844 33.058594 41.214844 33.113281 41.214844 C 34.273438 41.214844 35.253906 40.324219 35.339844 39.148438 C 35.351562 39.027344 35.566406 36.109375 35.550781 32.917969 C 35.511719 26.566406 34.605469 24.828125 33.632812 23.898438 C 32.957031 23.25 32.085938 22.953125 31.183594 23.0625 C 28.371094 23.402344 26.015625 23.6875 24.097656 24.03125 C 21.105469 24.5625 19.191406 25.238281 18.332031 26.46875 C 18.011719 26.832031 17.816406 27.304688 17.816406 27.828125 L 17.816406 27.898438 C 17.816406 27.914062 17.8125 27.925781 17.8125 27.945312 C 17.796875 28.097656 17.800781 28.25 17.816406 28.398438 L 17.816406 30.207031 C 20.511719 31.449219 22.390625 34.175781 22.390625 37.332031 Z M 22.390625 37.332031 "
      fill-opacity="1"
      fill-rule="nonzero"
    /></g><path
    fill="#343437"
    d="M 59.417969 35.925781 C 61.753906 35.925781 63.648438 37.824219 63.648438 40.15625 C 63.648438 40.527344 63.597656 40.886719 63.507812 41.230469 C 64.871094 40.730469 65.847656 39.421875 65.847656 37.882812 C 65.847656 35.914062 64.25 34.316406 62.28125 34.316406 L 49.628906 34.316406 L 50.308594 35.925781 Z M 59.417969 35.925781 "
    fill-opacity="1"
    fill-rule="nonzero"
  /><g clip-path="url(#9caeccc79e)"><path
      fill="#343437"
      d="M 21.601562 37.332031 C 21.601562 33.4375 18.445312 30.28125 14.550781 30.28125 C 10.65625 30.28125 7.5 33.4375 7.5 37.332031 C 7.5 41.226562 10.65625 44.382812 14.550781 44.382812 C 18.445312 44.382812 21.601562 41.226562 21.601562 37.332031 Z M 15.402344 42.050781 C 14.800781 42.050781 14.308594 41.558594 14.308594 40.953125 C 14.308594 40.351562 14.796875 39.859375 15.402344 39.859375 C 16.007812 39.859375 16.5 40.347656 16.5 40.953125 C 16.5 41.558594 16.007812 42.050781 15.402344 42.050781 Z M 15.082031 38.027344 C 14.226562 38.027344 13.535156 37.335938 13.535156 36.480469 C 13.535156 35.625 14.226562 34.933594 15.082031 34.933594 C 15.9375 34.933594 16.628906 35.625 16.628906 36.480469 C 16.628906 37.335938 15.9375 38.027344 15.082031 38.027344 Z M 15.082031 38.027344 "
      fill-opacity="1"
      fill-rule="nonzero"
    /></g></svg>
