<svg
  xmlns="http://www.w3.org/2000/svg"
  xmlns:xlink="http://www.w3.org/1999/xlink"
  width="100"
  zoomAndPan="magnify"
  viewBox="0 0 75 74.999997"
  height="100"
  preserveAspectRatio="xMidYMid meet"
  version="1.0"
><defs><clipPath id="1c7b7ee2c3"><path
        d="M 1.40625 1.40625 L 73.40625 1.40625 L 73.40625 73.40625 L 1.40625 73.40625 Z M 1.40625 1.40625 "
        clip-rule="nonzero"
      /></clipPath><clipPath id="da83766a19"><path
        d="M 15.09375 15.21875 L 61.507812 15.21875 L 61.507812 57.21875 L 15.09375 57.21875 Z M 15.09375 15.21875 "
        clip-rule="nonzero"
      /></clipPath><clipPath id="453d94093e"><path
        d="M 14.289062 14.46875 L 60.703125 14.46875 L 60.703125 56.46875 L 14.289062 56.46875 Z M 14.289062 14.46875 "
        clip-rule="nonzero"
      /></clipPath></defs><g clip-path="url(#1c7b7ee2c3)"><path
      fill="#fa9a36"
      d="M 73.699219 37.550781 C 73.699219 38.738281 73.640625 39.917969 73.523438 41.097656 C 73.410156 42.273438 73.234375 43.445312 73.003906 44.605469 C 72.773438 45.765625 72.488281 46.914062 72.144531 48.046875 C 71.800781 49.179688 71.402344 50.292969 70.949219 51.386719 C 70.496094 52.480469 69.988281 53.546875 69.429688 54.59375 C 68.871094 55.636719 68.265625 56.648438 67.609375 57.632812 C 66.949219 58.617188 66.246094 59.570312 65.496094 60.484375 C 64.742188 61.398438 63.949219 62.273438 63.113281 63.113281 C 62.273438 63.949219 61.398438 64.742188 60.484375 65.496094 C 59.570312 66.246094 58.617188 66.949219 57.632812 67.609375 C 56.648438 68.265625 55.636719 68.871094 54.59375 69.429688 C 53.546875 69.988281 52.480469 70.496094 51.386719 70.949219 C 50.292969 71.402344 49.179688 71.800781 48.046875 72.144531 C 46.914062 72.488281 45.765625 72.773438 44.605469 73.003906 C 43.445312 73.234375 42.273438 73.410156 41.097656 73.523438 C 39.917969 73.640625 38.738281 73.699219 37.550781 73.699219 C 36.367188 73.699219 35.1875 73.640625 34.007812 73.523438 C 32.832031 73.410156 31.660156 73.234375 30.5 73.003906 C 29.339844 72.773438 28.191406 72.488281 27.058594 72.144531 C 25.925781 71.800781 24.8125 71.402344 23.71875 70.949219 C 22.625 70.496094 21.558594 69.988281 20.511719 69.429688 C 19.46875 68.871094 18.457031 68.265625 17.472656 67.609375 C 16.488281 66.949219 15.535156 66.246094 14.621094 65.496094 C 13.707031 64.742188 12.832031 63.949219 11.992188 63.113281 C 11.15625 62.273438 10.363281 61.398438 9.609375 60.484375 C 8.859375 59.570312 8.15625 58.617188 7.496094 57.632812 C 6.839844 56.648438 6.234375 55.636719 5.675781 54.59375 C 5.117188 53.546875 4.609375 52.480469 4.15625 51.386719 C 3.703125 50.292969 3.304688 49.179688 2.960938 48.046875 C 2.617188 46.914062 2.332031 45.765625 2.101562 44.605469 C 1.871094 43.445312 1.695312 42.273438 1.582031 41.097656 C 1.464844 39.917969 1.40625 38.738281 1.40625 37.550781 C 1.40625 36.367188 1.464844 35.1875 1.582031 34.007812 C 1.695312 32.832031 1.871094 31.660156 2.101562 30.5 C 2.332031 29.339844 2.617188 28.191406 2.960938 27.058594 C 3.304688 25.925781 3.703125 24.8125 4.15625 23.71875 C 4.609375 22.625 5.117188 21.558594 5.675781 20.511719 C 6.234375 19.46875 6.839844 18.457031 7.496094 17.472656 C 8.15625 16.488281 8.859375 15.535156 9.609375 14.621094 C 10.363281 13.707031 11.15625 12.832031 11.992188 11.992188 C 12.832031 11.15625 13.707031 10.363281 14.621094 9.609375 C 15.535156 8.859375 16.488281 8.15625 17.472656 7.496094 C 18.457031 6.839844 19.46875 6.234375 20.511719 5.675781 C 21.558594 5.117188 22.625 4.609375 23.71875 4.15625 C 24.8125 3.703125 25.925781 3.304688 27.058594 2.960938 C 28.191406 2.617188 29.339844 2.332031 30.5 2.101562 C 31.660156 1.871094 32.832031 1.695312 34.007812 1.582031 C 35.1875 1.464844 36.367188 1.40625 37.550781 1.40625 C 38.738281 1.40625 39.917969 1.464844 41.097656 1.582031 C 42.273438 1.695312 43.445312 1.871094 44.605469 2.101562 C 45.765625 2.332031 46.914062 2.617188 48.046875 2.960938 C 49.179688 3.304688 50.292969 3.703125 51.386719 4.15625 C 52.480469 4.609375 53.546875 5.117188 54.59375 5.675781 C 55.636719 6.234375 56.648438 6.839844 57.632812 7.496094 C 58.617188 8.15625 59.570312 8.859375 60.484375 9.609375 C 61.398438 10.363281 62.273438 11.15625 63.113281 11.992188 C 63.949219 12.832031 64.742188 13.707031 65.496094 14.621094 C 66.246094 15.535156 66.949219 16.488281 67.609375 17.472656 C 68.265625 18.457031 68.871094 19.46875 69.429688 20.511719 C 69.988281 21.558594 70.496094 22.625 70.949219 23.71875 C 71.402344 24.8125 71.800781 25.925781 72.144531 27.058594 C 72.488281 28.191406 72.773438 29.339844 73.003906 30.5 C 73.234375 31.660156 73.410156 32.832031 73.523438 34.007812 C 73.640625 35.1875 73.699219 36.367188 73.699219 37.550781 Z M 73.699219 37.550781 "
      fill-opacity="1"
      fill-rule="nonzero"
    /></g><g clip-path="url(#da83766a19)"><path
      fill="#ffffff"
      d="M 48.328125 25.761719 L 52.785156 20.9375 C 51.484375 19.878906 50.09375 18.929688 48.59375 18.140625 C 46.96875 17.289062 45.25 16.613281 43.472656 16.125 L 41.890625 21.765625 C 43.679688 22.457031 45.367188 23.382812 46.855469 24.519531 C 47.367188 24.914062 47.859375 25.328125 48.328125 25.761719 Z M 56.78125 25.070312 C 55.449219 26.617188 53.816406 28.507812 52.109375 30.476562 C 52.570312 31.28125 52.980469 32.121094 53.320312 32.984375 L 59.832031 30.441406 C 59.054688 28.535156 58.023438 26.722656 56.78125 25.070312 Z M 20.90625 20.972656 L 22.730469 23.210938 C 24.300781 22.339844 25.972656 21.636719 27.722656 21.144531 C 28.65625 20.878906 29.609375 20.679688 30.570312 20.542969 L 29.652344 16.222656 C 28.421875 16.589844 27.199219 17.066406 26.054688 17.601562 C 24.195312 18.472656 22.453125 19.617188 20.90625 20.972656 Z M 54.523438 41.304688 L 61.351562 41.761719 C 61.738281 38.484375 61.410156 35.15625 60.402344 32.003906 L 53.855469 34.5625 C 54.488281 36.757812 54.703125 39.03125 54.523438 41.304688 Z M 31.332031 15.785156 L 32.304688 20.363281 C 33.050781 20.3125 33.800781 20.292969 34.546875 20.3125 C 36.464844 20.351562 38.394531 20.660156 40.25 21.207031 L 41.785156 15.722656 C 40.363281 15.4375 38.90625 15.269531 37.441406 15.226562 C 35.394531 15.171875 33.328125 15.347656 31.332031 15.785156 Z M 15.09375 29.644531 C 15.535156 29.359375 16.273438 28.382812 16.527344 28.109375 C 17.128906 27.453125 17.761719 26.820312 18.4375 26.230469 C 19.324219 25.457031 20.265625 24.742188 21.257812 24.101562 L 19.667969 22.148438 C 17.578125 24.296875 15.964844 26.863281 15.09375 29.644531 Z M 58.054688 51.949219 C 56.65625 53.765625 54.101562 56.082031 52.222656 57.441406 L 48.25 52.492188 C 49.390625 51.535156 51.292969 49.738281 52.179688 48.535156 Z M 61.09375 43.402344 C 60.648438 45.648438 59.828125 47.855469 58.75 49.90625 L 52.992188 47.234375 C 53.589844 45.871094 54.050781 44.417969 54.3125 42.949219 L 61.09375 43.402344 "
      fill-opacity="1"
      fill-rule="nonzero"
    /></g><path
    fill="#ffffff"
    d="M 38.261719 37.089844 C 44.585938 31.042969 57.207031 19.507812 57.207031 19.507812 C 57.207031 19.507812 48.765625 34.675781 44.484375 41.980469 Z M 37.382812 44.554688 C 36.617188 44.019531 36.464844 42.980469 37.042969 42.234375 C 37.625 41.492188 38.714844 41.324219 39.480469 41.863281 C 40.246094 42.402344 40.398438 43.4375 39.820312 44.183594 C 39.242188 44.925781 38.152344 45.09375 37.382812 44.554688 Z M 37.058594 38.242188 C 35.894531 39.375 35.085938 40.195312 34.828125 40.527344 C 33.289062 42.5 33.691406 45.257812 35.726562 46.683594 C 37.761719 48.113281 40.65625 47.667969 42.195312 45.695312 C 42.425781 45.394531 42.9375 44.578125 43.636719 43.414062 L 37.058594 38.242188 "
    fill-opacity="1"
    fill-rule="nonzero"
  /><g clip-path="url(#453d94093e)"><path
      fill="#343437"
      d="M 47.523438 25.011719 L 51.980469 20.1875 C 50.679688 19.128906 49.285156 18.179688 47.789062 17.390625 C 46.164062 16.539062 44.445312 15.863281 42.664062 15.375 L 41.085938 21.015625 C 42.875 21.707031 44.558594 22.632812 46.046875 23.769531 C 46.5625 24.164062 47.054688 24.578125 47.523438 25.011719 Z M 55.976562 24.320312 C 54.640625 25.867188 53.011719 27.757812 51.300781 29.726562 C 51.765625 30.53125 52.171875 31.371094 52.515625 32.234375 L 59.027344 29.691406 C 58.25 27.785156 57.21875 25.972656 55.976562 24.320312 Z M 20.101562 20.222656 L 21.925781 22.460938 C 23.496094 21.589844 25.167969 20.886719 26.914062 20.394531 C 27.851562 20.128906 28.804688 19.929688 29.765625 19.792969 L 28.847656 15.472656 C 27.617188 15.839844 26.394531 16.316406 25.25 16.851562 C 23.390625 17.722656 21.648438 18.867188 20.101562 20.222656 Z M 53.71875 40.554688 L 60.542969 41.011719 C 60.929688 37.734375 60.605469 34.40625 59.59375 31.253906 L 53.050781 33.8125 C 53.679688 36.007812 53.898438 38.28125 53.71875 40.554688 Z M 30.523438 15.035156 L 31.5 19.613281 C 32.242188 19.5625 32.992188 19.542969 33.742188 19.5625 C 35.660156 19.601562 37.589844 19.910156 39.445312 20.457031 L 40.980469 14.972656 C 39.554688 14.6875 38.101562 14.519531 36.636719 14.476562 C 34.589844 14.421875 32.523438 14.597656 30.523438 15.035156 Z M 14.289062 28.894531 C 14.726562 28.609375 15.46875 27.632812 15.71875 27.359375 C 16.324219 26.703125 16.957031 26.070312 17.632812 25.480469 C 18.519531 24.707031 19.460938 23.992188 20.453125 23.351562 L 18.863281 21.398438 C 16.773438 23.546875 15.15625 26.113281 14.289062 28.894531 Z M 57.25 51.199219 C 55.851562 53.015625 53.292969 55.332031 51.417969 56.691406 L 47.445312 51.742188 C 48.585938 50.785156 50.488281 48.988281 51.375 47.785156 Z M 60.289062 42.652344 C 59.84375 44.898438 59.023438 47.105469 57.941406 49.15625 L 52.1875 46.484375 C 52.785156 45.121094 53.246094 43.667969 53.507812 42.199219 L 60.289062 42.652344 "
      fill-opacity="1"
      fill-rule="nonzero"
    /></g><path
    fill="#343437"
    d="M 37.453125 36.339844 C 43.777344 30.292969 56.402344 18.757812 56.402344 18.757812 C 56.402344 18.757812 47.960938 33.925781 43.675781 41.230469 Z M 36.578125 43.804688 C 35.8125 43.269531 35.660156 42.230469 36.238281 41.484375 C 36.816406 40.742188 37.910156 40.574219 38.675781 41.113281 C 39.441406 41.652344 39.59375 42.6875 39.015625 43.433594 C 38.4375 44.175781 37.34375 44.34375 36.578125 43.804688 Z M 36.253906 37.492188 C 35.089844 38.625 34.28125 39.445312 34.019531 39.777344 C 32.484375 41.75 32.886719 44.507812 34.921875 45.933594 C 36.957031 47.363281 39.851562 46.917969 41.386719 44.945312 C 41.621094 44.644531 42.132812 43.828125 42.828125 42.664062 L 36.253906 37.492188 "
    fill-opacity="1"
    fill-rule="nonzero"
  /></svg>
