<svg
  xmlns="http://www.w3.org/2000/svg"
  xmlns:xlink="http://www.w3.org/1999/xlink"
  width="100"
  zoomAndPan="magnify"
  viewBox="0 0 75 74.999997"
  height="100"
  preserveAspectRatio="xMidYMid meet"
  version="1.0"
><defs><clipPath id="4f1d2f21c9"><path
        d="M 1.40625 1.40625 L 73.40625 1.40625 L 73.40625 73.40625 L 1.40625 73.40625 Z M 1.40625 1.40625 "
        clip-rule="nonzero"
      /></clipPath><clipPath id="0cfd2d15e4"><path
        d="M 13.976562 16.292969 L 61.226562 16.292969 L 61.226562 55.292969 L 13.976562 55.292969 Z M 13.976562 16.292969 "
        clip-rule="nonzero"
      /></clipPath><clipPath id="3c9011d5ae"><path
        d="M 27 33 L 49 33 L 49 70 L 27 70 Z M 27 33 "
        clip-rule="nonzero"
      /></clipPath><clipPath id="e1d1bbde9d"><path
        d="M 16.597656 52.953125 L 36.9375 27.925781 L 58.472656 45.425781 L 38.136719 70.453125 Z M 16.597656 52.953125 "
        clip-rule="nonzero"
      /></clipPath><clipPath id="058688ea4f"><path
        d="M 16.597656 52.953125 L 36.9375 27.925781 L 58.472656 45.425781 L 38.136719 70.453125 Z M 16.597656 52.953125 "
        clip-rule="nonzero"
      /></clipPath></defs><g clip-path="url(#4f1d2f21c9)"><path
      fill="#fa9a36"
      d="M 73.699219 37.550781 C 73.699219 38.738281 73.640625 39.917969 73.523438 41.097656 C 73.410156 42.273438 73.234375 43.445312 73.003906 44.605469 C 72.773438 45.765625 72.488281 46.914062 72.144531 48.046875 C 71.800781 49.179688 71.402344 50.292969 70.949219 51.386719 C 70.496094 52.480469 69.988281 53.546875 69.429688 54.59375 C 68.871094 55.636719 68.265625 56.648438 67.609375 57.632812 C 66.949219 58.617188 66.246094 59.570312 65.496094 60.484375 C 64.742188 61.398438 63.949219 62.273438 63.113281 63.113281 C 62.273438 63.949219 61.398438 64.742188 60.484375 65.496094 C 59.570312 66.246094 58.617188 66.949219 57.632812 67.609375 C 56.648438 68.265625 55.636719 68.871094 54.59375 69.429688 C 53.546875 69.988281 52.480469 70.496094 51.386719 70.949219 C 50.292969 71.402344 49.179688 71.800781 48.046875 72.144531 C 46.914062 72.488281 45.765625 72.773438 44.605469 73.003906 C 43.445312 73.234375 42.273438 73.410156 41.097656 73.523438 C 39.917969 73.640625 38.738281 73.699219 37.550781 73.699219 C 36.367188 73.699219 35.1875 73.640625 34.007812 73.523438 C 32.832031 73.410156 31.660156 73.234375 30.5 73.003906 C 29.339844 72.773438 28.191406 72.488281 27.058594 72.144531 C 25.925781 71.800781 24.8125 71.402344 23.71875 70.949219 C 22.625 70.496094 21.558594 69.988281 20.511719 69.429688 C 19.46875 68.871094 18.457031 68.265625 17.472656 67.609375 C 16.488281 66.949219 15.535156 66.246094 14.621094 65.496094 C 13.707031 64.742188 12.832031 63.949219 11.992188 63.113281 C 11.15625 62.273438 10.363281 61.398438 9.609375 60.484375 C 8.859375 59.570312 8.15625 58.617188 7.496094 57.632812 C 6.839844 56.648438 6.234375 55.636719 5.675781 54.59375 C 5.117188 53.546875 4.609375 52.480469 4.15625 51.386719 C 3.703125 50.292969 3.304688 49.179688 2.960938 48.046875 C 2.617188 46.914062 2.332031 45.765625 2.101562 44.605469 C 1.871094 43.445312 1.695312 42.273438 1.582031 41.097656 C 1.464844 39.917969 1.40625 38.738281 1.40625 37.550781 C 1.40625 36.367188 1.464844 35.1875 1.582031 34.007812 C 1.695312 32.832031 1.871094 31.660156 2.101562 30.5 C 2.332031 29.339844 2.617188 28.191406 2.960938 27.058594 C 3.304688 25.925781 3.703125 24.8125 4.15625 23.71875 C 4.609375 22.625 5.117188 21.558594 5.675781 20.511719 C 6.234375 19.46875 6.839844 18.457031 7.496094 17.472656 C 8.15625 16.488281 8.859375 15.535156 9.609375 14.621094 C 10.363281 13.707031 11.15625 12.832031 11.992188 11.992188 C 12.832031 11.15625 13.707031 10.363281 14.621094 9.609375 C 15.535156 8.859375 16.488281 8.15625 17.472656 7.496094 C 18.457031 6.839844 19.46875 6.234375 20.511719 5.675781 C 21.558594 5.117188 22.625 4.609375 23.71875 4.15625 C 24.8125 3.703125 25.925781 3.304688 27.058594 2.960938 C 28.191406 2.617188 29.339844 2.332031 30.5 2.101562 C 31.660156 1.871094 32.832031 1.695312 34.007812 1.582031 C 35.1875 1.464844 36.367188 1.40625 37.550781 1.40625 C 38.738281 1.40625 39.917969 1.464844 41.097656 1.582031 C 42.273438 1.695312 43.445312 1.871094 44.605469 2.101562 C 45.765625 2.332031 46.914062 2.617188 48.046875 2.960938 C 49.179688 3.304688 50.292969 3.703125 51.386719 4.15625 C 52.480469 4.609375 53.546875 5.117188 54.59375 5.675781 C 55.636719 6.234375 56.648438 6.839844 57.632812 7.496094 C 58.617188 8.15625 59.570312 8.859375 60.484375 9.609375 C 61.398438 10.363281 62.273438 11.15625 63.113281 11.992188 C 63.949219 12.832031 64.742188 13.707031 65.496094 14.621094 C 66.246094 15.535156 66.949219 16.488281 67.609375 17.472656 C 68.265625 18.457031 68.871094 19.46875 69.429688 20.511719 C 69.988281 21.558594 70.496094 22.625 70.949219 23.71875 C 71.402344 24.8125 71.800781 25.925781 72.144531 27.058594 C 72.488281 28.191406 72.773438 29.339844 73.003906 30.5 C 73.234375 31.660156 73.410156 32.832031 73.523438 34.007812 C 73.640625 35.1875 73.699219 36.367188 73.699219 37.550781 Z M 73.699219 37.550781 "
      fill-opacity="1"
      fill-rule="nonzero"
    /></g><g clip-path="url(#0cfd2d15e4)"><path
      fill="#ffffff"
      d="M 59.863281 53.292969 L 59.863281 21.71875 L 56.332031 21.71875 L 56.332031 17.484375 C 56.332031 16.84375 55.820312 16.394531 55.242188 16.394531 L 51.453125 16.394531 C 50.8125 16.394531 50.363281 16.90625 50.363281 17.484375 L 50.363281 21.71875 L 48.375 21.71875 L 48.375 20.050781 L 26.621094 20.050781 L 26.621094 21.71875 L 24.628906 21.71875 L 24.628906 17.484375 C 24.628906 16.84375 24.117188 16.394531 23.539062 16.394531 L 19.753906 16.394531 C 19.113281 16.394531 18.664062 16.90625 18.664062 17.484375 L 18.664062 21.71875 L 15.132812 21.71875 L 15.132812 53.292969 L 13.976562 53.292969 L 13.976562 55.472656 L 61.015625 55.472656 L 61.015625 53.292969 Z M 25.273438 34.617188 L 23.730469 34.617188 L 23.730469 36.15625 C 23.730469 36.734375 23.28125 37.183594 22.707031 37.183594 C 22.128906 37.183594 21.679688 36.734375 21.679688 36.15625 L 21.679688 34.617188 L 20.136719 34.617188 C 19.5625 34.617188 19.113281 34.167969 19.113281 33.589844 C 19.113281 33.011719 19.5625 32.5625 20.136719 32.5625 L 21.679688 32.5625 L 21.679688 31.023438 C 21.679688 30.445312 22.128906 29.996094 22.707031 29.996094 C 23.28125 29.996094 23.730469 30.445312 23.730469 31.023438 L 23.730469 32.5625 L 25.273438 32.5625 C 25.851562 32.5625 26.300781 33.011719 26.300781 33.589844 C 26.300781 34.167969 25.851562 34.617188 25.273438 34.617188 Z M 54.792969 34.617188 L 49.660156 34.617188 C 49.082031 34.617188 48.632812 34.167969 48.632812 33.589844 C 48.632812 33.011719 49.082031 32.5625 49.660156 32.5625 L 54.792969 32.5625 C 55.371094 32.5625 55.820312 33.011719 55.820312 33.589844 C 55.820312 34.167969 55.371094 34.617188 54.792969 34.617188 Z M 54.792969 34.617188 "
      fill-opacity="1"
      fill-rule="nonzero"
    /></g><g clip-path="url(#3c9011d5ae)"><g clip-path="url(#e1d1bbde9d)"><g clip-path="url(#058688ea4f)"><path
          fill="#404040"
          d="M 33.628906 33.199219 C 32.796875 33.191406 32.121094 33.851562 32.109375 34.683594 L 32.039062 40.792969 L 28.269531 40.75 C 28.007812 40.746094 27.765625 40.980469 27.761719 41.246094 L 27.695312 47.066406 C 27.636719 52.007812 31.039062 56.171875 35.660156 57.25 L 35.546875 66.878906 C 35.53125 68.125 36.523438 69.140625 37.769531 69.152344 C 39.015625 69.167969 40.03125 68.179688 40.046875 66.929688 L 40.160156 57.304688 C 44.800781 56.332031 48.304688 52.253906 48.363281 47.308594 L 48.433594 41.488281 C 48.4375 41.226562 48.199219 40.984375 47.9375 40.980469 L 44.167969 40.9375 L 44.242188 34.828125 C 44.25 33.996094 43.589844 33.320312 42.757812 33.308594 C 41.925781 33.296875 41.25 33.960938 41.238281 34.792969 L 41.167969 40.902344 L 35.039062 40.828125 L 35.113281 34.71875 C 35.121094 33.886719 34.460938 33.210938 33.628906 33.199219 Z M 33.628906 33.199219 "
          fill-opacity="1"
          fill-rule="nonzero"
        /></g></g></g></svg>
