<svg
  xmlns="http://www.w3.org/2000/svg"
  xmlns:xlink="http://www.w3.org/1999/xlink"
  width="100"
  zoomAndPan="magnify"
  viewBox="0 0 75 74.999997"
  height="100"
  preserveAspectRatio="xMidYMid meet"
  version="1.0"
><defs><clipPath id="2822798bb4"><path
        d="M 1.40625 1.40625 L 73.40625 1.40625 L 73.40625 73.40625 L 1.40625 73.40625 Z M 1.40625 1.40625 "
        clip-rule="nonzero"
      /></clipPath><clipPath id="9f9d1bce48"><path
        d="M 13.640625 22.28125 L 45.890625 22.28125 L 45.890625 53 L 13.640625 53 Z M 13.640625 22.28125 "
        clip-rule="nonzero"
      /></clipPath><clipPath id="2707896b75"><path
        d="M 49 21 L 66 21 L 66 54 L 49 54 Z M 49 21 "
        clip-rule="nonzero"
      /></clipPath><clipPath id="985077fb52"><path
        d="M 49.722656 54.242188 L 32.75 37.273438 L 49.722656 20.300781 L 66.691406 37.273438 Z M 49.722656 54.242188 "
        clip-rule="nonzero"
      /></clipPath><clipPath id="030301da85"><path
        d="M 49.722656 54.242188 L 32.75 37.273438 L 49.722656 20.300781 L 66.691406 37.273438 Z M 49.722656 54.242188 "
        clip-rule="nonzero"
      /></clipPath><clipPath id="7d38c50404"><path
        d="M 49 21 L 67 21 L 67 54 L 49 54 Z M 49 21 "
        clip-rule="nonzero"
      /></clipPath><clipPath id="07de0a8df8"><path
        d="M 49.722656 54.242188 L 32.75 37.273438 L 49.722656 20.300781 L 66.691406 37.273438 Z M 49.722656 54.242188 "
        clip-rule="nonzero"
      /></clipPath><clipPath id="c7eda23a3c"><path
        d="M 49.722656 54.242188 L 32.75 37.273438 L 49.722656 20.300781 L 66.691406 37.273438 Z M 49.722656 54.242188 "
        clip-rule="nonzero"
      /></clipPath></defs><g clip-path="url(#2822798bb4)"><path
      fill="#fa9a36"
      d="M 73.699219 37.550781 C 73.699219 38.738281 73.640625 39.917969 73.523438 41.097656 C 73.410156 42.273438 73.234375 43.445312 73.003906 44.605469 C 72.773438 45.765625 72.488281 46.914062 72.144531 48.046875 C 71.800781 49.179688 71.402344 50.292969 70.949219 51.386719 C 70.496094 52.480469 69.988281 53.546875 69.429688 54.59375 C 68.871094 55.636719 68.265625 56.648438 67.609375 57.632812 C 66.949219 58.617188 66.246094 59.570312 65.496094 60.484375 C 64.742188 61.398438 63.949219 62.273438 63.113281 63.113281 C 62.273438 63.949219 61.398438 64.742188 60.484375 65.496094 C 59.570312 66.246094 58.617188 66.949219 57.632812 67.609375 C 56.648438 68.265625 55.636719 68.871094 54.59375 69.429688 C 53.546875 69.988281 52.480469 70.496094 51.386719 70.949219 C 50.292969 71.402344 49.179688 71.800781 48.046875 72.144531 C 46.914062 72.488281 45.765625 72.773438 44.605469 73.003906 C 43.445312 73.234375 42.273438 73.410156 41.097656 73.523438 C 39.917969 73.640625 38.738281 73.699219 37.550781 73.699219 C 36.367188 73.699219 35.1875 73.640625 34.007812 73.523438 C 32.832031 73.410156 31.660156 73.234375 30.5 73.003906 C 29.339844 72.773438 28.191406 72.488281 27.058594 72.144531 C 25.925781 71.800781 24.8125 71.402344 23.71875 70.949219 C 22.625 70.496094 21.558594 69.988281 20.511719 69.429688 C 19.46875 68.871094 18.457031 68.265625 17.472656 67.609375 C 16.488281 66.949219 15.535156 66.246094 14.621094 65.496094 C 13.707031 64.742188 12.832031 63.949219 11.992188 63.113281 C 11.15625 62.273438 10.363281 61.398438 9.609375 60.484375 C 8.859375 59.570312 8.15625 58.617188 7.496094 57.632812 C 6.839844 56.648438 6.234375 55.636719 5.675781 54.59375 C 5.117188 53.546875 4.609375 52.480469 4.15625 51.386719 C 3.703125 50.292969 3.304688 49.179688 2.960938 48.046875 C 2.617188 46.914062 2.332031 45.765625 2.101562 44.605469 C 1.871094 43.445312 1.695312 42.273438 1.582031 41.097656 C 1.464844 39.917969 1.40625 38.738281 1.40625 37.550781 C 1.40625 36.367188 1.464844 35.1875 1.582031 34.007812 C 1.695312 32.832031 1.871094 31.660156 2.101562 30.5 C 2.332031 29.339844 2.617188 28.191406 2.960938 27.058594 C 3.304688 25.925781 3.703125 24.8125 4.15625 23.71875 C 4.609375 22.625 5.117188 21.558594 5.675781 20.511719 C 6.234375 19.46875 6.839844 18.457031 7.496094 17.472656 C 8.15625 16.488281 8.859375 15.535156 9.609375 14.621094 C 10.363281 13.707031 11.15625 12.832031 11.992188 11.992188 C 12.832031 11.15625 13.707031 10.363281 14.621094 9.609375 C 15.535156 8.859375 16.488281 8.15625 17.472656 7.496094 C 18.457031 6.839844 19.46875 6.234375 20.511719 5.675781 C 21.558594 5.117188 22.625 4.609375 23.71875 4.15625 C 24.8125 3.703125 25.925781 3.304688 27.058594 2.960938 C 28.191406 2.617188 29.339844 2.332031 30.5 2.101562 C 31.660156 1.871094 32.832031 1.695312 34.007812 1.582031 C 35.1875 1.464844 36.367188 1.40625 37.550781 1.40625 C 38.738281 1.40625 39.917969 1.464844 41.097656 1.582031 C 42.273438 1.695312 43.445312 1.871094 44.605469 2.101562 C 45.765625 2.332031 46.914062 2.617188 48.046875 2.960938 C 49.179688 3.304688 50.292969 3.703125 51.386719 4.15625 C 52.480469 4.609375 53.546875 5.117188 54.59375 5.675781 C 55.636719 6.234375 56.648438 6.839844 57.632812 7.496094 C 58.617188 8.15625 59.570312 8.859375 60.484375 9.609375 C 61.398438 10.363281 62.273438 11.15625 63.113281 11.992188 C 63.949219 12.832031 64.742188 13.707031 65.496094 14.621094 C 66.246094 15.535156 66.949219 16.488281 67.609375 17.472656 C 68.265625 18.457031 68.871094 19.46875 69.429688 20.511719 C 69.988281 21.558594 70.496094 22.625 70.949219 23.71875 C 71.402344 24.8125 71.800781 25.925781 72.144531 27.058594 C 72.488281 28.191406 72.773438 29.339844 73.003906 30.5 C 73.234375 31.660156 73.410156 32.832031 73.523438 34.007812 C 73.640625 35.1875 73.699219 36.367188 73.699219 37.550781 Z M 73.699219 37.550781 "
      fill-opacity="1"
      fill-rule="nonzero"
    /></g><g clip-path="url(#9f9d1bce48)"><path
      fill="#000000"
      d="M 26.289062 22.351562 C 23.152344 22.351562 20.492188 24.398438 19.539062 27.238281 C 19.15625 28.378906 20.0625 29.554688 21.253906 29.554688 L 22.726562 29.554688 L 22.726562 34.957031 L 15.597656 34.957031 C 15.359375 34.953125 15.132812 34.996094 14.910156 35.085938 C 14.6875 35.175781 14.492188 35.304688 14.324219 35.472656 C 14.152344 35.644531 14.023438 35.839844 13.929688 36.0625 C 13.839844 36.285156 13.792969 36.515625 13.792969 36.757812 C 13.792969 36.996094 13.839844 37.230469 13.929688 37.453125 C 14.023438 37.671875 14.152344 37.871094 14.324219 38.039062 C 14.492188 38.207031 14.6875 38.335938 14.910156 38.425781 C 15.132812 38.515625 15.359375 38.558594 15.597656 38.558594 L 22.726562 38.558594 L 22.726562 49.359375 L 19.164062 49.359375 C 18.925781 49.355469 18.695312 49.398438 18.472656 49.488281 C 18.253906 49.582031 18.054688 49.710938 17.886719 49.878906 C 17.71875 50.046875 17.585938 50.242188 17.492188 50.464844 C 17.402344 50.6875 17.355469 50.921875 17.355469 51.160156 C 17.355469 51.402344 17.402344 51.632812 17.492188 51.855469 C 17.585938 52.078125 17.71875 52.273438 17.886719 52.445312 C 18.054688 52.613281 18.253906 52.742188 18.472656 52.832031 C 18.695312 52.921875 18.925781 52.964844 19.164062 52.960938 L 40.542969 52.960938 C 40.78125 52.964844 41.011719 52.921875 41.234375 52.832031 C 41.457031 52.742188 41.652344 52.613281 41.820312 52.445312 C 41.992188 52.273438 42.121094 52.078125 42.214844 51.855469 C 42.304688 51.632812 42.351562 51.402344 42.351562 51.160156 C 42.351562 50.921875 42.304688 50.6875 42.214844 50.464844 C 42.121094 50.242188 41.992188 50.046875 41.820312 49.878906 C 41.652344 49.710938 41.457031 49.582031 41.234375 49.488281 C 41.011719 49.398438 40.78125 49.355469 40.542969 49.359375 L 36.980469 49.359375 L 36.980469 38.558594 L 44.109375 38.558594 C 44.347656 38.558594 44.574219 38.515625 44.796875 38.425781 C 45.019531 38.335938 45.214844 38.207031 45.382812 38.039062 C 45.554688 37.871094 45.683594 37.671875 45.777344 37.453125 C 45.867188 37.230469 45.914062 36.996094 45.914062 36.757812 C 45.914062 36.515625 45.867188 36.285156 45.777344 36.0625 C 45.683594 35.839844 45.554688 35.644531 45.382812 35.472656 C 45.214844 35.304688 45.019531 35.175781 44.796875 35.085938 C 44.574219 34.996094 44.347656 34.953125 44.109375 34.957031 L 36.980469 34.957031 L 36.980469 29.554688 L 38.453125 29.554688 C 39.644531 29.554688 40.550781 28.378906 40.167969 27.238281 C 39.214844 24.398438 36.554688 22.351562 33.417969 22.351562 Z M 26.289062 22.351562 "
      fill-opacity="1"
      fill-rule="nonzero"
    /></g><g clip-path="url(#2707896b75)"><g clip-path="url(#985077fb52)"><g clip-path="url(#030301da85)"><path
          fill="#ffffff"
          d="M 49.773438 53.355469 L 65.683594 37.445312 L 49.773438 21.53125 Z M 49.773438 53.355469 "
          fill-opacity="1"
          fill-rule="nonzero"
        /></g></g></g><g clip-path="url(#7d38c50404)"><g clip-path="url(#07de0a8df8)"><g
        clip-path="url(#c7eda23a3c)"
      ><path
          fill="#ffffff"
          d="M 50.136719 21.167969 L 66.050781 37.078125 C 66.3125 37.339844 66.3125 37.652344 66.101562 37.859375 L 50.191406 53.773438 C 50.035156 53.929688 49.773438 53.980469 49.566406 53.878906 C 49.355469 53.878906 49.199219 53.617188 49.199219 53.40625 L 49.199219 21.582031 C 49.199219 21.375 49.304688 21.167969 49.511719 21.0625 C 49.773438 21.011719 49.980469 21.007812 50.136719 21.167969 Z M 64.902344 37.496094 L 50.347656 22.941406 L 50.347656 52.050781 Z M 64.902344 37.496094 "
          fill-opacity="1"
          fill-rule="nonzero"
        /></g></g></g></svg>
