<svg
  xmlns="http://www.w3.org/2000/svg"
  xmlns:xlink="http://www.w3.org/1999/xlink"
  width="100"
  zoomAndPan="magnify"
  viewBox="0 0 75 74.999997"
  height="100"
  preserveAspectRatio="xMidYMid meet"
  version="1.0"
><defs><clipPath id="236339c8df"><path
        d="M 1.40625 1.40625 L 73.40625 1.40625 L 73.40625 73.40625 L 1.40625 73.40625 Z M 1.40625 1.40625 "
        clip-rule="nonzero"
      /></clipPath><clipPath id="d5b27c884f"><path
        d="M 33.042969 22.28125 L 65.292969 22.28125 L 65.292969 53 L 33.042969 53 Z M 33.042969 22.28125 "
        clip-rule="nonzero"
      /></clipPath><clipPath id="ca5c48c9ad"><path
        d="M 14 21 L 31 21 L 31 54 L 14 54 Z M 14 21 "
        clip-rule="nonzero"
      /></clipPath><clipPath id="1133061f27"><path
        d="M 14.929688 54.296875 L -2.039062 37.328125 L 14.929688 20.355469 L 31.902344 37.328125 Z M 14.929688 54.296875 "
        clip-rule="nonzero"
      /></clipPath><clipPath id="34d089e3da"><path
        d="M 14.929688 54.296875 L -2.039062 37.328125 L 14.929688 20.355469 L 31.902344 37.328125 Z M 14.929688 54.296875 "
        clip-rule="nonzero"
      /></clipPath><clipPath id="eaec73c2f6"><path
        d="M 14 21 L 32 21 L 32 54 L 14 54 Z M 14 21 "
        clip-rule="nonzero"
      /></clipPath><clipPath id="76abe52b71"><path
        d="M 14.929688 54.296875 L -2.039062 37.328125 L 14.929688 20.355469 L 31.902344 37.328125 Z M 14.929688 54.296875 "
        clip-rule="nonzero"
      /></clipPath><clipPath id="a2d483f9b7"><path
        d="M 14.929688 54.296875 L -2.039062 37.328125 L 14.929688 20.355469 L 31.902344 37.328125 Z M 14.929688 54.296875 "
        clip-rule="nonzero"
      /></clipPath></defs><g clip-path="url(#236339c8df)"><path
      fill="#fa9a36"
      d="M 73.699219 37.550781 C 73.699219 38.738281 73.640625 39.917969 73.523438 41.097656 C 73.410156 42.273438 73.234375 43.445312 73.003906 44.605469 C 72.773438 45.765625 72.488281 46.914062 72.144531 48.046875 C 71.800781 49.179688 71.402344 50.292969 70.949219 51.386719 C 70.496094 52.480469 69.988281 53.546875 69.429688 54.59375 C 68.871094 55.636719 68.265625 56.648438 67.609375 57.632812 C 66.949219 58.617188 66.246094 59.570312 65.496094 60.484375 C 64.742188 61.398438 63.949219 62.273438 63.113281 63.113281 C 62.273438 63.949219 61.398438 64.742188 60.484375 65.496094 C 59.570312 66.246094 58.617188 66.949219 57.632812 67.609375 C 56.648438 68.265625 55.636719 68.871094 54.59375 69.429688 C 53.546875 69.988281 52.480469 70.496094 51.386719 70.949219 C 50.292969 71.402344 49.179688 71.800781 48.046875 72.144531 C 46.914062 72.488281 45.765625 72.773438 44.605469 73.003906 C 43.445312 73.234375 42.273438 73.410156 41.097656 73.523438 C 39.917969 73.640625 38.738281 73.699219 37.550781 73.699219 C 36.367188 73.699219 35.1875 73.640625 34.007812 73.523438 C 32.832031 73.410156 31.660156 73.234375 30.5 73.003906 C 29.339844 72.773438 28.191406 72.488281 27.058594 72.144531 C 25.925781 71.800781 24.8125 71.402344 23.71875 70.949219 C 22.625 70.496094 21.558594 69.988281 20.511719 69.429688 C 19.46875 68.871094 18.457031 68.265625 17.472656 67.609375 C 16.488281 66.949219 15.535156 66.246094 14.621094 65.496094 C 13.707031 64.742188 12.832031 63.949219 11.992188 63.113281 C 11.15625 62.273438 10.363281 61.398438 9.609375 60.484375 C 8.859375 59.570312 8.15625 58.617188 7.496094 57.632812 C 6.839844 56.648438 6.234375 55.636719 5.675781 54.59375 C 5.117188 53.546875 4.609375 52.480469 4.15625 51.386719 C 3.703125 50.292969 3.304688 49.179688 2.960938 48.046875 C 2.617188 46.914062 2.332031 45.765625 2.101562 44.605469 C 1.871094 43.445312 1.695312 42.273438 1.582031 41.097656 C 1.464844 39.917969 1.40625 38.738281 1.40625 37.550781 C 1.40625 36.367188 1.464844 35.1875 1.582031 34.007812 C 1.695312 32.832031 1.871094 31.660156 2.101562 30.5 C 2.332031 29.339844 2.617188 28.191406 2.960938 27.058594 C 3.304688 25.925781 3.703125 24.8125 4.15625 23.71875 C 4.609375 22.625 5.117188 21.558594 5.675781 20.511719 C 6.234375 19.46875 6.839844 18.457031 7.496094 17.472656 C 8.15625 16.488281 8.859375 15.535156 9.609375 14.621094 C 10.363281 13.707031 11.15625 12.832031 11.992188 11.992188 C 12.832031 11.15625 13.707031 10.363281 14.621094 9.609375 C 15.535156 8.859375 16.488281 8.15625 17.472656 7.496094 C 18.457031 6.839844 19.46875 6.234375 20.511719 5.675781 C 21.558594 5.117188 22.625 4.609375 23.71875 4.15625 C 24.8125 3.703125 25.925781 3.304688 27.058594 2.960938 C 28.191406 2.617188 29.339844 2.332031 30.5 2.101562 C 31.660156 1.871094 32.832031 1.695312 34.007812 1.582031 C 35.1875 1.464844 36.367188 1.40625 37.550781 1.40625 C 38.738281 1.40625 39.917969 1.464844 41.097656 1.582031 C 42.273438 1.695312 43.445312 1.871094 44.605469 2.101562 C 45.765625 2.332031 46.914062 2.617188 48.046875 2.960938 C 49.179688 3.304688 50.292969 3.703125 51.386719 4.15625 C 52.480469 4.609375 53.546875 5.117188 54.59375 5.675781 C 55.636719 6.234375 56.648438 6.839844 57.632812 7.496094 C 58.617188 8.15625 59.570312 8.859375 60.484375 9.609375 C 61.398438 10.363281 62.273438 11.15625 63.113281 11.992188 C 63.949219 12.832031 64.742188 13.707031 65.496094 14.621094 C 66.246094 15.535156 66.949219 16.488281 67.609375 17.472656 C 68.265625 18.457031 68.871094 19.46875 69.429688 20.511719 C 69.988281 21.558594 70.496094 22.625 70.949219 23.71875 C 71.402344 24.8125 71.800781 25.925781 72.144531 27.058594 C 72.488281 28.191406 72.773438 29.339844 73.003906 30.5 C 73.234375 31.660156 73.410156 32.832031 73.523438 34.007812 C 73.640625 35.1875 73.699219 36.367188 73.699219 37.550781 Z M 73.699219 37.550781 "
      fill-opacity="1"
      fill-rule="nonzero"
    /></g><g clip-path="url(#d5b27c884f)"><path
      fill="#000000"
      d="M 45.695312 22.351562 C 42.558594 22.351562 39.894531 24.398438 38.941406 27.238281 C 38.558594 28.378906 39.46875 29.554688 40.660156 29.554688 L 42.128906 29.554688 L 42.128906 34.957031 L 35.003906 34.957031 C 34.765625 34.953125 34.535156 34.996094 34.3125 35.085938 C 34.09375 35.175781 33.898438 35.304688 33.726562 35.472656 C 33.558594 35.644531 33.425781 35.839844 33.335938 36.0625 C 33.242188 36.285156 33.195312 36.515625 33.195312 36.757812 C 33.195312 36.996094 33.242188 37.230469 33.335938 37.453125 C 33.425781 37.671875 33.558594 37.871094 33.726562 38.039062 C 33.898438 38.207031 34.09375 38.335938 34.3125 38.425781 C 34.535156 38.515625 34.765625 38.558594 35.003906 38.558594 L 42.128906 38.558594 L 42.128906 49.359375 L 38.566406 49.359375 C 38.328125 49.355469 38.097656 49.398438 37.878906 49.488281 C 37.65625 49.582031 37.460938 49.710938 37.289062 49.878906 C 37.121094 50.046875 36.988281 50.242188 36.898438 50.464844 C 36.804688 50.6875 36.761719 50.921875 36.761719 51.160156 C 36.761719 51.402344 36.804688 51.632812 36.898438 51.855469 C 36.988281 52.078125 37.121094 52.273438 37.289062 52.445312 C 37.460938 52.613281 37.65625 52.742188 37.878906 52.832031 C 38.097656 52.921875 38.328125 52.964844 38.566406 52.960938 L 59.949219 52.960938 C 60.1875 52.964844 60.417969 52.921875 60.636719 52.832031 C 60.859375 52.742188 61.054688 52.613281 61.226562 52.445312 C 61.394531 52.273438 61.527344 52.078125 61.617188 51.855469 C 61.710938 51.632812 61.753906 51.402344 61.753906 51.160156 C 61.753906 50.921875 61.710938 50.6875 61.617188 50.464844 C 61.527344 50.242188 61.394531 50.046875 61.226562 49.878906 C 61.054688 49.710938 60.859375 49.582031 60.636719 49.488281 C 60.417969 49.398438 60.1875 49.355469 59.949219 49.359375 L 56.386719 49.359375 L 56.386719 38.558594 L 63.511719 38.558594 C 63.75 38.558594 63.980469 38.515625 64.203125 38.425781 C 64.421875 38.335938 64.617188 38.207031 64.789062 38.039062 C 64.957031 37.871094 65.089844 37.671875 65.179688 37.453125 C 65.273438 37.230469 65.320312 36.996094 65.320312 36.757812 C 65.320312 36.515625 65.273438 36.285156 65.179688 36.0625 C 65.089844 35.839844 64.957031 35.644531 64.789062 35.472656 C 64.617188 35.304688 64.421875 35.175781 64.203125 35.085938 C 63.980469 34.996094 63.75 34.953125 63.511719 34.957031 L 56.386719 34.957031 L 56.386719 29.554688 L 57.855469 29.554688 C 59.046875 29.554688 59.957031 28.378906 59.574219 27.238281 C 58.621094 24.398438 55.957031 22.351562 52.820312 22.351562 Z M 45.695312 22.351562 "
      fill-opacity="1"
      fill-rule="nonzero"
    /></g><g clip-path="url(#ca5c48c9ad)"><g clip-path="url(#1133061f27)"><g clip-path="url(#34d089e3da)"><path
          fill="#ffffff"
          d="M 14.984375 53.410156 L 30.894531 37.5 L 14.984375 21.585938 Z M 14.984375 53.410156 "
          fill-opacity="1"
          fill-rule="nonzero"
        /></g></g></g><g clip-path="url(#eaec73c2f6)"><g clip-path="url(#76abe52b71)"><g
        clip-path="url(#a2d483f9b7)"
      ><path
          fill="#ffffff"
          d="M 15.347656 21.222656 L 31.261719 37.132812 C 31.523438 37.394531 31.523438 37.707031 31.3125 37.917969 L 15.402344 53.828125 C 15.246094 53.984375 14.984375 54.039062 14.773438 53.933594 C 14.566406 53.933594 14.410156 53.671875 14.410156 53.464844 L 14.410156 21.640625 C 14.410156 21.429688 14.515625 21.222656 14.722656 21.117188 C 14.984375 21.066406 15.191406 21.066406 15.347656 21.222656 Z M 30.113281 37.550781 L 15.558594 22.996094 L 15.558594 52.105469 Z M 30.113281 37.550781 "
          fill-opacity="1"
          fill-rule="nonzero"
        /></g></g></g></svg>
