<svg
  xmlns="http://www.w3.org/2000/svg"
  xmlns:xlink="http://www.w3.org/1999/xlink"
  width="100"
  zoomAndPan="magnify"
  viewBox="0 0 75 74.999997"
  height="100"
  preserveAspectRatio="xMidYMid meet"
  version="1.0"
><defs><clipPath id="02e0e1d417"><path
        d="M 1.40625 1.40625 L 73.40625 1.40625 L 73.40625 73.40625 L 1.40625 73.40625 Z M 1.40625 1.40625 "
        clip-rule="nonzero"
      /></clipPath><clipPath id="51c78ee2b1"><path
        d="M 30.84375 15.054688 L 44.34375 15.054688 L 44.34375 60.054688 L 30.84375 60.054688 Z M 30.84375 15.054688 "
        clip-rule="nonzero"
      /></clipPath><clipPath id="7fd00aa4bb"><path
        d="M 44.15625 28.644531 L 56.15625 28.644531 L 56.15625 46.644531 L 44.15625 46.644531 Z M 44.15625 28.644531 "
        clip-rule="nonzero"
      /></clipPath></defs><g clip-path="url(#02e0e1d417)"><path
      fill="#fa9a36"
      d="M 73.699219 37.550781 C 73.699219 38.738281 73.640625 39.917969 73.523438 41.097656 C 73.410156 42.273438 73.234375 43.445312 73.003906 44.605469 C 72.773438 45.765625 72.488281 46.914062 72.144531 48.046875 C 71.800781 49.179688 71.402344 50.292969 70.949219 51.386719 C 70.496094 52.480469 69.988281 53.546875 69.429688 54.59375 C 68.871094 55.636719 68.265625 56.648438 67.609375 57.632812 C 66.949219 58.617188 66.246094 59.570312 65.496094 60.484375 C 64.742188 61.398438 63.949219 62.273438 63.113281 63.113281 C 62.273438 63.949219 61.398438 64.742188 60.484375 65.496094 C 59.570312 66.246094 58.617188 66.949219 57.632812 67.609375 C 56.648438 68.265625 55.636719 68.871094 54.59375 69.429688 C 53.546875 69.988281 52.480469 70.496094 51.386719 70.949219 C 50.292969 71.402344 49.179688 71.800781 48.046875 72.144531 C 46.914062 72.488281 45.765625 72.773438 44.605469 73.003906 C 43.445312 73.234375 42.273438 73.410156 41.097656 73.523438 C 39.917969 73.640625 38.738281 73.699219 37.550781 73.699219 C 36.367188 73.699219 35.1875 73.640625 34.007812 73.523438 C 32.832031 73.410156 31.660156 73.234375 30.5 73.003906 C 29.339844 72.773438 28.191406 72.488281 27.058594 72.144531 C 25.925781 71.800781 24.8125 71.402344 23.71875 70.949219 C 22.625 70.496094 21.558594 69.988281 20.511719 69.429688 C 19.46875 68.871094 18.457031 68.265625 17.472656 67.609375 C 16.488281 66.949219 15.535156 66.246094 14.621094 65.496094 C 13.707031 64.742188 12.832031 63.949219 11.992188 63.113281 C 11.15625 62.273438 10.363281 61.398438 9.609375 60.484375 C 8.859375 59.570312 8.15625 58.617188 7.496094 57.632812 C 6.839844 56.648438 6.234375 55.636719 5.675781 54.59375 C 5.117188 53.546875 4.609375 52.480469 4.15625 51.386719 C 3.703125 50.292969 3.304688 49.179688 2.960938 48.046875 C 2.617188 46.914062 2.332031 45.765625 2.101562 44.605469 C 1.871094 43.445312 1.695312 42.273438 1.582031 41.097656 C 1.464844 39.917969 1.40625 38.738281 1.40625 37.550781 C 1.40625 36.367188 1.464844 35.1875 1.582031 34.007812 C 1.695312 32.832031 1.871094 31.660156 2.101562 30.5 C 2.332031 29.339844 2.617188 28.191406 2.960938 27.058594 C 3.304688 25.925781 3.703125 24.8125 4.15625 23.71875 C 4.609375 22.625 5.117188 21.558594 5.675781 20.511719 C 6.234375 19.46875 6.839844 18.457031 7.496094 17.472656 C 8.15625 16.488281 8.859375 15.535156 9.609375 14.621094 C 10.363281 13.707031 11.15625 12.832031 11.992188 11.992188 C 12.832031 11.15625 13.707031 10.363281 14.621094 9.609375 C 15.535156 8.859375 16.488281 8.15625 17.472656 7.496094 C 18.457031 6.839844 19.46875 6.234375 20.511719 5.675781 C 21.558594 5.117188 22.625 4.609375 23.71875 4.15625 C 24.8125 3.703125 25.925781 3.304688 27.058594 2.960938 C 28.191406 2.617188 29.339844 2.332031 30.5 2.101562 C 31.660156 1.871094 32.832031 1.695312 34.007812 1.582031 C 35.1875 1.464844 36.367188 1.40625 37.550781 1.40625 C 38.738281 1.40625 39.917969 1.464844 41.097656 1.582031 C 42.273438 1.695312 43.445312 1.871094 44.605469 2.101562 C 45.765625 2.332031 46.914062 2.617188 48.046875 2.960938 C 49.179688 3.304688 50.292969 3.703125 51.386719 4.15625 C 52.480469 4.609375 53.546875 5.117188 54.59375 5.675781 C 55.636719 6.234375 56.648438 6.839844 57.632812 7.496094 C 58.617188 8.15625 59.570312 8.859375 60.484375 9.609375 C 61.398438 10.363281 62.273438 11.15625 63.113281 11.992188 C 63.949219 12.832031 64.742188 13.707031 65.496094 14.621094 C 66.246094 15.535156 66.949219 16.488281 67.609375 17.472656 C 68.265625 18.457031 68.871094 19.46875 69.429688 20.511719 C 69.988281 21.558594 70.496094 22.625 70.949219 23.71875 C 71.402344 24.8125 71.800781 25.925781 72.144531 27.058594 C 72.488281 28.191406 72.773438 29.339844 73.003906 30.5 C 73.234375 31.660156 73.410156 32.832031 73.523438 34.007812 C 73.640625 35.1875 73.699219 36.367188 73.699219 37.550781 Z M 73.699219 37.550781 "
      fill-opacity="1"
      fill-rule="nonzero"
    /></g><g clip-path="url(#51c78ee2b1)"><path
      fill="#ffffff"
      d="M 40.832031 47.636719 C 42.824219 48.785156 44.15625 50.9375 44.15625 53.398438 C 44.15625 57.070312 41.171875 60.054688 37.5 60.054688 C 33.828125 60.054688 30.84375 57.070312 30.84375 53.398438 C 30.84375 50.9375 32.175781 48.785156 34.167969 47.636719 L 34.167969 18.378906 C 34.167969 16.554688 35.664062 15.058594 37.488281 15.058594 C 39.3125 15.058594 40.8125 16.554688 40.8125 18.378906 L 40.8125 24.457031 L 43.097656 24.457031 L 43.097656 25.308594 L 40.8125 25.308594 L 40.8125 30.6875 L 43.097656 30.6875 L 43.097656 31.539062 L 40.8125 31.539062 L 40.8125 36.917969 L 43.097656 36.917969 L 43.097656 37.769531 L 40.8125 37.769531 L 40.8125 43.144531 L 43.097656 43.144531 L 43.097656 44 L 40.8125 44 L 40.8125 47.671875 Z M 38.789062 48.875 L 38.789062 35.136719 L 36.210938 35.136719 L 36.210938 48.875 C 34.230469 49.429688 32.789062 51.246094 32.789062 53.398438 C 32.789062 56 34.898438 58.109375 37.5 58.109375 C 40.101562 58.109375 42.210938 56 42.210938 53.398438 C 42.210938 51.246094 40.769531 49.429688 38.789062 48.875 Z M 39.632812 48.328125 L 39.632812 18.378906 C 39.632812 17.210938 38.667969 16.25 37.5 16.25 C 36.332031 16.25 35.367188 17.210938 35.367188 18.378906 L 35.367188 48.328125 L 34.765625 48.675781 C 33.085938 49.648438 32.035156 51.453125 32.035156 53.410156 C 32.035156 56.425781 34.484375 58.863281 37.488281 58.863281 C 40.503906 58.863281 42.941406 56.414062 42.941406 53.410156 C 42.941406 51.453125 41.90625 49.660156 40.210938 48.675781 L 39.609375 48.328125 Z M 39.632812 48.328125 "
      fill-opacity="1"
      fill-rule="evenodd"
    /></g><g clip-path="url(#7fd00aa4bb)"><path
      fill="#000000"
      d="M 49.875 46.484375 C 49.953125 46.5625 50.046875 46.601562 50.160156 46.601562 C 50.269531 46.601562 50.363281 46.5625 50.445312 46.488281 L 52.03125 44.933594 L 55.992188 40.980469 C 56.074219 40.902344 56.113281 40.804688 56.113281 40.695312 C 56.113281 40.582031 56.074219 40.488281 55.992188 40.410156 L 54.410156 38.828125 C 54.332031 38.75 54.234375 38.710938 54.125 38.710938 L 54.121094 38.710938 C 54.011719 38.710938 53.914062 38.75 53.835938 38.832031 L 51.691406 40.992188 L 51.691406 29.046875 C 51.691406 28.9375 51.652344 28.84375 51.574219 28.761719 C 51.496094 28.683594 51.402344 28.644531 51.289062 28.644531 L 49.0625 28.644531 C 48.953125 28.644531 48.859375 28.683594 48.777344 28.761719 C 48.699219 28.84375 48.660156 28.9375 48.660156 29.046875 L 48.660156 41 L 46.484375 38.828125 C 46.40625 38.75 46.3125 38.710938 46.199219 38.710938 C 46.085938 38.710938 45.988281 38.75 45.910156 38.832031 L 44.355469 40.414062 C 44.277344 40.492188 44.242188 40.585938 44.242188 40.695312 C 44.242188 40.808594 44.28125 40.902344 44.359375 40.980469 Z M 49.875 46.484375 "
      fill-opacity="1"
      fill-rule="nonzero"
    /></g></svg>
