<svg
  xmlns="http://www.w3.org/2000/svg"
  xmlns:xlink="http://www.w3.org/1999/xlink"
  width="100"
  zoomAndPan="magnify"
  viewBox="0 0 75 74.999997"
  height="100"
  preserveAspectRatio="xMidYMid meet"
  version="1.0"
><defs><clipPath id="7d81d5daa0"><path
        d="M 1.40625 1.40625 L 73.40625 1.40625 L 73.40625 73.40625 L 1.40625 73.40625 Z M 1.40625 1.40625 "
        clip-rule="nonzero"
      /></clipPath><clipPath id="dd73c7ae3e"><path
        d="M 12.476562 18.847656 L 23 18.847656 L 23 43 L 12.476562 43 Z M 12.476562 18.847656 "
        clip-rule="nonzero"
      /></clipPath><clipPath id="349ea7329c"><path
        d="M 12.476562 27 L 62.726562 27 L 62.726562 56.347656 L 12.476562 56.347656 Z M 12.476562 27 "
        clip-rule="nonzero"
      /></clipPath><clipPath id="2b032fe69f"><path
        d="M 11.125 18.097656 L 22 18.097656 L 22 42 L 11.125 42 Z M 11.125 18.097656 "
        clip-rule="nonzero"
      /></clipPath><clipPath id="a3cd4f2bd4"><path
        d="M 11.125 27 L 61.375 27 L 61.375 55.597656 L 11.125 55.597656 Z M 11.125 27 "
        clip-rule="nonzero"
      /></clipPath></defs><g clip-path="url(#7d81d5daa0)"><path
      fill="#fa9a36"
      d="M 73.699219 37.550781 C 73.699219 38.738281 73.640625 39.917969 73.523438 41.097656 C 73.410156 42.273438 73.234375 43.445312 73.003906 44.605469 C 72.773438 45.765625 72.488281 46.914062 72.144531 48.046875 C 71.800781 49.179688 71.402344 50.292969 70.949219 51.386719 C 70.496094 52.480469 69.988281 53.546875 69.429688 54.59375 C 68.871094 55.636719 68.265625 56.648438 67.609375 57.632812 C 66.949219 58.617188 66.246094 59.570312 65.496094 60.484375 C 64.742188 61.398438 63.949219 62.273438 63.113281 63.113281 C 62.273438 63.949219 61.398438 64.742188 60.484375 65.496094 C 59.570312 66.246094 58.617188 66.949219 57.632812 67.609375 C 56.648438 68.265625 55.636719 68.871094 54.59375 69.429688 C 53.546875 69.988281 52.480469 70.496094 51.386719 70.949219 C 50.292969 71.402344 49.179688 71.800781 48.046875 72.144531 C 46.914062 72.488281 45.765625 72.773438 44.605469 73.003906 C 43.445312 73.234375 42.273438 73.410156 41.097656 73.523438 C 39.917969 73.640625 38.738281 73.699219 37.550781 73.699219 C 36.367188 73.699219 35.1875 73.640625 34.007812 73.523438 C 32.832031 73.410156 31.660156 73.234375 30.5 73.003906 C 29.339844 72.773438 28.191406 72.488281 27.058594 72.144531 C 25.925781 71.800781 24.8125 71.402344 23.71875 70.949219 C 22.625 70.496094 21.558594 69.988281 20.511719 69.429688 C 19.46875 68.871094 18.457031 68.265625 17.472656 67.609375 C 16.488281 66.949219 15.535156 66.246094 14.621094 65.496094 C 13.707031 64.742188 12.832031 63.949219 11.992188 63.113281 C 11.15625 62.273438 10.363281 61.398438 9.609375 60.484375 C 8.859375 59.570312 8.15625 58.617188 7.496094 57.632812 C 6.839844 56.648438 6.234375 55.636719 5.675781 54.59375 C 5.117188 53.546875 4.609375 52.480469 4.15625 51.386719 C 3.703125 50.292969 3.304688 49.179688 2.960938 48.046875 C 2.617188 46.914062 2.332031 45.765625 2.101562 44.605469 C 1.871094 43.445312 1.695312 42.273438 1.582031 41.097656 C 1.464844 39.917969 1.40625 38.738281 1.40625 37.550781 C 1.40625 36.367188 1.464844 35.1875 1.582031 34.007812 C 1.695312 32.832031 1.871094 31.660156 2.101562 30.5 C 2.332031 29.339844 2.617188 28.191406 2.960938 27.058594 C 3.304688 25.925781 3.703125 24.8125 4.15625 23.71875 C 4.609375 22.625 5.117188 21.558594 5.675781 20.511719 C 6.234375 19.46875 6.839844 18.457031 7.496094 17.472656 C 8.15625 16.488281 8.859375 15.535156 9.609375 14.621094 C 10.363281 13.707031 11.15625 12.832031 11.992188 11.992188 C 12.832031 11.15625 13.707031 10.363281 14.621094 9.609375 C 15.535156 8.859375 16.488281 8.15625 17.472656 7.496094 C 18.457031 6.839844 19.46875 6.234375 20.511719 5.675781 C 21.558594 5.117188 22.625 4.609375 23.71875 4.15625 C 24.8125 3.703125 25.925781 3.304688 27.058594 2.960938 C 28.191406 2.617188 29.339844 2.332031 30.5 2.101562 C 31.660156 1.871094 32.832031 1.695312 34.007812 1.582031 C 35.1875 1.464844 36.367188 1.40625 37.550781 1.40625 C 38.738281 1.40625 39.917969 1.464844 41.097656 1.582031 C 42.273438 1.695312 43.445312 1.871094 44.605469 2.101562 C 45.765625 2.332031 46.914062 2.617188 48.046875 2.960938 C 49.179688 3.304688 50.292969 3.703125 51.386719 4.15625 C 52.480469 4.609375 53.546875 5.117188 54.59375 5.675781 C 55.636719 6.234375 56.648438 6.839844 57.632812 7.496094 C 58.617188 8.15625 59.570312 8.859375 60.484375 9.609375 C 61.398438 10.363281 62.273438 11.15625 63.113281 11.992188 C 63.949219 12.832031 64.742188 13.707031 65.496094 14.621094 C 66.246094 15.535156 66.949219 16.488281 67.609375 17.472656 C 68.265625 18.457031 68.871094 19.46875 69.429688 20.511719 C 69.988281 21.558594 70.496094 22.625 70.949219 23.71875 C 71.402344 24.8125 71.800781 25.925781 72.144531 27.058594 C 72.488281 28.191406 72.773438 29.339844 73.003906 30.5 C 73.234375 31.660156 73.410156 32.832031 73.523438 34.007812 C 73.640625 35.1875 73.699219 36.367188 73.699219 37.550781 Z M 73.699219 37.550781 "
      fill-opacity="1"
      fill-rule="nonzero"
    /></g><g clip-path="url(#dd73c7ae3e)"><path
      fill="#404040"
      d="M 17.820312 24.007812 L 17.820312 26.46875 C 16.695312 26.933594 15.898438 28.042969 15.898438 29.335938 C 15.898438 30.628906 16.695312 31.742188 17.820312 32.207031 L 17.820312 34.070312 C 15.980469 34.589844 14.628906 36.28125 14.628906 38.285156 C 14.628906 40.699219 16.59375 42.664062 19.007812 42.664062 C 20.300781 42.664062 21.523438 42.09375 22.359375 41.101562 C 22.78125 40.601562 22.714844 39.851562 22.210938 39.429688 C 21.710938 39.011719 20.964844 39.074219 20.542969 39.578125 C 20.160156 40.03125 19.601562 40.292969 19.007812 40.292969 C 17.902344 40.292969 17 39.394531 17 38.285156 C 17 37.179688 17.902344 36.277344 19.007812 36.277344 C 19.660156 36.277344 20.191406 35.746094 20.191406 35.09375 L 20.191406 32.207031 C 21.320312 31.742188 22.113281 30.628906 22.113281 29.335938 C 22.113281 28.042969 21.320312 26.933594 20.191406 26.46875 L 20.191406 22.9375 C 20.191406 22.882812 20.183594 22.832031 20.175781 22.777344 C 20.40625 22.402344 20.542969 21.960938 20.542969 21.488281 C 20.542969 20.101562 19.414062 18.972656 18.027344 18.972656 L 13.558594 18.972656 C 12.96875 18.972656 12.488281 19.453125 12.488281 20.042969 L 12.488281 22.9375 C 12.488281 23.527344 12.96875 24.003906 13.558594 24.003906 L 17.820312 24.003906 Z M 17.820312 24.007812 "
      fill-opacity="1"
      fill-rule="nonzero"
    /></g><path
    fill="#404040"
    d="M 31.4375 39.519531 C 32.371094 37.789062 31.722656 35.617188 29.988281 34.679688 C 28.253906 33.746094 26.082031 34.394531 25.148438 36.128906 C 24.214844 37.863281 24.863281 40.035156 26.597656 40.96875 C 28.332031 41.902344 30.503906 41.253906 31.4375 39.519531 Z M 31.4375 39.519531 "
    fill-opacity="1"
    fill-rule="nonzero"
  /><g clip-path="url(#349ea7329c)"><path
      fill="#404040"
      d="M 61.945312 48.03125 L 59.269531 44.792969 L 56.316406 36.03125 C 56.226562 35.777344 56.046875 35.5625 55.808594 35.433594 L 43.308594 28.691406 C 43.101562 28.582031 42.867188 28.542969 42.640625 28.574219 L 32.140625 30.164062 L 28.601562 28.257812 C 27.410156 27.652344 24.703125 27.339844 23.007812 30.484375 C 21.597656 33.097656 22.503906 35.066406 23.460938 36.054688 C 23.542969 35.824219 23.636719 35.597656 23.757812 35.378906 C 25.105469 32.875 28.238281 31.941406 30.742188 33.289062 C 33.242188 34.636719 34.179688 37.769531 32.828125 40.269531 C 32.65625 40.59375 32.453125 40.886719 32.222656 41.15625 L 47.597656 49.449219 C 47.695312 49.109375 47.832031 48.777344 48.003906 48.453125 C 49.355469 45.953125 52.484375 45.015625 54.988281 46.363281 C 57.488281 47.714844 58.425781 50.84375 57.074219 53.347656 C 57.007812 53.472656 56.9375 53.589844 56.859375 53.707031 L 54.742188 53.707031 C 55.117188 53.414062 55.441406 53.039062 55.679688 52.59375 C 56.617188 50.859375 55.964844 48.691406 54.230469 47.753906 C 52.5 46.820312 50.328125 47.46875 49.390625 49.203125 C 48.554688 50.753906 48.992188 52.652344 50.332031 53.707031 L 13.980469 53.707031 C 13.324219 53.707031 12.792969 54.238281 12.792969 54.890625 C 12.792969 55.546875 13.324219 56.078125 13.980469 56.078125 L 58.207031 56.078125 C 58.863281 56.078125 59.394531 55.546875 59.394531 54.890625 C 59.394531 54.878906 59.390625 54.863281 59.386719 54.851562 C 59.492188 54.765625 62.375 49.480469 62.375 49.480469 C 62.65625 48.960938 62.460938 48.3125 61.945312 48.03125 Z M 61.945312 48.03125 "
      fill-opacity="1"
      fill-rule="nonzero"
    /></g><g clip-path="url(#2b032fe69f)"><path
      fill="#ffffff"
      d="M 16.472656 23.257812 L 16.472656 25.71875 C 15.34375 26.183594 14.550781 27.292969 14.550781 28.585938 C 14.550781 29.878906 15.34375 30.992188 16.472656 31.457031 L 16.472656 33.320312 C 14.632812 33.839844 13.277344 35.53125 13.277344 37.535156 C 13.277344 39.949219 15.242188 41.914062 17.65625 41.914062 C 18.953125 41.914062 20.171875 41.34375 21.007812 40.351562 C 21.429688 39.851562 21.363281 39.101562 20.863281 38.679688 C 20.359375 38.261719 19.613281 38.324219 19.191406 38.828125 C 18.808594 39.28125 18.25 39.542969 17.65625 39.542969 C 16.550781 39.542969 15.648438 38.644531 15.648438 37.535156 C 15.648438 36.429688 16.550781 35.527344 17.65625 35.527344 C 18.3125 35.527344 18.84375 34.996094 18.84375 34.34375 L 18.84375 31.457031 C 19.96875 30.992188 20.761719 29.878906 20.761719 28.585938 C 20.761719 27.292969 19.96875 26.183594 18.84375 25.71875 L 18.84375 22.1875 C 18.84375 22.132812 18.832031 22.082031 18.828125 22.027344 C 19.054688 21.652344 19.195312 21.210938 19.195312 20.738281 C 19.195312 19.351562 18.066406 18.222656 16.679688 18.222656 L 12.207031 18.222656 C 11.617188 18.222656 11.140625 18.703125 11.140625 19.292969 L 11.140625 22.1875 C 11.140625 22.777344 11.617188 23.253906 12.207031 23.253906 L 16.472656 23.253906 Z M 16.472656 23.257812 "
      fill-opacity="1"
      fill-rule="nonzero"
    /></g><path
    fill="#ffffff"
    d="M 30.085938 38.769531 C 31.019531 37.039062 30.371094 34.867188 28.636719 33.929688 C 26.90625 32.996094 24.734375 33.644531 23.800781 35.378906 C 22.863281 37.113281 23.515625 39.285156 25.246094 40.21875 C 26.984375 41.152344 29.152344 40.503906 30.085938 38.769531 Z M 30.085938 38.769531 "
    fill-opacity="1"
    fill-rule="nonzero"
  /><g clip-path="url(#a3cd4f2bd4)"><path
      fill="#ffffff"
      d="M 60.59375 47.28125 L 57.917969 44.042969 L 54.964844 35.28125 C 54.878906 35.027344 54.699219 34.8125 54.460938 34.683594 L 41.957031 27.941406 C 41.753906 27.832031 41.519531 27.792969 41.289062 27.824219 L 30.789062 29.414062 L 27.253906 27.507812 C 26.058594 26.902344 23.355469 26.589844 21.65625 29.734375 C 20.25 32.347656 21.152344 34.316406 22.109375 35.304688 C 22.195312 35.074219 22.289062 34.847656 22.40625 34.628906 C 23.757812 32.125 26.886719 31.191406 29.390625 32.539062 C 31.890625 33.886719 32.828125 37.019531 31.480469 39.519531 C 31.304688 39.84375 31.101562 40.136719 30.875 40.40625 L 46.246094 48.699219 C 46.347656 48.359375 46.480469 48.027344 46.652344 47.703125 C 48.003906 45.203125 51.136719 44.265625 53.636719 45.613281 C 56.136719 46.964844 57.078125 50.09375 55.726562 52.597656 C 55.660156 52.722656 55.585938 52.839844 55.507812 52.957031 L 53.390625 52.957031 C 53.765625 52.664062 54.089844 52.289062 54.328125 51.84375 C 55.265625 50.109375 54.617188 47.941406 52.882812 47.003906 C 51.148438 46.070312 48.976562 46.71875 48.042969 48.453125 C 47.207031 50.003906 47.640625 51.902344 48.984375 52.957031 L 12.628906 52.957031 C 11.976562 52.957031 11.445312 53.488281 11.445312 54.140625 C 11.445312 54.796875 11.976562 55.328125 12.628906 55.328125 L 56.855469 55.328125 C 57.511719 55.328125 58.042969 54.796875 58.042969 54.140625 C 58.042969 54.128906 58.039062 54.113281 58.039062 54.101562 C 58.144531 54.015625 61.027344 48.730469 61.027344 48.730469 C 61.308594 48.210938 61.113281 47.5625 60.59375 47.28125 Z M 60.59375 47.28125 "
      fill-opacity="1"
      fill-rule="nonzero"
    /></g></svg>
