<svg
  xmlns="http://www.w3.org/2000/svg"
  xmlns:xlink="http://www.w3.org/1999/xlink"
  width="100"
  zoomAndPan="magnify"
  viewBox="0 0 75 74.999997"
  height="100"
  preserveAspectRatio="xMidYMid meet"
  version="1.0"
><defs><clipPath id="ae998e1d0d"><path
        d="M 1.40625 1.40625 L 73.40625 1.40625 L 73.40625 73.40625 L 1.40625 73.40625 Z M 1.40625 1.40625 "
        clip-rule="nonzero"
      /></clipPath><clipPath id="bbb572141e"><path
        d="M 24 21 L 51 21 L 51 68 L 24 68 Z M 24 21 "
        clip-rule="nonzero"
      /></clipPath><clipPath id="fc2fcc3001"><path
        d="M 10.152344 47.242188 L 35.425781 14.640625 L 63.285156 36.242188 L 38.011719 68.839844 Z M 10.152344 47.242188 "
        clip-rule="nonzero"
      /></clipPath><clipPath id="e5eedf280d"><path
        d="M 10.152344 47.242188 L 35.425781 14.640625 L 63.285156 36.242188 L 38.011719 68.839844 Z M 10.152344 47.242188 "
        clip-rule="nonzero"
      /></clipPath><clipPath id="f6f7987722"><path
        d="M 4.699219 4.699219 L 70.699219 4.699219 L 70.699219 70.699219 L 4.699219 70.699219 Z M 4.699219 4.699219 "
        clip-rule="nonzero"
      /></clipPath></defs><g clip-path="url(#ae998e1d0d)"><path
      fill="#fa9a36"
      d="M 73.699219 37.550781 C 73.699219 38.738281 73.640625 39.917969 73.523438 41.097656 C 73.410156 42.273438 73.234375 43.445312 73.003906 44.605469 C 72.773438 45.765625 72.488281 46.914062 72.144531 48.046875 C 71.800781 49.179688 71.402344 50.292969 70.949219 51.386719 C 70.496094 52.480469 69.988281 53.546875 69.429688 54.59375 C 68.871094 55.636719 68.265625 56.648438 67.609375 57.632812 C 66.949219 58.617188 66.246094 59.570312 65.496094 60.484375 C 64.742188 61.398438 63.949219 62.273438 63.113281 63.113281 C 62.273438 63.949219 61.398438 64.742188 60.484375 65.496094 C 59.570312 66.246094 58.617188 66.949219 57.632812 67.609375 C 56.648438 68.265625 55.636719 68.871094 54.59375 69.429688 C 53.546875 69.988281 52.480469 70.496094 51.386719 70.949219 C 50.292969 71.402344 49.179688 71.800781 48.046875 72.144531 C 46.914062 72.488281 45.765625 72.773438 44.605469 73.003906 C 43.445312 73.234375 42.273438 73.410156 41.097656 73.523438 C 39.917969 73.640625 38.738281 73.699219 37.550781 73.699219 C 36.367188 73.699219 35.1875 73.640625 34.007812 73.523438 C 32.832031 73.410156 31.660156 73.234375 30.5 73.003906 C 29.339844 72.773438 28.191406 72.488281 27.058594 72.144531 C 25.925781 71.800781 24.8125 71.402344 23.71875 70.949219 C 22.625 70.496094 21.558594 69.988281 20.511719 69.429688 C 19.46875 68.871094 18.457031 68.265625 17.472656 67.609375 C 16.488281 66.949219 15.535156 66.246094 14.621094 65.496094 C 13.707031 64.742188 12.832031 63.949219 11.992188 63.113281 C 11.15625 62.273438 10.363281 61.398438 9.609375 60.484375 C 8.859375 59.570312 8.15625 58.617188 7.496094 57.632812 C 6.839844 56.648438 6.234375 55.636719 5.675781 54.59375 C 5.117188 53.546875 4.609375 52.480469 4.15625 51.386719 C 3.703125 50.292969 3.304688 49.179688 2.960938 48.046875 C 2.617188 46.914062 2.332031 45.765625 2.101562 44.605469 C 1.871094 43.445312 1.695312 42.273438 1.582031 41.097656 C 1.464844 39.917969 1.40625 38.738281 1.40625 37.550781 C 1.40625 36.367188 1.464844 35.1875 1.582031 34.007812 C 1.695312 32.832031 1.871094 31.660156 2.101562 30.5 C 2.332031 29.339844 2.617188 28.191406 2.960938 27.058594 C 3.304688 25.925781 3.703125 24.8125 4.15625 23.71875 C 4.609375 22.625 5.117188 21.558594 5.675781 20.511719 C 6.234375 19.46875 6.839844 18.457031 7.496094 17.472656 C 8.15625 16.488281 8.859375 15.535156 9.609375 14.621094 C 10.363281 13.707031 11.15625 12.832031 11.992188 11.992188 C 12.832031 11.15625 13.707031 10.363281 14.621094 9.609375 C 15.535156 8.859375 16.488281 8.15625 17.472656 7.496094 C 18.457031 6.839844 19.46875 6.234375 20.511719 5.675781 C 21.558594 5.117188 22.625 4.609375 23.71875 4.15625 C 24.8125 3.703125 25.925781 3.304688 27.058594 2.960938 C 28.191406 2.617188 29.339844 2.332031 30.5 2.101562 C 31.660156 1.871094 32.832031 1.695312 34.007812 1.582031 C 35.1875 1.464844 36.367188 1.40625 37.550781 1.40625 C 38.738281 1.40625 39.917969 1.464844 41.097656 1.582031 C 42.273438 1.695312 43.445312 1.871094 44.605469 2.101562 C 45.765625 2.332031 46.914062 2.617188 48.046875 2.960938 C 49.179688 3.304688 50.292969 3.703125 51.386719 4.15625 C 52.480469 4.609375 53.546875 5.117188 54.59375 5.675781 C 55.636719 6.234375 56.648438 6.839844 57.632812 7.496094 C 58.617188 8.15625 59.570312 8.859375 60.484375 9.609375 C 61.398438 10.363281 62.273438 11.15625 63.113281 11.992188 C 63.949219 12.832031 64.742188 13.707031 65.496094 14.621094 C 66.246094 15.535156 66.949219 16.488281 67.609375 17.472656 C 68.265625 18.457031 68.871094 19.46875 69.429688 20.511719 C 69.988281 21.558594 70.496094 22.625 70.949219 23.71875 C 71.402344 24.8125 71.800781 25.925781 72.144531 27.058594 C 72.488281 28.191406 72.773438 29.339844 73.003906 30.5 C 73.234375 31.660156 73.410156 32.832031 73.523438 34.007812 C 73.640625 35.1875 73.699219 36.367188 73.699219 37.550781 Z M 73.699219 37.550781 "
      fill-opacity="1"
      fill-rule="nonzero"
    /></g><g clip-path="url(#bbb572141e)"><g clip-path="url(#fc2fcc3001)"><g clip-path="url(#e5eedf280d)"><path
          fill="#ffffff"
          d="M 31.324219 21.515625 C 30.261719 21.527344 29.417969 22.394531 29.429688 23.457031 L 29.515625 31.257812 L 24.703125 31.3125 C 24.367188 31.316406 24.0625 31.625 24.066406 31.960938 L 24.148438 39.398438 C 24.21875 45.714844 28.691406 50.929688 34.621094 52.171875 L 34.757812 64.472656 C 34.773438 66.066406 36.070312 67.332031 37.664062 67.3125 C 39.253906 67.296875 40.523438 66 40.503906 64.410156 L 40.371094 52.109375 C 46.269531 50.734375 50.625 45.421875 50.554688 39.105469 L 50.472656 31.671875 C 50.472656 31.332031 50.160156 31.03125 49.824219 31.035156 L 45.011719 31.089844 L 44.925781 23.285156 C 44.914062 22.222656 44.050781 21.375 42.988281 21.386719 C 41.925781 21.398438 41.078125 22.265625 41.089844 23.328125 L 41.179688 31.132812 L 33.351562 31.21875 L 33.261719 23.414062 C 33.25 22.351562 32.386719 21.503906 31.324219 21.515625 Z M 31.324219 21.515625 "
          fill-opacity="1"
          fill-rule="nonzero"
        /></g></g></g><g clip-path="url(#f6f7987722)"><path
      fill="#404040"
      d="M 37.554688 4.699219 C 19.410156 4.699219 4.699219 19.410156 4.699219 37.554688 C 4.699219 55.699219 19.410156 70.40625 37.554688 70.40625 C 55.699219 70.40625 70.40625 55.699219 70.40625 37.554688 C 70.40625 19.410156 55.699219 4.699219 37.554688 4.699219 Z M 10.363281 37.554688 C 10.363281 22.5625 22.5625 10.363281 37.554688 10.363281 C 44.175781 10.363281 50.25 12.746094 54.972656 16.695312 L 16.695312 54.972656 C 12.746094 50.25 10.363281 44.175781 10.363281 37.554688 Z M 37.554688 64.742188 C 31.222656 64.742188 25.390625 62.558594 20.765625 58.914062 L 58.914062 20.761719 C 62.558594 25.390625 64.742188 31.222656 64.742188 37.554688 C 64.742188 52.546875 52.546875 64.742188 37.554688 64.742188 Z M 37.554688 64.742188 "
      fill-opacity="1"
      fill-rule="nonzero"
    /></g></svg>
