<svg
  xmlns="http://www.w3.org/2000/svg"
  xmlns:xlink="http://www.w3.org/1999/xlink"
  width="100"
  zoomAndPan="magnify"
  viewBox="0 0 75 74.999997"
  height="100"
  preserveAspectRatio="xMidYMid meet"
  version="1.0"
><defs><clipPath id="e724437b8b"><path
        d="M 1 1 L 74 1 L 74 74 L 1 74 Z M 1 1 "
        clip-rule="nonzero"
      /></clipPath><clipPath id="fc2b131093"><path
        d="M 18.398438 -9.863281 L 84.644531 18.339844 L 56.441406 84.585938 L -9.804688 56.382812 Z M 18.398438 -9.863281 "
        clip-rule="nonzero"
      /></clipPath><clipPath id="e301b211a8"><path
        d="M 18.398438 -9.863281 L 84.644531 18.339844 L 56.441406 84.585938 L -9.804688 56.382812 Z M 18.398438 -9.863281 "
        clip-rule="nonzero"
      /></clipPath><clipPath id="decda4b667"><path
        d="M 40.234375 28.160156 L 70.234375 28.160156 L 70.234375 46.910156 L 40.234375 46.910156 Z M 40.234375 28.160156 "
        clip-rule="nonzero"
      /></clipPath></defs><g clip-path="url(#e724437b8b)"><g clip-path="url(#fc2b131093)"><g
        clip-path="url(#e301b211a8)"
      ><path
          fill="#fa9a36"
          d="M 70.753906 51.710938 C 70.292969 52.800781 69.773438 53.863281 69.207031 54.902344 C 68.640625 55.941406 68.019531 56.949219 67.355469 57.929688 C 66.6875 58.90625 65.972656 59.847656 65.210938 60.757812 C 64.453125 61.664062 63.648438 62.53125 62.804688 63.359375 C 61.960938 64.191406 61.074219 64.976562 60.152344 65.71875 C 59.230469 66.460938 58.273438 67.15625 57.285156 67.800781 C 56.292969 68.449219 55.273438 69.046875 54.222656 69.597656 C 53.175781 70.144531 52.101562 70.640625 51.003906 71.082031 C 49.902344 71.523438 48.785156 71.910156 47.652344 72.242188 C 46.515625 72.578125 45.363281 72.851562 44.203125 73.070312 C 43.039062 73.292969 41.867188 73.453125 40.6875 73.558594 C 39.507812 73.664062 38.328125 73.710938 37.144531 73.699219 C 35.960938 73.6875 34.777344 73.617188 33.601562 73.488281 C 32.425781 73.359375 31.257812 73.175781 30.097656 72.933594 C 28.941406 72.691406 27.796875 72.394531 26.667969 72.039062 C 25.535156 71.683594 24.425781 71.273438 23.339844 70.8125 C 22.25 70.347656 21.183594 69.832031 20.144531 69.261719 C 19.109375 68.695312 18.101562 68.078125 17.121094 67.410156 C 16.144531 66.742188 15.203125 66.027344 14.292969 65.269531 C 13.386719 64.507812 12.515625 63.707031 11.6875 62.859375 C 10.859375 62.015625 10.074219 61.132812 9.332031 60.210938 C 8.589844 59.285156 7.894531 58.332031 7.246094 57.339844 C 6.597656 56.347656 6 55.328125 5.453125 54.277344 C 4.90625 53.230469 4.410156 52.15625 3.96875 51.058594 C 3.527344 49.960938 3.136719 48.84375 2.804688 47.707031 C 2.472656 46.570312 2.195312 45.421875 1.976562 44.257812 C 1.757812 43.09375 1.597656 41.921875 1.492188 40.742188 C 1.386719 39.5625 1.339844 38.382812 1.351562 37.199219 C 1.363281 36.015625 1.433594 34.835938 1.5625 33.65625 C 1.6875 32.480469 1.875 31.3125 2.117188 30.152344 C 2.359375 28.996094 2.65625 27.851562 3.011719 26.722656 C 3.367188 25.59375 3.773438 24.484375 4.238281 23.394531 C 4.703125 22.304688 5.21875 21.242188 5.785156 20.203125 C 6.355469 19.164062 6.972656 18.15625 7.640625 17.175781 C 8.308594 16.199219 9.019531 15.257812 9.78125 14.347656 C 10.542969 13.441406 11.34375 12.574219 12.1875 11.746094 C 13.035156 10.914062 13.917969 10.128906 14.839844 9.386719 C 15.761719 8.644531 16.71875 7.949219 17.710938 7.304688 C 18.699219 6.65625 19.722656 6.058594 20.769531 5.507812 C 21.820312 4.960938 22.894531 4.464844 23.992188 4.023438 C 25.089844 3.582031 26.207031 3.195312 27.34375 2.863281 C 28.480469 2.527344 29.628906 2.253906 30.792969 2.035156 C 31.957031 1.8125 33.128906 1.652344 34.304688 1.546875 C 35.484375 1.441406 36.667969 1.394531 37.851562 1.40625 C 39.035156 1.417969 40.214844 1.488281 41.390625 1.617188 C 42.570312 1.746094 43.738281 1.929688 44.894531 2.171875 C 46.054688 2.414062 47.199219 2.710938 48.328125 3.066406 C 49.457031 3.421875 50.566406 3.832031 51.65625 4.292969 C 52.746094 4.757812 53.808594 5.273438 54.847656 5.84375 C 55.886719 6.410156 56.894531 7.027344 57.871094 7.695312 C 58.851562 8.363281 59.792969 9.078125 60.699219 9.835938 C 61.609375 10.597656 62.476562 11.398438 63.304688 12.246094 C 64.132812 13.089844 64.917969 13.972656 65.660156 14.894531 C 66.402344 15.820312 67.097656 16.773438 67.746094 17.765625 C 68.394531 18.757812 68.992188 19.777344 69.539062 20.828125 C 70.089844 21.875 70.582031 22.949219 71.027344 24.046875 C 71.46875 25.144531 71.855469 26.261719 72.1875 27.398438 C 72.519531 28.535156 72.796875 29.683594 73.015625 30.847656 C 73.234375 32.011719 73.398438 33.183594 73.503906 34.363281 C 73.605469 35.542969 73.652344 36.722656 73.640625 37.90625 C 73.628906 39.089844 73.558594 40.269531 73.433594 41.449219 C 73.304688 42.625 73.121094 43.792969 72.878906 44.953125 C 72.636719 46.109375 72.335938 47.253906 71.984375 48.382812 C 71.628906 49.511719 71.21875 50.621094 70.753906 51.710938 Z M 70.753906 51.710938 "
          fill-opacity="1"
          fill-rule="nonzero"
        /></g></g></g><path
    stroke-linecap="round"
    transform="matrix(-0.686931, 0.30104, -0.30104, -0.686931, 56.996265, 48.670322)"
    fill="none"
    stroke-linejoin="miter"
    d="M 12.001714 1.498571 L 28.32047 1.502134 "
    stroke="#343437"
    stroke-width="3"
    stroke-opacity="1"
    stroke-miterlimit="4"
  /><path
    stroke-linecap="round"
    transform="matrix(-0.686931, 0.30104, -0.30104, -0.686931, 56.996265, 48.670322)"
    fill="none"
    stroke-linejoin="round"
    d="M 1.497512 1.5013 C 1.499948 -0.982643 3.515433 -2.999504 6.001467 -3.001839 C 8.485409 -2.999403 10.4975 -0.986008 10.499835 1.500025 C 10.50217 3.986059 8.486684 6.00292 5.997971 5.998394 C 3.511938 6.000728 1.499847 3.987333 1.497512 1.5013 "
    stroke="#343437"
    stroke-width="3"
    stroke-opacity="1"
    stroke-miterlimit="4"
  /><path
    stroke-linecap="round"
    transform="matrix(-0.686931, 0.30104, -0.30104, -0.686931, 56.996265, 48.670322)"
    fill="none"
    stroke-linejoin="round"
    d="M 38.819902 1.497314 C 38.822236 3.983348 36.806751 6.000209 34.320718 6.002543 C 31.836775 6.000108 29.819914 3.984622 29.822349 1.50068 C 29.820015 -0.985354 31.8355 -3.002215 34.319443 -2.999779 C 36.805476 -3.002114 38.822337 -0.986628 38.819902 1.497314 "
    stroke="#343437"
    stroke-width="3"
    stroke-opacity="1"
    stroke-miterlimit="4"
  /><path
    stroke-linecap="round"
    transform="matrix(-0.690911, -0.291791, 0.291791, -0.690911, 53.802955, 26.265275)"
    fill="none"
    stroke-linejoin="miter"
    d="M 12.001047 1.500788 L 24.777628 1.498568 "
    stroke="#343437"
    stroke-width="3"
    stroke-opacity="1"
    stroke-miterlimit="4"
  /><path
    stroke-linecap="round"
    transform="matrix(-0.690911, -0.291791, 0.291791, -0.690911, 53.802955, 26.265275)"
    fill="none"
    stroke-linejoin="round"
    d="M 1.500507 1.497258 C 1.498577 -0.983932 3.513735 -2.999667 6.001749 -2.998826 C 8.482939 -3.000756 10.498674 -0.985598 10.502631 1.50039 C 10.499763 3.983606 8.484604 5.999341 5.998617 6.003298 C 3.515401 6.00043 1.499666 3.985272 1.500507 1.497258 "
    stroke="#343437"
    stroke-width="3"
    stroke-opacity="1"
    stroke-miterlimit="4"
  /><path
    stroke-linecap="round"
    transform="matrix(-0.690911, -0.291791, 0.291791, -0.690911, 53.802955, 26.265275)"
    fill="none"
    stroke-linejoin="round"
    d="M 35.276142 1.4973 C 35.275301 3.985314 33.260142 6.00105 30.776927 5.998182 C 28.290939 6.002138 26.275204 3.98698 26.276045 1.498966 C 26.274115 -0.982224 28.289273 -2.997959 30.775261 -3.001916 C 33.263275 -3.001074 35.274212 -0.983889 35.276142 1.4973 "
    stroke="#343437"
    stroke-width="3"
    stroke-opacity="1"
    stroke-miterlimit="4"
  /><path
    stroke-linecap="round"
    transform="matrix(-0.0760694, 0.746132, -0.746132, -0.0760694, 17.058219, 20.023694)"
    fill="none"
    stroke-linejoin="miter"
    d="M 11.999982 1.498452 L 33.297449 1.499803 "
    stroke="#343437"
    stroke-width="3"
    stroke-opacity="1"
    stroke-miterlimit="4"
  /><path
    stroke-linecap="round"
    transform="matrix(-0.0760694, 0.746132, -0.746132, -0.0760694, 17.058219, 20.023694)"
    fill="none"
    stroke-linejoin="round"
    d="M 1.498179 1.501121 C 1.501147 -0.985964 3.515843 -2.997555 6.0024 -2.999768 C 8.483775 -3.001453 10.500548 -0.987285 10.497579 1.4998 C 10.499792 3.986357 8.485096 5.997948 5.998539 6.000161 C 3.517164 6.001845 1.500391 3.987678 1.498179 1.501121 "
    stroke="#343437"
    stroke-width="3"
    stroke-opacity="1"
    stroke-miterlimit="4"
  /><path
    stroke-linecap="round"
    transform="matrix(-0.0760694, 0.746132, -0.746132, -0.0760694, 17.058219, 20.023694)"
    fill="none"
    stroke-linejoin="round"
    d="M 43.79978 1.502316 C 43.796283 3.984219 41.782116 6.000992 39.300212 5.997495 C 36.813655 5.999708 34.796883 3.98554 34.799851 1.498455 C 34.798167 -0.98292 36.812334 -2.999693 39.298891 -3.001906 C 41.785977 -2.998937 43.797568 -0.984241 43.79978 1.502316 "
    stroke="#343437"
    stroke-width="3"
    stroke-opacity="1"
    stroke-miterlimit="4"
  /><path
    stroke-linecap="butt"
    transform="matrix(0.683681, -0.30835, 0.30835, 0.683681, 18.669401, 21.678147)"
    fill="none"
    stroke-linejoin="miter"
    d="M 0.00137628 1.499825 L 15.438027 1.502864 "
    stroke="#343437"
    stroke-width="3"
    stroke-opacity="1"
    stroke-miterlimit="4"
  /><path
    stroke-linecap="butt"
    transform="matrix(-0.112034, -0.741585, 0.741585, -0.112034, 51.874682, 46.607748)"
    fill="none"
    stroke-linejoin="miter"
    d="M -0.00249698 1.50127 L 26.845596 1.501391 "
    stroke="#343437"
    stroke-width="3"
    stroke-opacity="1"
    stroke-miterlimit="4"
  /><path
    stroke-linecap="butt"
    transform="matrix(0.690642, 0.292427, -0.292427, 0.690642, 16.464926, 49.883652)"
    fill="none"
    stroke-linejoin="miter"
    d="M 0.000442865 1.497429 L 20.475548 1.498604 "
    stroke="#343437"
    stroke-width="3"
    stroke-opacity="1"
    stroke-miterlimit="4"
  /><g clip-path="url(#decda4b667)"><path
      fill="#ffffff"
      d="M 58.710938 28.199219 C 58.503906 28.175781 58.289062 28.210938 58.09375 28.308594 C 57.703125 28.496094 57.453125 28.894531 57.453125 29.332031 L 57.453125 33.964844 L 42.652344 33.964844 C 41.394531 33.964844 40.375 34.980469 40.375 36.238281 L 40.375 38.515625 C 40.375 39.777344 41.394531 40.792969 42.652344 40.792969 L 57.453125 40.792969 L 57.453125 45.429688 C 57.453125 45.867188 57.703125 46.265625 58.09375 46.453125 C 58.25 46.53125 58.421875 46.570312 58.59375 46.570312 C 58.84375 46.570312 59.089844 46.488281 59.292969 46.332031 L 69.621094 38.28125 C 69.898438 38.0625 70.058594 37.734375 70.058594 37.382812 C 70.058594 37.03125 69.898438 36.699219 69.621094 36.484375 L 59.292969 28.433594 C 59.121094 28.296875 58.917969 28.21875 58.710938 28.199219 Z M 58.710938 28.199219 "
      fill-opacity="1"
      fill-rule="nonzero"
    /></g></svg>
