<svg
  xmlns="http://www.w3.org/2000/svg"
  xmlns:xlink="http://www.w3.org/1999/xlink"
  width="100"
  zoomAndPan="magnify"
  viewBox="0 0 75 74.999997"
  height="100"
  preserveAspectRatio="xMidYMid meet"
  version="1.0"
><defs><clipPath id="5e91d252c5"><path
        d="M 1 1 L 74 1 L 74 74 L 1 74 Z M 1 1 "
        clip-rule="nonzero"
      /></clipPath><clipPath id="0db26c2549"><path
        d="M 18.453125 -9.863281 L 84.699219 18.339844 L 56.496094 84.585938 L -9.75 56.382812 Z M 18.453125 -9.863281 "
        clip-rule="nonzero"
      /></clipPath><clipPath id="cdf67edbe4"><path
        d="M 18.453125 -9.863281 L 84.699219 18.339844 L 56.496094 84.585938 L -9.75 56.382812 Z M 18.453125 -9.863281 "
        clip-rule="nonzero"
      /></clipPath><clipPath id="8472f92a78"><path
        d="M 10.085938 28.160156 L 40 28.160156 L 40 46.910156 L 10.085938 46.910156 Z M 10.085938 28.160156 "
        clip-rule="nonzero"
      /></clipPath></defs><g clip-path="url(#5e91d252c5)"><g clip-path="url(#0db26c2549)"><g
        clip-path="url(#cdf67edbe4)"
      ><path
          fill="#fa9a36"
          d="M 70.8125 51.710938 C 70.347656 52.800781 69.832031 53.863281 69.261719 54.902344 C 68.695312 55.941406 68.078125 56.949219 67.410156 57.929688 C 66.742188 58.90625 66.027344 59.847656 65.269531 60.757812 C 64.507812 61.664062 63.707031 62.53125 62.859375 63.359375 C 62.015625 64.191406 61.132812 64.976562 60.210938 65.71875 C 59.285156 66.460938 58.332031 67.15625 57.339844 67.800781 C 56.347656 68.449219 55.328125 69.046875 54.277344 69.597656 C 53.230469 70.144531 52.15625 70.640625 51.058594 71.082031 C 49.960938 71.523438 48.84375 71.910156 47.707031 72.242188 C 46.570312 72.578125 45.421875 72.851562 44.257812 73.070312 C 43.09375 73.292969 41.921875 73.453125 40.742188 73.558594 C 39.5625 73.664062 38.382812 73.710938 37.199219 73.699219 C 36.015625 73.6875 34.835938 73.617188 33.65625 73.488281 C 32.480469 73.359375 31.3125 73.175781 30.152344 72.933594 C 28.996094 72.691406 27.851562 72.394531 26.722656 72.039062 C 25.59375 71.683594 24.484375 71.273438 23.394531 70.8125 C 22.304688 70.347656 21.242188 69.832031 20.203125 69.261719 C 19.164062 68.695312 18.15625 68.078125 17.175781 67.410156 C 16.199219 66.742188 15.257812 66.027344 14.347656 65.269531 C 13.441406 64.507812 12.574219 63.707031 11.746094 62.859375 C 10.914062 62.015625 10.128906 61.132812 9.386719 60.210938 C 8.644531 59.285156 7.949219 58.332031 7.304688 57.339844 C 6.65625 56.347656 6.058594 55.328125 5.507812 54.277344 C 4.960938 53.230469 4.464844 52.15625 4.023438 51.058594 C 3.582031 49.960938 3.195312 48.84375 2.863281 47.707031 C 2.527344 46.570312 2.253906 45.421875 2.035156 44.257812 C 1.8125 43.09375 1.652344 41.921875 1.546875 40.742188 C 1.441406 39.5625 1.394531 38.382812 1.40625 37.199219 C 1.417969 36.015625 1.488281 34.835938 1.617188 33.65625 C 1.746094 32.480469 1.929688 31.3125 2.171875 30.152344 C 2.414062 28.996094 2.710938 27.851562 3.066406 26.722656 C 3.421875 25.59375 3.832031 24.484375 4.292969 23.394531 C 4.757812 22.304688 5.273438 21.242188 5.84375 20.203125 C 6.410156 19.164062 7.027344 18.15625 7.695312 17.175781 C 8.363281 16.199219 9.078125 15.257812 9.835938 14.347656 C 10.597656 13.441406 11.398438 12.574219 12.246094 11.746094 C 13.089844 10.914062 13.972656 10.128906 14.894531 9.386719 C 15.820312 8.644531 16.773438 7.949219 17.765625 7.304688 C 18.757812 6.65625 19.777344 6.058594 20.828125 5.507812 C 21.875 4.960938 22.949219 4.464844 24.046875 4.023438 C 25.144531 3.582031 26.261719 3.195312 27.398438 2.863281 C 28.535156 2.527344 29.683594 2.253906 30.847656 2.035156 C 32.011719 1.8125 33.183594 1.652344 34.363281 1.546875 C 35.542969 1.441406 36.722656 1.394531 37.90625 1.40625 C 39.089844 1.417969 40.269531 1.488281 41.449219 1.617188 C 42.625 1.746094 43.792969 1.929688 44.953125 2.171875 C 46.109375 2.414062 47.253906 2.710938 48.382812 3.066406 C 49.511719 3.421875 50.621094 3.832031 51.710938 4.292969 C 52.800781 4.757812 53.863281 5.273438 54.902344 5.84375 C 55.941406 6.410156 56.949219 7.027344 57.929688 7.695312 C 58.90625 8.363281 59.847656 9.078125 60.757812 9.835938 C 61.664062 10.597656 62.53125 11.398438 63.359375 12.246094 C 64.191406 13.089844 64.976562 13.972656 65.71875 14.894531 C 66.460938 15.820312 67.15625 16.773438 67.800781 17.765625 C 68.449219 18.757812 69.046875 19.777344 69.597656 20.828125 C 70.144531 21.875 70.640625 22.949219 71.082031 24.046875 C 71.523438 25.144531 71.910156 26.261719 72.242188 27.398438 C 72.578125 28.535156 72.851562 29.683594 73.070312 30.847656 C 73.292969 32.011719 73.453125 33.183594 73.558594 34.363281 C 73.664062 35.542969 73.710938 36.722656 73.699219 37.90625 C 73.6875 39.089844 73.617188 40.269531 73.488281 41.449219 C 73.359375 42.625 73.175781 43.792969 72.933594 44.953125 C 72.691406 46.109375 72.394531 47.253906 72.039062 48.382812 C 71.683594 49.511719 71.273438 50.621094 70.8125 51.710938 Z M 70.8125 51.710938 "
          fill-opacity="1"
          fill-rule="nonzero"
        /></g></g></g><path
    stroke-linecap="round"
    transform="matrix(-0.686931, 0.30104, -0.30104, -0.686931, 65.021591, 48.67031)"
    fill="none"
    stroke-linejoin="miter"
    d="M 11.999256 1.497477 L 28.318012 1.501039 "
    stroke="#343437"
    stroke-width="3"
    stroke-opacity="1"
    stroke-miterlimit="4"
  /><path
    stroke-linecap="round"
    transform="matrix(-0.686931, 0.30104, -0.30104, -0.686931, 65.021591, 48.67031)"
    fill="none"
    stroke-linejoin="round"
    d="M 1.499825 1.502296 C 1.49749 -0.983737 3.512975 -3.000598 5.999009 -3.002933 C 8.482951 -3.000498 10.499812 -0.985012 10.502147 1.501021 C 10.499712 3.984964 8.484226 6.001825 6.000283 5.999389 C 3.51425 6.001724 1.497389 3.986239 1.499825 1.502296 "
    stroke="#343437"
    stroke-width="3"
    stroke-opacity="1"
    stroke-miterlimit="4"
  /><path
    stroke-linecap="round"
    transform="matrix(-0.686931, 0.30104, -0.30104, -0.686931, 65.021591, 48.67031)"
    fill="none"
    stroke-linejoin="round"
    d="M 38.822214 1.49831 C 38.819778 3.982253 36.804293 5.999114 34.31826 6.001449 C 31.834317 5.999013 29.822226 3.985618 29.819891 1.499585 C 29.822327 -0.984358 31.837813 -3.001219 34.321755 -2.998783 C 36.807789 -3.001118 38.819879 -0.987723 38.822214 1.49831 "
    stroke="#343437"
    stroke-width="3"
    stroke-opacity="1"
    stroke-miterlimit="4"
  /><path
    stroke-linecap="round"
    transform="matrix(-0.690911, -0.291791, 0.291791, -0.690911, 61.828268, 26.265271)"
    fill="none"
    stroke-linejoin="miter"
    d="M 11.998552 1.501836 L 24.775133 1.499616 "
    stroke="#343437"
    stroke-width="3"
    stroke-opacity="1"
    stroke-miterlimit="4"
  /><path
    stroke-linecap="round"
    transform="matrix(-0.690911, -0.291791, 0.291791, -0.690911, 61.828268, 26.265271)"
    fill="none"
    stroke-linejoin="round"
    d="M 1.498012 1.498306 C 1.50088 -0.98491 3.516038 -3.000645 5.999254 -2.997777 C 8.485241 -3.001734 10.500977 -0.986576 10.500135 1.501438 C 10.497267 3.984654 8.486907 5.998363 6.000919 6.00232 C 3.512906 6.001478 1.501968 3.984294 1.498012 1.498306 "
    stroke="#343437"
    stroke-width="3"
    stroke-opacity="1"
    stroke-miterlimit="4"
  /><path
    stroke-linecap="round"
    transform="matrix(-0.690911, -0.291791, 0.291791, -0.690911, 61.828268, 26.265271)"
    fill="none"
    stroke-linejoin="round"
    d="M 35.273647 1.498349 C 35.277603 3.984336 33.262445 6.000072 30.774431 5.99923 C 28.293242 6.00116 26.277506 3.986002 26.27355 1.500014 C 26.276418 -0.983202 28.291576 -2.998937 30.772765 -3.000867 C 33.260779 -3.000026 35.276515 -0.984867 35.273647 1.498349 "
    stroke="#343437"
    stroke-width="3"
    stroke-opacity="1"
    stroke-miterlimit="4"
  /><path
    stroke-linecap="round"
    transform="matrix(-0.0760694, 0.746132, -0.746132, -0.0760694, 25.083537, 20.023688)"
    fill="none"
    stroke-linejoin="miter"
    d="M 12.000243 1.500946 L 33.29771 1.502297 "
    stroke="#343437"
    stroke-width="3"
    stroke-opacity="1"
    stroke-miterlimit="4"
  /><path
    stroke-linecap="round"
    transform="matrix(-0.0760694, 0.746132, -0.746132, -0.0760694, 25.083537, 20.023688)"
    fill="none"
    stroke-linejoin="round"
    d="M 1.497912 1.498433 C 1.501409 -0.983471 3.515576 -3.000243 6.002133 -3.002456 C 8.484037 -2.998959 10.50081 -0.984791 10.497841 1.502294 C 10.499525 3.983669 8.485358 6.000442 5.998801 6.002654 C 3.516897 5.999157 1.500125 3.98499 1.497912 1.498433 "
    stroke="#343437"
    stroke-width="3"
    stroke-opacity="1"
    stroke-miterlimit="4"
  /><path
    stroke-linecap="round"
    transform="matrix(-0.0760694, 0.746132, -0.746132, -0.0760694, 25.083537, 20.023688)"
    fill="none"
    stroke-linejoin="round"
    d="M 43.799514 1.499628 C 43.796545 3.986713 41.781849 5.998304 39.300474 5.999989 C 36.813917 6.002201 34.797144 3.988034 34.800113 1.500949 C 34.7979 -0.985608 36.812068 -3.002381 39.299153 -2.999412 C 41.78571 -3.001625 43.797301 -0.986929 43.799514 1.499628 "
    stroke="#343437"
    stroke-width="3"
    stroke-opacity="1"
    stroke-miterlimit="4"
  /><path
    stroke-linecap="butt"
    transform="matrix(0.683681, -0.30835, 0.30835, 0.683681, 26.69472, 21.678156)"
    fill="none"
    stroke-linejoin="miter"
    d="M -0.000906465 1.498782 L 15.435744 1.501821 "
    stroke="#343437"
    stroke-width="3"
    stroke-opacity="1"
    stroke-miterlimit="4"
  /><path
    stroke-linecap="butt"
    transform="matrix(-0.112034, -0.741585, 0.741585, -0.112034, 59.899998, 46.607753)"
    fill="none"
    stroke-linejoin="miter"
    d="M -0.00211648 1.498794 L 26.845976 1.498915 "
    stroke="#343437"
    stroke-width="3"
    stroke-opacity="1"
    stroke-miterlimit="4"
  /><path
    stroke-linecap="butt"
    transform="matrix(0.690642, 0.292427, -0.292427, 0.690642, 24.490244, 49.883642)"
    fill="none"
    stroke-linejoin="miter"
    d="M -0.00186082 1.498418 L 20.47804 1.497563 "
    stroke="#343437"
    stroke-width="3"
    stroke-opacity="1"
    stroke-miterlimit="4"
  /><g clip-path="url(#8472f92a78)"><path
      fill="#ffffff"
      d="M 28.5625 28.199219 C 28.351562 28.175781 28.140625 28.210938 27.941406 28.308594 C 27.550781 28.496094 27.304688 28.894531 27.304688 29.332031 L 27.304688 33.964844 L 12.503906 33.964844 C 11.246094 33.964844 10.226562 34.980469 10.226562 36.238281 L 10.226562 38.515625 C 10.226562 39.777344 11.246094 40.792969 12.503906 40.792969 L 27.304688 40.792969 L 27.304688 45.429688 C 27.304688 45.867188 27.550781 46.265625 27.941406 46.453125 C 28.101562 46.53125 28.273438 46.570312 28.441406 46.570312 C 28.691406 46.570312 28.941406 46.488281 29.144531 46.332031 L 39.472656 38.28125 C 39.746094 38.0625 39.910156 37.734375 39.910156 37.382812 C 39.910156 37.03125 39.746094 36.699219 39.472656 36.484375 L 29.144531 28.433594 C 28.972656 28.296875 28.769531 28.21875 28.5625 28.199219 Z M 28.5625 28.199219 "
      fill-opacity="1"
      fill-rule="nonzero"
    /></g></svg>
