<svg
  xmlns="http://www.w3.org/2000/svg"
  xmlns:xlink="http://www.w3.org/1999/xlink"
  width="100"
  zoomAndPan="magnify"
  viewBox="0 0 75 74.999997"
  height="100"
  preserveAspectRatio="xMidYMid meet"
  version="1.0"
>
  <defs>
    <clipPath id="id1">
      <path d="M 0 6.46875 L 75 6.46875 L 75 68.71875 L 0 68.71875 Z M 0 6.46875 " clip-rule="nonzero" />
    </clipPath>
  </defs>
  <g clip-path="url(#id1)">
    <path
      fill="currentColor"
      d="M 68.300781 61.824219 L 6.699219 61.824219 L 6.699219 20.480469 L 68.300781 20.480469 Z M 10.269531 9.949219 C 12.238281 9.949219 13.839844 11.554688 13.839844 13.535156 C 13.839844 15.511719 12.238281 17.117188 10.269531 17.117188 C 8.292969 17.117188 6.691406 15.511719 6.691406 13.535156 C 6.691406 11.554688 8.292969 9.949219 10.269531 9.949219 Z M 20.984375 9.949219 C 22.953125 9.949219 24.554688 11.554688 24.554688 13.535156 C 24.554688 15.511719 22.953125 17.117188 20.984375 17.117188 C 19.007812 17.117188 17.40625 15.511719 17.40625 13.535156 C 17.40625 11.554688 19.007812 9.949219 20.984375 9.949219 Z M 31.695312 9.949219 C 33.667969 9.949219 35.273438 11.554688 35.273438 13.535156 C 35.273438 15.511719 33.667969 17.117188 31.695312 17.117188 C 29.722656 17.117188 28.121094 15.511719 28.121094 13.535156 C 28.121094 11.554688 29.722656 9.949219 31.695312 9.949219 Z M 47.195312 10.847656 L 65.5625 10.847656 C 66.300781 10.847656 66.972656 11.148438 67.457031 11.632812 C 67.941406 12.121094 68.238281 12.792969 68.238281 13.53125 C 68.238281 15.019531 67.042969 16.21875 65.5625 16.21875 L 47.195312 16.21875 C 45.710938 16.21875 44.515625 15.019531 44.515625 13.53125 C 44.515625 12.046875 45.710938 10.847656 47.195312 10.847656 Z M 70.808594 6.585938 L 4.195312 6.585938 C 1.878906 6.585938 0 8.46875 0 10.792969 L 0 64.332031 C 0 66.65625 1.878906 68.539062 4.195312 68.539062 L 70.808594 68.539062 C 73.121094 68.539062 75 66.65625 75 64.332031 L 75 10.792969 C 75 8.46875 73.121094 6.585938 70.808594 6.585938 "
      fill-opacity="1"
      fill-rule="nonzero"
    />
  </g>
  <path
    fill="currentColor"
    d="M 32.753906 45.605469 L 34.703125 44.011719 L 34.703125 38.605469 C 34.703125 35.820312 36.621094 33.476562 39.203125 32.835938 L 39.203125 31.9375 C 39.203125 31.542969 39.363281 31.1875 39.621094 30.925781 C 39.878906 30.667969 40.234375 30.507812 40.628906 30.507812 C 41.417969 30.507812 42.054688 31.148438 42.054688 31.9375 L 42.054688 32.835938 C 44.640625 33.476562 46.554688 35.820312 46.554688 38.605469 L 46.554688 43.957031 L 48.503906 45.605469 L 48.503906 46.554688 L 32.753906 46.554688 Z M 42.558594 47.71875 C 42.558594 48.789062 41.695312 49.652344 40.628906 49.652344 C 39.5625 49.652344 38.699219 48.789062 38.699219 47.71875 L 38.699219 47.433594 L 42.558594 47.433594 Z M 19.175781 57.351562 C 20.167969 58.59375 30.875 51.929688 32.203125 52.8125 C 33.019531 53.359375 33.898438 53.828125 34.820312 54.210938 C 35.257812 54.390625 35.707031 54.554688 36.164062 54.695312 C 37.578125 55.128906 39.078125 55.359375 40.628906 55.359375 C 49.042969 55.359375 55.863281 48.519531 55.863281 40.082031 C 55.863281 31.640625 49.042969 24.800781 40.628906 24.800781 C 32.21875 24.800781 25.394531 31.640625 25.394531 40.082031 C 25.394531 42.414062 25.914062 44.621094 26.847656 46.601562 C 27.351562 47.671875 18.449219 56.429688 19.175781 57.351562 "
    fill-opacity="1"
    fill-rule="nonzero"
  />
</svg>
