<svg
  xmlns="http://www.w3.org/2000/svg"
  xmlns:xlink="http://www.w3.org/1999/xlink"
  width="100"
  zoomAndPan="magnify"
  viewBox="0 0 75 74.999997"
  height="100"
  preserveAspectRatio="xMidYMid meet"
  version="1.0"
>
  <path
    fill="currentColor"
    d="M 39.910156 28.429688 C 39.871094 28.523438 39.820312 28.601562 39.765625 28.679688 C 39.554688 28.984375 39.304688 29.222656 38.988281 29.417969 C 38.566406 29.683594 38.050781 29.832031 37.457031 29.832031 C 37.414062 29.832031 37.363281 29.832031 37.320312 29.832031 C 36.992188 29.816406 36.699219 29.75 36.425781 29.660156 C 36.386719 29.644531 36.347656 29.632812 36.304688 29.621094 C 35.960938 29.472656 35.671875 29.277344 35.433594 29.050781 C 35.195312 28.816406 35.011719 28.523438 34.878906 28.203125 C 34.746094 27.886719 34.679688 27.53125 34.679688 27.164062 C 34.679688 26.925781 34.707031 26.6875 34.789062 26.464844 C 34.800781 26.359375 34.84375 26.238281 34.878906 26.132812 C 35.023438 25.804688 35.226562 25.511719 35.460938 25.273438 C 35.710938 25.039062 36.003906 24.839844 36.347656 24.691406 C 36.453125 24.640625 36.558594 24.613281 36.675781 24.585938 C 36.925781 24.507812 37.191406 24.480469 37.457031 24.480469 C 37.730469 24.480469 38.011719 24.507812 38.261719 24.585938 C 38.511719 24.667969 38.75 24.773438 38.960938 24.90625 C 39.078125 24.984375 39.199219 25.0625 39.304688 25.15625 C 39.382812 25.222656 39.464844 25.300781 39.527344 25.378906 C 39.671875 25.550781 39.804688 25.738281 39.910156 25.933594 Z M 27.023438 29.894531 C 27.289062 30.820312 27.644531 31.691406 28.117188 32.496094 C 28.578125 33.289062 29.160156 34.027344 29.824219 34.6875 C 30.480469 35.347656 31.222656 35.914062 32.011719 36.390625 C 32.816406 36.851562 33.691406 37.222656 34.613281 37.476562 C 35.539062 37.738281 36.503906 37.871094 37.492188 37.871094 C 38.523438 37.871094 39.515625 37.722656 40.449219 37.460938 C 41.402344 37.183594 42.289062 36.800781 43.105469 36.300781 L 43.382812 36.125 L 42.046875 33.910156 L 41.769531 34.082031 C 41.136719 34.460938 40.464844 34.753906 39.738281 34.964844 C 38.324219 35.359375 36.714844 35.359375 35.300781 34.980469 C 34.589844 34.78125 33.925781 34.503906 33.320312 34.144531 C 32.714844 33.789062 32.148438 33.351562 31.65625 32.855469 C 31.15625 32.363281 30.722656 31.796875 30.363281 31.1875 C 30.097656 30.710938 29.863281 30.199219 29.675781 29.65625 C 29.636719 29.511719 29.585938 29.367188 29.546875 29.207031 C 29.347656 28.507812 29.253906 27.769531 29.253906 27 C 29.253906 26.25 29.347656 25.523438 29.546875 24.824219 C 29.742188 24.125 30.019531 23.464844 30.363281 22.855469 C 30.601562 22.445312 30.878906 22.0625 31.183594 21.707031 C 31.328125 21.523438 31.484375 21.351562 31.65625 21.195312 C 32.117188 20.730469 32.636719 20.308594 33.203125 19.980469 C 33.242188 19.953125 33.28125 19.925781 33.320312 19.898438 C 33.925781 19.542969 34.589844 19.265625 35.300781 19.070312 C 36.570312 18.722656 38.007812 18.683594 39.304688 18.976562 C 39.433594 19 39.582031 19.027344 39.710938 19.070312 C 40.425781 19.25 41.097656 19.515625 41.707031 19.859375 C 42.3125 20.203125 42.882812 20.613281 43.371094 21.089844 C 43.871094 21.5625 44.308594 22.078125 44.648438 22.644531 C 45.007812 23.214844 45.285156 23.820312 45.480469 24.46875 C 45.667969 25.101562 45.773438 25.773438 45.773438 26.449219 C 45.773438 27.054688 45.734375 27.570312 45.65625 27.96875 C 45.574219 28.363281 45.445312 28.746094 45.257812 29.117188 C 45.074219 29.472656 44.824219 29.789062 44.519531 30.042969 C 44.226562 30.277344 43.886719 30.394531 43.4375 30.394531 C 43.238281 30.394531 43.082031 30.355469 42.964844 30.292969 C 42.839844 30.210938 42.738281 30.09375 42.644531 29.933594 C 42.578125 29.816406 42.5 29.578125 42.5 29.128906 L 42.5 21.816406 L 39.910156 21.816406 L 39.910156 22.449219 C 39.714844 22.355469 39.515625 22.273438 39.304688 22.199219 C 39.210938 22.167969 39.117188 22.128906 39.027344 22.105469 C 37.824219 21.746094 36.464844 21.816406 35.34375 22.304688 C 35.25 22.34375 35.144531 22.394531 35.050781 22.433594 C 34.523438 22.699219 34.050781 23.03125 33.640625 23.4375 C 33.414062 23.664062 33.21875 23.902344 33.046875 24.152344 C 32.835938 24.453125 32.648438 24.769531 32.503906 25.117188 C 32.226562 25.75 32.082031 26.449219 32.082031 27.164062 C 32.082031 27.902344 32.214844 28.589844 32.476562 29.222656 C 32.542969 29.367188 32.609375 29.511719 32.6875 29.660156 C 32.925781 30.121094 33.230469 30.527344 33.597656 30.898438 C 34.074219 31.375 34.65625 31.757812 35.300781 32.019531 C 36.53125 32.539062 38.089844 32.578125 39.355469 32.113281 C 39.832031 31.941406 40.269531 31.703125 40.648438 31.425781 C 40.902344 31.769531 41.21875 32.074219 41.589844 32.3125 C 41.824219 32.472656 42.089844 32.578125 42.394531 32.667969 C 42.695312 32.75 43.027344 32.789062 43.382812 32.789062 C 43.910156 32.789062 44.414062 32.695312 44.875 32.511719 C 45.324219 32.335938 45.734375 32.085938 46.117188 31.785156 C 46.484375 31.480469 46.816406 31.125 47.09375 30.714844 C 47.371094 30.304688 47.59375 29.871094 47.792969 29.40625 C 47.976562 28.945312 48.125 28.457031 48.21875 27.953125 C 48.324219 27.453125 48.359375 26.949219 48.359375 26.449219 C 48.359375 25.523438 48.230469 24.613281 47.976562 23.753906 C 47.726562 22.898438 47.355469 22.066406 46.898438 21.3125 C 46.421875 20.546875 45.851562 19.847656 45.207031 19.226562 C 44.546875 18.59375 43.808594 18.050781 43 17.601562 C 42.207031 17.152344 41.335938 16.808594 40.414062 16.558594 C 40.058594 16.464844 39.6875 16.386719 39.304688 16.335938 C 37.757812 16.085938 36.109375 16.164062 34.613281 16.574219 C 33.691406 16.824219 32.820312 17.191406 32.011719 17.65625 C 31.882812 17.734375 31.75 17.8125 31.632812 17.894531 C 30.96875 18.316406 30.363281 18.804688 29.824219 19.355469 C 29.742188 19.4375 29.664062 19.515625 29.597656 19.597656 C 29.03125 20.175781 28.527344 20.835938 28.117188 21.550781 C 27.644531 22.34375 27.289062 23.214844 27.023438 24.136719 C 26.769531 25.046875 26.640625 26.027344 26.640625 27.003906 C 26.640625 27.929688 26.746094 28.8125 26.96875 29.65625 C 26.980469 29.738281 26.996094 29.816406 27.023438 29.894531 "
    fill-opacity="1"
    fill-rule="nonzero"
  />
  <path
    fill="currentColor"
    d="M 67.902344 57.828125 C 67.90625 60.894531 67.90625 63.960938 67.902344 67.027344 C 67.902344 69.488281 66.503906 70.90625 64.0625 70.90625 C 55.207031 70.90625 46.355469 70.90625 37.5 70.90625 C 28.644531 70.90625 19.792969 70.90625 10.9375 70.90625 C 8.496094 70.90625 7.097656 69.488281 7.097656 67.027344 C 7.09375 64.011719 7.09375 60.996094 7.097656 57.980469 C 7.097656 50.066406 7.097656 41.890625 7.082031 33.832031 C 10.417969 36.6875 16.203125 41.636719 17.386719 42.660156 C 18.414062 43.542969 19.441406 44.425781 20.464844 45.3125 C 22.003906 46.636719 24.363281 48.679688 26.417969 50.453125 L 27.257812 51.179688 C 23.917969 54.058594 20.582031 56.9375 17.242188 59.820312 L 16.390625 60.554688 C 15.273438 61.515625 14.117188 62.511719 12.992188 63.496094 C 12.152344 64.230469 12.011719 65.214844 12.640625 66.003906 C 13.273438 66.792969 14.339844 66.84375 15.242188 66.125 C 15.324219 66.058594 15.402344 65.992188 15.484375 65.921875 L 37.347656 47.03125 L 37.507812 47.167969 L 37.65625 47.039062 L 59.515625 65.925781 C 59.597656 65.992188 59.675781 66.058594 59.761719 66.125 C 60.183594 66.464844 60.640625 66.628906 61.078125 66.628906 C 61.566406 66.628906 62.023438 66.417969 62.359375 66.003906 C 62.988281 65.214844 62.847656 64.230469 62.007812 63.5 C 60.882812 62.515625 59.730469 61.519531 58.613281 60.558594 L 57.757812 59.820312 C 54.417969 56.9375 51.082031 54.058594 47.742188 51.179688 L 48.699219 50.355469 C 50.722656 48.601562 53.027344 46.613281 54.535156 45.3125 C 55.554688 44.429688 56.582031 43.546875 57.605469 42.664062 C 58.863281 41.578125 64.878906 36.488281 67.917969 33.898438 C 67.902344 41.882812 67.902344 49.984375 67.902344 57.828125 Z M 8.328125 30.292969 C 8.792969 29.871094 37.5 4.832031 37.5 4.832031 C 37.5 4.832031 37.917969 5.191406 38.132812 5.367188 C 38.835938 5.96875 39.507812 6.539062 40.160156 7.140625 C 40.269531 7.308594 40.414062 7.480469 40.613281 7.65625 C 41.089844 8.089844 47.191406 13.382812 53.65625 18.988281 C 59.824219 24.335938 66.207031 29.871094 66.671875 30.292969 C 66.695312 30.316406 66.714844 30.335938 66.734375 30.355469 L 49.378906 45.214844 C 48.429688 46.035156 46.585938 47.628906 45.109375 48.90625 C 43.285156 47.328125 41.457031 45.75 39.628906 44.171875 C 39.441406 44.007812 39.25 43.847656 39.058594 43.6875 C 38.609375 43.3125 38.109375 42.972656 37.5 43.035156 C 36.890625 42.972656 36.390625 43.3125 35.941406 43.6875 C 35.75 43.847656 35.558594 44.007812 35.371094 44.171875 C 33.542969 45.75 31.714844 47.328125 29.890625 48.90625 C 28.417969 47.628906 26.570312 46.035156 25.621094 45.214844 L 8.304688 30.316406 C 8.3125 30.3125 8.320312 30.300781 8.328125 30.292969 Z M 71.953125 33.84375 C 71.964844 30.816406 70.921875 28.507812 68.773438 26.785156 C 67.859375 26.054688 57.875 17.390625 48.359375 9.113281 L 48.480469 9.113281 L 44.816406 5.882812 C 42.738281 4.054688 40.777344 2.332031 38.792969 0.59375 C 38.429688 0.273438 38.019531 0.0664062 37.613281 -0.00390625 L 37.5 -0.0234375 L 37.386719 -0.00390625 C 36.980469 0.0664062 36.570312 0.273438 36.207031 0.59375 C 34.222656 2.332031 26.640625 9.113281 26.640625 9.113281 C 17.125 17.390625 7.140625 26.054688 6.226562 26.785156 C 4.078125 28.507812 3.035156 30.816406 3.046875 33.84375 C 3.082031 41.972656 3.074219 50.238281 3.070312 58.230469 C 3.070312 61.128906 3.070312 64.03125 3.070312 66.933594 C 3.070312 69.328125 3.828125 71.347656 5.257812 72.777344 C 6.691406 74.207031 8.714844 74.960938 11.113281 74.960938 C 11.113281 74.960938 11.113281 74.960938 11.117188 74.960938 L 63.882812 74.960938 C 63.886719 74.960938 63.886719 74.960938 63.886719 74.960938 C 66.285156 74.960938 68.308594 74.207031 69.742188 72.777344 C 71.171875 71.347656 71.929688 69.328125 71.929688 66.933594 C 71.929688 64.03125 71.929688 61.125 71.929688 58.222656 C 71.925781 50.234375 71.917969 41.96875 71.953125 33.84375 "
    fill-opacity="1"
    fill-rule="nonzero"
  />
</svg>
