<svg
  xmlns="http://www.w3.org/2000/svg"
  xmlns:xlink="http://www.w3.org/1999/xlink"
  width="100"
  zoomAndPan="magnify"
  viewBox="0 0 75 74.999997"
  height="100"
  preserveAspectRatio="xMidYMid meet"
  version="1.0"
>
  <defs>
    <clipPath id="id1">
      <path
        d="M 0.558594 5.023438 L 74.808594 5.023438 L 74.808594 70.273438 L 0.558594 70.273438 Z M 0.558594 5.023438 "
        clip-rule="nonzero"
      />
    </clipPath>
  </defs>
  <g clip-path="url(#id1)">
    <path
      fill="currentColor"
      d="M 9.621094 70.273438 C 8.21875 70.273438 6.855469 70.046875 5.574219 69.601562 L 2.652344 68.582031 L 4.894531 66.441406 C 7.867188 63.605469 8.617188 60.335938 8.667969 57.886719 C 3.53125 52.148438 0.710938 44.992188 0.710938 37.648438 C 0.710938 19.660156 17.273438 5.023438 37.636719 5.023438 C 58 5.023438 74.566406 19.660156 74.566406 37.648438 C 74.566406 55.636719 58 70.273438 37.636719 70.273438 C 31.574219 70.273438 25.59375 68.949219 20.265625 66.4375 C 18.257812 67.867188 14.199219 70.273438 9.621094 70.273438 Z M 19.824219 61.996094 L 20.902344 62.542969 C 25.96875 65.125 31.757812 66.492188 37.636719 66.492188 C 55.929688 66.492188 70.808594 53.550781 70.808594 37.648438 C 70.808594 21.746094 55.929688 8.808594 37.636719 8.808594 C 19.34375 8.808594 4.464844 21.746094 4.464844 37.648438 C 4.464844 44.257812 7.105469 50.722656 11.902344 55.84375 L 12.390625 56.363281 L 12.414062 57.082031 C 12.496094 59.652344 12.039062 63.136719 9.769531 66.492188 C 14.117188 66.421875 18.117188 63.371094 18.878906 62.757812 Z M 19.824219 61.996094 "
      fill-opacity="1"
      fill-rule="nonzero"
    />
  </g>
  <path
    fill="currentColor"
    d="M 19.726562 46.574219 C 18.347656 46.574219 17.230469 46.464844 16.367188 46.246094 C 15.503906 46.03125 14.910156 45.804688 14.582031 45.578125 C 14.5 45.496094 14.46875 45.304688 14.488281 45.003906 C 14.507812 44.707031 14.554688 44.394531 14.625 44.074219 C 14.695312 43.757812 14.789062 43.46875 14.902344 43.222656 C 15.015625 42.976562 15.121094 42.859375 15.226562 42.882812 C 15.761719 43.070312 16.339844 43.25 16.96875 43.425781 C 17.59375 43.601562 18.390625 43.6875 19.355469 43.6875 C 20.339844 43.6875 21.175781 43.546875 21.867188 43.253906 C 22.554688 42.964844 22.898438 42.445312 22.898438 41.703125 C 22.898438 41.058594 22.671875 40.539062 22.222656 40.132812 C 21.769531 39.730469 20.957031 39.300781 19.785156 38.847656 C 19.148438 38.597656 18.550781 38.324219 17.984375 38.023438 C 17.417969 37.726562 16.921875 37.371094 16.488281 36.96875 C 16.058594 36.566406 15.71875 36.085938 15.472656 35.527344 C 15.226562 34.96875 15.101562 34.304688 15.101562 33.539062 C 15.101562 32.917969 15.222656 32.328125 15.457031 31.769531 C 15.691406 31.210938 16.058594 30.730469 16.550781 30.328125 C 17.042969 29.925781 17.675781 29.601562 18.445312 29.367188 C 19.21875 29.128906 20.136719 29.007812 21.203125 29.007812 C 21.902344 29.007812 22.484375 29.023438 22.945312 29.054688 C 23.40625 29.085938 23.785156 29.128906 24.085938 29.179688 C 24.382812 29.230469 24.625 29.289062 24.808594 29.351562 C 24.996094 29.414062 25.167969 29.464844 25.332031 29.503906 C 25.476562 29.566406 25.550781 29.75 25.550781 30.046875 C 25.550781 30.347656 25.507812 30.667969 25.425781 31.011719 C 25.34375 31.351562 25.230469 31.652344 25.085938 31.910156 C 24.941406 32.167969 24.800781 32.277344 24.65625 32.238281 C 24.304688 32.132812 23.828125 32.019531 23.222656 31.894531 C 22.617188 31.769531 22.027344 31.710938 21.453125 31.710938 C 20.28125 31.710938 19.472656 31.875 19.03125 32.207031 C 18.589844 32.539062 18.371094 32.980469 18.371094 33.539062 C 18.371094 34.140625 18.617188 34.621094 19.109375 34.984375 C 19.601562 35.34375 20.375 35.710938 21.421875 36.085938 C 23.085938 36.746094 24.3125 37.507812 25.101562 38.367188 C 25.894531 39.226562 26.289062 40.304688 26.289062 41.609375 C 26.289062 42.582031 26.105469 43.390625 25.734375 44.03125 C 25.363281 44.671875 24.871094 45.179688 24.253906 45.550781 C 23.640625 45.925781 22.9375 46.1875 22.144531 46.34375 C 21.355469 46.496094 20.546875 46.574219 19.726562 46.574219 Z M 19.726562 46.574219 "
    fill-opacity="1"
    fill-rule="nonzero"
  />
  <path
    fill="currentColor"
    d="M 41.941406 46.417969 C 41.511719 46.417969 41.230469 46.34375 41.097656 46.199219 C 40.960938 46.054688 40.894531 45.777344 40.894531 45.359375 L 40.894531 34.5 C 40.074219 35.84375 39.441406 36.882812 39 37.617188 C 38.554688 38.355469 38.234375 38.890625 38.027344 39.234375 C 37.824219 39.574219 37.699219 39.777344 37.65625 39.835938 C 37.617188 39.898438 37.597656 39.941406 37.597656 39.964844 C 37.414062 40.273438 37.285156 40.476562 37.214844 40.570312 C 37.140625 40.664062 36.992188 40.707031 36.765625 40.707031 L 36.273438 40.707031 C 36.003906 40.707031 35.832031 40.660156 35.75 40.570312 C 35.667969 40.476562 35.542969 40.273438 35.378906 39.964844 L 32.234375 34.5625 L 32.234375 45.550781 C 32.234375 45.820312 32.1875 46.035156 32.097656 46.1875 C 32.003906 46.34375 31.761719 46.421875 31.371094 46.421875 L 30.078125 46.421875 C 29.792969 46.421875 29.539062 46.375 29.324219 46.28125 C 29.109375 46.1875 29 45.882812 29 45.363281 L 29 30.464844 C 29 30.050781 29.078125 29.777344 29.230469 29.640625 C 29.386719 29.507812 29.605469 29.441406 29.894531 29.441406 L 31.433594 29.441406 C 31.660156 29.441406 31.851562 29.472656 32.003906 29.535156 C 32.160156 29.597656 32.316406 29.75 32.480469 30 L 36.578125 36.578125 L 40.675781 30.0625 C 40.800781 29.832031 40.949219 29.671875 41.125 29.582031 C 41.300781 29.488281 41.46875 29.441406 41.632812 29.441406 L 43.328125 29.441406 C 43.71875 29.441406 43.945312 29.523438 44.007812 29.6875 C 44.070312 29.855469 44.101562 30.125 44.101562 30.496094 L 44.101562 45.515625 C 44.101562 45.828125 44.058594 46.054688 43.976562 46.199219 C 43.894531 46.347656 43.660156 46.417969 43.269531 46.417969 Z M 41.941406 46.417969 "
    fill-opacity="1"
    fill-rule="nonzero"
  />
  <path
    fill="currentColor"
    d="M 52.203125 46.574219 C 50.828125 46.574219 49.710938 46.464844 48.84375 46.246094 C 47.984375 46.03125 47.386719 45.804688 47.058594 45.578125 C 46.976562 45.496094 46.945312 45.304688 46.964844 45.003906 C 46.984375 44.707031 47.03125 44.394531 47.105469 44.074219 C 47.175781 43.757812 47.265625 43.46875 47.382812 43.222656 C 47.492188 42.976562 47.601562 42.859375 47.703125 42.882812 C 48.238281 43.070312 48.820312 43.25 49.445312 43.425781 C 50.070312 43.601562 50.867188 43.6875 51.832031 43.6875 C 52.820312 43.6875 53.65625 43.546875 54.34375 43.253906 C 55.03125 42.964844 55.378906 42.445312 55.378906 41.703125 C 55.378906 41.058594 55.152344 40.539062 54.699219 40.132812 C 54.246094 39.730469 53.4375 39.300781 52.265625 38.847656 C 51.625 38.597656 51.027344 38.324219 50.460938 38.023438 C 49.894531 37.726562 49.398438 37.371094 48.964844 36.96875 C 48.535156 36.566406 48.195312 36.085938 47.949219 35.527344 C 47.703125 34.96875 47.578125 34.304688 47.578125 33.539062 C 47.578125 32.917969 47.699219 32.328125 47.933594 31.769531 C 48.167969 31.210938 48.535156 30.730469 49.027344 30.328125 C 49.519531 29.925781 50.152344 29.601562 50.921875 29.367188 C 51.695312 29.128906 52.613281 29.007812 53.679688 29.007812 C 54.378906 29.007812 54.960938 29.023438 55.421875 29.054688 C 55.882812 29.085938 56.261719 29.128906 56.5625 29.179688 C 56.859375 29.230469 57.101562 29.289062 57.285156 29.351562 C 57.472656 29.410156 57.648438 29.464844 57.8125 29.503906 C 57.953125 29.566406 58.027344 29.75 58.027344 30.046875 C 58.027344 30.347656 57.984375 30.667969 57.902344 31.011719 C 57.820312 31.351562 57.707031 31.652344 57.566406 31.910156 C 57.421875 32.167969 57.277344 32.277344 57.132812 32.238281 C 56.785156 32.132812 56.304688 32.019531 55.703125 31.894531 C 55.09375 31.769531 54.503906 31.710938 53.929688 31.710938 C 52.757812 31.710938 51.953125 31.875 51.511719 32.207031 C 51.070312 32.539062 50.847656 32.980469 50.847656 33.539062 C 50.847656 34.140625 51.09375 34.621094 51.589844 34.984375 C 52.078125 35.34375 52.851562 35.710938 53.898438 36.085938 C 55.5625 36.746094 56.789062 37.507812 57.582031 38.367188 C 58.371094 39.226562 58.765625 40.304688 58.765625 41.609375 C 58.765625 42.582031 58.582031 43.390625 58.214844 44.03125 C 57.84375 44.671875 57.351562 45.179688 56.734375 45.550781 C 56.117188 45.925781 55.414062 46.1875 54.625 46.34375 C 53.828125 46.496094 53.027344 46.574219 52.203125 46.574219 Z M 52.203125 46.574219 "
    fill-opacity="1"
    fill-rule="nonzero"
  />
</svg>
