<svg
  xmlns="http://www.w3.org/2000/svg"
  viewBox="0 0 37.5 37.5"
  width="50"
  height="50"
  preserveAspectRatio="xMidYMid meet"
  version="1.0"
>
  <path
    d="M 15.070312 17.125 C 13.667969 15.121094 13.667969 12.425781 15.070312 10.417969 C 15.386719 9.96875 15.328125 9.351562 14.933594 8.957031 C 14.71875 8.742188 14.429688 8.621094 14.125 8.621094 C 14.09375 8.621094 14.058594 8.621094 14.023438 8.625 C 13.679688 8.65625 13.367188 8.839844 13.171875 9.125 C 11.242188 11.90625 11.242188 15.640625 13.171875 18.421875 C 13.367188 18.707031 13.679688 18.890625 14.023438 18.921875 C 14.363281 18.949219 14.695312 18.828125 14.933594 18.589844 C 15.328125 18.195312 15.386719 17.578125 15.070312 17.125 "
  />
  <path
    d="M 11.070312 5.566406 C 11.050781 5.566406 11.027344 5.566406 11.007812 5.566406 C 10.6875 5.585938 10.382812 5.738281 10.183594 5.988281 C 6.5625 10.5 6.5625 17.046875 10.183594 21.554688 C 10.382812 21.808594 10.6875 21.960938 11.007812 21.980469 C 11.335938 21.996094 11.65625 21.875 11.886719 21.640625 C 12.300781 21.226562 12.339844 20.566406 11.972656 20.113281 C 10.542969 18.328125 9.753906 16.078125 9.753906 13.773438 C 9.753906 11.46875 10.542969 9.21875 11.972656 7.433594 C 12.339844 6.976562 12.300781 6.320312 11.886719 5.902344 C 11.671875 5.6875 11.375 5.566406 11.070312 5.566406 "
  />
  <path
    d="M 7.902344 25.097656 L 7.933594 25.125 C 8.132812 25.308594 8.394531 25.410156 8.675781 25.402344 C 8.96875 25.394531 9.246094 25.277344 9.453125 25.074219 C 9.871094 24.652344 9.871094 23.96875 9.453125 23.546875 L 9.394531 23.488281 L 9.394531 23.484375 C 4.074219 18.09375 4.09375 9.371094 9.453125 4 C 9.875 3.578125 9.875 2.894531 9.453125 2.472656 C 9.25 2.265625 8.972656 2.148438 8.679688 2.144531 C 8.382812 2.136719 8.109375 2.246094 7.90625 2.449219 C 1.671875 8.691406 1.671875 18.851562 7.902344 25.097656 "
  />
  <path
    d="M 23.523438 18.421875 C 25.449219 15.640625 25.449219 11.90625 23.523438 9.125 C 23.324219 8.839844 23.011719 8.65625 22.667969 8.625 C 22.636719 8.621094 22.601562 8.621094 22.566406 8.621094 C 22.265625 8.621094 21.976562 8.742188 21.757812 8.957031 C 21.363281 9.351562 21.308594 9.96875 21.621094 10.417969 C 23.023438 12.425781 23.023438 15.121094 21.621094 17.125 C 21.308594 17.578125 21.363281 18.195312 21.757812 18.589844 C 22 18.828125 22.332031 18.949219 22.667969 18.921875 C 23.011719 18.890625 23.324219 18.707031 23.523438 18.421875 "
  />
  <path
    d="M 25.683594 21.980469 C 26.007812 21.960938 26.308594 21.808594 26.507812 21.554688 C 30.132812 17.046875 30.132812 10.5 26.507812 5.988281 C 26.308594 5.738281 26.007812 5.585938 25.683594 5.566406 C 25.664062 5.566406 25.644531 5.566406 25.621094 5.566406 C 25.316406 5.566406 25.023438 5.6875 24.804688 5.902344 C 24.390625 6.320312 24.355469 6.976562 24.71875 7.433594 C 26.152344 9.21875 26.941406 11.46875 26.941406 13.773438 C 26.941406 16.078125 26.152344 18.328125 24.71875 20.113281 C 24.355469 20.570312 24.390625 21.226562 24.804688 21.640625 C 25.039062 21.875 25.355469 21.996094 25.683594 21.980469 "
  />
  <path
    d="M 28.789062 25.097656 C 35.019531 18.851562 35.019531 8.691406 28.785156 2.449219 C 28.375 2.035156 27.664062 2.046875 27.238281 2.472656 C 26.816406 2.894531 26.816406 3.578125 27.238281 4 C 32.597656 9.371094 32.617188 18.09375 27.296875 23.488281 L 27.238281 23.546875 C 26.820312 23.96875 26.820312 24.652344 27.242188 25.074219 C 27.660156 25.492188 28.351562 25.511719 28.765625 25.121094 L 28.789062 25.097656 "
  />
  <path
    d="M 22.644531 34.769531 L 18.921875 16.1875 C 19.894531 15.910156 20.582031 14.957031 20.441406 13.867188 C 20.320312 12.910156 19.542969 12.148438 18.585938 12.042969 C 17.3125 11.902344 16.234375 12.898438 16.234375 14.148438 C 16.234375 15.117188 16.882812 15.933594 17.773438 16.1875 L 14.050781 34.769531 C 13.902344 35.5 14.460938 36.183594 15.207031 36.183594 L 21.488281 36.183594 C 22.234375 36.183594 22.792969 35.5 22.644531 34.769531 "
  />
</svg>
