<svg xmlns="http://www.w3.org/2000/svg" width="75" viewBox="0 0 75 75" height="75" version="1.0"><path
    fill="#FF1616"
    d="M 37.5 0 C 16.816406 0 0 16.828125 0 37.5 C 0 58.183594 16.816406 75 37.5 75 C 58.171875 75 75 58.183594 75 37.5 C 75 16.828125 58.171875 0 37.5 0 Z M 37.5 72.074219 C 18.433594 72.074219 2.925781 56.566406 2.925781 37.5 C 2.925781 18.433594 18.433594 2.925781 37.5 2.925781 C 56.566406 2.925781 72.074219 18.433594 72.074219 37.5 C 72.074219 56.566406 56.566406 72.074219 37.5 72.074219 Z M 37.5 72.074219"
  /><path
    fill="#FF1616"
    d="M 37.5 4.875 C 19.515625 4.875 4.875 19.515625 4.875 37.5 C 4.875 55.484375 19.515625 70.125 37.5 70.125 C 55.484375 70.125 70.125 55.484375 70.125 37.5 C 70.125 19.515625 55.484375 4.875 37.5 4.875 Z M 37.5 4.875"
  /><g fill="#FFF"><g><g><path
          d="M 30.90625 0 L 28.796875 -8.03125 L 14.890625 -8.03125 L 12.71875 0 L 0 0 L 13.96875 -43.015625 L 29.421875 -43.015625 L 43.5625 0 Z M 26.390625 -17.515625 L 24.546875 -24.546875 C 24.117188 -26.109375 23.597656 -28.128906 22.984375 -30.609375 C 22.367188 -33.097656 21.960938 -34.878906 21.765625 -35.953125 C 21.585938 -34.953125 21.238281 -33.304688 20.71875 -31.015625 C 20.207031 -28.734375 19.0625 -24.234375 17.28125 -17.515625 Z M 26.390625 -17.515625"
          transform="translate(15.715 54.75)"
        /></g></g></g></svg>
