<svg xmlns="http://www.w3.org/2000/svg" width="75" viewBox="0 0 75 75" height="75" version="1.0"><path
    fill="#7ED957"
    d="M 37.5 0 C 16.816406 0 0 16.828125 0 37.5 C 0 58.183594 16.816406 75 37.5 75 C 58.171875 75 75 58.183594 75 37.5 C 75 16.828125 58.171875 0 37.5 0 Z M 37.5 72.074219 C 18.433594 72.074219 2.925781 56.566406 2.925781 37.5 C 2.925781 18.433594 18.433594 2.925781 37.5 2.925781 C 56.566406 2.925781 72.074219 18.433594 72.074219 37.5 C 72.074219 56.566406 56.566406 72.074219 37.5 72.074219 Z M 37.5 72.074219"
  /><path
    fill="#7ED957"
    d="M 37.5 4.875 C 19.515625 4.875 4.875 19.515625 4.875 37.5 C 4.875 55.484375 19.515625 70.125 37.5 70.125 C 55.484375 70.125 70.125 55.484375 70.125 37.5 C 70.125 19.515625 55.484375 4.875 37.5 4.875 Z M 37.5 4.875"
  /><g fill="#FFF"><g><g><path
          d="M 40.984375 -22.328125 C 40.984375 -15.179688 39.015625 -9.671875 35.078125 -5.796875 C 31.148438 -1.929688 25.617188 0 18.484375 0 L 4.625 0 L 4.625 -42.828125 L 19.453125 -42.828125 C 26.328125 -42.828125 31.632812 -41.066406 35.375 -37.546875 C 39.113281 -34.035156 40.984375 -28.960938 40.984375 -22.328125 Z M 28.96875 -21.921875 C 28.96875 -25.835938 28.191406 -28.742188 26.640625 -30.640625 C 25.085938 -32.535156 22.734375 -33.484375 19.578125 -33.484375 L 16.203125 -33.484375 L 16.203125 -9.5 L 18.78125 -9.5 C 22.289062 -9.5 24.863281 -10.515625 26.5 -12.546875 C 28.144531 -14.585938 28.96875 -17.710938 28.96875 -21.921875 Z M 28.96875 -21.921875"
          transform="translate(16.98 57.75)"
        /></g></g></g></svg>
