<svg xmlns="http://www.w3.org/2000/svg" viewBox="0 0 281.25 281.249989" fill="currentColor">
	<path
    fill-rule="evenodd"
    d="M 180.738281 25.421875 C 178.347656 25.433594 175.964844 25.566406 173.582031 25.78125 C 168.445312 25.933594 164.207031 29.941406 163.820312 35.0625 L 162.054688 51.15625 C 159.242188 52.085938 156.511719 53.21875 153.863281 54.550781 L 141.222656 44.457031 C 137.320312 41.117188 131.46875 41.28125 127.738281 44.8125 C 125.910156 46.335938 124.132812 47.933594 122.4375 49.621094 C 122.34375 49.710938 122.246094 49.796875 122.160156 49.886719 L 122.152344 49.898438 L 122.140625 49.90625 C 122.042969 50 121.949219 50.089844 121.863281 50.183594 C 120.179688 51.882812 118.605469 53.683594 117.078125 55.515625 C 113.554688 59.257812 113.390625 65.089844 116.742188 68.984375 L 119.488281 72.390625 C 129.023438 76.472656 137.824219 82.277344 145.160156 89.617188 C 147.101562 91.558594 148.929688 93.605469 150.664062 95.734375 C 155.820312 83.59375 167.707031 75.671875 180.898438 75.570312 C 180.988281 75.570312 181.0625 75.570312 181.152344 75.570312 C 199.449219 75.570312 214.285156 90.390625 214.285156 108.683594 C 214.285156 108.683594 214.285156 108.6875 214.285156 108.695312 C 214.285156 126.984375 199.460938 141.820312 181.164062 141.820312 C 181.164062 141.820312 181.15625 141.820312 181.152344 141.820312 C 176.875 141.820312 172.640625 140.984375 168.683594 139.371094 C 168.960938 142.046875 169.113281 144.738281 169.113281 147.429688 C 169.113281 157.269531 166.769531 166.871094 163.125 176 L 163.808594 182.300781 C 163.9375 184.046875 164.554688 185.640625 165.460938 187.019531 L 169.382812 190.5 C 170.664062 191.136719 172.070312 191.550781 173.570312 191.589844 C 175.953125 191.804688 178.335938 191.945312 180.726562 191.949219 C 180.847656 191.949219 181 191.949219 181.125 191.949219 L 181.144531 191.949219 C 181.265625 191.949219 181.40625 191.949219 181.53125 191.949219 C 183.921875 191.9375 186.316406 191.804688 188.699219 191.589844 C 193.832031 191.4375 198.070312 187.425781 198.460938 182.300781 L 200.214844 166.210938 C 203.027344 165.28125 205.757812 164.152344 208.40625 162.8125 L 221.046875 172.917969 C 224.949219 176.257812 230.800781 176.097656 234.53125 172.5625 C 236.359375 171.035156 238.148438 169.433594 239.839844 167.746094 C 239.9375 167.648438 240.015625 167.558594 240.105469 167.46875 L 240.128906 167.445312 C 240.226562 167.351562 240.328125 167.277344 240.417969 167.179688 C 242.097656 165.484375 243.667969 163.6875 245.203125 161.847656 C 248.71875 158.109375 248.871094 152.273438 245.523438 148.382812 L 235.359375 135.789062 C 236.660156 133.191406 237.765625 130.507812 238.679688 127.753906 L 254.773438 126 C 259.898438 125.609375 263.914062 121.367188 264.066406 116.238281 C 264.273438 113.855469 264.421875 111.464844 264.425781 109.070312 C 264.425781 108.949219 264.425781 108.816406 264.425781 108.6875 L 264.425781 108.664062 C 264.425781 108.542969 264.425781 108.394531 264.425781 108.269531 C 264.414062 105.878906 264.269531 103.496094 264.066406 101.117188 C 263.925781 95.980469 259.898438 91.757812 254.773438 91.359375 L 238.679688 89.589844 C 237.746094 86.78125 236.617188 84.042969 235.28125 81.402344 L 245.390625 68.777344 C 248.730469 64.875 248.566406 59.027344 245.035156 55.296875 C 243.503906 53.460938 241.902344 51.679688 240.214844 49.988281 C 240.117188 49.898438 240.039062 49.800781 239.9375 49.710938 L 239.941406 49.703125 L 239.933594 49.695312 C 239.835938 49.601562 239.757812 49.507812 239.667969 49.417969 C 237.96875 47.734375 236.183594 46.160156 234.34375 44.632812 C 230.601562 41.117188 224.753906 40.953125 220.863281 44.300781 L 208.253906 54.460938 C 205.664062 53.167969 202.976562 52.058594 200.226562 51.144531 L 198.476562 35.0625 C 198.089844 29.945312 193.851562 25.933594 188.714844 25.78125 C 186.332031 25.566406 183.941406 25.425781 181.546875 25.421875 C 181.40625 25.421875 181.285156 25.421875 181.164062 25.421875 L 181.132812 25.421875 C 180.992188 25.421875 180.863281 25.421875 180.738281 25.421875 Z M 86.808594 76.199219 C 47.675781 76.492188 16.109375 108.292969 16.109375 147.421875 C 16.113281 186.753906 48.007812 218.632812 87.351562 218.632812 C 100.988281 218.632812 114.335938 214.722656 125.808594 207.359375 L 161.347656 247.457031 C 161.476562 247.597656 161.652344 247.730469 161.789062 247.863281 C 169.113281 255.195312 180.976562 255.1875 188.308594 247.863281 C 195.632812 240.535156 195.628906 228.660156 188.296875 221.339844 C 188.160156 221.207031 188.019531 221.0625 187.878906 220.933594 L 147.667969 185.316406 C 154.800781 173.964844 158.582031 160.828125 158.582031 147.417969 C 158.582031 108.085938 126.695312 76.199219 87.351562 76.195312 C 87.171875 76.199219 86.988281 76.199219 86.808594 76.199219 Z M 87.097656 99.949219 C 87.148438 99.949219 87.199219 99.949219 87.25 99.949219 C 87.28125 99.949219 87.316406 99.949219 87.351562 99.949219 C 113.578125 99.949219 134.847656 121.203125 134.847656 147.421875 C 134.847656 173.640625 113.589844 194.90625 87.363281 194.90625 C 87.363281 194.90625 87.355469 194.90625 87.351562 194.90625 C 61.125 194.90625 39.859375 173.640625 39.863281 147.421875 C 39.863281 121.300781 60.972656 100.089844 87.097656 99.949219 Z M 87.097656 99.949219 "
  />
</svg>
