<?xml version="1.0" encoding="UTF-8" standalone="no" ?>
<svg
  zoomAndPan="magnify"
  viewBox="0 0 224.87999 225"
  preserveAspectRatio="xMidYMid meet"
  version="1.0"
  xmlns="http://www.w3.org/2000/svg"
  xmlns:svg="http://www.w3.org/2000/svg"
>
    <path
    fill-rule="evenodd"
    d="M 181.144531 91.503906 L 169.035156 91.503906 C 167.355469 91.503906 165.996094 92.871094 165.996094 94.554688 L 165.996094 106.6875 L 162.988281 106.6875 L 162.988281 84.96875 C 162.988281 80.199219 159.167969 76.320312 154.472656 76.320312 L 93.296875 76.320312 C 91.035156 76.320312 88.828125 77.257812 87.117188 79.023438 L 73.761719 94.542969 L 66.070312 94.542969 C 61.394531 94.542969 56.972656 98.976562 56.972656 103.664062 L 56.972656 140.105469 C 56.972656 144.878906 61.308594 149.230469 66.070312 149.230469 L 73.765625 149.230469 L 87.257812 164.898438 C 88.839844 166.519531 91.042969 167.449219 93.296875 167.449219 L 132.226562 167.449219 C 134.480469 167.449219 136.683594 166.519531 138.265625 164.898438 L 160.503906 142.1875 C 162.105469 140.5625 162.988281 138.394531 162.988281 136.085938 L 162.988281 131.007812 L 165.992188 131.007812 L 165.992188 143.144531 C 165.992188 144.828125 167.351562 146.191406 169.03125 146.191406 L 181.144531 146.191406 C 182.824219 146.191406 184.1875 144.828125 184.1875 143.144531 L 184.1875 94.554688 C 184.1875 92.871094 182.824219 91.503906 181.144531 91.503906 Z M 129.664062 118.847656 L 105.4375 152.253906 L 114.523438 124.921875 L 99.382812 124.921875 L 114.523438 94.554688 L 129.664062 94.554688 L 114.523438 118.847656 Z M 129.664062 118.847656 "
  />
    <path
    fill-rule="evenodd"
    d="M 53.945312 112.773438 L 50.929688 112.773438 L 50.929688 97.589844 C 50.929688 95.914062 49.570312 94.554688 47.898438 94.554688 L 35.785156 94.554688 C 34.113281 94.554688 32.757812 95.914062 32.757812 97.589844 L 32.757812 146.179688 C 32.757812 147.859375 34.113281 149.21875 35.785156 149.21875 L 47.898438 149.21875 C 49.570312 149.21875 50.929688 147.859375 50.929688 146.179688 L 50.929688 130.996094 L 53.945312 130.996094 Z M 53.945312 112.773438 "
  />
    <path
    fill-rule="evenodd"
    d="M 96.355469 67.222656 L 108.46875 67.222656 L 108.46875 73.285156 L 126.636719 73.285156 L 126.636719 67.222656 L 138.75 67.222656 C 140.425781 67.222656 141.78125 65.863281 141.78125 64.1875 L 141.78125 52.039062 C 141.78125 50.363281 140.425781 49 138.75 49 L 96.355469 49 C 94.683594 49 93.324219 50.363281 93.324219 52.039062 L 93.324219 64.1875 C 93.324219 65.863281 94.683594 67.222656 96.355469 67.222656 Z M 96.355469 67.222656 "
  />
</svg>
