<svg
  xmlns="http://www.w3.org/2000/svg"
  xmlns:xlink="http://www.w3.org/1999/xlink"
  width="100"
  zoomAndPan="magnify"
  viewBox="0 0 75 74.999997"
  height="100"
  preserveAspectRatio="xMidYMid meet"
  version="1.0"
>
  <path
    stroke-linecap="round"
    transform="matrix(-2.212853, 1.995653, -2.009165, -2.227836, 68.990036, 36.043857)"
    fill="none"
    stroke-linejoin="miter"
    d="M 4.000671 0.000208271 L 11.10218 0.000330215 "
    stroke="currentColor"
    stroke-width="1"
    stroke-opacity="1"
    stroke-miterlimit="4"
  />
  <path
    stroke-linecap="butt"
    transform="matrix(-2.212853, 1.995653, -2.009165, -2.227836, 68.990036, 36.043857)"
    fill="none"
    stroke-linejoin="miter"
    d="M 3.499448 0.0000881387 C 3.499931 0.0987107 3.491062 0.195969 3.470989 0.291957 C 3.451889 0.388818 3.423341 0.482475 3.386318 0.573801 C 3.347444 0.665222 3.302728 0.75141 3.247591 0.833523 C 3.192454 0.915636 3.130503 0.991645 3.060764 1.060678 C 2.991024 1.12971 2.914471 1.192639 2.832858 1.247529 C 2.751246 1.302419 2.665453 1.348304 2.574602 1.386151 C 2.482777 1.423126 2.389596 1.451874 2.292235 1.471616 C 2.195752 1.490391 2.09879 1.499971 2.000378 1.499484 C 1.901088 1.499964 1.804049 1.490188 1.706533 1.471216 C 1.610868 1.45215 1.516576 1.423794 1.42551 1.386053 C 1.334444 1.348312 1.248454 1.301092 1.166759 1.247198 C 1.08409 1.192432 1.008444 1.12993 0.938944 1.06066 C 0.869444 0.991389 0.807941 0.915256 0.753557 0.833225 C 0.698295 0.752162 0.652004 0.665107 0.614778 0.573899 C 0.576675 0.483659 0.547638 0.389266 0.528736 0.293432 C 0.509738 0.195758 0.499119 0.0985772 0.500487 -0.000140261 C 0.500004 -0.0987628 0.508873 -0.196021 0.528946 -0.292009 C 0.548046 -0.38887 0.576594 -0.482527 0.613617 -0.573853 C 0.652492 -0.665274 0.697207 -0.751462 0.752344 -0.833575 C 0.807481 -0.915689 0.869432 -0.991697 0.939171 -1.06073 C 1.008911 -1.129763 1.085464 -1.192691 1.167077 -1.247581 C 1.248689 -1.302471 1.334482 -1.348357 1.426307 -1.385332 C 1.517158 -1.423179 1.610339 -1.451926 1.7077 -1.471668 C 1.804184 -1.490443 1.901145 -1.500023 1.999557 -1.499536 C 2.098847 -1.500016 2.195886 -1.49024 2.293402 -1.471268 C 2.389067 -1.452202 2.483359 -1.423846 2.574425 -1.386105 C 2.665491 -1.348364 2.751481 -1.301144 2.833176 -1.24725 C 2.915846 -1.192484 2.991491 -1.129982 3.060991 -1.060712 C 3.130491 -0.991441 3.191994 -0.915308 3.246378 -0.833277 C 3.302613 -0.751342 3.347931 -0.665159 3.385157 -0.573952 C 3.42326 -0.483711 3.452297 -0.389318 3.471199 -0.293484 C 3.490197 -0.19581 3.500816 -0.0986293 3.499448 0.0000881387 Z M 3.499448 0.0000881387 "
    stroke="currentColor"
    stroke-width="1"
    stroke-opacity="1"
    stroke-miterlimit="4"
  />
  <path
    stroke-linecap="butt"
    transform="matrix(-2.212853, 1.995653, -2.009165, -2.227836, 35.570975, 66.182696)"
    fill="none"
    stroke-linejoin="miter"
    d="M -0.499883 0.000677587 C -0.500373 0.0984281 -0.509242 0.195686 -0.528342 0.292547 C -0.547442 0.389407 -0.57599 0.483065 -0.613986 0.573518 C -0.651887 0.665811 -0.697576 0.751128 -0.752713 0.833241 C -0.80785 0.915354 -0.869801 0.991363 -0.93954 1.060395 C -1.008306 1.1303 -1.08486 1.193228 -1.167446 1.247246 C -1.249058 1.302137 -1.334851 1.348022 -1.425702 1.385869 C -1.516554 1.423716 -1.610708 1.451591 -1.708069 1.471333 C -1.804553 1.490108 -1.901514 1.499688 -1.999926 1.499201 C -2.098243 1.500554 -2.196255 1.489905 -2.292798 1.471806 C -2.389436 1.451867 -2.483728 1.423511 -2.574794 1.385771 C -2.664887 1.348902 -2.750876 1.301681 -2.833546 1.246915 C -2.915241 1.193021 -2.990887 1.130519 -3.060387 1.061249 C -3.13086 0.991107 -3.192363 0.914973 -3.246747 0.832943 C -3.302009 0.751879 -3.3483 0.664824 -3.385526 0.573617 C -3.423629 0.483376 -3.451693 0.389856 -3.471568 0.293149 C -3.490566 0.195476 -3.500211 0.0991666 -3.499817 -0.000422847 C -3.5003 -0.0990454 -3.490458 -0.195431 -3.471358 -0.292292 C -3.452258 -0.389153 -3.42371 -0.48281 -3.385713 -0.573264 C -3.347813 -0.665556 -3.302124 -0.750873 -3.246987 -0.832986 C -3.19185 -0.915099 -3.129899 -0.991108 -3.061133 -1.061013 C -2.991393 -1.130045 -2.91484 -1.192973 -2.833227 -1.247864 C -2.750642 -1.301882 -2.664849 -1.347767 -2.573997 -1.385614 C -2.483146 -1.423461 -2.388992 -1.451336 -2.292604 -1.47195 C -2.196121 -1.490725 -2.098186 -1.499433 -2.000747 -1.499819 C -1.901457 -1.500299 -1.804418 -1.490522 -1.706902 -1.471551 C -1.610263 -1.451613 -1.516945 -1.424129 -1.425879 -1.386388 C -1.334813 -1.348647 -1.248823 -1.301427 -1.167128 -1.247532 C -1.084459 -1.192766 -1.008813 -1.130265 -0.939313 -1.060994 C -0.869813 -0.991724 -0.807337 -0.914718 -0.752953 -0.832688 C -0.697691 -0.751624 -0.651399 -0.66457 -0.614174 -0.573362 C -0.576071 -0.483122 -0.548007 -0.389601 -0.529009 -0.291927 C -0.510107 -0.196093 -0.500366 -0.0979449 -0.499883 0.000677587 Z M -0.499883 0.000677587 "
    stroke="currentColor"
    stroke-width="1"
    stroke-opacity="1"
    stroke-miterlimit="4"
  />
  <path
    stroke-linecap="round"
    transform="matrix(-2.961765, -0.542671, 0.50639, -2.763747, 58.679349, 17.118301)"
    fill="none"
    stroke-linejoin="miter"
    d="M 3.999989 -0.000578104 L 8.704581 0.0000151566 "
    stroke="currentColor"
    stroke-width="1"
    stroke-opacity="1"
    stroke-miterlimit="4"
  />
  <path
    stroke-linecap="butt"
    transform="matrix(-2.961765, -0.542671, 0.50639, -2.763747, 58.679349, 17.118301)"
    fill="none"
    stroke-linejoin="miter"
    d="M 3.500232 0.0000270747 C 3.500009 0.099008 3.490153 0.19564 3.471131 0.292659 C 3.452109 0.389678 3.423219 0.482981 3.385971 0.573684 C 3.347448 0.664638 3.301609 0.751376 3.246944 0.832779 C 3.192513 0.915549 3.1303 0.991367 3.060303 1.060234 C 2.99054 1.130468 2.915312 1.191881 2.833811 1.247459 C 2.752076 1.301669 2.66511 1.348426 2.573955 1.386112 C 2.4828 1.423798 2.388733 1.452162 2.293029 1.470954 C 2.196049 1.489997 2.098942 1.500584 1.999965 1.500231 C 1.900987 1.499878 1.804435 1.490568 1.707523 1.471436 C 1.61061 1.452304 1.517399 1.423964 1.42638 1.385301 C 1.335594 1.348004 1.248509 1.301501 1.166636 1.246908 C 1.084763 1.192315 1.009611 1.130748 0.93967 1.061091 C 0.869729 0.991434 0.807785 0.914554 0.75303 0.833435 C 0.698041 0.750948 0.651751 0.665341 0.613692 0.573876 C 0.577142 0.483529 0.547781 0.388944 0.528629 0.292354 C 0.509477 0.195764 0.499491 0.0987871 0.499713 -0.000193737 C 0.499935 -0.0991746 0.509791 -0.195807 0.528813 -0.292826 C 0.547836 -0.389845 0.576726 -0.483147 0.613973 -0.573851 C 0.652497 -0.664805 0.698336 -0.751542 0.753001 -0.832945 C 0.807431 -0.915716 0.869645 -0.991534 0.939642 -1.0604 C 1.009405 -1.130634 1.084633 -1.192047 1.166134 -1.247625 C 1.249145 -1.302086 1.334835 -1.348593 1.42599 -1.386279 C 1.517144 -1.423965 1.611212 -1.452329 1.706916 -1.471121 C 1.803896 -1.490163 1.901236 -1.499383 1.99998 -1.500397 C 2.098957 -1.500044 2.195509 -1.490735 2.292422 -1.471603 C 2.389334 -1.45247 2.482779 -1.422763 2.573565 -1.385467 C 2.665627 -1.348422 2.751435 -1.301668 2.833309 -1.247075 C 2.915182 -1.192481 2.990568 -1.129547 3.060275 -1.061258 C 3.130216 -0.991601 3.19216 -0.91472 3.246915 -0.833601 C 3.301903 -0.751115 3.348194 -0.665507 3.386253 -0.574043 C 3.423036 -0.482328 3.452163 -0.38911 3.471316 -0.29252 C 3.490468 -0.19593 3.500454 -0.0989538 3.500232 0.0000270747 Z M 3.500232 0.0000270747 "
    stroke="currentColor"
    stroke-width="1"
    stroke-opacity="1"
    stroke-miterlimit="4"
  />
  <path
    stroke-linecap="butt"
    transform="matrix(-2.961765, -0.542671, 0.50639, -2.763747, 21.053271, 10.224235)"
    fill="none"
    stroke-linejoin="miter"
    d="M -0.500359 -0.000118809 C -0.500581 0.0988621 -0.509161 0.195244 -0.52946 0.292513 C -0.548482 0.389532 -0.576096 0.482584 -0.614619 0.573538 C -0.651633 0.66561 -0.697706 0.750979 -0.752137 0.83375 C -0.808077 0.915403 -0.870291 0.991222 -0.938778 1.061205 C -1.008775 1.130071 -1.085045 1.193102 -1.16678 1.247313 C -1.248515 1.301523 -1.335481 1.34828 -1.42536 1.385716 C -1.516514 1.423402 -1.610582 1.451766 -1.707562 1.470808 C -1.804542 1.489851 -1.901649 1.500438 -2.000626 1.500085 C -2.098327 1.499481 -2.196155 1.490422 -2.293068 1.47129 C -2.388704 1.451907 -2.483192 1.423818 -2.574211 1.385155 C -2.664997 1.347859 -2.752082 1.301355 -2.833955 1.246762 C -2.915828 1.192169 -2.99098 1.130602 -3.060921 1.060945 C -3.130862 0.991288 -3.192572 0.915775 -3.247561 0.833289 C -3.302316 0.75217 -3.347564 0.664944 -3.385623 0.57348 C -3.423449 0.483383 -3.451533 0.388547 -3.470686 0.291957 C -3.491114 0.195618 -3.499824 0.0983907 -3.499602 -0.000590178 C -3.500422 -0.097953 -3.4908 -0.195953 -3.471777 -0.292972 C -3.451245 -0.388873 -3.423865 -0.483293 -3.385342 -0.574247 C -3.348094 -0.664951 -3.302255 -0.751688 -3.24759 -0.833091 C -3.192926 -0.914494 -3.130712 -0.990313 -3.060949 -1.060546 C -2.991186 -1.13078 -2.914682 -1.192444 -2.832947 -1.246654 C -2.751446 -1.302232 -2.665522 -1.347371 -2.574367 -1.385057 C -2.483447 -1.424111 -2.389379 -1.452475 -2.292399 -1.471517 C -2.195419 -1.49056 -2.098078 -1.499779 -2.000611 -1.500543 C -1.901634 -1.50019 -1.803572 -1.489764 -1.706659 -1.470632 C -1.611023 -1.451249 -1.516536 -1.42316 -1.42575 -1.385864 C -1.334964 -1.348568 -1.249155 -1.301814 -1.167282 -1.247221 C -1.085409 -1.192627 -1.008747 -1.129944 -0.938806 -1.060287 C -0.870141 -0.990379 -0.807155 -0.915117 -0.7524 -0.833998 C -0.698687 -0.751261 -0.652163 -0.664286 -0.614338 -0.574189 C -0.576278 -0.482725 -0.548428 -0.389256 -0.529275 -0.292666 C -0.510123 -0.196076 -0.500137 -0.0990997 -0.500359 -0.000118809 Z M -0.500359 -0.000118809 "
    stroke="currentColor"
    stroke-width="1"
    stroke-opacity="1"
    stroke-miterlimit="4"
  />
  <path
    stroke-linecap="round"
    transform="matrix(0.000000000000000182, 2.970093, -3, 0.000000000000000184, 13.189095, 21.822981)"
    fill="none"
    stroke-linejoin="miter"
    d="M 3.999924 0.000531528 L 7.365507 0.000531528 "
    stroke="currentColor"
    stroke-width="1"
    stroke-opacity="1"
    stroke-miterlimit="4"
  />
  <path
    stroke-linecap="butt"
    transform="matrix(0.000000000000000182, 2.970093, -3, 0.000000000000000184, 13.189095, 21.822981)"
    fill="none"
    stroke-linejoin="miter"
    d="M 3.50015 0.000531528 C 3.50015 0.0981878 3.490943 0.195844 3.471215 0.292198 C 3.451487 0.389854 3.423868 0.483604 3.385728 0.573448 C 3.347587 0.664594 3.301555 0.751834 3.247632 0.833865 C 3.192394 0.915896 3.13058 0.991417 3.060875 1.060427 C 2.991169 1.13074 2.914888 1.191938 2.833346 1.246625 C 2.751804 1.301313 2.665001 1.348188 2.574253 1.385948 C 2.483504 1.423709 2.38881 1.452355 2.292801 1.470584 C 2.195477 1.490115 2.098152 1.500532 1.999513 1.500532 C 1.900873 1.500532 1.803549 1.490115 1.707539 1.470584 C 1.610215 1.452355 1.516836 1.423709 1.426088 1.385948 C 1.335339 1.348188 1.248536 1.301313 1.166994 1.246625 C 1.084137 1.191938 1.009171 1.13074 0.939466 1.060427 C 0.86976 0.991417 0.807946 0.915896 0.752708 0.833865 C 0.69747 0.751834 0.651438 0.664594 0.614613 0.573448 C 0.576472 0.483604 0.547538 0.389854 0.529125 0.292198 C 0.509397 0.195844 0.500191 0.0981878 0.500191 0.000531528 C 0.500191 -0.0984268 0.509397 -0.196083 0.529125 -0.292437 C 0.547538 -0.388791 0.576472 -0.482541 0.614613 -0.573687 C 0.651438 -0.664833 0.69747 -0.752073 0.752708 -0.832802 C 0.807946 -0.914833 0.86976 -0.991656 0.939466 -1.060666 C 1.009171 -1.129677 1.084137 -1.192177 1.166994 -1.246864 C 1.248536 -1.301552 1.335339 -1.348427 1.426088 -1.386187 C 1.516836 -1.423948 1.610215 -1.452594 1.707539 -1.470823 C 1.803549 -1.490354 1.900873 -1.499469 1.999513 -1.499469 C 2.098152 -1.499469 2.195477 -1.490354 2.292801 -1.470823 C 2.38881 -1.452594 2.483504 -1.423948 2.574253 -1.386187 C 2.665001 -1.348427 2.751804 -1.301552 2.833346 -1.246864 C 2.914888 -1.192177 2.991169 -1.129677 3.060875 -1.060666 C 3.13058 -0.991656 3.192394 -0.914833 3.247632 -0.832802 C 3.301555 -0.752073 3.347587 -0.664833 3.385728 -0.573687 C 3.423868 -0.482541 3.451487 -0.388791 3.471215 -0.292437 C 3.490943 -0.196083 3.50015 -0.0984268 3.50015 0.000531528 Z M 3.50015 0.000531528 "
    stroke="currentColor"
    stroke-width="1"
    stroke-opacity="1"
    stroke-miterlimit="4"
  />
  <path
    stroke-linecap="butt"
    transform="matrix(0.000000000000000182, 2.970093, -3, 0.000000000000000184, 13.189095, 55.578393)"
    fill="none"
    stroke-linejoin="miter"
    d="M -0.499864 0.000531528 C -0.499864 0.0981878 -0.509071 0.195844 -0.528798 0.292198 C -0.548526 0.389854 -0.576145 0.483604 -0.614286 0.573448 C -0.652427 0.664594 -0.698459 0.751834 -0.752382 0.833865 C -0.80762 0.915896 -0.869434 0.991417 -0.939139 1.060427 C -1.008844 1.13074 -1.085126 1.191938 -1.166668 1.246625 C -1.24821 1.301313 -1.335013 1.348188 -1.425761 1.385948 C -1.51651 1.423709 -1.611204 1.452355 -1.707213 1.470584 C -1.804537 1.490115 -1.901862 1.500532 -2.000501 1.500532 C -2.099141 1.500532 -2.196465 1.490115 -2.292474 1.470584 C -2.389799 1.452355 -2.483178 1.423709 -2.573926 1.385948 C -2.664675 1.348188 -2.751477 1.301313 -2.833019 1.246625 C -2.915877 1.191938 -2.990843 1.13074 -3.060548 1.060427 C -3.130253 0.991417 -3.192068 0.915896 -3.247306 0.833865 C -3.302544 0.751834 -3.348576 0.664594 -3.385401 0.573448 C -3.423542 0.483604 -3.452476 0.389854 -3.470889 0.292198 C -3.490617 0.195844 -3.499823 0.0981878 -3.499823 0.000531528 C -3.499823 -0.0984268 -3.490617 -0.196083 -3.470889 -0.292437 C -3.452476 -0.388791 -3.423542 -0.482541 -3.385401 -0.573687 C -3.348576 -0.664833 -3.302544 -0.752073 -3.247306 -0.832802 C -3.192068 -0.914833 -3.130253 -0.991656 -3.060548 -1.060666 C -2.990843 -1.129677 -2.915877 -1.192177 -2.833019 -1.246864 C -2.751477 -1.301552 -2.664675 -1.348427 -2.573926 -1.386187 C -2.483178 -1.423948 -2.389799 -1.452594 -2.292474 -1.470823 C -2.196465 -1.490354 -2.099141 -1.499469 -2.000501 -1.499469 C -1.901862 -1.499469 -1.804537 -1.490354 -1.707213 -1.470823 C -1.611204 -1.452594 -1.51651 -1.423948 -1.425761 -1.386187 C -1.335013 -1.348427 -1.24821 -1.301552 -1.166668 -1.246864 C -1.085126 -1.192177 -1.008844 -1.129677 -0.939139 -1.060666 C -0.869434 -0.991656 -0.80762 -0.914833 -0.752382 -0.832802 C -0.698459 -0.752073 -0.652427 -0.664833 -0.614286 -0.573687 C -0.576145 -0.482541 -0.548526 -0.388791 -0.528798 -0.292437 C -0.509071 -0.196083 -0.499864 -0.0984268 -0.499864 0.000531528 Z M -0.499864 0.000531528 "
    stroke="currentColor"
    stroke-width="1"
    stroke-opacity="1"
    stroke-miterlimit="4"
  />
  <path
    stroke-linecap="butt"
    transform="matrix(2.06206, -2.237515, 2.206049, 2.033063, 14.691094, 24.766119)"
    fill="none"
    stroke-linejoin="miter"
    d="M 0.000189008 -0.0000351926 L 4.93071 0.000389249 "
    stroke="currentColor"
    stroke-width="1"
    stroke-opacity="1"
    stroke-miterlimit="4"
  />
  <path
    stroke-linecap="butt"
    transform="matrix(-1.232759, -2.735015, 2.735015, -1.232759, 63.354071, 36.425043)"
    fill="none"
    stroke-linejoin="miter"
    d="M -0.000415989 0.000323658 L 6.252244 0.000685607 "
    stroke="currentColor"
    stroke-width="1"
    stroke-opacity="1"
    stroke-miterlimit="4"
  />
  <path
    stroke-linecap="butt"
    transform="matrix(-2.719543, -1.266525, 1.266525, -2.719543, 35.682263, 60.364146)"
    fill="none"
    stroke-linejoin="miter"
    d="M -0.000280393 0.000448585 L 6.750158 -0.000552969 "
    stroke="currentColor"
    stroke-width="1"
    stroke-opacity="1"
    stroke-miterlimit="4"
  />
</svg>
