<svg
  xmlns="http://www.w3.org/2000/svg"
  version="1.1"
  id="svg1"
  width="283.707"
  height="283.707"
  viewBox="0 0 283.70699 283.70701"
>
   <defs id="defs1">
      <clipPath clipPathUnits="userSpaceOnUse" id="clipPath7">
         <path
        d="M 190.332,1508.35 124.426,1524.52 60,1540.34 82.4219,832.5 174.922,800 Z"
        transform="translate(0,2.5000001e-5)"
        id="path7"
      />
      </clipPath>
      <clipPath clipPathUnits="userSpaceOnUse" id="clipPath14">
         <path
        d="m 780.266,1440.19 -67.911,-18.46 -74.535,14.25 -68.257,13.06 -35.032,-10.92 -25.051,-7.8 -207.125,36.94 -160.402,28.61 L 171.172,212.078 493.672,60 l 147.5,98.75 12.344,477.809 40.195,-13.821 127.234,65.813 34.985,772.199 z"
        transform="translate(0,2.5000001e-5)"
        id="path14"
      />
      </clipPath>
      <clipPath clipPathUnits="userSpaceOnUse" id="clipPath16">
         <path
        d="m 780.266,1440.19 -67.911,-18.46 -74.535,14.25 -68.257,13.06 -35.032,-10.92 -25.051,-7.8 -207.125,36.94 -160.402,28.61 L 171.172,212.078 493.672,60 l 147.5,98.75 12.344,477.809 40.195,-13.821 127.234,65.813 34.985,772.199 z"
        transform="translate(0,2.5000001e-5)"
        id="path16"
      />
      </clipPath>
   </defs>
   <g id="g1">
      <g id="group-R5" transform="translate(78.236941)">
         <path
        id="path2"
        d="m 493.672,30 c -4.356,0 -8.731,0.9414 -12.793,2.8594 l -322.5,152.0816 c -10.281,4.848 -16.941,15.098 -17.195,26.45 l -13.047,573.25 -55.6565,19.558 C 60.7891,808.301 52.832,819.172 52.4414,831.551 L 30.0195,1539.39 c -0.4961,15.49 10.8985,28.8 26.2696,30.72 l 231.7769,28.86 c 1.231,0.16 2.469,0.24 3.711,0.24 1.707,0 3.418,-0.15 5.11,-0.44 l 437.742,-75.69 c 8.547,-1.47 15.84,-6.52 20.281,-13.58 l 106.36,-19.23 c 14.777,-2.68 25.3,-15.87 24.628,-30.88 l -34.98,-772.199 c -0.488,-10.722 -6.66,-20.359 -16.191,-25.293 L 707.488,596.09 c -4.297,-2.231 -9.031,-3.352 -13.777,-3.352 -3.289,0 -6.582,0.543 -9.758,1.633 l -1.504,0.52 L 671.16,157.98 c -0.254,-9.742 -5.215,-18.742 -13.301,-24.16 L 510.359,35.0703 C 505.344,31.7109 499.52,30 493.672,30"
        style="fill:#d14f2a;fill-opacity:1;fill-rule:nonzero;stroke:none"
        transform="matrix(0.13333333,0,0,-0.13333333,0,283.70667)"
      />
         <path
        id="path3"
        d="m 291.777,1629.21 c -2.48,0 -4.953,-0.16 -7.414,-0.46 L 52.5898,1599.88 C 21.8281,1596.05 -0.949219,1569.42 0.03125,1538.43 L 22.4531,830.602 c 0.7774,-24.762 16.7071,-46.5 40.0782,-54.711 l 36.082,-12.68 12.5777,-552.5 c 0.508,-22.723 13.829,-43.199 34.395,-52.902 L 468.086,5.73047 C 476.211,1.89063 484.961,0 493.672,0 c 11.699,0 23.34,3.42188 33.379,10.1406 l 147.5,98.7504 c 16.179,10.828 26.094,28.839 26.601,48.3 l 10.547,408.321 c 3.281,1.019 6.485,2.34 9.578,3.937 l 127.239,65.813 c 19.05,9.847 31.394,29.136 32.375,50.578 l 34.976,772.2 c 1.36,30.01 -19.695,56.41 -49.265,61.75 l -95.86,17.34 c -8.398,7.94 -19.101,13.45 -30.996,15.51 l -271.941,47.02 -165.801,28.67 c -3.391,0.58 -6.809,0.88 -10.227,0.88 z m 0,-60 165.801,-28.67 271.942,-47.02 -11.7,-7.8 138.11,-24.97 L 820.945,688.551 693.711,622.738 653.516,636.559 641.172,158.75 493.672,60 171.172,212.078 157.656,806.059 82.4219,832.5 60,1540.34 l 231.777,28.87"
        style="fill:#040606;fill-opacity:1;fill-rule:nonzero;stroke:none"
        transform="matrix(0.13333333,0,0,-0.13333333,0,283.70667)"
      />
         <path
        id="path4"
        d="M 190.332,1508.35 124.426,1524.52 60,1540.34 82.4219,832.5 174.922,800 l 15.41,708.35"
        style="fill:#f8b71d;fill-opacity:1;fill-rule:nonzero;stroke:none"
        transform="matrix(0.13333333,0,0,-0.13333333,0,283.70667)"
      />
         <path
        id="path5"
        d="m 60,1540.34 231.777,28.87 165.801,-28.67 271.942,-47.02 -11.7,-7.8 138.11,-24.97 -75.664,-20.56 -67.911,-18.46 -74.535,14.25 -68.257,13.06 -35.032,-10.92 -25.051,-7.8 -207.125,36.94 -160.402,28.61 48.379,12.48 -65.906,16.17 L 60,1540.34"
        style="fill:#fddda2;fill-opacity:1;fill-rule:nonzero;stroke:none"
        transform="matrix(0.13333333,0,0,-0.13333333,0,283.70667)"
      />
         <path
        id="path6"
        d="m 177.012,788.75 -41.25,11.25 -17.5,690.83 23.691,5.04 21.348,-3.94 13.711,-703.18"
        style="fill:#d14f2a;fill-opacity:1;fill-rule:nonzero;stroke:none"
        transform="matrix(0.13333333,0,0,-0.13333333,0,283.70667)"
        clip-path="url(#clipPath7)"
      />
         <path
        id="path8"
        d="M 509.48,1430.32 499.57,571.23 493.672,60 171.172,212.078 141.953,1495.87 302.355,1467.26 509.48,1430.32"
        style="fill:#f8b71d;fill-opacity:1;fill-rule:nonzero;stroke:none"
        transform="matrix(0.13333333,0,0,-0.13333333,0,283.70667)"
      />
         <path
        id="path9"
        d="m 457.578,1540.54 -43.137,7.46 -252.664,-55.68 142.52,-395.45 c 0,0 0.937,-3.59 5.937,-4.22 5,-0.62 6.563,3.6 6.563,3.6 l 140.82,343.33 229.707,61.24 -229.746,39.72"
        style="fill:#d14f2a;fill-opacity:1;fill-rule:nonzero;stroke:none"
        transform="matrix(0.13333333,0,0,-0.13333333,0,283.70667)"
      />
         <path
        id="path10"
        d="m 632.012,1283.74 25,-511.67 -15.84,-613.32 -147.5,-98.75 5.898,511.23 9.91,859.09 25.051,7.8 35.032,10.92 62.449,-165.3"
        style="fill:#d14f2a;fill-opacity:1;fill-rule:nonzero;stroke:none"
        transform="matrix(0.13333333,0,0,-0.13333333,0,283.70667)"
      />
         <path
        id="path11"
        d="m 712.355,1421.73 -74.535,14.25 -68.257,13.06 L 553.32,671 l 140.391,-48.262 9.492,406.932 9.152,392.06"
        style="fill:#f8b71d;fill-opacity:1;fill-rule:nonzero;stroke:none"
        transform="matrix(0.13333333,0,0,-0.13333333,0,283.70667)"
      />
         <path
        id="path12"
        d="m 712.355,1421.73 67.911,18.46 75.664,20.56 -34.985,-772.199 -127.234,-65.813 9.492,406.932 9.152,392.06"
        style="fill:#d14f2a;fill-opacity:1;fill-rule:nonzero;stroke:none"
        transform="matrix(0.13333333,0,0,-0.13333333,0,283.70667)"
      />
         <path
        id="path13"
        d="m 503.672,31.5508 -20,0.2109 5.898,539.5783 9.91,882.39 20,-0.23 -9.91,-882.391 -5.898,-539.5582"
        style="fill:#ffffff;fill-opacity:1;fill-rule:nonzero;stroke:none"
        transform="matrix(0.13333333,0,0,-0.13333333,0,283.70667)"
        clip-path="url(#clipPath14)"
      />
         <path
        id="path15"
        d="m 703.711,578.352 -20,0.429 9.492,451.099 9.152,416.89 20,-0.43 -9.152,-416.89 -9.492,-451.098"
        style="fill:#ffffff;fill-opacity:1;fill-rule:nonzero;stroke:none"
        transform="matrix(0.13333333,0,0,-0.13333333,0,283.70667)"
        clip-path="url(#clipPath16)"
      />
         <path
        id="path17"
        d="m 425.691,1520.09 c -159.265,0 -288.843,129.59 -288.843,288.85 0,159.28 129.578,288.86 288.843,288.86 159.282,0 288.86,-129.58 288.86,-288.86 0,-159.26 -129.578,-288.85 -288.86,-288.85"
        style="fill:#f8b71d;fill-opacity:1;fill-rule:nonzero;stroke:none"
        transform="matrix(0.13333333,0,0,-0.13333333,0,283.70667)"
      />
         <path
        id="path18"
        d="m 425.691,2127.8 c -175.808,0 -318.843,-143.04 -318.843,-318.86 0,-175.81 143.035,-318.85 318.843,-318.85 175.825,0 318.86,143.04 318.86,318.85 0,175.82 -143.035,318.86 -318.86,318.86 z m 0,-60 c 142.969,0 258.86,-115.89 258.86,-258.86 0,-142.96 -115.891,-258.85 -258.86,-258.85 -142.957,0 -258.843,115.89 -258.843,258.85 0,142.97 115.886,258.86 258.843,258.86"
        style="fill:#040606;fill-opacity:1;fill-rule:nonzero;stroke:none"
        transform="matrix(0.13333333,0,0,-0.13333333,0,283.70667)"
      />
         <path
        id="path19"
        d="m 558.84,1966.89 c 0,0 123.848,-93.73 65.476,-252.66 -63.933,-174.08 -204.128,-147.89 -271.914,-123.24 0,0 151.746,10.02 196.426,145.59 44.68,135.56 10.012,230.31 10.012,230.31"
        style="fill:#d14f2a;fill-opacity:1;fill-rule:nonzero;stroke:none"
        transform="matrix(0.13333333,0,0,-0.13333333,0,283.70667)"
      />
         <path
        id="path20"
        d="m 229.922,1828.72 c -2.141,0 -4.309,0.27 -6.465,0.86 -13.293,3.56 -21.211,17.13 -17.715,30.45 1.602,6.06 41.121,148.81 215.235,164.88 13.718,1.3 25.918,-8.85 27.187,-22.6 1.27,-13.75 -8.848,-25.92 -22.598,-27.18 -138.425,-12.78 -170.214,-123.26 -171.496,-127.95 -3.047,-11.11 -13.14,-18.46 -24.148,-18.46"
        style="fill:#fddda2;fill-opacity:1;fill-rule:nonzero;stroke:none"
        transform="matrix(0.13333333,0,0,-0.13333333,0,283.70667)"
      />
      </g>
   </g>
</svg>
