<svg xmlns="http://www.w3.org/2000/svg" width="24" zoomAndPan="magnify" viewBox="0 0 360 360" height="24"><defs
  ><clipPath id="48cff43e43"><path
        d="M 6.875 6.875 L 353.125 6.875 L 353.125 353.125 L 6.875 353.125 Z M 6.875 6.875 "
        clip-rule="nonzero"
      /></clipPath><clipPath id="32e297a80d"><path
        d="M 180 6.875 C 84.386719 6.875 6.875 84.386719 6.875 180 C 6.875 275.613281 84.386719 353.125 180 353.125 C 275.613281 353.125 353.125 275.613281 353.125 180 C 353.125 84.386719 275.613281 6.875 180 6.875 Z M 180 6.875 "
        clip-rule="nonzero"
      /></clipPath><clipPath id="3f1b60389c"><path
        d="M 23.464844 24.835938 L 336.214844 24.835938 L 336.214844 335 L 23.464844 335 Z M 23.464844 24.835938 "
        clip-rule="nonzero"
      /></clipPath></defs><g clip-path="url(#48cff43e43)"><g clip-path="url(#32e297a80d)"><path
        fill="#eeba2b"
        d="M 6.875 6.875 L 353.125 6.875 L 353.125 353.125 L 6.875 353.125 Z M 6.875 6.875 "
        fill-opacity="1"
        fill-rule="nonzero"
      /></g></g><g clip-path="url(#3f1b60389c)"><path
      fill="#000000"
      d="M 179.828125 24.734375 C 93.683594 24.734375 23.59375 94.9375 23.59375 181.214844 C 23.59375 255.503906 75.429688 317.902344 144.957031 333.785156 C 145.738281 333.960938 146.53125 334.0625 147.335938 334.085938 C 148.136719 334.109375 148.933594 334.050781 149.726562 333.917969 C 150.515625 333.78125 151.289062 333.570312 152.039062 333.285156 C 152.789062 332.996094 153.503906 332.640625 154.183594 332.210938 C 154.863281 331.785156 155.492188 331.292969 156.078125 330.742188 C 156.660156 330.191406 157.183594 329.585938 157.648438 328.929688 C 158.113281 328.273438 158.507812 327.578125 158.835938 326.84375 C 159.164062 326.113281 159.417969 325.351562 159.597656 324.570312 C 159.773438 323.785156 159.875 322.992188 159.898438 322.1875 C 159.917969 321.382812 159.863281 320.585938 159.730469 319.792969 C 159.59375 319 159.382812 318.226562 159.097656 317.476562 C 158.808594 316.722656 158.453125 316.007812 158.023438 315.328125 C 157.597656 314.644531 157.109375 314.011719 156.554688 313.429688 C 156.003906 312.84375 155.402344 312.320312 154.746094 311.855469 C 154.089844 311.390625 153.398438 310.992188 152.664062 310.664062 C 151.929688 310.335938 151.171875 310.082031 150.390625 309.90625 C 91.808594 296.523438 48.046875 244.105469 48.046875 181.214844 C 48.046875 108.175781 106.902344 49.230469 179.828125 49.230469 C 252.75 49.230469 311.609375 108.175781 311.609375 181.214844 C 311.609375 230.3125 285.390625 272.617188 239.84375 297.316406 C 235.933594 299.4375 229.691406 300.589844 223.609375 300.152344 C 217.523438 299.71875 211.722656 297.589844 209.136719 295.71875 C 198.398438 287.953125 192.054688 275.523438 192.054688 262.257812 L 192.054688 250.1875 L 192.289062 250.1875 C 196.832031 250.1875 200.492188 246.519531 200.492188 241.96875 L 200.492188 230.171875 C 200.492188 229.085938 200.28125 228.046875 199.902344 227.097656 C 201.25 226.25 202.535156 225.324219 203.765625 224.3125 C 204.996094 223.304688 206.160156 222.222656 207.25 221.066406 C 208.34375 219.910156 209.363281 218.6875 210.300781 217.402344 C 211.242188 216.117188 212.09375 214.777344 212.867188 213.386719 C 213.636719 211.992188 214.316406 210.554688 214.90625 209.078125 C 215.496094 207.597656 215.988281 206.085938 216.390625 204.546875 C 216.789062 203.003906 217.089844 201.441406 217.289062 199.863281 C 217.492188 198.285156 217.59375 196.695312 217.597656 195.105469 L 217.320312 195.105469 C 217.472656 195.105469 217.597656 194.980469 217.597656 194.828125 L 217.597656 146.085938 L 218.824219 146.085938 C 223.414062 146.085938 227.105469 142.390625 227.105469 137.796875 C 227.105469 133.199219 223.414062 129.5 218.824219 129.5 L 205.902344 129.5 L 205.902344 87.339844 C 205.902344 82.785156 202.242188 79.121094 197.695312 79.121094 C 193.152344 79.121094 189.492188 82.785156 189.492188 87.339844 L 189.492188 129.5 L 170.167969 129.5 L 170.167969 87.339844 C 170.167969 82.785156 166.507812 79.121094 161.960938 79.121094 C 157.414062 79.121094 153.753906 82.785156 153.753906 87.339844 L 153.753906 129.5 L 140.832031 129.5 C 136.242188 129.5 132.550781 133.199219 132.550781 137.796875 C 132.550781 142.390625 136.242188 146.085938 140.832031 146.085938 L 142.058594 146.085938 L 142.058594 194.828125 C 142.058594 194.980469 142.183594 195.105469 142.335938 195.105469 L 142.058594 195.105469 C 142.0625 196.699219 142.164062 198.285156 142.367188 199.863281 C 142.566406 201.441406 142.867188 203.003906 143.269531 204.546875 C 143.667969 206.085938 144.160156 207.597656 144.75 209.078125 C 145.339844 210.554688 146.019531 211.992188 146.789062 213.386719 C 147.5625 214.777344 148.417969 216.117188 149.355469 217.402344 C 150.296875 218.6875 151.3125 219.910156 152.40625 221.066406 C 153.5 222.222656 154.660156 223.304688 155.890625 224.3125 C 157.121094 225.324219 158.410156 226.25 159.753906 227.097656 C 159.375 228.046875 159.164062 229.085938 159.164062 230.171875 L 159.164062 241.96875 C 159.164062 246.519531 162.824219 250.1875 167.367188 250.1875 L 167.597656 250.1875 L 167.597656 262.257812 C 167.597656 283.363281 177.738281 303.214844 194.820312 315.570312 C 202.59375 321.191406 212.007812 323.878906 221.863281 324.585938 C 231.71875 325.292969 242.140625 323.921875 251.484375 318.855469 C 304.015625 290.371094 336.0625 239.207031 336.0625 181.214844 C 336.0625 94.9375 265.96875 24.734375 179.828125 24.734375 Z M 184.84375 155.085938 L 185.390625 155.359375 L 177.425781 172.144531 L 195.007812 180.949219 L 165.613281 203.738281 L 181.546875 181.777344 L 164.652344 175.3125 Z M 184.84375 155.085938 "
      fill-opacity="1"
      fill-rule="nonzero"
    /></g></svg>
