<svg xmlns="http://www.w3.org/2000/svg" viewBox="0 0 75 75">
	<path
    fill="currentColor"
    d="M 34.136719 1.160156 C 24.136719 1.160156 15.972656 9.332031 15.972656 19.347656 L 15.972656 24.542969 L 10.78125 24.542969 C 7.914062 24.542969 5.589844 26.871094 5.589844 29.742188 L 5.589844 60.917969 C 5.589844 63.789062 7.914062 66.117188 10.78125 66.117188 L 24.832031 66.117188 C 23.492188 64.355469 22.667969 62.949219 22.351562 62.375 C 21.5625 61.105469 21.160156 59.742188 21.160156 58.320312 C 21.160156 56.832031 21.601562 55.410156 22.46875 54.085938 C 23.300781 52.78125 33.378906 37.535156 49.710938 37.535156 C 54.636719 37.535156 58.980469 38.933594 62.6875 40.90625 L 62.6875 29.742188 C 62.6875 26.871094 60.363281 24.542969 57.496094 24.542969 L 52.304688 24.542969 L 52.304688 19.347656 C 52.304688 9.660156 44.613281 1.859375 35.0625 1.347656 C 34.765625 1.230469 34.457031 1.167969 34.136719 1.160156 Z M 34.136719 6.355469 C 41.335938 6.355469 47.113281 12.140625 47.113281 19.347656 L 47.113281 24.542969 L 21.160156 24.542969 L 21.160156 19.347656 C 21.160156 12.140625 26.941406 6.355469 34.136719 6.355469 Z M 49.710938 42.730469 C 35.695312 42.730469 26.824219 56.910156 26.824219 56.910156 C 26.550781 57.320312 26.351562 57.789062 26.351562 58.320312 C 26.351562 58.855469 26.554688 59.328125 26.828125 59.738281 C 26.828125 59.738281 34.136719 73.910156 49.710938 73.910156 C 65.28125 73.910156 72.585938 59.742188 72.585938 59.742188 C 72.863281 59.328125 73.066406 58.859375 73.066406 58.320312 C 73.066406 57.785156 72.867188 57.320312 72.589844 56.90625 C 72.589844 56.90625 63.722656 42.730469 49.710938 42.730469 Z M 49.710938 47.929688 C 55.441406 47.929688 60.089844 52.582031 60.089844 58.320312 C 60.089844 64.0625 55.441406 68.714844 49.710938 68.714844 C 43.976562 68.714844 39.328125 64.0625 39.328125 58.320312 C 39.328125 52.582031 43.976562 47.929688 49.710938 47.929688 Z M 49.710938 53.125 C 46.84375 53.125 44.519531 55.449219 44.519531 58.320312 C 44.519531 61.191406 46.84375 63.519531 49.710938 63.519531 C 52.578125 63.519531 54.898438 61.191406 54.898438 58.320312 C 54.898438 55.449219 52.578125 53.125 49.710938 53.125 Z M 49.710938 53.125"
  />
</svg>
