<svg xmlns="http://www.w3.org/2000/svg" viewBox="0 0 375 375">
	<defs>
		<clipPath id="bb389b9ac3">
			<path d="M 41.246094 30.027344 L 333.746094 30.027344 L 333.746094 345 L 41.246094 345 Z M 41.246094 30.027344 " />
		</clipPath>
	</defs>
	<g clip-path="url(#bb389b9ac3)">
		<path
      fill="currentColor"
      d="M 165.003906 30.027344 C 121.648438 30.027344 86.265625 65.410156 86.265625 108.761719 L 86.265625 131.257812 L 63.769531 131.257812 C 51.34375 131.257812 41.273438 141.328125 41.273438 153.753906 L 41.273438 288.730469 C 41.273438 301.160156 51.34375 311.226562 63.769531 311.226562 L 124.667969 311.226562 C 118.863281 303.609375 115.296875 297.519531 113.925781 295.035156 C 110.496094 289.535156 108.761719 283.632812 108.761719 277.480469 C 108.761719 271.035156 110.664062 264.875 114.429688 259.136719 C 118.03125 253.492188 161.71875 187.5 232.488281 187.5 C 253.839844 187.5 272.667969 193.546875 288.730469 202.085938 L 288.730469 153.753906 C 288.730469 141.328125 278.664062 131.257812 266.234375 131.257812 L 243.738281 131.257812 L 243.738281 108.761719 C 243.738281 66.828125 210.40625 33.050781 169 30.839844 C 167.71875 30.324219 166.386719 30.054688 165.003906 30.027344 Z M 165.003906 52.523438 C 196.199219 52.523438 221.242188 77.566406 221.242188 108.761719 L 221.242188 131.257812 L 108.761719 131.257812 L 108.761719 108.761719 C 108.761719 77.566406 133.804688 52.523438 165.003906 52.523438 Z M 232.488281 209.996094 C 171.75 209.996094 133.300781 271.375 133.300781 271.375 C 132.121094 273.152344 131.257812 275.175781 131.257812 277.480469 C 131.257812 279.800781 132.132812 281.835938 133.324219 283.609375 C 133.324219 283.609375 165.003906 344.96875 232.488281 344.96875 C 299.976562 344.96875 331.632812 283.632812 331.632812 283.632812 C 332.835938 281.84375 333.722656 279.808594 333.722656 277.480469 C 333.722656 275.164062 332.859375 273.140625 331.65625 271.351562 C 331.65625 271.351562 293.226562 209.996094 232.488281 209.996094 Z M 232.488281 232.492188 C 257.335938 232.492188 277.480469 252.636719 277.480469 277.480469 C 277.480469 302.328125 257.335938 322.472656 232.488281 322.472656 C 207.644531 322.472656 187.496094 302.328125 187.496094 277.480469 C 187.496094 252.636719 207.644531 232.492188 232.488281 232.492188 Z M 232.488281 254.984375 C 220.0625 254.984375 209.992188 265.054688 209.992188 277.480469 C 209.992188 289.910156 220.0625 299.976562 232.488281 299.976562 C 244.917969 299.976562 254.984375 289.910156 254.984375 277.480469 C 254.984375 265.054688 244.917969 254.984375 232.488281 254.984375 Z M 232.488281 254.984375 "
    />
	</g>
</svg>
