<svg xmlns="http://www.w3.org/2000/svg" viewBox="0 0 375 375">
	<defs>
		<clipPath id="d11a99242f">
			<path
        d="M 41.246094 137.976562 L 333.746094 137.976562 L 333.746094 350.976562 L 41.246094 350.976562 Z M 41.246094 137.976562 "
      />
		</clipPath>
		<clipPath id="6357569c3a">
			<path d="M 62.601562 28 L 267.351562 28 L 267.351562 137.738281 L 62.601562 137.738281 Z M 62.601562 28 " />
		</clipPath>
	</defs>
	<g clip-path="url(#d11a99242f)">
		<path
      fill="currentColor"
      d="M 165.003906 36.320312 C 121.648438 36.320312 86.265625 71.703125 86.265625 115.054688 L 86.265625 137.550781 L 63.769531 137.550781 C 51.34375 137.550781 41.273438 147.617188 41.273438 160.046875 L 41.273438 295.019531 C 41.273438 307.449219 51.34375 317.515625 63.769531 317.515625 L 124.667969 317.515625 C 118.863281 309.902344 115.296875 303.8125 113.925781 301.324219 C 110.496094 295.824219 108.761719 289.925781 108.761719 283.773438 C 108.761719 277.328125 110.664062 271.164062 114.429688 265.429688 C 118.03125 259.78125 161.71875 193.789062 232.488281 193.789062 C 253.839844 193.789062 272.667969 199.839844 288.730469 208.375 L 288.730469 160.046875 C 288.730469 147.617188 278.664062 137.550781 266.234375 137.550781 L 243.738281 137.550781 L 243.738281 115.054688 C 243.738281 73.117188 210.40625 39.339844 169 37.132812 C 167.71875 36.613281 166.386719 36.34375 165.003906 36.320312 Z M 165.003906 58.816406 C 196.199219 58.816406 221.242188 83.855469 221.242188 115.054688 L 221.242188 137.550781 L 108.761719 137.550781 L 108.761719 115.054688 C 108.761719 83.855469 133.804688 58.816406 165.003906 58.816406 Z M 232.488281 216.285156 C 171.75 216.285156 133.300781 277.664062 133.300781 277.664062 C 132.121094 279.441406 131.257812 281.46875 131.257812 283.773438 C 131.257812 286.089844 132.132812 288.125 133.324219 289.902344 C 133.324219 289.902344 165.003906 351.261719 232.488281 351.261719 C 299.976562 351.261719 331.632812 289.925781 331.632812 289.925781 C 332.835938 288.136719 333.722656 286.101562 333.722656 283.773438 C 333.722656 281.457031 332.859375 279.433594 331.65625 277.644531 C 331.65625 277.644531 293.226562 216.285156 232.488281 216.285156 Z M 232.488281 238.78125 C 257.335938 238.78125 277.480469 258.925781 277.480469 283.773438 C 277.480469 308.621094 257.335938 328.765625 232.488281 328.765625 C 207.644531 328.765625 187.496094 308.621094 187.496094 283.773438 C 187.496094 258.925781 207.644531 238.78125 232.488281 238.78125 Z M 232.488281 261.277344 C 220.0625 261.277344 209.992188 271.34375 209.992188 283.773438 C 209.992188 296.203125 220.0625 306.269531 232.488281 306.269531 C 244.917969 306.269531 254.984375 296.203125 254.984375 283.773438 C 254.984375 271.34375 244.917969 261.277344 232.488281 261.277344 Z M 232.488281 261.277344 "
    />
	</g>
	<g clip-path="url(#6357569c3a)">
		<path
      fill="currentColor"
      d="M 113.867188 139.207031 L 242.054688 139.207031 C 242.894531 139.210938 243.730469 139.253906 244.5625 139.339844 C 245.398438 139.425781 246.222656 139.550781 247.046875 139.714844 C 247.867188 139.882812 248.679688 140.085938 249.480469 140.332031 C 250.28125 140.578125 251.070312 140.859375 251.84375 141.183594 C 252.617188 141.503906 253.371094 141.863281 254.109375 142.257812 C 254.847656 142.65625 255.566406 143.085938 256.261719 143.550781 C 256.960938 144.019531 257.632812 144.519531 258.277344 145.050781 C 258.925781 145.582031 259.546875 146.144531 260.136719 146.738281 C 260.730469 147.328125 261.292969 147.949219 261.824219 148.597656 C 262.355469 149.242188 262.855469 149.914062 263.324219 150.613281 C 263.789062 151.308594 264.21875 152.027344 264.617188 152.765625 C 265.011719 153.503906 265.371094 154.257812 265.691406 155.03125 C 266.015625 155.804688 266.296875 156.59375 266.542969 157.394531 C 266.789062 158.195312 266.992188 159.007812 267.160156 159.828125 C 267.324219 160.652344 267.449219 161.476562 267.535156 162.3125 C 267.621094 163.144531 267.664062 163.980469 267.667969 164.820312 L 267.667969 275.917969 C 267.664062 276.757812 267.621094 277.59375 267.535156 278.429688 C 267.449219 279.265625 267.324219 280.09375 267.15625 280.914062 C 266.992188 281.738281 266.785156 282.550781 266.539062 283.351562 C 266.296875 284.152344 266.011719 284.941406 265.6875 285.714844 C 265.367188 286.492188 265.003906 287.246094 264.609375 287.988281 C 264.210938 288.726562 263.78125 289.445312 263.3125 290.140625 C 262.84375 290.835938 262.34375 291.511719 261.8125 292.15625 C 261.28125 292.804688 260.714844 293.425781 260.121094 294.019531 C 259.527344 294.609375 258.90625 295.171875 258.257812 295.707031 C 257.609375 296.238281 256.9375 296.734375 256.238281 297.203125 C 255.542969 297.667969 254.824219 298.097656 254.082031 298.492188 C 253.34375 298.890625 252.585938 299.25 251.8125 299.570312 C 251.035156 299.890625 250.246094 300.171875 249.445312 300.417969 C 248.640625 300.660156 247.828125 300.867188 247.007812 301.03125 C 246.183594 301.195312 245.355469 301.320312 244.519531 301.402344 C 243.6875 301.484375 242.847656 301.527344 242.011719 301.53125 L 88.257812 301.53125 C 87.417969 301.527344 86.582031 301.484375 85.746094 301.402344 C 84.910156 301.320312 84.082031 301.195312 83.257812 301.03125 C 82.4375 300.867188 81.625 300.660156 80.820312 300.417969 C 80.019531 300.171875 79.230469 299.890625 78.457031 299.570312 C 77.679688 299.246094 76.921875 298.890625 76.183594 298.492188 C 75.445312 298.097656 74.726562 297.667969 74.027344 297.203125 C 73.328125 296.734375 72.65625 296.238281 72.007812 295.707031 C 71.359375 295.171875 70.738281 294.609375 70.144531 294.019531 C 69.550781 293.425781 68.988281 292.804688 68.453125 292.15625 C 67.921875 291.511719 67.421875 290.835938 66.953125 290.140625 C 66.484375 289.445312 66.054688 288.726562 65.65625 287.988281 C 65.261719 287.246094 64.902344 286.492188 64.578125 285.714844 C 64.253906 284.941406 63.972656 284.152344 63.726562 283.351562 C 63.480469 282.550781 63.273438 281.738281 63.109375 280.914062 C 62.941406 280.09375 62.816406 279.265625 62.730469 278.429688 C 62.648438 277.59375 62.601562 276.757812 62.601562 275.917969 L 62.601562 164.820312 C 62.601562 163.980469 62.648438 163.144531 62.730469 162.308594 C 62.816406 161.472656 62.941406 160.644531 63.109375 159.824219 C 63.273438 159 63.480469 158.1875 63.726562 157.386719 C 63.972656 156.585938 64.253906 155.796875 64.578125 155.023438 C 64.902344 154.246094 65.261719 153.492188 65.65625 152.75 C 66.054688 152.011719 66.484375 151.292969 66.953125 150.597656 C 67.421875 149.902344 67.921875 149.230469 68.453125 148.582031 C 68.988281 147.933594 69.550781 147.3125 70.144531 146.71875 C 70.738281 146.128906 71.359375 145.566406 72.007812 145.035156 C 72.65625 144.5 73.328125 144.003906 74.027344 143.535156 C 74.726562 143.070312 75.445312 142.640625 76.183594 142.246094 C 76.921875 141.847656 77.679688 141.492188 78.457031 141.167969 C 79.230469 140.847656 80.019531 140.566406 80.820312 140.320312 C 81.625 140.078125 82.4375 139.871094 83.257812 139.707031 C 84.082031 139.542969 84.910156 139.417969 85.746094 139.335938 C 86.582031 139.253906 87.417969 139.210938 88.257812 139.207031 L 88.257812 105.03125 C 88.257812 103.773438 88.285156 102.515625 88.347656 101.257812 C 88.410156 100.003906 88.503906 98.746094 88.625 97.496094 C 88.75 96.242188 88.902344 94.996094 89.089844 93.75 C 89.273438 92.507812 89.488281 91.265625 89.734375 90.03125 C 89.980469 88.800781 90.253906 87.570312 90.558594 86.351562 C 90.867188 85.132812 91.199219 83.917969 91.566406 82.714844 C 91.929688 81.511719 92.324219 80.316406 92.75 79.132812 C 93.171875 77.945312 93.625 76.773438 94.109375 75.609375 C 94.589844 74.449219 95.097656 73.300781 95.636719 72.160156 C 96.175781 71.023438 96.742188 69.902344 97.332031 68.792969 C 97.925781 67.683594 98.546875 66.585938 99.191406 65.507812 C 99.839844 64.429688 100.511719 63.367188 101.210938 62.320312 C 101.910156 61.273438 102.636719 60.246094 103.386719 59.234375 C 104.132812 58.226562 104.90625 57.234375 105.707031 56.261719 C 106.503906 55.289062 107.324219 54.335938 108.171875 53.402344 C 109.015625 52.472656 109.882812 51.558594 110.773438 50.671875 C 111.664062 49.78125 112.574219 48.914062 113.503906 48.070312 C 114.4375 47.222656 115.390625 46.402344 116.363281 45.605469 C 117.335938 44.804688 118.328125 44.03125 119.335938 43.28125 C 120.347656 42.53125 121.375 41.808594 122.421875 41.109375 C 123.46875 40.410156 124.53125 39.738281 125.609375 39.089844 C 126.691406 38.445312 127.785156 37.824219 128.894531 37.230469 C 130.003906 36.636719 131.125 36.074219 132.265625 35.535156 C 133.402344 34.996094 134.550781 34.488281 135.714844 34.003906 C 136.875 33.523438 138.050781 33.070312 139.234375 32.648438 C 140.417969 32.222656 141.613281 31.828125 142.816406 31.464844 C 144.019531 31.097656 145.234375 30.761719 146.453125 30.457031 C 147.675781 30.152344 148.902344 29.875 150.136719 29.632812 C 151.367188 29.386719 152.609375 29.171875 153.851562 28.984375 C 155.097656 28.800781 156.34375 28.648438 157.597656 28.523438 C 158.851562 28.402344 160.105469 28.308594 161.359375 28.246094 C 162.617188 28.183594 163.875 28.152344 165.132812 28.152344 C 166.390625 28.152344 167.648438 28.183594 168.90625 28.246094 C 170.160156 28.308594 171.417969 28.402344 172.667969 28.523438 C 173.921875 28.648438 175.167969 28.800781 176.414062 28.984375 C 177.65625 29.171875 178.898438 29.386719 180.132812 29.632812 C 181.363281 29.875 182.59375 30.152344 183.8125 30.457031 C 185.03125 30.761719 186.246094 31.097656 187.449219 31.464844 C 188.652344 31.828125 189.847656 32.222656 191.03125 32.648438 C 192.214844 33.070312 193.390625 33.523438 194.550781 34.003906 C 195.714844 34.488281 196.863281 34.996094 198.003906 35.535156 C 199.140625 36.074219 200.261719 36.636719 201.371094 37.230469 C 202.480469 37.824219 203.578125 38.445312 204.65625 39.089844 C 205.734375 39.738281 206.796875 40.410156 207.84375 41.109375 C 208.890625 41.808594 209.917969 42.53125 210.929688 43.28125 C 211.9375 44.03125 212.929688 44.804688 213.902344 45.605469 C 214.875 46.402344 215.828125 47.222656 216.761719 48.070312 C 217.691406 48.914062 218.605469 49.78125 219.492188 50.671875 C 220.382812 51.558594 221.25 52.472656 222.09375 53.402344 C 222.941406 54.335938 223.761719 55.289062 224.558594 56.261719 C 225.359375 57.234375 226.132812 58.226562 226.882812 59.234375 C 227.628906 60.246094 228.355469 61.273438 229.054688 62.320312 C 229.753906 63.367188 230.425781 64.429688 231.074219 65.507812 C 231.71875 66.585938 232.339844 67.683594 232.933594 68.792969 C 233.527344 69.902344 234.089844 71.023438 234.628906 72.160156 C 235.167969 73.300781 235.675781 74.449219 236.160156 75.609375 C 236.640625 76.773438 237.09375 77.945312 237.515625 79.132812 C 237.941406 80.316406 238.335938 81.511719 238.699219 82.714844 C 239.066406 83.917969 239.402344 85.132812 239.707031 86.351562 C 240.011719 87.570312 240.289062 88.800781 240.53125 90.03125 C 240.777344 91.265625 240.992188 92.507812 241.179688 93.75 C 241.363281 94.996094 241.515625 96.242188 241.640625 97.496094 C 241.761719 98.746094 241.855469 100.003906 241.917969 101.257812 C 241.980469 102.515625 242.011719 103.773438 242.011719 105.03125 L 242.011719 109.316406 C 242.011719 110.15625 241.929688 110.988281 241.765625 111.816406 C 241.605469 112.640625 241.363281 113.441406 241.039062 114.21875 C 240.71875 115 240.324219 115.738281 239.859375 116.4375 C 239.390625 117.136719 238.859375 117.785156 238.265625 118.378906 C 237.671875 118.976562 237.023438 119.507812 236.324219 119.976562 C 235.625 120.445312 234.886719 120.839844 234.109375 121.160156 C 233.332031 121.484375 232.53125 121.726562 231.707031 121.890625 C 230.878906 122.054688 230.046875 122.136719 229.203125 122.136719 C 228.363281 122.136719 227.53125 122.054688 226.703125 121.890625 C 225.878906 121.726562 225.078125 121.484375 224.300781 121.160156 C 223.523438 120.839844 222.785156 120.445312 222.085938 119.976562 C 221.386719 119.507812 220.738281 118.976562 220.144531 118.378906 C 219.550781 117.785156 219.019531 117.136719 218.550781 116.4375 C 218.085938 115.738281 217.691406 115 217.371094 114.21875 C 217.046875 113.441406 216.804688 112.640625 216.644531 111.816406 C 216.480469 110.988281 216.398438 110.15625 216.398438 109.316406 L 216.398438 105.03125 C 216.398438 103.351562 216.316406 101.675781 216.152344 100.007812 C 215.988281 98.335938 215.742188 96.675781 215.414062 95.03125 C 215.085938 93.382812 214.679688 91.753906 214.191406 90.148438 C 213.703125 88.542969 213.140625 86.964844 212.496094 85.410156 C 211.855469 83.859375 211.136719 82.34375 210.347656 80.863281 C 209.554688 79.382812 208.691406 77.945312 207.757812 76.546875 C 206.828125 75.152344 205.828125 73.804688 204.761719 72.507812 C 203.699219 71.210938 202.570312 69.96875 201.382812 68.78125 C 200.195312 67.59375 198.953125 66.464844 197.65625 65.402344 C 196.359375 64.335938 195.011719 63.335938 193.613281 62.40625 C 192.21875 61.472656 190.78125 60.609375 189.300781 59.816406 C 187.820312 59.027344 186.304688 58.308594 184.75 57.667969 C 183.199219 57.023438 181.621094 56.460938 180.015625 55.972656 C 178.410156 55.484375 176.78125 55.078125 175.132812 54.75 C 173.488281 54.421875 171.828125 54.175781 170.15625 54.011719 C 168.488281 53.847656 166.8125 53.765625 165.132812 53.765625 C 163.453125 53.765625 161.777344 53.847656 160.109375 54.011719 C 158.4375 54.175781 156.777344 54.421875 155.132812 54.75 C 153.484375 55.078125 151.859375 55.484375 150.25 55.972656 C 148.644531 56.460938 147.066406 57.023438 145.515625 57.667969 C 143.964844 58.308594 142.445312 59.027344 140.964844 59.816406 C 139.484375 60.609375 138.046875 61.472656 136.652344 62.40625 C 135.253906 63.335938 133.90625 64.335938 132.609375 65.402344 C 131.3125 66.464844 130.070312 67.59375 128.882812 68.78125 C 127.695312 69.96875 126.570312 71.210938 125.503906 72.507812 C 124.4375 73.804688 123.4375 75.152344 122.507812 76.546875 C 121.574219 77.945312 120.710938 79.382812 119.921875 80.863281 C 119.128906 82.34375 118.410156 83.859375 117.769531 85.410156 C 117.125 86.964844 116.5625 88.542969 116.074219 90.148438 C 115.585938 91.753906 115.179688 93.382812 114.851562 95.03125 C 114.523438 96.675781 114.277344 98.335938 114.113281 100.007812 C 113.949219 101.675781 113.867188 103.351562 113.867188 105.03125 Z M 165.132812 190.476562 C 163.910156 190.46875 162.691406 190.5625 161.484375 190.765625 C 160.277344 190.964844 159.09375 191.269531 157.941406 191.671875 C 156.785156 192.074219 155.671875 192.574219 154.601562 193.171875 C 153.53125 193.765625 152.519531 194.449219 151.566406 195.21875 C 150.613281 195.984375 149.734375 196.832031 148.925781 197.75 C 148.121094 198.671875 147.398438 199.652344 146.757812 200.699219 C 146.121094 201.742188 145.574219 202.835938 145.125 203.972656 C 144.671875 205.109375 144.320312 206.277344 144.070312 207.476562 C 143.820312 208.675781 143.675781 209.886719 143.632812 211.109375 C 143.589844 212.332031 143.652344 213.550781 143.820312 214.765625 C 143.988281 215.976562 144.257812 217.167969 144.628906 218.332031 C 145 219.5 145.46875 220.625 146.03125 221.710938 C 146.597656 222.800781 147.25 223.828125 147.992188 224.800781 C 148.734375 225.777344 149.554688 226.679688 150.453125 227.511719 C 151.351562 228.34375 152.3125 229.09375 153.339844 229.761719 C 154.363281 230.429688 155.441406 231.003906 156.566406 231.488281 L 156.566406 246.117188 C 156.566406 246.679688 156.621094 247.234375 156.734375 247.785156 C 156.84375 248.335938 157.003906 248.871094 157.222656 249.390625 C 157.4375 249.910156 157.699219 250.402344 158.015625 250.871094 C 158.328125 251.335938 158.679688 251.769531 159.078125 252.167969 C 159.476562 252.5625 159.910156 252.917969 160.378906 253.230469 C 160.84375 253.542969 161.339844 253.804688 161.855469 254.019531 C 162.375 254.234375 162.910156 254.398438 163.464844 254.507812 C 164.015625 254.617188 164.570312 254.671875 165.132812 254.671875 C 165.695312 254.671875 166.25 254.617188 166.804688 254.507812 C 167.355469 254.398438 167.890625 254.234375 168.410156 254.019531 C 168.929688 253.804688 169.421875 253.542969 169.890625 253.230469 C 170.355469 252.917969 170.789062 252.5625 171.1875 252.167969 C 171.585938 251.769531 171.941406 251.335938 172.253906 250.871094 C 172.566406 250.402344 172.828125 249.910156 173.042969 249.390625 C 173.261719 248.871094 173.421875 248.335938 173.535156 247.785156 C 173.644531 247.234375 173.699219 246.679688 173.699219 246.117188 L 173.699219 231.398438 C 174.824219 230.914062 175.902344 230.339844 176.925781 229.671875 C 177.953125 229.003906 178.914062 228.253906 179.8125 227.421875 C 180.710938 226.589844 181.53125 225.683594 182.273438 224.710938 C 183.015625 223.738281 183.667969 222.707031 184.234375 221.621094 C 184.796875 220.535156 185.265625 219.410156 185.636719 218.242188 C 186.011719 217.078125 186.277344 215.886719 186.445312 214.671875 C 186.613281 213.460938 186.675781 212.242188 186.632812 211.019531 C 186.589844 209.796875 186.445312 208.585938 186.195312 207.386719 C 185.945312 206.1875 185.59375 205.019531 185.144531 203.882812 C 184.691406 202.742188 184.148438 201.652344 183.507812 200.605469 C 182.871094 199.5625 182.144531 198.582031 181.339844 197.660156 C 180.53125 196.738281 179.652344 195.894531 178.699219 195.125 C 177.746094 194.355469 176.734375 193.675781 175.664062 193.078125 C 174.59375 192.484375 173.480469 191.984375 172.328125 191.582031 C 171.171875 191.175781 169.988281 190.875 168.78125 190.671875 C 167.574219 190.472656 166.355469 190.375 165.132812 190.382812 Z M 165.132812 190.476562 "
    />
	</g>
</svg>
