<svg xmlns="http://www.w3.org/2000/svg" viewBox="0 0 225 225">
	<path
    fill="#2a6589"
    d="M 144.566406 208.742188 L 98.203125 208.742188 C 96.875 208.742188 95.910156 207.898438 95.789062 206.6875 L 93.253906 186.285156 C 89.75 184.957031 86.371094 183.386719 83.230469 181.699219 L 95.910156 168.898438 C 103.878906 172.402344 112.570312 174.210938 121.382812 174.210938 C 156.15625 174.210938 184.527344 145.839844 184.527344 111.070312 C 184.527344 76.175781 156.15625 47.804688 121.382812 47.804688 C 76.472656 47.804688 46.648438 93.078125 62.34375 133.644531 L 36.507812 159.484375 L 25.160156 139.804688 C 24.554688 138.714844 24.796875 137.386719 25.761719 136.664062 L 42.183594 124.230469 C 40.734375 115.535156 40.734375 106.601562 42.183594 97.789062 L 25.761719 85.351562 C 24.796875 84.628906 24.554688 83.300781 25.160156 82.214844 L 48.339844 42.007812 C 48.945312 41.042969 50.273438 40.5625 51.359375 41.042969 L 70.3125 49.011719 C 77.195312 43.335938 84.921875 38.871094 93.132812 35.730469 L 95.789062 15.449219 C 95.910156 14.242188 96.875 13.273438 98.082031 13.273438 L 144.566406 13.273438 C 145.773438 13.273438 146.859375 14.242188 146.980469 15.449219 L 149.515625 35.730469 C 157.84375 38.871094 165.453125 43.335938 172.332031 49.011719 L 191.289062 41.042969 C 192.496094 40.5625 193.703125 41.042969 194.308594 42.007812 L 217.609375 82.214844 C 218.210938 83.300781 217.96875 84.628906 217.003906 85.351562 L 200.585938 97.789062 C 202.035156 106.601562 202.035156 115.414062 200.585938 124.230469 L 217.003906 136.664062 C 217.96875 137.386719 218.210938 138.714844 217.609375 139.804688 L 194.308594 180.007812 C 193.703125 181.09375 192.496094 181.457031 191.289062 180.972656 L 172.332031 173.003906 C 165.570312 178.679688 157.84375 183.148438 149.515625 186.285156 L 146.980469 206.6875 C 146.859375 207.898438 145.773438 208.742188 144.566406 208.742188 Z M 144.566406 208.742188 "
  />
	<path
    fill="#2a6589"
    d="M 31.316406 218.640625 C 13.929688 218.640625 5.480469 197.515625 17.554688 185.320312 L 81.179688 121.691406 C 70.675781 88.25 101.824219 55.53125 136.597656 66.035156 C 138.40625 66.640625 138.769531 68.933594 137.441406 70.261719 L 114.261719 90.0625 C 101.703125 100.804688 110.757812 123.988281 129.472656 123.261719 C 134.300781 123.140625 138.648438 121.089844 141.667969 117.589844 L 161.589844 94.40625 C 162.796875 92.839844 165.210938 93.441406 165.691406 95.253906 C 176.316406 130.144531 142.511719 162.5 108.101562 149.945312 L 45.203125 212.847656 C 41.335938 216.710938 36.386719 218.640625 31.316406 218.640625 Z M 31.316406 218.640625 "
  />
</svg>
