<svg
  version="1.0"
  xmlns="http://www.w3.org/2000/svg"
  viewBox="0 0 300.000000 203.000000"
  preserveAspectRatio="xMidYMid meet"
>
    <g transform="translate(0.000000,203.000000) scale(0.100000,-0.100000)">
        <path
      fill="currentColor"
      d="M1371 2000 c-322 -45 -718 -216 -1017 -441 -121 -91 -196 -175 -245
            -274 -72 -148 -88 -283 -49 -424 53 -191 156 -309 417 -482 331 -219 734 -359
            1029 -359 209 0 545 97 803 232 118 62 323 197 414 274 184 153 275 406 223
            614 -24 97 -87 217 -151 287 -103 115 -321 265 -537 370 -308 152 -665 233
            -887 203z m297 -301 c75 -18 207 -84 273 -136 158 -124 269 -350 269 -548 0
            -142 -65 -320 -161 -441 -87 -109 -233 -203 -374 -239 -79 -20 -258 -20 -339
            1 -134 35 -272 123 -362 232 -104 127 -153 251 -161 412 -7 137 12 226 72 347
            92 181 240 304 440 364 71 21 269 25 343 8z m1019 -457 c7 -5 17 -30 22 -56 6
            -31 19 -58 39 -79 62 -65 64 -118 6 -177 -23 -25 -37 -50 -43 -83 -11 -60 -27
            -80 -52 -66 -15 8 -19 21 -19 63 0 44 -5 60 -30 91 -21 27 -30 49 -30 75 0 25
            9 50 30 78 25 34 30 52 30 96 0 49 6 62 30 65 3 0 11 -3 17 -7z m-2328 -37
            c43 -21 50 -55 47 -209 -2 -138 -3 -139 -30 -162 -39 -34 -85 -32 -121 6 -29
            31 -29 31 -29 158 0 153 5 177 47 202 38 24 49 24 86 5z"
    />
        <path
      fill="currentColor"
      d="M1356 1492 c-3 -5 -6 -97 -7 -205 0 -109 -4 -197 -8 -197 -3 0 -40
            34 -81 76 -88 88 -105 100 -126 83 -26 -22 -14 -44 76 -138 l90 -94 -90 -94
            c-68 -70 -91 -99 -88 -116 2 -15 11 -23 28 -25 20 -2 42 14 105 78 44 44 82
            80 86 80 3 0 7 -89 8 -197 1 -108 4 -200 7 -205 15 -24 54 1 159 103 76 74
            115 119 115 133 0 14 -38 59 -105 126 -58 58 -105 109 -105 115 0 6 47 57 105
            115 60 60 105 113 105 124 0 26 -223 246 -249 246 -11 0 -22 -4 -25 -8z m127
            -294 c-32 -32 -59 -58 -60 -58 -2 0 -3 53 -3 117 l0 117 60 -59 60 -59 -57
            -58z m14 -378 c18 -19 33 -40 33 -45 0 -6 -25 -35 -55 -65 l-55 -54 0 118 0
            119 23 -19 c12 -10 37 -35 54 -54z"
    />
        <path
      fill="currentColor"
      d="M1758 1276 c-23 -17 -23 -31 1 -64 48 -69 65 -116 65 -187 1 -79 -12
            -118 -61 -188 -36 -51 -37 -69 -4 -86 17 -9 25 -5 55 32 99 121 112 297 32
            428 -39 65 -64 83 -88 65z"
    />
        <path
      fill="currentColor"
      d="M1662 1188 c-17 -17 -15 -42 7 -62 10 -9 24 -37 31 -62 15 -51 3
            -108 -32 -157 -22 -31 -21 -55 5 -71 16 -9 24 -5 52 27 69 79 73 219 8 304
            -26 34 -51 41 -71 21z"
    />
        <path
      fill="currentColor"
      d="M1580 1105 c-10 -12 -10 -24 -1 -56 10 -34 9 -44 -5 -69 -15 -24 -15
            -31 -5 -44 35 -42 82 -1 89 77 3 42 0 57 -18 80 -24 31 -42 34 -60 12z"
    />
    </g>
</svg>
