<svg xmlns="http://www.w3.org/2000/svg" width="24" zoomAndPan="magnify" viewBox="0 0 360 360" height="24"><defs
  ><clipPath id="7305fe0840"><path
        d="M 6.875 6.875 L 353.125 6.875 L 353.125 353.125 L 6.875 353.125 Z M 6.875 6.875 "
        clip-rule="nonzero"
      /></clipPath><clipPath id="f93d0aab03"><path
        d="M 180 6.875 C 84.386719 6.875 6.875 84.386719 6.875 180 C 6.875 275.613281 84.386719 353.125 180 353.125 C 275.613281 353.125 353.125 275.613281 353.125 180 C 353.125 84.386719 275.613281 6.875 180 6.875 Z M 180 6.875 "
        clip-rule="nonzero"
      /></clipPath><clipPath id="60d7e9409a"><path
        d="M 35.25 81 L 278 81 L 278 324 L 35.25 324 Z M 35.25 81 "
        clip-rule="nonzero"
      /></clipPath><clipPath id="30dd2a84d3"><path
        d="M 81 35.25 L 324 35.25 L 324 278 L 81 278 Z M 81 35.25 "
        clip-rule="nonzero"
      /></clipPath></defs><g clip-path="url(#7305fe0840)"><g clip-path="url(#f93d0aab03)"><path
        fill="#000000"
        d="M 6.875 6.875 L 353.125 6.875 L 353.125 353.125 L 6.875 353.125 Z M 6.875 6.875 "
        fill-opacity="1"
        fill-rule="nonzero"
      /></g></g><g clip-path="url(#60d7e9409a)"><path
      fill="#a6a6a6"
      d="M 197.5 216.417969 L 197.5 237.425781 C 197.5 243.773438 192.382812 248.917969 186.003906 248.917969 L 186.675781 248.917969 L 186.675781 261.535156 C 186.675781 265.527344 183.480469 268.757812 179.488281 268.757812 C 175.492188 268.757812 172.265625 265.527344 172.265625 261.535156 L 172.265625 248.917969 L 172.9375 248.917969 C 166.605469 248.917969 161.441406 243.773438 161.441406 237.425781 L 161.441406 216.417969 C 147.75 216.417969 136.660156 205.3125 136.660156 191.621094 L 136.660156 156.933594 L 134.382812 156.933594 C 128.910156 156.933594 124.464844 152.460938 124.464844 146.984375 C 124.464844 144.242188 125.589844 141.761719 127.398438 140 C 128.113281 139.28125 128.910156 138.6875 129.785156 138.25 L 73.25 81.71875 C 49.605469 107.386719 35.117188 141.761719 35.117188 179.457031 C 35.117188 259.179688 99.761719 323.824219 179.488281 323.824219 C 217.179688 323.824219 251.554688 309.335938 277.222656 285.644531 L 206.3125 214.78125 C 203.597656 215.855469 200.601562 216.417969 197.5 216.417969 "
      fill-opacity="1"
      fill-rule="nonzero"
    /></g><g clip-path="url(#30dd2a84d3)"><path
      fill="#a6a6a6"
      d="M 154.457031 90.1875 C 157.011719 90.1875 159.335938 91.214844 160.957031 92.898438 C 162.644531 94.570312 163.671875 96.890625 163.671875 99.402344 L 163.671875 137.097656 L 195.269531 137.097656 L 195.269531 99.402344 C 195.269531 94.335938 199.417969 90.1875 204.53125 90.1875 C 207.042969 90.1875 209.351562 91.214844 211.035156 92.898438 C 212.707031 94.570312 213.75 96.890625 213.75 99.402344 L 213.75 137.097656 L 224.558594 137.097656 C 230.03125 137.097656 234.507812 141.527344 234.507812 146.984375 C 234.507812 149.746094 233.386719 152.226562 231.589844 154.019531 C 229.796875 155.8125 227.316406 156.933594 224.558594 156.933594 L 222.328125 156.933594 L 222.328125 191.621094 C 222.328125 197.78125 220.097656 203.488281 216.292969 207.792969 L 285.691406 277.175781 C 309.367188 251.476562 323.824219 217.132812 323.824219 179.457031 C 323.824219 99.730469 259.210938 35.117188 179.488281 35.117188 C 141.808594 35.117188 107.433594 49.605469 81.71875 73.25 L 145.191406 136.722656 L 145.191406 99.402344 C 145.191406 94.335938 149.355469 90.1875 154.457031 90.1875 "
      fill-opacity="1"
      fill-rule="nonzero"
    /></g><path
    fill="#a6a6a6"
    d="M 285.816406 277.300781 L 285.691406 277.175781 C 284.335938 278.660156 282.933594 280.109375 281.542969 281.542969 L 285.816406 277.300781 "
    fill-opacity="1"
    fill-rule="nonzero"
  /><path
    fill="#a6a6a6"
    d="M 277.347656 285.769531 L 281.542969 281.542969 C 280.140625 282.933594 278.707031 284.335938 277.222656 285.644531 L 277.347656 285.769531 "
    fill-opacity="1"
    fill-rule="nonzero"
  /><path
    fill="#a6a6a6"
    d="M 134.382812 137.097656 C 132.730469 137.097656 131.1875 137.488281 129.785156 138.25 L 206.3125 214.78125 C 209.632812 213.546875 212.582031 211.582031 215.058594 209.148438 C 215.511719 208.710938 215.902344 208.277344 216.292969 207.792969 L 165.386719 156.933594 L 145.550781 137.097656 L 145.191406 136.722656 L 145.191406 137.097656 L 134.382812 137.097656 "
    fill-opacity="1"
    fill-rule="nonzero"
  /></svg>
