<svg
  xmlns="http://www.w3.org/2000/svg"
  xmlns:xlink="http://www.w3.org/1999/xlink"
  width="100"
  zoomAndPan="magnify"
  viewBox="0 0 75 74.999997"
  height="100"
  preserveAspectRatio="xMidYMid meet"
  version="1.0"
>
  <defs>
    <clipPath id="id1">
      <path d="M 0 3.125 L 75 3.125 L 75 72.125 L 0 72.125 Z M 0 3.125 " clip-rule="nonzero" />
    </clipPath>
  </defs>
  <g clip-path="url(#id1)">
    <path
      fill="currentColor"
      d="M 13.929688 28.597656 L 13.929688 31.597656 C 13.464844 31.601562 13.019531 31.699219 12.59375 31.878906 C 12.167969 32.0625 11.792969 32.320312 11.464844 32.648438 C 11.140625 32.980469 10.890625 33.359375 10.714844 33.789062 C 10.539062 34.21875 10.449219 34.664062 10.449219 35.128906 C 10.449219 35.59375 10.539062 36.039062 10.714844 36.46875 C 10.890625 36.898438 11.140625 37.277344 11.464844 37.609375 C 11.792969 37.9375 12.167969 38.195312 12.59375 38.378906 C 13.019531 38.558594 13.464844 38.652344 13.929688 38.660156 L 13.929688 41.660156 C 5.304688 41.390625 5.320312 28.867188 13.929688 28.597656 Z M 13.929688 48.589844 L 13.929688 45.589844 C 0.101562 45.097656 0.101562 25.175781 13.929688 24.679688 L 13.929688 21.679688 C -3.886719 22.386719 -3.902344 47.886719 13.929688 48.589844 Z M 61.960938 28.609375 L 61.960938 31.609375 C 62.425781 31.617188 62.875 31.710938 63.300781 31.890625 C 63.730469 32.074219 64.105469 32.328125 64.433594 32.660156 C 64.757812 32.992188 65.011719 33.371094 65.1875 33.800781 C 65.363281 34.230469 65.453125 34.679688 65.453125 35.144531 C 65.453125 35.609375 65.363281 36.054688 65.1875 36.484375 C 65.011719 36.917969 64.757812 37.296875 64.433594 37.628906 C 64.105469 37.957031 63.730469 38.214844 63.300781 38.394531 C 62.875 38.578125 62.425781 38.671875 61.960938 38.675781 L 61.960938 41.675781 C 62.386719 41.671875 62.808594 41.628906 63.226562 41.539062 C 63.644531 41.453125 64.050781 41.328125 64.445312 41.160156 C 64.835938 40.996094 65.210938 40.792969 65.5625 40.554688 C 65.914062 40.316406 66.242188 40.042969 66.542969 39.742188 C 66.84375 39.4375 67.109375 39.109375 67.347656 38.753906 C 67.582031 38.398438 67.78125 38.023438 67.941406 37.628906 C 68.105469 37.234375 68.226562 36.828125 68.308594 36.410156 C 68.394531 35.992188 68.433594 35.570312 68.433594 35.144531 C 68.433594 34.71875 68.394531 34.292969 68.308594 33.875 C 68.226562 33.457031 68.105469 33.050781 67.941406 32.65625 C 67.78125 32.261719 67.582031 31.886719 67.347656 31.53125 C 67.109375 31.175781 66.84375 30.847656 66.542969 30.546875 C 66.242188 30.242188 65.914062 29.972656 65.5625 29.734375 C 65.210938 29.492188 64.835938 29.292969 64.445312 29.125 C 64.050781 28.960938 63.644531 28.832031 63.226562 28.746094 C 62.808594 28.660156 62.386719 28.613281 61.960938 28.609375 Z M 37.878906 66.605469 C 37.589844 66.601562 37.304688 66.570312 37.023438 66.511719 C 36.738281 66.453125 36.464844 66.363281 36.199219 66.253906 C 35.933594 66.140625 35.683594 66 35.445312 65.839844 C 35.207031 65.675781 34.984375 65.492188 34.78125 65.289062 C 34.578125 65.082031 34.398438 64.859375 34.238281 64.617188 C 34.082031 64.378906 33.945312 64.125 33.835938 63.855469 C 33.726562 63.589844 33.644531 63.3125 33.589844 63.03125 C 33.535156 62.75 33.503906 62.460938 33.503906 62.171875 C 33.503906 61.886719 33.535156 61.597656 33.589844 61.316406 C 33.644531 61.03125 33.726562 60.757812 33.835938 60.492188 C 33.945312 60.222656 34.082031 59.96875 34.238281 59.730469 C 34.398438 59.488281 34.578125 59.265625 34.78125 59.058594 C 34.984375 58.855469 35.207031 58.671875 35.445312 58.507812 C 35.683594 58.347656 35.933594 58.207031 36.199219 58.09375 C 36.464844 57.980469 36.738281 57.894531 37.023438 57.835938 C 37.304688 57.777344 37.589844 57.746094 37.878906 57.742188 C 38.167969 57.746094 38.453125 57.777344 38.734375 57.835938 C 39.015625 57.894531 39.289062 57.980469 39.554688 58.09375 C 39.820312 58.207031 40.074219 58.347656 40.3125 58.507812 C 40.550781 58.671875 40.769531 58.855469 40.972656 59.058594 C 41.175781 59.265625 41.355469 59.488281 41.515625 59.730469 C 41.675781 59.96875 41.808594 60.222656 41.917969 60.492188 C 42.027344 60.757812 42.113281 61.03125 42.167969 61.316406 C 42.222656 61.597656 42.25 61.886719 42.25 62.171875 C 42.25 62.460938 42.222656 62.75 42.167969 63.03125 C 42.113281 63.3125 42.027344 63.589844 41.917969 63.855469 C 41.808594 64.125 41.675781 64.378906 41.515625 64.617188 C 41.355469 64.859375 41.175781 65.082031 40.972656 65.289062 C 40.769531 65.492188 40.550781 65.675781 40.3125 65.839844 C 40.074219 66 39.820312 66.140625 39.554688 66.253906 C 39.289062 66.363281 39.015625 66.453125 38.734375 66.511719 C 38.453125 66.570312 38.167969 66.601562 37.878906 66.605469 Z M 37.878906 60.742188 C 37.691406 60.746094 37.511719 60.785156 37.34375 60.859375 C 37.171875 60.9375 37.019531 61.039062 36.890625 61.175781 C 36.761719 61.308594 36.660156 61.460938 36.589844 61.632812 C 36.519531 61.808594 36.484375 61.988281 36.484375 62.171875 C 36.484375 62.359375 36.519531 62.539062 36.589844 62.714844 C 36.660156 62.886719 36.761719 63.039062 36.890625 63.171875 C 37.019531 63.308594 37.171875 63.410156 37.34375 63.484375 C 37.511719 63.5625 37.691406 63.601562 37.878906 63.605469 C 38.066406 63.601562 38.242188 63.5625 38.414062 63.484375 C 38.585938 63.410156 38.734375 63.308594 38.867188 63.171875 C 38.996094 63.039062 39.097656 62.886719 39.167969 62.714844 C 39.238281 62.539062 39.273438 62.359375 39.273438 62.171875 C 39.273438 61.988281 39.238281 61.808594 39.167969 61.632812 C 39.097656 61.460938 38.996094 61.308594 38.867188 61.175781 C 38.734375 61.039062 38.585938 60.9375 38.414062 60.859375 C 38.242188 60.785156 38.066406 60.746094 37.878906 60.742188 Z M 61.960938 21.679688 L 61.960938 24.679688 C 75.804688 25.175781 75.804688 45.109375 61.960938 45.589844 L 61.960938 48.589844 C 79.808594 47.886719 79.792969 22.386719 61.960938 21.679688 Z M 58.871094 9.125 L 58.871094 66.125 C 58.875 66.519531 58.835938 66.910156 58.757812 67.296875 C 58.679688 67.683594 58.566406 68.058594 58.417969 68.421875 C 58.265625 68.785156 58.082031 69.132812 57.863281 69.460938 C 57.644531 69.789062 57.394531 70.089844 57.117188 70.371094 C 56.839844 70.648438 56.535156 70.898438 56.207031 71.117188 C 55.878906 71.335938 55.535156 71.519531 55.171875 71.667969 C 54.804688 71.820312 54.429688 71.933594 54.042969 72.011719 C 53.660156 72.085938 53.269531 72.125 52.875 72.125 L 22.882812 72.125 C 22.488281 72.125 22.097656 72.085938 21.710938 72.007812 C 21.328125 71.933594 20.953125 71.816406 20.585938 71.667969 C 20.222656 71.515625 19.878906 71.332031 19.550781 71.113281 C 19.222656 70.894531 18.921875 70.644531 18.644531 70.367188 C 18.363281 70.089844 18.117188 69.785156 17.898438 69.457031 C 17.679688 69.128906 17.492188 68.785156 17.34375 68.421875 C 17.191406 68.058594 17.078125 67.683594 17 67.296875 C 16.921875 66.910156 16.882812 66.519531 16.882812 66.125 L 16.882812 9.125 C 16.882812 8.730469 16.921875 8.34375 17 7.957031 C 17.078125 7.570312 17.191406 7.195312 17.34375 6.832031 C 17.492188 6.46875 17.679688 6.121094 17.898438 5.792969 C 18.117188 5.46875 18.363281 5.164062 18.644531 4.886719 C 18.921875 4.605469 19.222656 4.359375 19.550781 4.140625 C 19.878906 3.921875 20.222656 3.734375 20.585938 3.585938 C 20.953125 3.433594 21.328125 3.320312 21.710938 3.242188 C 22.097656 3.164062 22.488281 3.125 22.882812 3.125 L 52.875 3.125 C 53.269531 3.125 53.660156 3.164062 54.042969 3.242188 C 54.429688 3.316406 54.804688 3.433594 55.171875 3.582031 C 55.535156 3.734375 55.878906 3.917969 56.207031 4.136719 C 56.535156 4.355469 56.839844 4.605469 57.117188 4.882812 C 57.394531 5.160156 57.644531 5.464844 57.863281 5.792969 C 58.082031 6.121094 58.265625 6.464844 58.417969 6.828125 C 58.566406 7.195312 58.679688 7.570312 58.757812 7.957031 C 58.835938 8.34375 58.875 8.730469 58.871094 9.125 Z M 29.988281 6.125 C 30.234375 6.652344 30.601562 7.070312 31.089844 7.382812 C 31.578125 7.695312 32.109375 7.851562 32.691406 7.851562 L 43.082031 7.851562 C 43.660156 7.851562 44.195312 7.695312 44.683594 7.382812 C 45.171875 7.070312 45.539062 6.652344 45.78125 6.125 Z M 55.875 9.125 C 55.875 8.726562 55.796875 8.34375 55.644531 7.976562 C 55.492188 7.609375 55.277344 7.285156 54.996094 7.003906 C 54.714844 6.722656 54.390625 6.507812 54.023438 6.355469 C 53.65625 6.203125 53.273438 6.125 52.875 6.125 L 48.945312 6.125 C 48.796875 6.792969 48.542969 7.417969 48.183594 8 C 47.820312 8.582031 47.375 9.089844 46.84375 9.519531 C 46.308594 9.945312 45.722656 10.277344 45.074219 10.503906 C 44.429688 10.734375 43.765625 10.847656 43.082031 10.851562 L 32.691406 10.851562 C 32.003906 10.847656 31.339844 10.734375 30.695312 10.503906 C 30.050781 10.277344 29.460938 9.945312 28.929688 9.519531 C 28.394531 9.089844 27.949219 8.582031 27.589844 8 C 27.226562 7.417969 26.972656 6.792969 26.824219 6.125 L 22.882812 6.125 C 22.484375 6.128906 22.101562 6.203125 21.734375 6.355469 C 21.367188 6.507812 21.042969 6.726562 20.765625 7.007812 C 20.484375 7.289062 20.265625 7.613281 20.113281 7.980469 C 19.960938 8.347656 19.882812 8.730469 19.882812 9.125 L 19.882812 66.125 C 19.882812 66.523438 19.960938 66.90625 20.113281 67.273438 C 20.265625 67.640625 20.484375 67.964844 20.765625 68.246094 C 21.042969 68.527344 21.367188 68.742188 21.734375 68.894531 C 22.101562 69.046875 22.484375 69.125 22.882812 69.125 L 52.875 69.125 C 53.273438 69.125 53.65625 69.050781 54.023438 68.898438 C 54.390625 68.746094 54.714844 68.527344 54.996094 68.246094 C 55.277344 67.964844 55.492188 67.640625 55.644531 67.273438 C 55.796875 66.90625 55.875 66.523438 55.875 66.125 Z M 35.777344 40.101562 L 33.035156 41.300781 C 33.25 41.777344 33.527344 42.210938 33.867188 42.605469 C 34.210938 43 34.601562 43.339844 35.039062 43.621094 C 35.480469 43.902344 35.949219 44.113281 36.449219 44.257812 C 36.953125 44.402344 37.464844 44.472656 37.984375 44.46875 C 38.507812 44.464844 39.015625 44.386719 39.515625 44.234375 C 40.015625 44.082031 40.480469 43.863281 40.917969 43.574219 C 41.351562 43.289062 41.738281 42.945312 42.074219 42.542969 C 42.40625 42.144531 42.679688 41.703125 42.886719 41.226562 L 40.128906 40.070312 C 39.9375 40.5 39.644531 40.839844 39.253906 41.097656 C 38.863281 41.355469 38.429688 41.484375 37.960938 41.488281 C 37.496094 41.488281 37.0625 41.367188 36.667969 41.113281 C 36.273438 40.863281 35.976562 40.527344 35.777344 40.101562 Z M 44.898438 31.609375 C 44.597656 22.355469 31.175781 22.355469 30.875 31.609375 L 30.875 35.644531 L 28.65625 35.644531 L 28.65625 38.644531 L 47.25 38.644531 L 47.25 35.644531 L 44.898438 35.644531 Z M 44.898438 31.609375 "
      fill-opacity="1"
      fill-rule="nonzero"
    />
  </g>
</svg>
